<?xml version="1.0" encoding="UTF-8"?>
<!DOCTYPE svg PUBLIC "-//W3C//DTD SVG 1.1//EN" "http://www.w3.org/Graphics/SVG/1.1/DTD/svg11.dtd">
<!-- Creator: CorelDRAW -->
<svg xmlns="http://www.w3.org/2000/svg" xml:space="preserve" width="41.9588mm" height="41.9588mm" version="1.1" style="shape-rendering:geometricPrecision; text-rendering:geometricPrecision; image-rendering:optimizeQuality; fill-rule:evenodd; clip-rule:evenodd"
viewBox="0 0 2023.47 2023.47"
 xmlns:xlink="http://www.w3.org/1999/xlink"
 xmlns:xodm="http://www.corel.com/coreldraw/odm/2003">
 <defs>
  <style type="text/css">
   <![CDATA[
    .fil2 {fill:none}
    .fil1 {fill:#040404;fill-rule:nonzero}
    .fil0 {fill:#FEFEFE;fill-rule:nonzero}
   ]]>
  </style>
 </defs>
 <g id="Capa_x0020_1">
  <metadata id="CorelCorpID_0Corel-Layer"/>
  <polygon class="fil0" points="873.35,168.62 1141.48,168.62 1279.89,203.23 1418.25,263.78 1539.36,341.63 1643.17,436.75 1729.67,549.2 1807.53,696.26 1850.74,843.28 1868.08,964.39 1868.08,1085.5 1842.13,1241.21 1790.22,1379.57 1729.67,1492.03 1660.47,1578.54 1608.56,1639.09 1487.45,1734.25 1400.96,1786.15 1271.24,1838.05 1124.18,1872.62 899.26,1872.62 769.55,1846.66 639.78,1794.76 518.68,1725.55 432.21,1656.35 354.36,1578.54 267.86,1457.43 198.65,1310.37 164.05,1172 155.4,1111.45 155.4,921.13 181.35,782.73 224.6,670.27 293.81,540.55 363.01,454.04 466.78,350.25 596.54,263.74 743.59,203.23 "/>
  <path class="fil1" d="M873.35 168.62l268.12 0 138.42 34.6 138.41 60.55 121.11 77.86 103.8 95.16 86.51 112.46 77.85 147.06 43.25 147.06 17.3 121.11 0 121.11 -25.95 155.71 -51.9 138.41 -60.55 112.46 -69.2 86.51 -51.9 60.55 -121.11 95.16 -86.51 51.9 -129.76 51.9 -147.06 34.6 -224.91 0 -129.75 -25.95 -129.76 -51.9 -121.11 -69.2 -86.51 -69.2 -77.85 -77.86 -86.51 -121.11 -69.2 -147.06 -34.6 -138.41 -8.65 -60.55 0 -190.31 25.95 -138.41 43.25 -112.46 69.2 -129.75 69.2 -86.51 103.8 -103.8 129.75 -86.51 147.06 -60.56 129.75 -34.6 0.04 -0.01zm34.6 60.55l-155.71 34.6 -164.36 77.86 -103.8 77.86 -95.15 95.15 -77.86 121.11 -43.25 86.51 -34.6 103.8 -17.3 95.15 0 190.31 25.95 129.75 43.25 112.46 69.2 121.11 69.2 86.51 77.86 77.86 129.75 86.51 147.06 60.55 112.46 25.95 224.87 0 147.06 -34.6 138.41 -60.55 103.8 -69.2 103.8 -95.16 86.51 -121.11 60.55 -121.11 34.6 -112.46 17.3 -103.8 0 -121.11 -17.3 -121.11 -43.25 -138.41 -77.86 -147.06 -103.8 -121.11 -121.11 -95.15 -129.75 -69.2 -147.06 -43.25 -51.91 -8.65 -207.57 0 -0.01 -0.02z"/>
  <polygon class="fil1" points="959.82,575.15 1063.62,575.15 1210.68,601.11 1349.05,653.01 1470.16,730.86 1556.67,808.72 1548.01,843.28 1513.41,851.93 1392.3,756.82 1253.93,687.61 1124.18,653.01 977.11,644.37 847.4,661.66 743.59,696.26 639.78,748.17 527.33,834.67 510.02,851.97 466.81,843.32 475.43,791.42 570.58,713.56 691.69,644.37 778.2,609.75 882,583.81 "/>
  <polygon class="fil1" points="968.47,756.82 1046.32,756.82 1158.78,774.12 1271.24,817.37 1366.34,877.89 1426.9,929.79 1418.25,973.04 1392.3,981.69 1288.53,903.84 1202.03,860.63 1106.87,834.67 985.77,826.02 873.31,843.32 760.89,886.58 683.04,938.44 631.13,981.69 596.54,973.04 587.88,938.44 648.44,877.92 760.89,808.72 856.01,774.12 "/>
  <polygon class="fil1" points="994.42,921.13 1132.82,938.44 1253.93,998.99 1305.84,1042.24 1314.49,1076.84 1297.19,1094.15 1253.93,1085.5 1176.08,1033.6 1089.58,998.99 933.87,998.99 838.75,1033.6 752.24,1094.15 708.99,1085.5 717.64,1042.24 795.5,981.69 882,938.44 "/>
  <polygon class="fil1" points="977.11,1241.16 1037.67,1241.16 1089.58,1267.12 1115.53,1301.72 1124.18,1370.93 1098.22,1422.83 1054.97,1457.43 994.42,1466.08 933.9,1440.13 899.3,1379.57 899.3,1319.06 925.21,1275.81 951.16,1249.86 "/>
  <polygon class="fil1" points="951.16,1094.15 1072.27,1094.15 1176.08,1146.05 1193.38,1163.35 1184.73,1206.61 1158.78,1215.26 1089.58,1172 1063.62,1163.35 951.16,1163.35 864.66,1215.26 830.06,1206.61 821.44,1172 873.31,1128.75 "/>
  <polygon class="fil0" points="985.77,1301.72 1037.67,1301.72 1063.62,1336.32 1054.97,1379.57 1020.37,1405.53 977.11,1396.87 959.82,1370.93 959.82,1327.67 "/>
  <rect class="fil2" width="2023.47" height="2023.47"/>
 </g>
</svg>
