<?xml version="1.0" encoding="UTF-8"?>
<!DOCTYPE svg PUBLIC "-//W3C//DTD SVG 1.1//EN" "http://www.w3.org/Graphics/SVG/1.1/DTD/svg11.dtd">
<!-- Creator: CorelDRAW -->
<svg xmlns="http://www.w3.org/2000/svg" xml:space="preserve" width="41.9588mm" height="41.9588mm" version="1.1" style="shape-rendering:geometricPrecision; text-rendering:geometricPrecision; image-rendering:optimizeQuality; fill-rule:evenodd; clip-rule:evenodd"
viewBox="0 0 1511.27 1511.27"
 xmlns:xlink="http://www.w3.org/1999/xlink"
 xmlns:xodm="http://www.corel.com/coreldraw/odm/2003">
 <defs>
  <style type="text/css">
   <![CDATA[
    .fil2 {fill:none}
    .fil0 {fill:#040404;fill-rule:nonzero}
    .fil1 {fill:#FEFEFE;fill-rule:nonzero}
   ]]>
  </style>
 </defs>
 <g id="Capa_x0020_1">
  <metadata id="CorelCorpID_0Corel-Layer"/>
  <polygon class="fil0" points="621.3,100.75 869.5,100.75 933.15,132.6 977.71,177.1 1022.28,228.03 1028.64,234.38 1085.92,247.17 1130.48,285.31 1149.55,336.23 1219.55,845.48 1219.55,928.19 1194.12,960.04 1175.05,966.4 1041.35,966.4 1041.35,1386.51 1022.28,1418.3 1003.2,1431.01 493.96,1431.01 462.17,1405.59 455.75,1392.87 449.39,1322.81 449.39,972.76 315.75,966.4 283.9,940.91 271.19,915.48 277.54,832.7 347.54,323.52 366.68,285.31 411.25,247.17 468.53,234.38 538.53,158.03 583.09,119.82 "/>
  <polygon class="fil1" points="665.8,654.5 723.09,654.5 723.09,1061.89 665.8,1061.89 659.45,858.19 634.02,858.19 634.02,1080.97 665.8,1100.03 723.09,1106.39 723.09,1297.38 493.96,1297.38 493.96,864.55 519.45,749.99 621.3,743.63 634.02,788.14 665.8,794.56 "/>
  <polygon class="fil1" points="767.65,743.63 812.22,749.99 818.58,1150.96 850.43,1138.25 856.79,749.99 964.99,743.63 977.71,756.34 996.78,832.7 1003.2,883.62 1003.2,1297.38 856.79,1297.38 850.43,1208.24 818.58,1214.6 812.22,1297.38 761.29,1297.38 761.29,749.99 "/>
  <polygon class="fil1" points="443.03,278.95 468.53,285.31 557.59,450.8 640.37,597.22 640.37,609.93 519.45,609.93 493.96,546.29 455.75,438.08 430.32,431.73 436.68,482.65 481.24,616.28 474.89,641.78 468.53,648.14 468.53,705.42 481.24,724.49 474.89,781.78 455.75,832.7 322.11,832.7 334.83,718.13 385.75,342.59 404.88,304.45 423.96,285.31 "/>
  <polygon class="fil1" points="1028.64,278.95 1066.84,285.31 1098.63,317.16 1111.41,355.37 1175.05,826.34 1168.69,832.7 1034.99,832.7 1009.56,730.92 1028.64,699.06 1028.64,654.5 1015.92,635.42 1028.64,578.14 1066.84,463.58 1066.84,431.73 1041.35,431.73 977.71,609.93 856.79,609.93 907.71,508.08 1015.92,304.45 "/>
  <polygon class="fil1" points="595.81,158.03 608.52,170.75 767.65,597.22 767.65,609.93 691.3,609.93 627.66,501.73 538.53,336.23 506.68,278.95 513.03,240.74 "/>
  <polygon class="fil1" points="888.57,164.39 920.43,177.1 990.42,253.53 984.06,291.73 875.86,495.37 824.94,584.5 812.22,603.57 786.73,546.29 774.01,514.5 780.37,457.22 882.22,183.52 "/>
  <polygon class="fil1" points="659.45,138.96 837.65,138.96 850.43,145.32 844.07,183.52 824.94,234.38 678.59,240.81 659.45,208.96 646.73,170.75 646.73,145.32 "/>
  <polygon class="fil1" points="761.29,654.5 984.06,654.5 996.78,686.35 977.71,705.42 761.29,705.42 "/>
  <polygon class="fil1" points="493.96,1341.94 723.09,1341.94 723.09,1386.45 716.73,1392.87 506.68,1392.87 493.96,1373.73 "/>
  <polygon class="fil1" points="691.3,278.95 805.86,278.95 786.79,336.23 754.94,425.37 742.23,431.73 691.3,291.73 "/>
  <polygon class="fil1" points="1041.35,870.91 1175.05,870.91 1181.41,877.27 1181.41,915.48 1162.27,928.19 1047.7,928.19 1041.35,921.83 "/>
  <polygon class="fil1" points="315.75,870.91 449.39,870.91 455.75,877.27 449.39,928.19 328.47,928.19 315.75,915.48 "/>
  <polygon class="fil1" points="856.79,1341.94 1003.14,1341.94 996.78,1386.45 984.06,1392.87 850.43,1392.87 "/>
  <polygon class="fil1" points="513.03,654.5 627.66,654.5 627.66,705.42 513.03,705.42 500.31,692.71 506.68,660.85 "/>
  <polygon class="fil1" points="761.29,1341.94 812.22,1341.94 812.22,1380.09 793.15,1392.87 761.29,1386.51 "/>
 </g>
 <g id="Capa_x0020_1_7">
  <metadata id="CorelCorpID_1Corel-Layer"/>
  <rect class="fil2" width="1511.27" height="1511.27"/>
 </g>
</svg>
