<?xml version="1.0" encoding="UTF-8"?>
<!DOCTYPE svg PUBLIC "-//W3C//DTD SVG 1.1//EN" "http://www.w3.org/Graphics/SVG/1.1/DTD/svg11.dtd">
<!-- Creator: CorelDRAW -->
<svg xmlns="http://www.w3.org/2000/svg" xml:space="preserve" width="41.9588mm" height="41.9588mm" version="1.1" style="shape-rendering:geometricPrecision; text-rendering:geometricPrecision; image-rendering:optimizeQuality; fill-rule:evenodd; clip-rule:evenodd"
viewBox="0 0 15180.74 15180.74"
 xmlns:xlink="http://www.w3.org/1999/xlink"
 xmlns:xodm="http://www.corel.com/coreldraw/odm/2003">
 <defs>
  <style type="text/css">
   <![CDATA[
    .fil2 {fill:none}
    .fil1 {fill:#040404;fill-rule:nonzero}
    .fil0 {fill:#FEFEFE;fill-rule:nonzero}
   ]]>
  </style>
 </defs>
 <g id="Capa_x0020_1">
  <metadata id="CorelCorpID_0Corel-Layer"/>
  <polygon class="fil0" points="13731.22,6999.62 14080.32,6999.62 13381.79,9153.13 12741.73,11015.65 12334.23,11598.04 11984.81,11889.07 11402.81,11772.57 10878.85,11830.61 10704.32,12005.5 10587.86,12238.1 4592.78,12238.1 4418.28,11889.07 4127.25,11772.57 3370.32,11830.61 2904.83,11365.08 2613.83,10783.05 1391.38,7116.09 1391.38,7057.65 2264.4,7057.65 4127.25,7232.59 6047.83,7523.55 6629.82,7581.61 8550.81,7581.61 10355.29,7349.05 11461.24,7174.12 "/>
  <path class="fil1" d="M2380.87 1644.6l582.03 58.07 407.5 232.93 291 407.5 116.46 582.03 -116.46 174.53 -582.03 0 -174.53 -524 -116.5 -116.5 -465.53 0 -174.57 174.57 -58.03 523.96 58.03 1396.99 58.07 58.39 0 407.5 931.46 0 0 -698.46 232.93 0 0 1396.99 -1164.02 0 58.03 349.43 1862.52 174.53 2328.44 349.43 873.03 58.07 1047.88 0 2037.41 -291 1164.06 -174.53 2037.41 -174.53 931.46 0 232.96 232.93 0 465.53 -232.96 232.93 -174.53 58.07 -1105.95 3259.5 -349.07 989.49 -407.5 524 -407.5 349.07 -116.5 582.03 -116.46 291 232.93 58.03 58.03 407.46 -116.5 174.57 -174.53 58.03 -523.96 0 -232.96 -174.53 -58.03 -756.56 -349.43 -232.96 -6169.94 0 -232.93 174.57 -174.57 0 0 640.42 -174.53 290.96 -116.5 58.07 -523.96 0 -291 -291 58.03 -291 232.96 -116.5 -174.53 -582.03 0 -465.49 -291 -291 -349.1 -524 -349.43 -931.46 -1047.56 -3143 -523.96 -174.53 -174.53 -232.96 0 -349.07 232.93 -291 582.03 0 0 -1455.02 116.5 0 0 -1920.98 174.53 -407.46 349.43 -407.5 524 -174.53 -0.94 0.04zm11350.35 5355.02l-2269.98 174.53 -2328.05 349.46 -582.03 58.03 -1920.98 0 -1746.02 -232.93 -1164.02 -174.57 -1455.06 -116.5 -872.99 0 698.46 2153.51 640.42 1862.52 349.1 465.53 290.96 291 756.56 -58.07 291 116.5 174.53 349.1 5995.04 0 174.53 -349.46 349.43 -116.46 640.42 58.39 232.96 58.03 465.53 -407.5 290.96 -465.49 931.46 -2735.54 407.5 -1280.49 -349.07 0 -0.69 0.4z"/>
  <polygon class="fil0" points="751.32,6242.7 1973.41,6301.09 4301.82,6534.06 6222.76,6825.09 6862.82,6883.12 8667.27,6883.12 11286.35,6475.66 13905.75,6243.06 14429.75,6242.7 14546.18,6359.16 14546.18,6650.19 14138.72,6766.62 11286.35,6999.62 8899.84,7349.05 8376.27,7407.12 6862.82,7407.12 5058.38,7174.12 3370.32,6941.59 1042.31,6766.62 692.85,6650.19 634.82,6359.16 "/>
  <polygon class="fil0" points="2497.33,1877.6 3021.29,1993.71 3312.29,2226.63 3486.82,2576.1 3486.82,2867.13 3253.89,2808.66 3021.29,2343.13 2613.83,2168.6 2264.4,2226.63 1915.3,2517.67 1856.91,2750.63 1798.88,4496.65 1565.88,4496.65 1565.88,2808.66 1740.81,2285.1 2089.84,1993.71 "/>
  <polygon class="fil0" points="3544.89,12005.5 4243.38,12005.5 4359.85,12296.53 4185.32,12471.03 3894.32,12471.03 3894.32,13344.09 3777.82,13460.52 3370.32,13460.52 3253.89,13285.99 3544.89,13169.56 3486.82,12703.63 3370.32,12238.1 "/>
  <polygon class="fil0" points="10937.25,12005.5 11635.78,12005.5 11810.31,12180.03 11752.21,12587.53 11635.78,12936.6 11635.78,13169.56 11926.77,13227.59 11926.77,13402.13 11810.31,13460.52 11402.81,13460.52 11344.74,13402.13 11286.35,12529.14 10937.25,12412.64 10878.85,12354.6 10878.85,12063.53 "/>
  <polygon class="fil0" points="1449.77,4787.68 1915.3,4787.68 1973.41,6010.13 1915.3,6068.16 1449.77,6010.13 "/>
  <polygon class="fil0" points="2206.34,5253.57 2671.87,5253.57 2671.87,5486.14 2206.34,5486.14 "/>
 </g>
 <g id="Capa_x0020_1_0">
  <metadata id="CorelCorpID_1Corel-Layer"/>
  <rect class="fil2" width="15180.74" height="15180.74"/>
 </g>
</svg>
