<?xml version="1.0" encoding="UTF-8"?>
<!DOCTYPE svg PUBLIC "-//W3C//DTD SVG 1.1//EN" "http://www.w3.org/Graphics/SVG/1.1/DTD/svg11.dtd">
<!-- Creator: CorelDRAW -->
<svg xmlns="http://www.w3.org/2000/svg" xml:space="preserve" width="41.9588mm" height="41.9588mm" version="1.1" style="shape-rendering:geometricPrecision; text-rendering:geometricPrecision; image-rendering:optimizeQuality; fill-rule:evenodd; clip-rule:evenodd"
viewBox="0 0 604.57 604.57"
 xmlns:xlink="http://www.w3.org/1999/xlink"
 xmlns:xodm="http://www.corel.com/coreldraw/odm/2003">
 <defs>
  <style type="text/css">
   <![CDATA[
    .fil2 {fill:none}
    .fil1 {fill:#040404;fill-rule:nonzero}
    .fil0 {fill:#FEFEFE;fill-rule:nonzero}
   ]]>
  </style>
 </defs>
 <g id="Capa_x0020_1">
  <metadata id="CorelCorpID_0Corel-Layer"/>
  <polygon class="fil0" points="38.4,100.76 566.16,100.76 584.6,112.28 593.82,126.11 596.13,135.33 596.13,308.18 589.21,326.62 573.07,340.45 561.55,345.06 40.71,345.05 24.58,335.83 10.75,319.7 8.44,310.48 8.44,133.03 17.66,114.59 29.19,105.37 "/>
  <path class="fil1" d="M38.4 100.76l527.76 0 18.44 11.52 9.22 13.83 2.31 9.21 0 172.84 -6.91 18.44 -16.13 13.83 -11.52 4.61 -520.84 0 -16.13 -9.21 -13.83 -16.13 -2.31 -9.21 0 -177.46 9.22 -18.44 11.52 -9.22 9.21 -4.61zm4.61 13.83l-11.52 6.91 -9.21 13.83 0 175.15 9.21 13.83 16.13 6.91 6.92 0 2.31 -34.56 9.22 -16.13 13.83 -6.92 444.79 0 13.83 6.91 4.61 0 6.92 20.74 2.31 29.96 20.75 -6.91 6.91 -9.21 2.31 -9.21 0 -168.23 -6.92 -13.83 -13.83 -9.21 -518.54 0 -0.01 0z"/>
  <polygon class="fil0" points="68.36,312.79 536.2,312.79 538.51,315.09 538.51,328.93 536.2,331.22 68.36,331.22 "/>
  <polygon class="fil0" points="82.19,285.13 522.38,285.13 533.9,292.04 533.9,298.95 70.67,298.95 75.27,289.74 "/>
  <polygon class="fil1" points="139.81,133.03 464.76,133.03 467.07,142.24 464.76,146.85 139.81,146.85 137.5,135.33 "/>
  <polygon class="fil1" points="139.81,176.81 464.76,176.81 464.76,190.64 139.81,190.64 137.5,179.12 "/>
  <polygon class="fil1" points="351.83,365.8 361.05,368.1 367.96,379.62 374.88,414.18 372.57,448.76 361.05,494.85 361.05,513.29 367.96,536.33 356.44,540.95 349.52,531.72 344.92,517.89 344.92,492.54 356.44,446.45 358.75,418.8 354.14,391.14 349.52,377.31 "/>
  <polygon class="fil1" points="123.67,365.8 132.9,368.1 142.11,393.45 144.42,404.97 144.42,439.54 132.9,487.93 132.9,520.2 137.5,529.42 135.19,538.64 125.98,538.64 119.07,529.42 114.46,510.98 116.77,485.64 128.29,437.24 128.29,407.27 121.37,381.93 119.07,370.4 "/>
  <polygon class="fil1" points="238.91,365.8 248.13,370.4 257.34,395.75 259.65,409.58 259.65,437.24 245.82,499.46 248.13,520.2 252.73,536.33 243.52,540.95 236.61,534.03 229.69,513.29 229.69,494.85 241.21,448.76 243.52,432.62 243.52,411.89 236.61,381.93 234.3,370.4 "/>
  <polygon class="fil1" points="467.06,365.8 476.28,368.1 485.5,388.83 487.8,400.36 487.8,446.45 476.28,492.54 476.28,517.89 480.89,529.42 480.89,538.64 471.67,540.95 462.46,527.12 460.15,520.2 460.15,487.93 471.67,444.15 471.67,402.66 464.76,379.62 464.76,368.1 "/>
  <polygon class="fil1" points="554.64,234.43 570.77,239.04 577.69,248.26 577.69,266.7 566.16,278.22 554.64,280.52 540.81,273.61 533.9,262.08 536.2,248.26 545.42,236.74 "/>
  <polygon class="fil1" points="79.89,209.08 89.11,211.39 91.41,213.68 91.41,252.87 84.5,259.78 77.58,257.47 75.27,250.56 75.27,213.68 "/>
  <polygon class="fil1" points="47.62,209.08 59.15,211.39 59.15,255.17 47.62,257.47 45.31,255.17 45.31,211.39 "/>
  <polygon class="fil0" points="552.34,250.56 563.86,252.87 561.55,264.39 550.03,262.08 547.73,257.47 "/>
 </g>
 <g id="Capa_x0020_1_3">
  <metadata id="CorelCorpID_1Corel-Layer"/>
  <rect class="fil2" width="604.57" height="604.57"/>
 </g>
</svg>
