<?xml version="1.0" encoding="UTF-8"?>
<!DOCTYPE svg PUBLIC "-//W3C//DTD SVG 1.1//EN" "http://www.w3.org/Graphics/SVG/1.1/DTD/svg11.dtd">
<!-- Creator: CorelDRAW -->
<svg xmlns="http://www.w3.org/2000/svg" xml:space="preserve" width="41.9588mm" height="41.9588mm" version="1.1" style="shape-rendering:geometricPrecision; text-rendering:geometricPrecision; image-rendering:optimizeQuality; fill-rule:evenodd; clip-rule:evenodd"
viewBox="0 0 785.3 785.3"
 xmlns:xlink="http://www.w3.org/1999/xlink"
 xmlns:xodm="http://www.corel.com/coreldraw/odm/2003">
 <defs>
  <style type="text/css">
   <![CDATA[
    .fil2 {fill:none}
    .fil0 {fill:#040404;fill-rule:nonzero}
    .fil1 {fill:#FEFEFE;fill-rule:nonzero}
   ]]>
  </style>
 </defs>
 <g id="Capa_x0020_1">
  <metadata id="CorelCorpID_0Corel-Layer"/>
  <polygon class="fil0" points="358.09,110.44 453.13,110.44 458.88,119.08 458.88,142.11 450.24,182.43 467.52,188.19 493.44,208.35 522.24,248.67 545.28,291.86 556.8,286.1 574.08,271.7 600,263.07 640.3,263.07 669.1,274.58 697.9,300.5 715.18,337.94 752.62,435.85 752.62,450.25 741.1,458.88 729.58,461.77 709.42,461.77 683.5,453.13 669.1,441.61 654.7,415.69 628.79,346.58 617.27,343.7 602.87,355.21 599.99,360.97 594.23,360.97 588.47,372.5 576.95,378.26 585.59,453.13 585.59,484.8 576.95,576.95 574.07,582.71 588.47,585.59 591.35,588.48 594.23,611.51 594.23,637.43 591.35,657.59 588.47,660.47 225.63,660.47 219.86,654.71 219.86,591.35 228.5,582.71 237.14,582.71 228.5,507.84 228.5,481.92 214.11,479.04 182.43,461.76 153.63,435.84 133.47,412.81 110.44,366.73 101.8,320.66 96.04,263.06 81.64,248.66 64.36,248.67 24.04,271.7 12.52,268.83 9.64,265.94 9.64,202.59 35.56,185.31 55.72,176.67 87.4,173.79 116.19,182.43 133.47,193.95 153.63,216.98 162.27,234.27 168.03,277.46 173.79,337.94 188.19,372.49 211.23,398.41 228.51,409.93 234.27,389.77 245.78,346.58 263.07,300.5 291.86,245.78 320.66,208.35 340.82,191.07 360.97,179.55 355.22,153.63 355.22,116.2 "/>
  <polygon class="fil1" points="306.26,274.58 504.95,274.58 519.36,297.62 539.51,346.58 551.03,386.89 556.8,421.45 556.8,519.36 551.03,574.08 548.16,582.71 263.06,582.71 254.42,502.08 254.42,435.85 263.06,381.14 277.46,335.06 300.5,283.22 "/>
  <polygon class="fil0" points="392.65,314.9 418.57,314.9 435.85,326.42 444.48,340.82 444.48,519.36 432.97,536.64 418.57,545.28 392.65,545.28 372.49,528 366.73,510.72 366.73,346.57 378.25,323.54 "/>
  <polygon class="fil1" points="245.78,611.51 565.43,611.51 565.43,634.55 245.78,634.55 "/>
  <polygon class="fil1" points="605.75,288.98 634.55,288.98 657.59,297.62 677.74,317.78 695.02,358.09 720.94,427.21 720.94,435.85 695.02,430.08 683.5,415.69 663.34,363.85 648.94,329.3 634.55,317.77 608.62,317.78 582.71,337.94 568.31,352.34 559.67,332.18 562.55,317.78 588.47,294.74 "/>
  <polygon class="fil1" points="386.89,199.71 424.33,199.71 453.13,211.23 476.16,231.38 487.68,245.78 487.68,248.67 326.42,251.54 329.3,240.03 349.46,216.99 375.37,202.59 "/>
  <polygon class="fil1" points="61.48,202.59 96.04,202.59 119.07,214.11 136.35,240.03 142.11,280.34 147.88,340.82 156.51,369.62 176.67,401.29 205.47,427.21 228.51,438.73 228.51,453.13 211.23,447.37 185.31,430.09 159.39,404.17 142.11,372.5 130.6,337.94 121.96,257.31 110.44,237.15 87.4,222.75 58.6,222.75 41.32,231.38 35.56,231.39 35.56,216.99 52.84,205.47 "/>
  <polygon class="fil0" points="510.72,430.08 525.11,430.08 530.87,435.85 530.87,470.4 522.24,539.52 516.48,545.28 502.08,545.28 496.31,539.51 499.2,490.56 504.95,438.73 "/>
  <polygon class="fil1" points="381.13,133.48 430.08,133.48 432.97,139.24 424.33,173.8 389.77,173.8 381.13,147.87 "/>
  <polygon class="fil0" points="502.08,366.74 516.48,366.74 525.11,381.14 525.11,398.41 519.36,404.17 504.95,401.29 496.31,386.89 496.31,372.5 "/>
  <polygon class="fil1" points="395.52,441.61 418.57,444.48 418.57,467.52 392.65,467.52 392.65,444.48 "/>
  <polygon class="fil1" points="395.52,389.77 418.57,392.65 418.57,415.69 392.65,415.69 392.65,392.65 "/>
  <polygon class="fil1" points="401.29,340.82 415.68,343.7 418.57,346.58 418.57,366.74 395.52,366.74 392.65,352.34 395.52,343.7 "/>
  <polygon class="fil1" points="395.52,493.44 418.57,496.32 418.57,513.6 412.81,519.36 398.41,516.48 392.64,504.96 "/>
 </g>
 <g id="Capa_x0020_1_2">
  <metadata id="CorelCorpID_1Corel-Layer"/>
  <rect class="fil2" width="785.3" height="785.3"/>
 </g>
</svg>
