<?xml version="1.0" encoding="UTF-8"?>
<!DOCTYPE svg PUBLIC "-//W3C//DTD SVG 1.1//EN" "http://www.w3.org/Graphics/SVG/1.1/DTD/svg11.dtd">
<!-- Creator: CorelDRAW -->
<svg xmlns="http://www.w3.org/2000/svg" xml:space="preserve" width="41.9588mm" height="41.9588mm" version="1.1" style="shape-rendering:geometricPrecision; text-rendering:geometricPrecision; image-rendering:optimizeQuality; fill-rule:evenodd; clip-rule:evenodd"
viewBox="0 0 770.87 770.87"
 xmlns:xlink="http://www.w3.org/1999/xlink"
 xmlns:xodm="http://www.corel.com/coreldraw/odm/2003">
 <defs>
  <style type="text/css">
   <![CDATA[
    .fil2 {fill:none}
    .fil0 {fill:#040404;fill-rule:nonzero}
    .fil1 {fill:#FEFEFE;fill-rule:nonzero}
   ]]>
  </style>
 </defs>
 <g id="Capa_x0020_1">
  <metadata id="CorelCorpID_0Corel-Layer"/>
  <polygon class="fil0" points="244.18,38.54 402.06,38.54 443.61,59.31 472.67,92.54 485.14,117.48 485.14,134.09 514.22,138.25 526.69,154.87 530.83,175.64 576.52,192.25 605.6,221.33 622.24,254.58 630.54,291.97 638.85,300.27 638.85,345.97 622.24,358.43 318.97,358.43 306.51,345.97 302.34,312.72 314.81,291.97 327.28,242.11 352.2,204.72 385.44,183.95 414.51,175.64 422.83,146.56 439.44,134.09 464.36,134.09 443.59,96.7 414.51,71.76 393.75,63.46 256.65,63.48 215.1,80.09 181.88,109.17 161.1,146.56 156.94,163.17 152.79,537.07 194.34,537.07 198.49,516.29 219.26,520.46 219.26,570.31 215.1,578.62 194.34,574.45 194.34,561.99 156.94,561.99 152.79,728.17 132.02,732.33 132.02,154.87 148.63,113.32 173.57,80.09 206.8,55.15 "/>
  <polygon class="fil1" points="406.2,200.56 534.99,200.56 576.55,221.33 597.32,254.56 601.46,291.97 343.89,291.97 343.89,262.88 364.67,225.5 393.75,204.72 "/>
  <polygon class="fil1" points="327.28,312.72 618.08,312.72 618.08,333.5 327.28,333.5 "/>
  <polygon class="fil1" points="456.06,154.87 489.3,154.87 505.91,163.17 505.91,175.64 439.44,175.64 443.61,159.01 "/>
  <polygon class="fil0" points="370.43,411.43 379.41,411.43 387.13,415.27 390.97,420.4 392.26,430.67 388.41,438.36 381.97,443.51 373,444.8 364.02,440.95 358.89,431.95 358.89,422.97 362.74,416.56 366.58,412.71 "/>
  <polygon class="fil0" points="413.96,411.43 422.96,411.43 430.65,415.27 434.5,420.4 435.79,430.67 431.94,438.36 425.52,443.51 416.52,444.8 407.54,440.95 402.41,431.95 402.41,422.97 406.26,416.56 410.11,412.71 "/>
  <polygon class="fil0" points="462.22,411.43 471.2,411.43 478.89,415.27 482.74,420.4 484.02,430.67 480.17,438.36 473.76,443.51 464.78,444.8 455.8,440.95 450.65,431.95 450.65,422.97 454.5,416.56 458.35,412.71 "/>
  <polygon class="fil0" points="510.46,411.43 519.43,411.43 527.13,415.27 530.98,420.4 532.26,430.67 528.41,438.36 522,443.51 513.02,444.8 504.04,440.95 498.91,431.95 498.91,422.97 502.76,416.56 506.61,412.71 "/>
  <polygon class="fil0" points="558.69,411.43 567.67,411.43 575.39,415.27 579.24,420.4 580.52,430.67 576.67,438.36 570.26,443.51 561.26,444.8 552.28,440.95 547.15,431.95 547.15,422.97 551,416.56 554.84,412.71 "/>
  <polygon class="fil0" points="370.43,459.66 379.41,459.66 387.13,463.51 390.97,468.64 392.26,478.9 388.41,486.62 381.97,491.75 373,493.03 364.02,489.19 358.89,480.21 358.89,471.21 362.74,464.79 366.58,460.95 "/>
  <polygon class="fil0" points="413.96,459.66 422.96,459.66 430.65,463.51 434.5,468.64 435.79,478.9 431.94,486.62 425.52,491.75 416.52,493.03 407.54,489.19 402.41,480.21 402.41,471.21 406.26,464.79 410.11,460.95 "/>
  <polygon class="fil0" points="462.22,459.66 471.2,459.66 478.89,463.51 482.74,468.64 484.02,478.9 480.17,486.62 473.76,491.75 464.78,493.03 455.8,489.19 450.65,480.21 450.65,471.21 454.5,464.79 458.35,460.95 "/>
  <polygon class="fil0" points="510.46,459.66 519.43,459.66 527.13,463.51 530.98,468.64 532.26,478.9 528.41,486.62 522,491.75 513.02,493.03 504.04,489.19 498.91,480.21 498.91,471.21 502.76,464.79 506.61,460.95 "/>
  <polygon class="fil0" points="558.69,459.66 567.67,459.66 575.39,463.51 579.24,468.64 580.52,478.9 576.67,486.62 570.26,491.75 561.26,493.03 552.28,489.19 547.15,480.21 547.15,471.21 551,464.79 554.84,460.95 "/>
  <polygon class="fil0" points="370.43,507.9 379.41,507.9 387.13,511.75 390.97,516.88 392.26,527.16 388.41,534.86 381.97,539.99 373,541.27 364.02,537.42 358.89,528.45 358.89,519.44 362.74,513.03 366.58,509.18 "/>
  <polygon class="fil0" points="413.96,507.9 422.96,507.9 430.65,511.75 434.5,516.88 435.79,527.16 431.94,534.86 425.52,539.99 416.52,541.27 407.54,537.42 402.41,528.45 402.41,519.44 406.26,513.03 410.11,509.18 "/>
  <polygon class="fil0" points="462.22,507.9 471.2,507.9 478.89,511.75 482.74,516.88 484.02,527.16 480.17,534.86 473.76,539.99 464.78,541.27 455.8,537.42 450.65,528.45 450.65,519.44 454.5,513.03 458.35,509.18 "/>
  <polygon class="fil0" points="510.46,507.9 519.43,507.9 527.13,511.75 530.98,516.88 532.26,527.16 528.41,534.86 522,539.99 513.02,541.27 504.04,537.42 498.91,528.45 498.91,519.44 502.76,513.03 506.61,509.18 "/>
  <polygon class="fil0" points="558.69,507.9 567.67,507.9 575.39,511.75 579.24,516.88 580.52,527.16 576.67,534.86 570.26,539.99 561.26,541.27 552.28,537.42 547.15,528.45 547.15,519.44 551,513.03 554.84,509.18 "/>
  <polygon class="fil0" points="370.43,556.14 379.41,556.14 387.13,559.99 390.97,565.14 392.26,575.4 388.41,583.1 381.97,588.23 373,589.51 364.02,585.66 358.89,576.68 358.89,567.7 362.74,561.29 366.58,557.44 "/>
  <polygon class="fil0" points="413.96,556.14 422.96,556.14 430.65,559.99 434.5,565.14 435.79,575.4 431.94,583.1 425.52,588.23 416.52,589.51 407.54,585.66 402.41,576.68 402.41,567.7 406.26,561.29 410.11,557.44 "/>
  <polygon class="fil0" points="462.22,556.14 471.2,556.14 478.89,559.99 482.74,565.14 484.02,575.4 480.17,583.1 473.76,588.23 464.78,589.51 455.8,585.66 450.65,576.68 450.65,567.7 454.5,561.29 458.35,557.44 "/>
  <polygon class="fil0" points="510.46,556.14 519.43,556.14 527.13,559.99 530.98,565.14 532.26,575.4 528.41,583.1 522,588.23 513.02,589.51 504.04,585.66 498.91,576.68 498.91,567.7 502.76,561.29 506.61,557.44 "/>
  <polygon class="fil0" points="558.69,556.14 567.67,556.14 575.39,559.99 579.24,565.14 580.52,575.4 576.67,583.1 570.26,588.23 561.26,589.51 552.28,585.66 547.15,576.68 547.15,567.7 551,561.29 554.84,557.44 "/>
  <polygon class="fil0" points="370.43,604.4 379.41,604.4 387.13,608.24 390.97,613.38 392.26,623.64 388.41,631.35 381.97,636.49 373,637.77 364.02,633.92 358.89,624.92 358.89,615.94 362.74,609.53 366.58,605.68 "/>
  <polygon class="fil0" points="413.96,604.4 422.96,604.4 430.65,608.24 434.5,613.38 435.79,623.64 431.94,631.35 425.52,636.49 416.52,637.77 407.54,633.92 402.41,624.92 402.41,615.94 406.26,609.53 410.11,605.68 "/>
  <polygon class="fil0" points="462.22,604.4 471.2,604.4 478.89,608.24 482.74,613.38 484.02,623.64 480.17,631.35 473.76,636.49 464.78,637.77 455.8,633.92 450.65,624.92 450.65,615.94 454.5,609.53 458.35,605.68 "/>
  <polygon class="fil0" points="510.46,604.4 519.43,604.4 527.13,608.24 530.98,613.38 532.26,623.64 528.41,631.35 522,636.49 513.02,637.77 504.04,633.92 498.91,624.92 498.91,615.94 502.76,609.53 506.61,605.68 "/>
  <polygon class="fil0" points="558.69,604.4 567.67,604.4 575.39,608.24 579.24,613.38 580.52,623.64 576.67,631.35 570.26,636.49 561.26,637.77 552.28,633.92 547.15,624.92 547.15,615.94 551,609.53 554.84,605.68 "/>
  <polygon class="fil0" points="370.43,556.14 379.41,556.14 387.13,559.99 390.97,565.14 392.26,575.4 388.41,583.1 381.97,588.23 373,589.51 364.02,585.66 358.89,576.68 358.89,567.7 362.74,561.29 366.58,557.44 "/>
  <polygon class="fil0" points="413.96,556.14 422.96,556.14 430.65,559.99 434.5,565.14 435.79,575.4 431.94,583.1 425.52,588.23 416.52,589.51 407.54,585.66 402.41,576.68 402.41,567.7 406.26,561.29 410.11,557.44 "/>
  <polygon class="fil0" points="462.22,556.14 471.2,556.14 478.89,559.99 482.74,565.14 484.02,575.4 480.17,583.1 473.76,588.23 464.78,589.51 455.8,585.66 450.65,576.68 450.65,567.7 454.5,561.29 458.35,557.44 "/>
  <polygon class="fil0" points="510.46,556.14 519.43,556.14 527.13,559.99 530.98,565.14 532.26,575.4 528.41,583.1 522,588.23 513.02,589.51 504.04,585.66 498.91,576.68 498.91,567.7 502.76,561.29 506.61,557.44 "/>
  <polygon class="fil0" points="558.69,556.14 567.67,556.14 575.39,559.99 579.24,565.14 580.52,575.4 576.67,583.1 570.26,588.23 561.26,589.51 552.28,585.66 547.15,576.68 547.15,567.7 551,561.29 554.84,557.44 "/>
 </g>
 <g id="Capa_x0020_1_8">
  <metadata id="CorelCorpID_1Corel-Layer"/>
  <rect class="fil2" width="770.87" height="770.87"/>
 </g>
</svg>
