<?xml version="1.0" encoding="UTF-8"?>
<!DOCTYPE svg PUBLIC "-//W3C//DTD SVG 1.1//EN" "http://www.w3.org/Graphics/SVG/1.1/DTD/svg11.dtd">
<!-- Creator: CorelDRAW -->
<svg xmlns="http://www.w3.org/2000/svg" xml:space="preserve" width="41.9588mm" height="41.9588mm" version="1.1" style="shape-rendering:geometricPrecision; text-rendering:geometricPrecision; image-rendering:optimizeQuality; fill-rule:evenodd; clip-rule:evenodd"
viewBox="0 0 2023.47 2023.47"
 xmlns:xlink="http://www.w3.org/1999/xlink"
 xmlns:xodm="http://www.corel.com/coreldraw/odm/2003">
 <defs>
  <style type="text/css">
   <![CDATA[
    .fil2 {fill:none}
    .fil0 {fill:#040404;fill-rule:nonzero}
    .fil1 {fill:#FEFEFE;fill-rule:nonzero}
   ]]>
  </style>
 </defs>
 <g id="Capa_x0020_1">
  <metadata id="CorelCorpID_0Corel-Layer"/>
  <polygon class="fil0" points="751.42,197.27 960.81,197.27 988.14,215.5 1243.07,224.6 1252.17,270.11 1224.87,324.75 1188.43,352.08 1015.44,361.18 1006.34,434.03 960.81,470.43 942.6,470.43 942.6,588.81 1042.78,588.81 1042.78,752.69 1079.18,770.89 1152.03,852.83 1188.43,943.88 1197.56,989.42 1197.56,1080.46 1643.67,1080.46 1643.67,1790.63 1634.57,1799.73 1133.82,1799.73 1097.39,1790.63 1097.39,1717.79 623.94,1717.79 551.1,1708.69 523.79,1681.39 514.69,1644.95 514.69,998.52 532.9,907.47 587.53,816.4 651.27,752.69 669.47,752.69 669.47,588.78 769.62,588.81 769.62,470.43 724.12,452.23 705.88,433.99 705.88,233.7 "/>
  <polygon class="fil1" points="714.98,625.21 997.24,625.21 1006.34,779.99 1042.78,798.2 1088.29,843.73 1133.82,916.57 1152.03,971.21 1152.03,1080.46 1106.52,1089.56 1097.39,1672.28 569.3,1672.26 560.2,1663.16 560.2,962.08 596.64,880.14 651.27,807.3 687.68,779.99 915.3,779.99 915.3,743.58 714.98,743.58 705.88,734.46 705.88,634.32 "/>
  <polygon class="fil1" points="1133.82,1125.97 1607.27,1125.97 1607.27,1763.32 1142.92,1763.32 1133.82,1754.23 "/>
  <polygon class="fil1" points="714.98,1107.77 997.24,1107.77 997.24,1298.98 869.77,1298.98 869.77,1335.39 997.24,1335.39 997.24,1390.02 778.72,1390.02 787.82,1426.43 997.24,1435.56 997.24,1499.27 714.98,1499.27 705.88,1490.17 705.88,1116.86 "/>
  <path class="fil0" d="M669.47 1071.35l364.2 0 9.1 18.21 0 418.81 -9.1 27.3 -355.07 0 -9.1 -9.1 0 -455.24 -0.03 0.03zm45.54 36.41l-9.1 9.1 0 373.31 9.1 9.1 282.26 0 0 -63.74 -209.41 -9.1 -9.1 -36.41 218.52 0 0 -54.64 -127.44 0 0 -36.43 127.44 0 0 -191.18 -282.26 0 0 -0.01z"/>
  <polygon class="fil1" points="769.62,233.7 951.74,233.7 969.93,251.91 969.93,406.69 960.83,424.92 751.42,424.89 742.31,406.69 742.31,251.91 "/>
  <polygon class="fil0" points="1297.7,861.94 1443.39,861.94 1452.49,871.04 1452.49,1053.12 1443.39,1062.26 1297.7,1062.26 1288.6,1053.12 1288.6,871.04 "/>
  <polygon class="fil0" points="1488.89,461.33 1552.63,461.33 1598.17,497.73 1607.27,515.97 1607.27,588.81 1570.86,634.32 1552.63,643.42 1479.79,643.42 1434.28,597.91 1425.16,579.68 1425.16,525.04 1452.49,479.54 "/>
  <polygon class="fil0" points="1488.89,151.76 1561.73,151.76 1607.27,197.3 1607.27,270.11 1552.63,315.65 1498.02,315.65 1443.39,270.11 1443.39,197.27 "/>
  <polygon class="fil0" points="1279.51,370.29 1343.24,379.39 1379.65,415.8 1379.65,479.54 1334.11,525.07 1270.4,525.07 1233.96,488.63 1224.87,433.99 1252.17,388.49 "/>
  <polygon class="fil0" points="1170.22,1526.61 1215.77,1526.61 1215.77,1663.16 1361.44,1663.16 1370.55,1699.59 1352.32,1708.69 1170.22,1699.59 "/>
  <polygon class="fil1" points="1334.11,898.34 1406.95,898.34 1416.06,907.47 1416.06,1016.72 1325.01,1016.72 1325.01,907.47 "/>
  <polygon class="fil1" points="1015.44,261.01 1206.66,261.01 1188.43,297.44 1161.13,315.65 1015.44,315.65 1006.34,270.11 "/>
  <polygon class="fil1" points="815.16,479.54 897.09,479.54 897.09,588.81 815.16,588.81 "/>
  <polygon class="fil1" points="1488.89,506.84 1543.53,506.84 1570.83,534.17 1561.73,588.81 1507.09,607.01 1470.69,579.7 1470.69,525.07 "/>
  <polygon class="fil1" points="1507.12,188.2 1552.63,197.3 1570.86,215.5 1561.73,261.04 1516.23,279.24 1479.79,242.81 1498.02,197.3 "/>
  <polygon class="fil1" points="1288.6,415.8 1334.11,424.89 1343.24,452.23 1306.81,488.63 1270.4,470.43 1270.4,424.89 "/>
  <polygon class="fil0" points="1179.33,1417.32 1215.77,1417.32 1215.77,1490.17 1170.22,1490.17 1170.22,1426.43 "/>
 </g>
 <g id="Capa_x0020_1_5">
  <metadata id="CorelCorpID_1Corel-Layer"/>
  <rect class="fil2" width="2023.47" height="2023.47"/>
 </g>
</svg>
