<?xml version="1.0" encoding="UTF-8"?>
<!DOCTYPE svg PUBLIC "-//W3C//DTD SVG 1.1//EN" "http://www.w3.org/Graphics/SVG/1.1/DTD/svg11.dtd">
<!-- Creator: CorelDRAW -->
<svg xmlns="http://www.w3.org/2000/svg" xml:space="preserve" width="41.9588mm" height="41.9588mm" version="1.1" style="shape-rendering:geometricPrecision; text-rendering:geometricPrecision; image-rendering:optimizeQuality; fill-rule:evenodd; clip-rule:evenodd"
viewBox="0 0 920.77 920.77"
 xmlns:xlink="http://www.w3.org/1999/xlink"
 xmlns:xodm="http://www.corel.com/coreldraw/odm/2003">
 <defs>
  <style type="text/css">
   <![CDATA[
    .fil2 {fill:none}
    .fil1 {fill:#040404;fill-rule:nonzero}
    .fil0 {fill:#FEFEFE;fill-rule:nonzero}
   ]]>
  </style>
 </defs>
 <g id="Capa_x0020_1">
  <metadata id="CorelCorpID_0Corel-Layer"/>
  <polygon class="fil0" points="41.35,153.46 879.42,153.46 894.12,168.16 897.8,190.22 897.8,701.14 890.44,726.87 875.74,737.9 842.65,741.57 783.84,741.57 780.17,767.3 714.01,767.3 710.33,763.63 710.33,741.57 210.43,741.57 206.75,767.3 136.92,767.3 133.24,745.25 41.35,737.9 22.97,719.51 22.97,171.83 "/>
  <path class="fil1" d="M41.35 153.46l838.07 0 14.7 14.7 3.68 22.05 0 510.93 -7.35 25.73 -14.7 11.02 -33.08 3.68 -58.81 0 -3.68 25.73 -66.16 0 -3.68 -3.68 0 -22.05 -499.9 0 -3.68 25.73 -69.84 0 -3.68 -22.06 -91.89 -7.35 -18.38 -18.38 0 -547.68 18.38 -18.38zm7.35 11.02l-11.02 11.02 -3.68 11.03 0 521.96 11.03 14.7 827.04 0 11.02 -11.02 0 -202.16 -58.81 0 -33.08 44.11 -40.43 25.73 -36.76 11.03 -55.14 0 -40.43 -14.71 -22.05 -14.7 -18.38 -14.71 -25.73 -40.43 -11.02 -40.43 0 -47.79 14.71 -40.43 22.05 -33.08 25.73 -22.05 36.76 -18.38 36.76 -7.35 44.11 3.68 40.43 14.7 29.41 22.05 22.05 25.73 7.35 14.7 7.35 3.68 40.43 0 14.7 -3.68 0 -194.81 -7.35 -14.7 -11.02 -3.68 -816.01 0z"/>
  <polygon class="fil0" points="677.25,307.84 725.04,311.52 769.15,333.57 791.2,351.95 813.25,388.71 824.28,421.79 824.28,469.58 809.58,510.01 787.52,539.42 761.79,561.47 728.71,576.18 714.01,579.85 662.55,579.84 622.12,565.14 592.71,543.09 566.98,510 552.28,465.9 552.28,421.79 566.98,381.36 581.69,359.3 607.41,333.57 640.5,315.19 "/>
  <polygon class="fil0" points="666.22,351.95 710.33,351.95 747.09,370.33 772.82,399.74 780.17,421.79 780.17,469.58 765.47,498.98 747.09,517.36 732.39,528.39 710.33,535.74 666.22,535.74 633.14,521.03 607.41,491.63 596.39,465.9 596.39,421.79 614.76,385.03 640.49,362.98 "/>
  <polygon class="fil0" points="162.65,278.44 383.19,278.44 394.22,282.11 401.57,296.82 397.9,315.19 386.87,322.55 155.3,322.55 144.27,311.52 144.27,289.46 "/>
  <path class="fil1" d="M669.9 337.24l40.43 0 36.76 14.71 25.73 22.05 22.05 44.11 0 55.13 -18.38 36.76 -25.73 25.73 -33.08 14.7 -40.43 3.68 -36.76 -11.03 -22.05 -14.7 -25.73 -29.41 -11.02 -29.41 0 -51.46 22.05 -44.11 33.08 -25.73 33.08 -11.03zm-3.68 14.71l-36.76 18.38 -22.06 25.73 -11.03 25.73 0 44.11 18.38 36.76 29.41 25.73 22.05 7.35 44.11 -0 33.08 -14.7 18.38 -18.38 14.71 -22.05 3.68 -11.03 0 -47.78 -14.71 -33.08 -29.41 -25.73 -25.73 -11.03 -44.11 0z"/>
  <path class="fil1" d="M170 263.73l202.16 0 25.73 3.68 14.7 14.7 3.68 29.41 -11.02 18.38 -14.71 7.35 -238.92 -0 -18.38 -14.7 -3.68 -7.35 0 -29.41 18.38 -18.38 22.06 -3.68zm-7.35 14.7l-18.38 11.03 0 22.06 11.02 11.02 231.57 0 14.7 -14.7 -3.67 -18.38 -3.68 -7.35 -11.03 -3.68 -220.54 0z"/>
  <polygon class="fil0" points="831.63,396.06 883.09,396.06 883.09,495.3 831.63,495.3 835.31,473.25 835.31,418.11 "/>
  <polygon class="fil1" points="162.65,465.9 192.05,469.57 206.76,487.95 206.76,517.36 188.38,535.74 162.65,539.41 140.59,524.71 136.92,517.36 136.92,487.95 151.62,469.57 "/>
  <polygon class="fil1" points="265.57,465.9 291.3,469.57 306,487.95 309.68,510 298.65,528.39 280.27,539.41 254.55,535.74 239.84,521.03 236.16,513.68 236.16,491.63 247.19,473.25 "/>
  <polygon class="fil1" points="357.46,366.65 386.87,366.65 405.25,385.03 408.92,392.38 408.92,414.44 394.22,432.82 386.87,436.49 357.46,436.49 339.08,418.11 335.41,396.05 346.43,374 "/>
  <polygon class="fil1" points="254.54,568.82 287.62,568.82 306,587.19 309.68,609.25 298.65,627.63 283.95,638.65 258.22,638.65 236.16,616.6 236.16,590.87 "/>
  <polygon class="fil1" points="364.81,465.9 390.54,469.57 405.25,484.27 408.92,513.68 390.54,535.74 364.81,539.41 346.43,528.39 335.41,510 339.09,484.27 353.79,469.58 "/>
  <polygon class="fil1" points="258.22,366.65 283.94,366.65 298.65,374.01 309.68,399.74 302.32,425.46 287.62,436.49 258.22,436.49 239.84,421.79 236.16,414.44 239.84,381.36 "/>
  <polygon class="fil1" points="357.46,568.82 386.87,568.82 405.25,583.52 408.92,612.93 397.9,631.31 383.19,638.65 361.14,638.65 346.43,631.31 335.41,609.25 339.09,587.19 "/>
  <polygon class="fil1" points="155.3,568.82 188.38,568.82 206.76,590.87 206.76,616.6 192.05,634.98 184.7,638.65 158.97,638.65 140.59,623.95 136.92,616.6 136.92,587.19 "/>
  <polygon class="fil1" points="158.97,366.65 184.7,366.65 203.08,381.36 206.76,388.71 206.76,414.44 188.38,436.49 155.3,436.49 136.92,418.11 136.92,388.71 151.62,370.33 "/>
  <polygon class="fil0" points="368.49,579.84 390.55,587.19 394.22,609.25 379.52,623.95 357.46,620.28 350.11,598.22 "/>
  <polygon class="fil0" points="361.14,381.36 383.19,381.36 394.22,396.06 390.54,414.44 383.19,421.79 361.14,421.79 350.11,407.08 357.46,385.03 "/>
  <polygon class="fil0" points="162.65,480.6 181.03,480.6 192.05,491.63 192.05,513.68 184.7,521.03 158.97,521.03 151.62,513.68 151.62,491.62 "/>
  <polygon class="fil0" points="158.97,583.52 184.7,583.52 192.05,594.54 192.05,612.93 177.35,623.95 155.3,620.28 151.62,612.92 151.62,590.87 "/>
  <polygon class="fil0" points="269.24,579.84 287.62,587.19 291.3,590.87 291.3,612.93 280.27,623.95 261.9,623.95 250.86,612.93 250.86,594.54 "/>
  <polygon class="fil0" points="261.9,381.36 283.94,381.36 291.3,388.71 291.3,414.44 280.27,421.79 261.9,421.79 250.86,410.76 250.86,392.38 "/>
  <polygon class="fil0" points="364.81,480.6 386.87,484.27 394.22,495.3 390.55,517.36 383.19,521.03 361.14,521.03 350.11,506.33 357.46,487.95 "/>
  <polygon class="fil0" points="162.65,381.36 181.03,381.36 192.05,392.38 188.37,418.11 162.65,421.79 151.62,414.44 151.62,392.38 "/>
  <polygon class="fil0" points="265.57,480.6 283.95,484.27 291.3,491.63 291.3,513.68 283.95,521.03 258.22,521.03 250.86,510 254.54,487.95 "/>
  <polygon class="fil0" points="725.03,741.57 769.14,741.57 765.46,752.6 725.03,752.6 "/>
  <polygon class="fil0" points="151.62,741.57 192.05,741.57 192.05,752.6 151.62,752.6 "/>
 </g>
 <g id="Capa_x0020_1_4">
  <metadata id="CorelCorpID_1Corel-Layer"/>
  <rect class="fil2" width="920.77" height="920.77"/>
 </g>
</svg>
