<?xml version="1.0" encoding="UTF-8"?>
<!DOCTYPE svg PUBLIC "-//W3C//DTD SVG 1.1//EN" "http://www.w3.org/Graphics/SVG/1.1/DTD/svg11.dtd">
<!-- Creator: CorelDRAW -->
<svg xmlns="http://www.w3.org/2000/svg" xml:space="preserve" width="41.9588mm" height="41.9588mm" version="1.1" style="shape-rendering:geometricPrecision; text-rendering:geometricPrecision; image-rendering:optimizeQuality; fill-rule:evenodd; clip-rule:evenodd"
viewBox="0 0 12230.73 12230.73"
 xmlns:xlink="http://www.w3.org/1999/xlink"
 xmlns:xodm="http://www.corel.com/coreldraw/odm/2003">
 <defs>
  <style type="text/css">
   <![CDATA[
    .fil2 {fill:none}
    .fil0 {fill:#040404;fill-rule:nonzero}
    .fil1 {fill:#FEFEFE;fill-rule:nonzero}
   ]]>
  </style>
 </defs>
 <g id="Capa_x0020_1">
  <metadata id="CorelCorpID_0Corel-Layer"/>
  <polygon class="fil0" points="1530.4,1223.05 2350.05,1223.05 2401.33,1684.16 2503.82,1735.44 2606.31,1479.27 2811.23,1325.54 2964.93,1274.32 10546.63,1274.32 10905.25,1376.81 11110.12,1632.95 11110.12,9829.5 10956.5,10085.63 10597.87,10239.31 10546.63,11007.68 9522.09,11007.68 9470.81,10239.25 4296.85,10239.25 4296.85,10956.47 4245.61,11007.68 3272.25,11007.68 3220.98,10956.41 3169.79,10239.25 2759.95,10136.76 2606.22,10034.3 2401.33,10034.39 2298.9,10188.03 1581.73,10188.03 1274.27,9983.14 1171.83,9829.41 1120.62,9573.27 1120.62,1940.3 1223.11,1479.19 1427.97,1274.27 "/>
  <polygon class="fil1" points="2964.84,1530.46 10700.36,1530.46 10854.04,1684.16 10905.25,1786.6 10905.25,9727.01 10649.09,9983.14 3016.09,9983.14 3169.79,9829.41 3477.11,9573.27 3579.6,9419.6 9931.93,9419.6 10239.34,9265.89 10341.74,9061.03 10341.74,2452.51 10136.85,2145.19 9983.2,2093.92 3425.87,2093.98 3169.79,1889.06 2759.95,1735.44 "/>
  <polygon class="fil1" points="3733.31,4911.56 10136.82,4911.56 10136.82,9061.03 9931.93,9214.73 9880.71,6858.15 9522.09,6448.37 9522.09,5167.69 8702.43,5167.69 8651.16,6448.37 8292.62,6858.27 8241.38,9214.73 7882.78,9214.73 7831.51,6858.15 7472.97,6448.37 7472.97,5167.69 6653.32,5167.69 6653.32,6345.88 6448.37,6653.29 6243.45,6858.27 6192.21,9214.73 5782.42,9214.73 5731.21,6858.15 5680.02,6602.02 4091.9,6653.23 3989.44,6960.64 3938.2,9214.73 3682.03,9214.73 3682.03,4962.71 "/>
  <polygon class="fil1" points="2350.05,1991.49 2913.66,1991.49 3272.25,2196.44 3425.87,2452.51 3477.11,2759.95 3477.11,9061.03 3323.47,9419.6 3067.33,9675.73 2759.95,9778.28 2401.33,9778.22 2350.05,9727.01 "/>
  <polygon class="fil1" points="1581.73,1427.97 2145.19,1427.97 2145.19,9931.9 2094,9983.14 1735.38,9983.14 1479.24,9829.41 1376.75,9675.73 1376.75,1684.16 "/>
  <polygon class="fil1" points="6909.43,5372.58 7216.84,5372.58 7268.11,6448.37 7677.86,7011.86 7677.86,9214.73 6448.37,9214.73 6448.37,6909.4 6806.94,6550.8 6858.21,5423.83 "/>
  <polygon class="fil1" points="8907.33,5372.58 9265.95,5372.58 9317.19,6499.61 9675.85,6909.43 9675.85,9214.73 8446.3,9214.73 8446.3,7011.86 8856.2,6499.61 "/>
  <polygon class="fil1" points="3733.31,2247.62 9880.71,2247.62 10085.6,2350.11 10136.85,2452.6 10136.85,4143.15 9470.9,4143.06 9778.22,3733.28 9829.5,3579.6 9829.5,3016.09 9624.58,2657.46 9368.44,2452.6 9061.03,2350.11 8548.79,2401.33 8190.16,2657.46 8036.49,2913.66 7985.21,3118.55 7985.21,3477.11 8190.16,3887.01 8190.16,3989.44 8395.08,4091.9 8395.08,4143.15 7370.51,4143.06 7677.86,3682.03 7729.14,3579.6 7729.14,3016.09 7472.97,2606.22 7114.4,2401.33 6653.32,2350.05 6294.69,2503.76 6038.56,2708.68 5884.91,3067.27 5884.91,3528.3 6089.83,3938.14 6243.48,4143.06 5270.12,4143.06 5577.53,3733.28 5628.75,3630.79 5628.75,3016.09 5423.83,2657.46 5167.69,2452.51 5065.26,2401.33 4450.47,2401.33 4091.9,2606.22 3886.98,2913.63 3835.74,3067.27 3835.74,3630.79 4040.63,3938.2 4143.12,4143.06 3733.31,4143.06 3682.03,4091.9 3682.03,3067.27 3630.82,2298.9 "/>
  <polygon class="fil1" points="5065.26,6807 5475.04,6807 5577.53,7011.86 5577.53,9214.73 4143.12,9214.73 4143.12,7114.32 4245.61,6858.15 "/>
  <polygon class="fil1" points="8753.65,4348.04 9368.44,4348.04 10136.82,4399.31 10136.82,4706.66 3733.31,4706.58 3682.03,4655.39 3682.03,4399.23 "/>
  <polygon class="fil1" points="4809.1,2555.09 5065.26,2606.25 5372.67,2862.38 5475.04,3118.55 5423.83,3579.6 5116.51,3938.2 4860.37,4040.69 4450.47,3989.44 4143.12,3784.52 3989.44,3477.11 3989.44,3067.36 4194.34,2759.95 4399.26,2606.25 4604.15,2657.46 4604.15,3067.36 4809.1,3067.27 "/>
  <polygon class="fil1" points="8702.43,2555.09 9112.27,2555.09 9419.68,2708.68 9624.58,3016.09 9624.58,3169.76 9163.46,3220.98 9163.46,3374.68 9624.58,3425.9 9573.3,3682.03 9317.17,3938.2 9061.03,4040.69 8600,3989.44 8292.54,3733.31 8190.1,3477.11 8190.1,3067.36 8395.02,2759.95 "/>
  <polygon class="fil1" points="6602.07,2555.09 6960.7,2555.09 7370.51,2759.95 7421.73,2913.63 6960.7,3067.27 7114.35,3272.25 7524.16,3118.55 7575.46,3374.68 7421.73,3733.28 7216.84,3938.2 6960.7,4040.63 6499.67,3989.41 6192.21,3733.28 6089.77,3528.3 6089.77,3067.27 6243.45,2811.14 6448.37,2606.22 "/>
  <polygon class="fil0" points="6807,7063.13 7268.02,7063.13 7524.16,7370.54 7575.46,7729.08 7421.73,8087.67 7165.56,8241.38 6807,8190.1 6550.86,7882.78 6550.86,7370.45 "/>
  <polygon class="fil0" points="8856.2,7063.13 9317.17,7063.13 9573.3,7370.54 9573.3,7882.78 9317.17,8190.19 8958.57,8241.47 8702.43,8087.76 8548.79,7729.17 8651.25,7268.05 "/>
  <polygon class="fil0" points="4706.64,7472.94 5013.99,7472.94 5270.12,7677.92 5321.4,7780.29 5321.4,8087.7 5116.51,8343.87 5013.99,8395.08 4706.64,8395.08 4450.47,8190.1 4399.26,8087.67 4399.26,7780.29 4604.15,7524.16 "/>
  <polygon class="fil1" points="9778.22,10188.03 10290.52,10188.03 10341.74,10239.25 10341.74,10751.55 10290.52,10802.79 9726.98,10802.79 9726.98,10239.25 "/>
  <polygon class="fil1" points="3477.11,10188.03 4040.63,10188.03 4040.63,10802.79 3477.11,10802.79 "/>
  <polygon class="fil1" points="9009.81,7268.02 9265.95,7370.54 9368.44,7524.16 9317.19,7882.78 9214.73,7985.21 8958.57,7985.21 8804.92,7780.29 8804.92,7472.88 "/>
  <polygon class="fil1" points="7011.97,7268.02 7216.84,7319.27 7319.27,7472.94 7319.27,7780.29 7165.62,7985.21 6909.43,7985.21 6755.81,7729.05 6807,7421.67 "/>
  <polygon class="fil1" points="4757.85,7729.05 5013.99,7729.05 5116.51,7933.97 5013.99,8138.92 4706.64,8138.92 4655.39,8087.67 4655.39,7831.51 "/>
 </g>
 <g id="Capa_x0020_1_6">
  <metadata id="CorelCorpID_1Corel-Layer"/>
  <rect class="fil2" width="12230.73" height="12230.73"/>
 </g>
</svg>
