<?xml version="1.0" encoding="UTF-8"?>
<!DOCTYPE svg PUBLIC "-//W3C//DTD SVG 1.1//EN" "http://www.w3.org/Graphics/SVG/1.1/DTD/svg11.dtd">
<!-- Creator: CorelDRAW -->
<svg xmlns="http://www.w3.org/2000/svg" xml:space="preserve" width="41.9588mm" height="41.9588mm" version="1.1" style="shape-rendering:geometricPrecision; text-rendering:geometricPrecision; image-rendering:optimizeQuality; fill-rule:evenodd; clip-rule:evenodd"
viewBox="0 0 1511.27 1511.27"
 xmlns:xlink="http://www.w3.org/1999/xlink"
 xmlns:xodm="http://www.corel.com/coreldraw/odm/2003">
 <defs>
  <style type="text/css">
   <![CDATA[
    .str2 {stroke:black;stroke-width:9.52;stroke-miterlimit:22.9256}
    .str0 {stroke:black;stroke-width:9.54;stroke-linejoin:round;stroke-miterlimit:22.9256}
    .str1 {stroke:black;stroke-width:4.76;stroke-linecap:round;stroke-linejoin:round;stroke-miterlimit:22.9256}
    .fil4 {fill:none}
    .fil2 {fill:none;fill-rule:nonzero}
    .fil3 {fill:black;fill-rule:nonzero}
    .fil0 {fill:#040404;fill-rule:nonzero}
    .fil1 {fill:#FEFEFE;fill-rule:nonzero}
   ]]>
  </style>
 </defs>
 <g id="Capa_x0020_1">
  <metadata id="CorelCorpID_0Corel-Layer"/>
  <path class="fil0" d="M53.72 302.25l1403.83 0 0 888.91 -1403.83 0 0 -888.91zm153.26 30.66l-116.46 6.14 0 815.33 6.14 6.14 1140.23 0 183.91 -6.14 0 -815.33 -73.57 -6.14 -1140.26 0 0.01 0z"/>
  <polygon class="fil0" points="568.67,1221.81 905.82,1221.81 911.97,1234.07 911.97,1283.1 1181.69,1283.1 1181.69,1319.87 1175.57,1326.01 298.92,1326.01 292.81,1319.87 292.81,1289.21 298.92,1283.1 562.53,1276.96 "/>
  <polygon class="fil0" points="594.93,814.33 617.68,814.33 649.88,820 680.18,831.37 706.69,848.42 725.61,865.46 723.74,873.04 716.15,874.92 689.65,854.09 659.35,838.95 630.93,831.37 598.72,829.46 570.34,833.25 547.59,840.83 524.87,852.21 500.25,871.13 496.46,874.92 486.99,873.04 488.87,861.67 509.71,844.62 536.25,829.49 555.17,821.91 577.89,816.21 "/>
  <polygon class="fil0" points="596.84,854.09 613.89,854.09 638.51,857.88 663.14,867.34 683.97,880.62 697.23,891.97 695.32,901.46 689.65,903.34 666.9,886.3 647.97,876.83 627.14,871.13 600.63,869.25 576.01,873.04 551.38,882.5 534.34,893.88 522.97,903.34 515.41,901.46 513.5,893.88 526.75,880.62 551.38,865.46 572.21,857.88 "/>
  <polygon class="fil0" points="602.52,890.09 632.81,893.88 659.35,907.13 670.69,916.59 672.6,924.18 668.81,927.96 659.35,926.05 642.3,914.71 623.35,907.13 589.26,907.13 568.42,914.71 549.5,927.96 540.01,926.05 541.92,916.59 558.96,903.34 577.89,893.88 "/>
  <polygon class="fil0" points="598.72,960.14 612,960.14 623.35,965.84 629.02,973.4 630.93,988.56 625.26,999.93 615.77,1007.52 602.52,1009.4 589.26,1003.72 581.68,990.47 581.68,977.19 587.38,967.73 593.05,962.05 "/>
  <polygon class="fil0" points="593.05,927.96 619.56,927.96 642.3,939.31 646.09,943.1 644.18,952.59 638.51,954.47 623.35,945.01 617.68,943.1 593.05,943.1 574.13,954.47 566.54,952.59 564.63,945.01 576.01,935.52 "/>
  <polygon class="fil1" points="600.63,973.4 612,973.4 617.68,980.98 615.77,990.47 608.22,996.14 598.72,994.26 594.93,988.56 594.93,979.1 "/>
  <path id="play-svgrepo-com.svg" class="fil2 str0" d="M933.13 908.4c8.08,5.04 12.12,7.59 13.5,10.82 1.22,2.82 1.22,6 0,8.82 -1.38,3.24 -5.42,5.75 -13.5,10.82l-37.93 23.71c-8.96,5.59 -13.45,8.41 -17.16,8.11 -3.21,-0.24 -6.17,-1.88 -8.11,-4.48 -2.21,-2.99 -2.21,-8.27 -2.21,-18.85l0 -47.42c0,-10.57 0,-15.85 2.21,-18.84 1.94,-2.6 4.9,-4.24 8.11,-4.48 3.71,-0.31 8.19,2.49 17.16,8.11l37.93 23.71 0 -0.02z"/>
  <path id="music-svgrepo-com.svg" class="fil2 str1" d="M1178.67 958.6c0,5.67 -6.89,10.27 -15.39,10.27 -8.5,0 -15.38,-4.6 -15.38,-10.27 0,-5.67 6.89,-10.27 15.38,-10.27 8.5,0 15.39,4.6 15.39,10.27zm0 0l0 -71.83 61.56 -10.27 0 71.8m0 0c0,5.67 -6.89,10.27 -15.38,10.27 -8.5,0 -15.39,-4.6 -15.39,-10.27 0,-5.67 6.89,-10.27 15.39,-10.27 8.5,0 15.38,4.6 15.38,10.27zm-61.57 -41.03l61.56 -10.27"/>
  <g id="internet-svgrepo-com.svg">
   <g>
    <path class="fil3" d="M288.91 816.21c-61.73,0 -111.73,50.03 -111.73,111.73 0,61.7 50.03,111.73 111.73,111.73 61.73,0 111.72,-50.03 111.72,-111.73 0,-61.7 -50.02,-111.73 -111.72,-111.73zm-69.15 42.61c10.18,-10.18 22.58,-18.1 36.42,-23.02 -6.64,8.02 -12.15,18.29 -16.49,30.16l-26.42 0c2.05,-2.49 4.21,-4.87 6.48,-7.14l0.02 0zm-13.97 17.62l30.55 0c-3.93,13.94 -6.28,29.61 -6.7,46.27l-38.38 0c0.89,-16.94 6.09,-32.71 14.53,-46.27l0 0zm0 103.01c-8.44,-13.55 -13.64,-29.33 -14.52,-46.26l38.41 0c0.41,16.65 2.71,32.34 6.64,46.26l-30.52 0 0 0 -0.01 0zm13.97 17.62c-2.27,-2.27 -4.43,-4.68 -6.47,-7.17l26.46 0c1.85,5.14 3.93,10.02 6.25,14.5 3.05,5.87 6.45,11.12 10.18,15.66 -13.83,-4.9 -26.23,-12.84 -36.42,-22.99l0 0zm63.89 28.5c-1.63,-0.08 -3.27,-0.22 -4.87,-0.39 -2.57,-1.16 -5.12,-2.74 -7.64,-4.79 -7.69,-6.28 -14.83,-16.87 -20.26,-30.49l32.76 0 0 35.64 0 0 0 0.03zm0 -46.12l-36.41 0c-4.15,-13.61 -6.7,-29.39 -7.11,-46.26l43.55 0 0 46.26 0 0 -0.03 0zm0 -56.75l-43.5 0c0.44,-16.91 2.99,-32.65 7.14,-46.27l36.38 0 0 46.27 0 0 -0.03 0zm0 -56.75l-32.71 0c1.36,-3.4 2.79,-6.7 4.34,-9.69 4.65,-8.99 10.1,-16.1 15.88,-20.81 2.52,-2.05 5.06,-3.63 7.64,-4.79 1.6,-0.17 3.24,-0.31 4.87,-0.39l0 35.64 0 0 -0.02 0.03zm88.35 10.48c8.44,13.56 13.64,29.33 14.52,46.27l-38.41 0c-0.41,-16.65 -2.71,-32.35 -6.64,-46.27l30.52 0 0.01 0zm-13.98 -17.62c2.27,2.27 4.43,4.68 6.48,7.14l-26.46 0c-1.85,-5.15 -3.93,-10.02 -6.25,-14.5 -3.01,-5.87 -6.45,-11.12 -10.18,-15.66 13.83,4.92 26.23,12.84 36.41,22.99l0 0.02zm-63.89 -28.5c1.63,0.08 3.27,0.22 4.87,0.39 2.57,1.16 5.12,2.74 7.64,4.79 7.69,6.25 14.83,16.87 20.26,30.49l-32.76 0 0 -35.64 0 -0.03zm0 46.12l36.41 0c4.12,13.61 6.7,29.39 7.11,46.27l-43.55 0 0 -46.27 0.03 0zm0 56.75l43.52 0c-0.44,16.91 -3.01,32.65 -7.14,46.26l-36.38 0 0 -46.26zm12.51 87.24c-2.52,2.05 -5.06,3.63 -7.64,4.79 -1.6,0.17 -3.24,0.31 -4.87,0.39l0 -35.64 32.71 0c-1.36,3.4 -2.77,6.7 -4.34,9.69 -4.65,8.99 -10.13,16.11 -15.88,20.81l0.02 -0.03zm51.38 -23.33c-10.18,10.18 -22.58,18.1 -36.41,23.02 6.64,-8.02 12.15,-18.29 16.49,-30.16l26.42 0c-2.05,2.49 -4.21,4.87 -6.48,7.17l-0.02 -0.03zm13.98 -17.62l-30.55 0c3.93,-13.95 6.28,-29.61 6.72,-46.27l38.38 0c-0.89,16.94 -6.09,32.71 -14.52,46.27l-0.03 0z"/>
   </g>
  </g>
  <circle class="fil2 str2" cx="898.47" cy="920.66" r="93.22"/>
  <circle class="fil2 str2" cx="1194.08" cy="922.68" r="93.22"/>
  <path class="fil3" d="M229.73 637.55l18.95 -1.72c0.89,7.66 2.99,13.94 6.28,18.87 3.29,4.89 8.41,8.88 15.33,11.93 6.92,3.01 14.72,4.53 23.38,4.53 7.69,0 14.47,-1.13 20.36,-3.43 5.89,-2.3 10.27,-5.48 13.14,-9.46 2.88,-4.01 4.34,-8.38 4.34,-13.06 0,-4.76 -1.38,-8.91 -4.15,-12.51 -2.77,-3.54 -7.34,-6.53 -13.72,-8.99 -4.1,-1.55 -13.14,-4.04 -27.14,-7.41 -14.03,-3.37 -23.82,-6.53 -29.42,-9.52 -7.28,-3.82 -12.67,-8.58 -16.21,-14.22 -3.59,-5.64 -5.37,-12.01 -5.37,-18.98 0,-7.75 2.21,-14.94 6.56,-21.61 4.37,-6.72 10.71,-11.79 19.12,-15.27 8.38,-3.49 17.71,-5.23 27.97,-5.23 11.29,0 21.25,1.82 29.88,5.48 8.63,3.63 15.27,8.99 19.92,16.07 4.65,7.06 7.14,15.08 7.5,24.02l-19.37 1.5c-1.02,-9.63 -4.53,-16.91 -10.54,-21.81 -6,-4.92 -14.88,-7.39 -26.59,-7.39 -12.2,0 -21.11,2.24 -26.7,6.72 -5.56,4.48 -8.38,9.88 -8.38,16.19 0,5.45 1.99,9.96 5.92,13.53 3.9,3.51 14.03,7.17 30.41,10.87 16.41,3.74 27.64,6.95 33.76,9.71 8.83,4.07 15.41,9.24 19.62,15.52 4.24,6.26 6.31,13.45 6.31,21.61 0,8.14 -2.3,15.72 -6.95,22.88 -4.65,7.17 -11.29,12.75 -19.98,16.72 -8.69,3.98 -18.46,5.95 -29.35,5.95 -13.78,0 -25.29,-2.02 -34.61,-6.03 -9.33,-4.02 -16.6,-10.04 -21.91,-18.15 -5.31,-8.05 -8.11,-17.18 -8.38,-27.37l0.03 0.06zm148.22 48.97l0 -152.49 30.24 0 36.05 107.94c3.35,10.04 5.76,17.57 7.28,22.58 1.74,-5.53 4.48,-13.69 8.17,-24.46l36.69 -106.05 27.01 0 0 152.49 -19.37 0 0 -127.55 -44.52 127.55 -18.18 0 -44.02 -129.91 0 129.91 -19.37 0 0.03 -0.01zm161.12 0l58.49 -152.49 22.19 0 62.12 152.49 -22.99 0 -17.65 -46.21 -64.22 0 -16.55 46.21 -21.39 0zm43.86 -62.62l51.96 0 -15.91 -42.28c-4.79,-12.84 -8.41,-23.46 -10.93,-31.85 -2.1,9.94 -4.9,19.7 -8.41,29.36l-16.72 44.77 0 0zm115.33 62.62l0 -152.49 67.57 0c13.59,0 23.94,1.38 30.99,4.12 7.05,2.74 12.7,7.55 16.93,14.47 4.24,6.92 6.31,14.58 6.31,22.97 0,10.82 -3.51,19.95 -10.51,27.36 -7,7.42 -17.79,12.09 -32.4,14.14 5.37,2.55 9.41,5.12 12.17,7.58 5.89,5.4 11.46,12.17 16.68,20.31l26.37 41.53 -25.21 0 -20.17 -31.74c-5.86,-9.18 -10.71,-16.19 -14.52,-21.06 -3.82,-4.87 -7.25,-8.24 -10.27,-10.18 -2.99,-1.91 -6.06,-3.27 -9.18,-4.04 -2.27,-0.47 -6.01,-0.72 -11.21,-0.72l-23.35 0 0 67.74 -20.23 0 0.03 0zm20.23 -85.19l43.3 0c9.21,0 16.41,-0.97 21.58,-2.88 5.18,-1.88 9.13,-4.92 11.79,-9.16 2.69,-4.17 4.04,-8.72 4.04,-13.67 0,-7.19 -2.6,-13.16 -7.8,-17.81 -5.2,-4.65 -13.45,-6.95 -24.71,-6.95l-48.2 0 0 50.47zm168.06 85.19l0 -134.58 -50.25 0 0 -17.88 120.75 0 0 17.88 -50.25 0 0 134.58 -20.23 0 -0.03 0zm181.59 0l0 -134.58 -50.25 0 0 -17.88 120.75 0 0 17.88 -50.25 0 0 134.58 -20.23 0 -0.03 0zm134.72 0l-58.88 -152.49 21.86 0 39.62 110.82c3.15,8.88 5.86,17.18 8,24.96 2.35,-8.33 5.06,-16.65 8.19,-24.96l41.09 -110.82 20.58 0 -59.46 152.49 -21 0 0 0z"/>
 </g>
 <g id="Capa_x0020_1_1">
  <metadata id="CorelCorpID_1Corel-Layer"/>
  <rect class="fil4" width="1511.27" height="1511.27"/>
 </g>
</svg>
