<?xml version="1.0" encoding="UTF-8"?>
<!DOCTYPE svg PUBLIC "-//W3C//DTD SVG 1.1//EN" "http://www.w3.org/Graphics/SVG/1.1/DTD/svg11.dtd">
<!-- Creator: CorelDRAW -->
<svg xmlns="http://www.w3.org/2000/svg" xml:space="preserve" width="211.644mm" height="111.99mm" version="1.1" style="shape-rendering:geometricPrecision; text-rendering:geometricPrecision; image-rendering:optimizeQuality; fill-rule:evenodd; clip-rule:evenodd"
viewBox="0 0 34762.53 18394.31"
 xmlns:xlink="http://www.w3.org/1999/xlink"
 xmlns:xodm="http://www.corel.com/coreldraw/odm/2003">
 <defs>
  <style type="text/css">
   <![CDATA[
    .fil0 {fill:#E3D6B5;fill-rule:nonzero}
   ]]>
  </style>
 </defs>
 <g id="Capa_x0020_1">
  <metadata id="CorelCorpID_0Corel-Layer"/>
  <path class="fil0" d="M15937.7 2562.29c-7.77,15.52 -15.52,31.06 -23.29,46.58 -7.77,15.52 -42.71,11.65 -104.82,-11.65 -100.93,-38.83 -194.11,-62.12 -279.52,-69.89 -85.41,-7.75 -166.93,-7.75 -244.59,0 -194.11,23.31 -419.28,102.89 -675.5,238.77 -256.23,135.87 -529.94,306.69 -821.1,512.44 -291.17,205.76 -586.21,438.7 -885.14,698.8 -298.94,260.11 -590.1,524.11 -873.5,791.98 -283.41,267.88 -549.34,531.86 -797.81,791.98 -248.46,260.11 -461.99,491.09 -640.56,692.97 -427.05,481.4 -778.4,920.1 -1054.03,1316.07 -275.64,395.99 -502.75,737.63 -681.33,1024.92 -62.12,100.93 -122.3,205.76 -180.53,314.46 -58.24,108.7 -116.47,205.76 -174.71,291.17 -58.23,85.41 -114.52,155.28 -168.87,209.63 -54.35,54.37 -104.82,73.76 -151.41,58.24 -85.41,-23.29 -128.12,-97.06 -128.12,-221.29 0,-124.22 54.35,-298.92 163.05,-524.09 85.41,-178.59 211.59,-395.99 378.51,-652.22 166.94,-256.23 351.35,-527.98 553.23,-815.27 155.28,-318.33 229.05,-603.69 221.28,-856.02 -7.77,-252.35 -73.76,-479.46 -197.99,-681.34 -100.95,93.18 -196.05,182.47 -285.35,267.88 -89.29,85.41 -176.63,170.82 -262.04,256.23 -823.04,823.03 -1578.13,1490.78 -2265.29,2003.23 -687.16,512.46 -1314.13,910.39 -1880.94,1193.79 -566.79,283.41 -1073.44,475.57 -1519.89,576.52 -446.47,100.93 -836.63,151.41 -1170.5,151.41 -225.17,0 -450.34,-23.29 -675.51,-69.89 -225.17,-46.58 -425.1,-133.93 -599.79,-262.04 -174.71,-128.12 -310.58,-300.87 -407.64,-518.28 -97.06,-217.4 -126.18,-496.92 -87.35,-838.56 23.29,-264 100.93,-535.75 232.92,-815.27 131.99,-279.52 302.81,-555.17 512.46,-826.92 209.63,-271.75 454.22,-531.86 733.74,-780.32 279.52,-248.48 582.33,-473.63 908.45,-675.51 232.92,-139.76 483.32,-265.94 751.2,-378.51 267.88,-112.59 539.64,-209.65 815.27,-291.17 275.64,-81.53 547.4,-151.42 815.27,-209.65 267.88,-58.23 522.17,-98.99 762.86,-122.28 -62.12,-46.6 -133.95,-135.88 -215.46,-267.88 -81.53,-132.01 -110.64,-291.17 -87.35,-477.52 38.81,-380.45 196.05,-712.39 471.69,-995.78 275.63,-283.41 619.21,-520.23 1030.72,-710.45 411.53,-190.23 867.68,-333.87 1368.5,-430.93 500.8,-97.06 995.78,-145.59 1484.95,-145.59 566.81,0 1090.9,23.29 1572.3,69.89 481.4,46.58 925.91,108.7 1333.55,186.34 407.64,77.64 788.09,161.11 1141.38,250.4 353.29,89.29 692.99,176.65 1019.09,262.06 54.35,15.52 128.12,36.87 221.29,64.04 93.16,27.18 192.16,56.3 296.98,87.36 104.82,31.04 211.59,64.06 320.29,98.99 108.7,34.94 205.76,67.93 291.17,98.99 93.18,23.29 139.76,54.35 139.76,93.18zm-1083.15 -46.6c-271.75,23.31 -524.09,71.83 -757.03,145.59 -232.94,73.76 -496.92,168.88 -791.98,285.34 -791.97,318.35 -1525.72,720.16 -2201.22,1205.45 -675.51,485.28 -1281.15,972.49 -1816.89,1461.65 108.7,163.07 184.4,347.47 227.11,553.23 42.71,205.76 29.11,428.99 -40.77,669.68 155.28,-201.88 316.4,-397.93 483.34,-588.16 166.93,-190.22 328.04,-362.98 483.34,-518.28 830.79,-846.32 1609.18,-1549.01 2335.16,-2108.05 725.97,-559.04 1418.96,-927.85 2078.93,-1106.44zm279.52 -151.41c-62.12,-15.52 -130.05,-31.06 -203.82,-46.58 -73.76,-15.54 -153.34,-31.06 -238.75,-46.58 -326.1,-62.12 -652.22,-124.24 -978.32,-186.36 -326.1,-62.1 -685.22,-116.47 -1077.32,-163.05 -392.11,-46.58 -834.69,-85.41 -1327.73,-116.47 -493.03,-31.06 -1065.67,-46.58 -1717.88,-46.58 -489.17,0 -976.39,44.64 -1461.66,133.93 -485.28,89.3 -923.97,217.42 -1316.09,384.35 -392.1,166.94 -718.2,368.81 -978.32,605.62 -260.11,236.82 -405.68,506.65 -436.74,809.46 -15.54,201.88 21.35,355.22 110.64,460.05 89.29,104.81 164.99,172.76 227.11,203.8 62.12,-7.75 118.41,-13.58 168.88,-17.46 50.47,-3.89 102.89,-5.83 157.24,-5.83 675.5,-15.52 1265.6,64.06 1770.29,238.77 504.69,174.7 904.56,413.45 1199.62,716.26 605.62,-489.15 1248.14,-949.2 1927.53,-1380.13 679.39,-430.93 1391.77,-782.27 2137.18,-1054.03 388.22,-147.53 737.62,-262.06 1048.2,-343.58 310.58,-81.53 640.58,-130.05 989.97,-145.59zm-6219.34 3028.15c-295.06,-287.29 -694.93,-504.69 -1199.62,-652.22 -504.69,-147.53 -1052.07,-209.63 -1642.17,-186.34 -240.71,7.77 -508.58,44.64 -803.63,110.64 -295.04,66 -595.92,151.41 -902.62,256.23 -306.7,104.82 -607.56,225.17 -902.62,361.05 -295.04,135.87 -562.92,277.57 -803.63,425.1 -326.1,209.65 -632.79,430.93 -920.08,663.87 -287.29,232.92 -539.63,469.76 -757.05,710.45 -217.4,240.69 -394.04,483.34 -529.92,727.92 -135.88,244.57 -215.46,479.45 -238.75,704.62 -38.83,302.81 -17.48,551.27 64.06,745.38 81.52,194.11 196.05,347.47 343.58,460.05 147.53,112.59 318.33,192.17 512.44,238.75 194.13,46.6 392.11,69.89 593.99,69.89 427.03,0 867.67,-83.47 1321.9,-250.4 454.22,-166.94 935.62,-411.53 1444.19,-733.76 508.57,-322.23 1050.15,-722.09 1624.71,-1199.6 574.56,-477.52 1195.73,-1026.86 1863.47,-1648.01 147.53,-132.01 297,-265.94 448.4,-401.82 151.41,-135.87 312.52,-269.81 483.34,-401.81zm5252.67 791.98c-7.77,77.64 -33.01,135.87 -75.7,174.7 -42.71,38.81 -75.72,54.35 -99.01,46.58 -15.52,-7.77 -34.94,-21.35 -58.23,-40.77 -23.29,-19.41 -50.47,-36.87 -81.53,-52.41 -54.35,-31.04 -98.99,-52.4 -133.93,-64.06 -34.94,-11.65 -91.24,-21.35 -168.88,-29.11 -116.47,-7.77 -263.98,31.06 -442.57,116.47 -178.59,85.41 -368.81,197.99 -570.69,337.75 -201.88,139.76 -411.51,298.94 -628.93,477.51 -217.4,178.59 -423.16,361.05 -617.27,547.4 -186.34,178.59 -339.7,328.06 -460.05,448.4 -120.35,120.35 -229.05,236.82 -326.1,349.39 -97.06,112.59 -197.99,234.88 -302.81,366.89 -104.82,131.99 -234.88,295.04 -390.16,489.15 -38.83,0 -67.95,-17.48 -87.36,-52.41 -19.4,-34.94 -33,-77.64 -40.75,-128.12 -7.77,-50.46 -9.71,-100.93 -5.83,-151.41 3.88,-50.46 13.58,-91.22 29.12,-122.28 155.28,-295.06 366.87,-611.45 634.75,-949.2 267.88,-337.76 557.1,-669.7 867.67,-995.8 186.36,-201.88 374.64,-386.28 564.87,-553.21 190.23,-166.94 355.22,-293.12 494.98,-378.53 93.18,-62.1 215.46,-110.64 366.87,-145.58 151.41,-34.94 300.87,-52.41 448.4,-52.41 -240.71,155.28 -512.46,366.87 -815.27,634.75 -302.81,267.88 -578.46,549.34 -826.92,844.38l34.94 46.6c163.07,-139.76 353.29,-302.81 570.69,-489.17 217.42,-186.34 438.7,-359.1 663.87,-518.28 225.17,-159.17 444.53,-289.23 658.04,-390.16 213.53,-100.95 390.18,-139.76 529.94,-116.47 100.93,15.52 172.76,56.29 215.46,122.28 42.71,66.01 60.16,141.72 52.41,227.13zm11541.88 -2585.58c-54.35,271.75 -147.53,485.28 -279.52,640.58 -132.01,155.28 -252.35,260.11 -361.05,314.46 -46.58,23.29 -77.64,33 -93.18,29.12 -15.52,-3.89 -27.17,-13.6 -34.94,-29.12 -7.75,-23.29 -9.71,-36.89 -5.81,-40.77 3.88,-3.88 29.11,-25.23 75.7,-64.06 85.41,-69.87 168.87,-172.76 250.4,-308.64 81.53,-135.87 137.82,-285.34 168.88,-448.39 54.35,-279.52 52.41,-547.4 -5.83,-803.63 -58.23,-256.23 -186.34,-481.4 -384.35,-675.51 -197.99,-194.11 -469.74,-347.46 -815.26,-460.05 -345.52,-112.58 -778.4,-164.99 -1298.61,-157.22 -419.28,7.77 -856.04,81.52 -1310.26,221.28 -454.22,139.76 -908.44,326.12 -1362.67,559.04 -454.22,232.94 -906.5,498.88 -1356.84,797.81 -450.34,298.92 -877.38,607.56 -1281.14,925.91 -178.59,147.51 -372.7,308.63 -582.33,483.34 -209.65,174.7 -417.34,353.27 -623.1,535.74 -205.76,182.47 -401.81,357.18 -588.16,524.11 -186.34,166.94 -345.52,312.52 -477.51,436.76 85.41,0 223.23,-3.89 413.45,-11.65 190.23,-7.77 351.35,-3.89 483.34,11.65 15.54,0 33,3.88 52.41,11.65 19.41,7.77 21.35,31.06 5.83,69.87 -23.31,38.83 -66,58.24 -128.12,58.24 -46.6,0 -112.59,0 -198,0 -85.41,0 -176.63,1.94 -273.69,5.81 -97.06,3.89 -192.17,7.77 -285.35,11.65 -93.16,3.89 -174.7,9.71 -244.57,17.48 -108.72,108.7 -209.65,209.63 -302.83,302.81 -93.16,93.18 -201.86,205.76 -326.1,337.76 -605.62,628.91 -1054.03,1131.67 -1345.19,1508.24 -291.17,376.58 -359.1,611.45 -203.82,704.62 46.58,31.06 112.59,36.89 197.99,17.48 85.41,-19.41 180.53,-54.35 285.35,-104.82 104.82,-50.46 211.59,-112.58 320.29,-186.34 108.7,-73.76 209.63,-145.59 302.81,-215.46 69.87,-54.35 155.28,-122.3 256.23,-203.82 100.93,-81.53 209.63,-172.76 326.1,-273.71 116.47,-100.93 232.94,-201.86 349.41,-302.81 116.45,-100.93 221.28,-194.11 314.46,-279.52 23.29,-15.52 50.47,-31.06 81.52,-46.58 31.06,-15.52 58.24,-11.65 81.53,11.65 23.29,38.83 21.35,71.83 -5.83,98.99 -27.17,27.18 -52.4,56.29 -75.7,87.35 -69.87,69.89 -157.22,149.47 -262.04,238.77 -104.82,89.29 -215.46,182.47 -331.93,279.52 -116.47,97.06 -234.88,196.05 -355.22,296.98 -120.35,100.95 -234.88,190.23 -343.58,267.88 -256.23,194.11 -496.92,341.64 -722.09,442.57 -225.17,100.95 -423.16,120.35 -593.98,58.24 -186.34,-69.89 -281.46,-203.82 -285.35,-401.82 -3.88,-197.99 60.18,-409.57 192.17,-634.75 248.46,-411.51 830.79,-1079.26 1747.02,-2003.23 -100.95,0 -209.65,3.88 -326.12,11.65 -116.47,7.77 -244.57,19.41 -384.33,34.94 -77.66,7.77 -108.72,-11.65 -93.18,-58.23 7.77,-23.29 23.29,-38.83 46.58,-46.58 23.29,-7.77 42.71,-15.54 58.24,-23.31 31.06,-7.75 81.52,-15.52 151.41,-23.29 69.87,-7.75 145.58,-13.58 227.11,-17.46 81.52,-3.89 164.99,-9.71 250.4,-17.48 85.41,-7.77 163.05,-11.65 232.94,-11.65 427.03,-427.05 869.62,-840.5 1327.72,-1240.37 458.11,-399.88 931.74,-778.4 1420.9,-1135.56 419.28,-302.81 861.87,-593.98 1327.73,-873.5 465.86,-279.52 939.5,-524.11 1420.9,-733.74 481.4,-209.65 960.85,-376.58 1438.37,-500.82 477.51,-124.24 937.56,-190.23 1380.13,-197.99 566.81,-7.77 1036.55,52.4 1409.25,180.51 372.7,128.12 667.74,295.06 885.14,500.82 217.42,205.76 361.05,440.63 430.93,704.62 69.89,264 81.53,528 34.95,791.98zm-4961.51 2212.88c178.57,93.18 196.05,318.33 52.41,675.51 -143.65,357.16 -463.94,784.21 -960.86,1281.14 -256.23,256.23 -502.75,485.28 -739.57,687.16 -236.82,201.86 -460.03,368.81 -669.68,500.8 -209.63,132.01 -397.93,225.17 -564.86,279.52 -166.94,54.35 -304.77,69.89 -413.47,46.6 -178.57,-46.6 -295.04,-139.76 -349.39,-279.52 -54.35,-139.76 -56.3,-310.58 -5.83,-512.46 50.47,-201.88 149.47,-423.16 297,-663.87 147.51,-240.69 337.75,-481.4 570.69,-722.09 240.69,-240.69 496.92,-456.16 768.67,-646.39 271.77,-190.23 537.69,-343.58 797.8,-460.05 260.12,-116.47 496.94,-192.17 710.46,-227.11 213.51,-34.94 382.39,-21.35 506.63,40.77zm-69.89 139.76c-62.12,-46.58 -164.99,-42.71 -308.64,11.65 -143.64,54.35 -318.33,153.34 -524.09,297 -205.76,143.64 -432.88,324.16 -681.34,541.57 -248.46,217.4 -504.69,465.86 -768.67,745.38 -170.82,178.59 -328.06,351.35 -471.69,518.28 -143.64,166.94 -262.04,320.29 -355.22,460.05 -93.18,139.76 -149.47,262.06 -168.88,366.87 -19.41,104.82 9.71,180.53 87.35,227.11 69.89,38.83 174.71,25.25 314.47,-40.75 139.76,-66.01 306.69,-172.76 500.8,-320.29 194.11,-147.53 411.51,-330 652.22,-547.4 240.69,-217.4 493.05,-461.99 757.03,-733.74 116.47,-116.47 242.65,-252.35 378.51,-407.64 135.88,-155.3 256.23,-308.64 361.05,-460.05 104.82,-151.41 182.47,-287.29 232.94,-407.64 50.46,-120.35 48.52,-203.82 -5.83,-250.4zm14057.57 -3715.31c-54.35,271.77 -147.51,485.28 -279.52,640.58 -131.99,155.28 -252.34,260.11 -361.04,314.46 -46.6,23.29 -77.66,33 -93.18,29.12 -15.52,-3.88 -27.17,-13.58 -34.94,-29.12 -7.77,-15.52 -9.71,-27.17 -5.83,-34.94 3.89,-7.77 29.12,-31.06 75.7,-69.89 85.41,-69.87 168.88,-172.76 250.42,-308.63 81.52,-135.88 137.81,-281.46 168.87,-436.76 54.35,-279.52 44.64,-549.34 -29.11,-809.44 -73.76,-260.11 -213.53,-489.17 -419.28,-687.16 -205.77,-197.99 -485.29,-355.22 -838.56,-471.69 -353.29,-116.47 -782.27,-174.7 -1286.97,-174.7 -900.68,0 -1816.89,217.4 -2748.63,652.2 -931.73,434.82 -1847.93,1028.8 -2748.61,1781.95 -597.87,496.92 -1193.79,1032.67 -1787.77,1607.25 -593.99,574.56 -1205.45,1187.96 -1834.36,1840.18 108.7,0 262.04,-1.94 460.05,-5.83 197.99,-3.88 370.75,-1.94 518.28,5.83 15.52,0 31.06,3.88 46.58,11.65 15.54,7.77 19.41,27.17 11.65,58.23 -23.29,46.6 -66,69.89 -128.12,69.89 -62.1,0 -139.76,1.94 -232.92,5.81 -93.18,3.89 -190.23,7.77 -291.17,11.65 -100.95,3.89 -198,7.77 -291.17,11.65 -93.18,3.89 -174.71,5.83 -244.59,5.83 -201.88,217.4 -413.47,450.34 -634.75,698.8 -221.29,248.46 -442.57,494.98 -663.87,739.57 -221.28,244.57 -432.87,475.57 -634.75,692.97 -201.88,217.4 -376.58,403.76 -524.11,559.04 -551.27,582.33 -1112.25,1147.21 -1682.94,1694.6 -570.69,547.4 -1096.73,1011.32 -1578.13,1391.77 -745.38,597.87 -1459.73,1104.5 -2142.99,1519.91 -683.28,415.39 -1345.19,753.15 -1985.77,1013.26 -640.56,260.11 -1261.72,448.39 -1863.47,564.86 -601.75,116.47 -1189.91,166.94 -1764.47,151.41 -636.68,-15.52 -1186.02,-122.28 -1648.01,-326.1 -461.99,-201.88 -823.04,-469.76 -1083.15,-803.63 -260.11,-333.87 -413.47,-710.45 -460.05,-1129.73 -46.58,-419.28 27.18,-846.32 221.29,-1281.14 23.29,-38.83 50.46,-85.41 81.52,-139.76 31.06,-54.35 64.06,-102.87 98.99,-145.58 34.95,-42.71 69.89,-75.7 104.82,-99.01 34.94,-23.29 64.06,-23.29 87.35,0 7.77,15.54 -3.88,58.24 -34.94,128.12 -31.06,69.89 -58.23,128.12 -81.53,174.71 -209.63,427.03 -296.98,844.38 -262.04,1252.01 34.94,407.64 172.76,770.63 413.47,1088.96 240.69,318.35 574.56,578.46 1001.61,780.34 427.03,201.88 927.85,310.58 1502.41,326.1 636.7,15.54 1253.97,-48.52 1851.84,-192.17 597.85,-143.64 1191.83,-355.22 1781.93,-636.68 590.1,-279.52 1178.27,-615.33 1764.47,-1007.45 586.23,-394.04 1182.14,-830.79 1787.78,-1312.2 178.57,-139.76 394.04,-320.27 646.39,-541.57 252.34,-223.23 518.28,-465.86 797.8,-729.86 279.52,-263.98 564.86,-541.57 856.04,-834.69 291.17,-291.17 572.63,-576.5 844.38,-856.02 364.93,-380.47 751.22,-793.92 1158.85,-1236.49 407.64,-442.57 863.79,-945.33 1368.48,-1504.37 -100.93,0 -209.63,3.88 -326.1,11.65 -116.47,7.77 -244.59,19.41 -384.35,34.94 -77.64,7.77 -108.7,-11.65 -93.18,-58.23 7.77,-23.29 23.29,-38.83 46.6,-46.58 23.29,-7.77 42.71,-15.54 58.23,-23.31 31.06,-7.75 81.53,-15.52 151.41,-23.29 69.89,-7.75 145.59,-13.58 227.11,-17.46 81.53,-3.89 163.05,-9.71 244.59,-17.48 81.53,-7.77 153.34,-11.65 215.46,-11.65 341.64,-357.16 689.1,-716.28 1042.38,-1077.32 353.29,-361.05 702.68,-710.45 1048.2,-1048.21 345.53,-337.75 685.22,-656.1 1019.09,-955.03 333.87,-298.92 656.1,-572.63 966.68,-821.09 403.76,-318.33 840.5,-611.45 1310.26,-879.33 469.76,-267.88 956.97,-500.8 1461.66,-698.8 504.69,-197.99 1013.26,-351.33 1525.72,-460.03 512.44,-108.72 1013.26,-163.07 1502.41,-163.07 559.04,0 1028.8,67.95 1409.25,203.82 380.47,135.88 679.4,310.58 896.81,524.11 217.4,213.53 362.99,452.28 436.74,716.28 73.76,263.98 87.36,527.98 40.77,791.97z"/>
  <path class="fil0" d="M4382.92 11940.29l1274.53 0c271.18,0 516.75,39.17 736.7,117.5 219.95,78.35 405.25,191.34 555.92,338.98 150.65,147.63 266.64,325.41 348,533.3 81.35,207.91 122.04,444.43 122.04,709.58 0,289.26 -67.8,566.47 -203.39,831.62 -135.59,265.15 -319.38,480.6 -551.39,646.31 -232,165.71 -492.64,248.58 -781.9,248.58 102.44,42.18 213.94,128.05 334.46,257.63 120.51,129.56 225.98,254.6 316.36,375.11 0,0 40.68,58.77 122.04,176.27 81.35,117.5 183.8,260.63 307.33,429.37 123.53,168.73 248.58,334.45 375.13,497.15 126.55,162.71 235.01,292.27 325.41,388.68 120.53,132.58 241.04,250.09 361.56,352.53 120.53,102.44 251.6,183.8 393.22,244.06 141.62,60.26 299.79,90.4 474.55,90.4l0 90.39 -497.15 0c-277.21,0 -516.75,-42.18 -718.63,-126.55 -201.86,-84.36 -372.11,-188.31 -510.7,-311.85 -138.61,-123.53 -256.12,-242.55 -352.53,-357.05 -18.08,-24.11 -67.8,-93.41 -149.16,-207.91 -81.35,-114.5 -177.77,-251.6 -289.26,-411.28 -111.48,-159.7 -221.46,-317.87 -329.93,-474.57 -108.47,-156.68 -201.88,-290.76 -280.21,-402.23 -78.35,-111.49 -123.53,-176.27 -135.59,-194.36 -114.5,-150.65 -241.05,-289.24 -379.65,-415.8 -138.61,-126.55 -289.26,-189.82 -451.97,-189.82l0 -90.39c0,0 46.71,1.49 140.11,4.52 93.41,3.01 206.4,1.51 338.98,-4.52 156.68,-6.03 328.42,-30.14 515.24,-72.32 186.8,-42.18 361.56,-129.56 524.27,-262.14 162.71,-132.57 286.24,-334.45 370.61,-605.62 18.08,-66.29 33.15,-149.14 45.2,-248.58 12.04,-99.44 15.06,-197.36 9.03,-293.78 -6.03,-409.77 -109.98,-736.7 -311.86,-980.75 -201.86,-244.06 -471.55,-375.13 -809,-393.2 -168.73,-12.06 -341.99,-16.57 -519.77,-13.57 -177.77,3.01 -326.91,4.52 -447.43,4.52 -120.53,0 -180.79,0 -180.79,0 0,-6.03 -7.52,-31.63 -22.6,-76.84 -15.06,-45.19 -30.12,-90.39 -45.19,-135.59 -15.06,-45.19 -22.6,-67.79 -22.6,-67.79zm117.5 0l0 6327.46 -587.54 0 0 -6327.46 587.54 0zm-560.42 5667.6l0 659.86 -723.14 0 0 -90.39c0,0 19.58,0 58.75,0 39.17,0 58.75,0 58.75,0 156.68,0 290.77,-55.75 402.25,-167.22 111.49,-111.49 170.25,-245.57 176.27,-402.25l27.12 0zm0 -5007.74l-27.12 0c-6.03,-156.68 -64.78,-290.76 -176.27,-402.25 -111.48,-111.48 -245.57,-167.22 -402.25,-167.22 0,0 -19.58,0 -58.75,0 -39.17,0 -58.75,0 -58.75,0l0 -90.39 723.14 0 0 659.86zm533.3 5007.74l27.12 0c0,156.68 57.26,290.76 171.76,402.25 114.48,111.48 250.07,167.22 406.77,167.22 0,0 18.07,0 54.24,0 36.15,0 54.24,0 54.24,0l0 90.39 -714.11 0 0 -659.86zm5776.07 -4763.68l0 5423.54 -578.52 0 0 -5423.54 578.52 0zm2431.54 5143.33l-18.07 280.21 -2431.56 0 0 -280.21 2449.63 0zm-424.83 -2567.15l0 271.18 -2024.8 0 0 -271.18 2024.8 0zm415.8 -2576.18l0 280.23 -2440.59 0 0 -280.23 2440.59 0zm515.24 4130.93l-497.15 1292.62 -1373.97 0 307.33 -280.21c301.32,0 543.87,-43.69 727.66,-131.07 183.8,-87.38 332.95,-207.91 447.45,-361.56 114.48,-153.67 213.92,-326.92 298.29,-519.77l90.39 0zm-931.04 -1301.65l0 515.24 -99.44 0 0 -117.5c0,-102.44 -30.14,-191.34 -90.39,-266.66 -60.26,-75.33 -153.67,-112.99 -280.23,-112.99l0 -18.08 470.05 0zm0 -750.25l0 515.24 -470.05 0 0 -18.08c126.55,0 219.96,-37.66 280.23,-112.99 60.25,-75.33 90.39,-164.22 90.39,-266.66l0 -117.5 99.44 0zm415.8 -1825.92l0 623.69 -99.44 0 0 -135.59c0,-126.54 -40.67,-235.01 -122.02,-325.4 -81.35,-90.4 -191.34,-135.59 -329.93,-135.59l0 -27.12 551.39 0zm0 -397.73l0 235.03 -1030.47 -90.4c186.8,0 385.68,-16.57 596.59,-49.72 210.91,-33.15 355.54,-64.78 433.88,-94.9zm-2982.95 4989.66l117.5 578.51 -786.41 0 0 -90.39c0,0 21.09,0 63.29,0 42.18,0 63.27,0 63.27,0 150.65,0 274.18,-48.21 370.61,-144.64 96.41,-96.41 147.63,-210.91 153.66,-343.48l18.08 0zm0 -4275.57l-18.08 0c-6.03,-138.59 -57.24,-253.09 -153.66,-343.48 -96.43,-90.4 -219.96,-135.59 -370.61,-135.59 0,0 -21.09,0 -63.27,0 -42.2,0 -63.29,0 -63.29,0l0 -90.4 786.41 0 -117.5 569.47zm5884.55 -696.01c168.73,0 316.38,6.01 442.92,18.07 126.55,12.06 236.54,25.61 329.93,40.68 93.41,15.06 174.76,33.15 244.06,54.24 69.31,21.09 131.07,40.67 185.31,58.75l9.05 894.88 -108.47 0c0,-247.08 -84.38,-441.42 -253.11,-583.04 -168.73,-141.62 -430.86,-212.41 -786.41,-212.41 -301.3,0 -558.93,82.85 -772.85,248.58 -213.94,165.71 -317.89,369.1 -311.86,610.14 0,78.35 10.54,158.19 31.63,239.54 21.11,81.35 57.26,161.2 108.47,239.54 51.23,78.33 122.04,156.68 212.42,235.01l1825.94 1410.12c138.59,114.5 241.04,260.63 307.33,438.42 66.29,177.77 102.44,354.03 108.47,528.79 6.03,265.15 -63.27,509.21 -207.91,732.18 -144.62,222.97 -338.96,399.23 -583.02,528.8 -244.06,129.56 -513.74,194.34 -809.01,194.34 -174.76,0 -363.08,-15.08 -564.96,-45.2 -201.88,-30.12 -390.19,-76.84 -564.96,-140.11 -174.75,-63.27 -319.38,-143.13 -433.88,-239.54 -18.07,-84.36 -27.12,-191.34 -27.12,-320.9 0,-129.56 10.54,-266.66 31.63,-411.28 21.11,-144.62 49.72,-274.18 85.89,-388.68l108.47 0c-24.11,271.18 15.06,503.18 117.5,696.01 102.44,192.85 253.09,338.98 451.97,438.42 198.86,99.42 430.86,146.13 696.01,140.11 373.62,-12.06 667.4,-106.98 881.33,-284.74 213.92,-177.77 320.9,-414.29 320.9,-709.58 0,-144.62 -25.62,-275.69 -76.84,-393.2 -51.23,-117.52 -134.09,-227.49 -248.58,-329.95l-1807.85 -1392.04c-168.73,-144.62 -283.23,-304.32 -343.5,-479.09 -60.26,-174.75 -90.39,-340.47 -90.39,-497.15 0,-247.07 66.29,-470.03 198.86,-668.89 132.58,-198.87 311.86,-357.06 537.84,-474.57 225.98,-117.5 477.57,-176.26 754.78,-176.26zm1193.18 81.35l9.03 162.71 -641.78 0 0 -162.71 632.74 0zm3778.4 72.3l0 5396.43 -587.54 0 0 -5396.43 587.54 0zm2187.5 -36.15l0 271.18 -4962.54 0 0 -271.18 4962.54 0zm0 253.09l0 623.71 -99.44 0 0 -144.62c0,-126.55 -40.67,-233.51 -122.02,-320.9 -81.35,-87.38 -191.34,-134.08 -329.93,-140.11l0 -18.08 551.39 0zm0 -397.72l0 235.01 -1012.39 -90.39c120.51,0 248.58,-7.54 384.16,-22.6 135.59,-15.06 260.63,-34.66 375.11,-58.75 114.5,-24.11 198.87,-45.2 253.11,-63.27zm-2756.97 4998.69l0 578.51 -659.86 0 0 -90.39c6.03,0 25.61,0 58.75,0 33.15,0 49.72,0 49.72,0 144.62,0 268.15,-48.21 370.61,-144.64 102.44,-96.41 156.68,-210.91 162.71,-343.48l18.07 0zm542.35 0l27.12 0c6.03,132.57 60.26,247.07 162.71,343.48 102.44,96.43 225.99,144.64 370.61,144.64 0,0 16.57,0 49.72,0 33.15,0 49.72,0 49.72,0l0 90.39 -659.88 0 0 -578.51zm-2196.54 -4600.98l0 18.08c-138.59,6.03 -248.58,52.72 -329.93,140.11 -81.35,87.38 -122.02,194.34 -122.02,320.9l0 144.62 -99.44 0 0 -623.71 551.39 0zm-551.39 -397.72c54.24,18.07 137.1,39.16 248.58,63.27 111.49,24.1 236.54,43.69 375.13,58.75 138.59,15.06 268.17,22.6 388.68,22.6l-1012.39 90.39 0 -235.01z"/>
 </g>
</svg>
