<?xml version="1.0" encoding="UTF-8"?>
<!DOCTYPE svg PUBLIC "-//W3C//DTD SVG 1.1//EN" "http://www.w3.org/Graphics/SVG/1.1/DTD/svg11.dtd">
<!-- Creator: CorelDRAW -->
<svg xmlns="http://www.w3.org/2000/svg" xml:space="preserve" width="319.86mm" height="138.212mm" version="1.1" style="shape-rendering:geometricPrecision; text-rendering:geometricPrecision; image-rendering:optimizeQuality; fill-rule:evenodd; clip-rule:evenodd"
viewBox="0 0 32516.7 14050.5"
 xmlns:xlink="http://www.w3.org/1999/xlink"
 xmlns:xodm="http://www.corel.com/coreldraw/odm/2003">
 <defs>
  <style type="text/css">
   <![CDATA[
    .fil0 {fill:#E3D6B5;fill-rule:nonzero}
   ]]>
  </style>
 </defs>
 <g id="Capa_x0020_1">
  <metadata id="CorelCorpID_0Corel-Layer"/>
  <path class="fil0" d="M12005.08 1710.4c-5.18,10.37 -10.37,20.73 -15.55,31.1 -5.18,10.37 -28.52,7.78 -69.96,-7.77 -67.38,-25.91 -129.58,-41.47 -186.6,-46.65 -57.01,-5.18 -111.43,-5.18 -163.26,0 -129.57,15.55 -279.88,68.68 -450.92,159.38 -171.04,90.7 -353.73,204.73 -548.11,342.07 -194.36,137.35 -391.32,292.84 -590.86,466.47 -199.55,173.62 -393.91,349.85 -583.09,528.67 -189.18,178.81 -366.69,355.02 -532.55,528.67 -165.85,173.62 -308.39,327.82 -427.59,462.57 -285.07,321.34 -519.59,614.18 -703.6,878.53 -183.99,264.32 -335.59,492.39 -454.8,684.15 -41.47,67.39 -81.63,137.35 -120.51,209.92 -38.87,72.56 -77.74,137.35 -116.61,194.36 -38.87,57.01 -76.46,103.66 -112.73,139.94 -36.28,36.28 -69.97,49.23 -101.07,38.86 -57.01,-15.54 -85.52,-64.78 -85.52,-147.71 0,-82.93 36.28,-199.55 108.84,-349.84 57.01,-119.22 141.24,-264.34 252.67,-435.39 111.43,-171.03 234.53,-352.44 369.29,-544.21 103.66,-212.51 152.9,-402.98 147.71,-571.43 -5.17,-168.45 -49.23,-320.04 -132.16,-454.8 -67.38,62.2 -130.87,121.8 -190.48,178.81 -59.6,57.01 -117.91,114.03 -174.92,171.04 -549.4,549.41 -1053.44,995.13 -1512.15,1337.21 -458.69,342.07 -877.22,607.71 -1255.57,796.89 -378.36,189.18 -716.54,317.45 -1014.57,384.84 -298.02,67.38 -558.47,101.06 -781.34,101.06 -150.3,0 -300.62,-15.54 -450.92,-46.65 -150.3,-31.1 -283.77,-89.4 -400.38,-174.92 -116.62,-85.52 -207.32,-200.83 -272.11,-345.96 -64.79,-145.13 -84.22,-331.71 -58.31,-559.77 15.55,-176.22 67.38,-357.63 155.5,-544.21 88.1,-186.6 202.13,-370.59 342.07,-552 139.94,-181.39 303.21,-355.02 489.79,-520.88 186.59,-165.87 388.72,-316.16 606.42,-450.93 155.48,-93.29 322.64,-177.51 501.45,-252.67 178.81,-75.15 360.22,-139.93 544.21,-194.36 183.99,-54.42 365.39,-101.06 544.21,-139.93 178.82,-38.87 348.55,-66.08 509.23,-81.63 -41.47,-31.1 -89.4,-90.7 -143.83,-178.81 -54.42,-88.11 -73.86,-194.36 -58.3,-318.75 25.9,-253.98 130.87,-475.54 314.86,-664.72 183.99,-189.18 413.34,-347.27 688.05,-474.25 274.69,-126.98 579.19,-222.87 913.49,-287.66 334.31,-64.78 664.72,-97.18 991.26,-97.18 378.36,0 728.19,15.55 1049.56,46.65 321.33,31.1 618.07,72.56 890.18,124.39 272.1,51.84 526.07,107.55 761.89,167.15 235.83,59.61 462.58,117.91 680.26,174.92 36.28,10.37 85.53,24.62 147.73,42.77 62.18,18.14 128.26,37.58 198.25,58.3 69.96,20.73 141.22,42.77 213.79,66.08 72.56,23.33 137.35,45.36 194.36,66.1 62.2,15.54 93.3,36.28 93.3,62.18zm-723.03 -31.11c-181.4,15.54 -349.86,47.94 -505.34,97.18 -155.5,49.24 -331.71,112.73 -528.67,190.48 -528.67,212.51 -1018.45,480.73 -1469.38,804.66 -450.92,323.94 -855.2,649.16 -1212.82,975.68 72.56,108.85 123.1,231.95 151.6,369.29 28.52,137.36 19.44,286.36 -27.21,447.04 103.66,-134.76 211.21,-265.63 322.64,-392.61 111.45,-126.99 218.99,-242.3 322.65,-345.97 554.58,-564.94 1074.18,-1034.01 1558.78,-1407.19 484.61,-373.17 947.19,-619.37 1387.75,-738.57l0.01 0.01zm186.56 -101.06c-41.45,-10.36 -86.8,-20.73 -136.04,-31.1 -49.24,-10.37 -102.37,-20.73 -159.38,-31.1 -217.68,-41.47 -435.38,-82.92 -653.06,-124.38 -217.68,-41.47 -457.4,-77.75 -719.14,-108.85 -261.74,-31.1 -557.17,-57.02 -886.3,-77.75 -329.11,-20.73 -711.37,-31.1 -1146.74,-31.1 -326.53,0 -651.77,29.8 -975.68,89.41 -323.95,59.6 -616.79,145.12 -878.53,256.56 -261.74,111.43 -479.42,246.2 -653.05,404.28 -173.63,158.08 -270.81,338.19 -291.55,540.32 -10.36,134.76 14.25,237.13 73.86,307.09 59.61,69.98 110.14,115.33 151.6,136.06 41.47,-5.18 79.04,-9.08 112.73,-11.66 33.69,-2.6 68.67,-3.89 104.95,-3.89 450.92,-10.36 844.83,42.76 1181.74,159.38 336.89,116.61 603.81,275.99 800.76,478.11 404.28,-326.52 833.17,-633.61 1286.68,-921.28 453.51,-287.65 929.06,-522.18 1426.62,-703.59 259.15,-98.47 492.39,-174.91 699.71,-229.34 207.31,-54.42 427.59,-86.82 660.83,-97.19l-0.02 0.01zm-4151.57 2021.38c-196.94,-191.78 -463.87,-336.91 -800.76,-435.38 -336.91,-98.48 -702.3,-139.94 -1096.21,-124.39 -160.67,5.18 -339.48,29.8 -536.45,73.85 -196.94,44.07 -397.79,101.08 -602.5,171.04 -204.73,69.97 -405.58,150.31 -602.51,241.01 -196.94,90.7 -375.77,185.29 -536.44,283.77 -217.69,139.93 -422.42,287.65 -614.18,443.14 -191.78,155.5 -360.23,313.58 -505.36,474.24 -145.11,160.68 -263.02,322.66 -353.71,485.92 -90.71,163.26 -143.83,320.04 -159.38,470.36 -25.91,202.13 -11.66,367.99 42.76,497.56 54.43,129.57 130.88,231.94 229.35,307.09 98.47,75.16 212.5,128.28 342.07,159.38 129.56,31.09 261.74,46.64 396.49,46.64 285.07,0 579.2,-55.72 882.41,-167.15 303.21,-111.44 624.55,-274.69 964.04,-489.79 339.47,-215.09 700.99,-482.02 1084.54,-800.78 383.54,-318.75 798.18,-685.44 1243.91,-1100.07 98.48,-88.11 198.25,-177.52 299.33,-268.23 101.07,-90.7 208.61,-180.11 322.64,-268.21l-0.04 -0.01zm5240 -303.21c0,10.37 -14.24,16.83 -42.76,19.44 -28.51,2.58 -53.12,6.48 -73.86,11.66 -150.3,15.55 -318.75,95.88 -505.35,241.01 -98.47,77.73 -203.43,169.74 -314.86,275.99 -111.43,106.24 -222.88,216.39 -334.31,330.4 -111.43,114.03 -220.28,229.36 -326.53,345.98 -106.24,116.61 -203.43,226.75 -291.54,330.41 82.92,-77.75 202.13,-178.82 357.63,-303.21 155.49,-124.39 318.75,-242.3 489.78,-353.72 171.04,-111.44 333,-200.84 485.92,-268.23 152.9,-67.38 265.63,-85.52 338.19,-54.41 67.37,36.28 102.36,102.36 104.94,198.25 2.6,95.87 -20.73,207.31 -69.96,334.31 -49.24,126.98 -117.91,259.14 -206.02,396.49 -88.12,137.34 -189.19,263.04 -303.21,377.06 -342.08,347.27 -664.72,606.41 -967.93,777.45 -303.21,171.03 -576.6,253.96 -820.22,248.78 -51.83,-5.18 -91.99,-12.95 -120.5,-23.32 -28.52,-10.36 -60.89,-28.51 -97.18,-54.43 -41.47,-31.1 -63.5,-69.96 -66.09,-116.61 -2.59,-46.64 9.07,-72.56 34.99,-77.75 20.73,-5.17 34.98,0 42.75,15.55 7.78,15.55 14.26,31.1 19.45,46.65 10.36,25.91 27.2,47.94 50.53,66.08 23.31,18.15 55.71,27.21 97.18,27.21 72.56,10.37 147.71,0 225.46,-31.1 77.75,-31.1 172.33,-88.12 283.76,-171.04 111.45,-82.92 243.61,-198.25 396.51,-345.97 152.9,-147.71 343.37,-338.19 571.42,-571.42 77.75,-77.75 164.57,-167.16 260.45,-268.23 95.88,-101.06 182.7,-198.25 260.45,-291.54 77.75,-93.3 137.34,-176.23 178.81,-248.79 41.47,-72.55 46.65,-119.21 15.55,-139.93 -51.84,-36.28 -159.38,-14.25 -322.65,66.08 -163.26,80.33 -347.26,194.36 -552,342.07 -204.71,147.72 -414.64,313.58 -629.72,497.57 -215.11,184 -400.39,358.93 -555.88,524.77 -150.31,160.68 -331.71,353.73 -544.22,579.2 -212.5,225.46 -439.25,461.29 -680.26,707.48 -241.01,246.2 -487.2,488.5 -738.58,726.9 -251.37,238.43 -485.9,448.34 -703.58,629.74 -482.02,399.09 -954.97,735.98 -1418.85,1010.69 -463.88,274.69 -918.68,494.98 -1364.43,660.84 -445.73,165.85 -883.69,282.47 -1313.88,349.86 -430.19,67.37 -852.6,95.87 -1267.23,85.52 -425.01,-10.37 -791.7,-81.63 -1100.08,-217.69 -308.39,-134.75 -549.39,-313.58 -723.03,-536.44 -173.62,-222.87 -275.99,-474.24 -307.09,-754.13 -31.1,-279.89 18.15,-564.94 147.71,-855.2 15.55,-25.91 33.7,-57.02 54.43,-93.3 20.73,-36.26 42.77,-68.66 66.09,-97.18 23.32,-28.51 46.64,-50.53 69.96,-66.08 23.33,-15.55 42.77,-15.55 58.31,0 5.18,10.36 -2.59,38.87 -23.31,85.53 -20.73,46.64 -38.88,85.52 -54.43,116.61 -139.93,285.06 -198.26,563.65 -174.94,835.76 23.33,272.11 115.33,514.41 275.99,726.9 160.68,212.5 383.54,386.12 668.61,520.89 285.06,134.76 619.37,207.31 1002.91,217.67 860.38,24.63 1710.4,-143.83 2550.04,-502.74 839.64,-358.93 1694.84,-901.85 2565.58,-1627.47 456.1,-383.54 956.26,-862.96 1500.48,-1438.28 544.21,-575.3 1145.44,-1220.58 1803.68,-1935.84 269.52,-290.25 509.24,-522.18 719.15,-695.82 209.92,-173.63 413.35,-320.04 610.29,-439.26 129.57,-82.92 243.61,-138.64 342.08,-167.16 98.48,-28.51 176.22,-42.75 233.24,-42.75 25.91,0 55.71,3.88 89.41,11.66 33.68,7.77 47.93,24.62 42.75,50.53l-0.02 0.01zm9173.91 -1803.68c-31.11,181.41 -92,323.94 -182.71,427.61 -90.7,103.65 -172.33,173.62 -244.9,209.91 -46.64,25.91 -75.15,25.91 -85.52,0 -5.18,-10.37 -5.18,-18.15 0,-23.33 5.18,-5.18 20.73,-20.73 46.65,-46.64 57,-46.65 114.02,-115.32 171.03,-206.02 57.01,-90.71 95.9,-187.89 116.61,-291.54 31.1,-186.6 23.33,-366.7 -23.32,-540.34 -46.64,-173.62 -139.94,-326.52 -279.88,-458.69 -139.94,-132.18 -327.82,-237.13 -563.65,-314.87 -235.83,-77.75 -522.18,-116.62 -859.09,-116.62 -300.61,0 -602.5,45.35 -905.72,136.05 -303.2,90.7 -605.11,212.51 -905.73,365.4 -300.61,152.9 -596.04,327.83 -886.3,524.77 -290.24,196.96 -570.11,404.29 -839.64,621.96 -466.46,368 -953.67,796.89 -1461.59,1286.69 -507.94,489.78 -1013.29,993.84 -1516.02,1512.13 -155.49,160.67 -308.38,323.94 -458.7,489.79 -150.3,165.86 -279.88,317.46 -388.72,454.81 -108.85,137.34 -186.59,253.96 -233.23,349.85 -46.65,95.88 -46.65,156.79 0,182.7 57.01,31.1 137.34,19.44 241,-34.98 103.65,-54.42 243.6,-141.25 419.82,-260.45 114.02,-82.92 246.2,-187.89 396.5,-314.87 150.3,-126.98 305.8,-257.85 466.46,-392.61 15.55,-10.37 32.4,-22.03 50.53,-34.98 18.15,-12.96 37.58,-9.07 58.31,11.65 15.55,15.55 18.14,31.1 7.79,46.65 -10.38,15.54 -23.33,28.51 -38.88,38.87 -51.83,51.84 -115.31,110.14 -190.48,174.92 -75.15,64.79 -154.2,132.17 -237.11,202.14 -82.93,69.96 -167.16,137.34 -252.67,202.14 -85.52,64.79 -164.57,123.1 -237.13,174.91 -155.48,108.85 -300.61,198.26 -435.37,268.23 -134.77,69.96 -253.96,91.99 -357.63,66.08 -114.03,-31.1 -178.82,-107.55 -194.36,-229.34 -15.55,-121.8 36.28,-278.59 155.49,-470.36 88.11,-134.76 218.98,-305.79 392.61,-513.11 173.63,-207.31 384.84,-437.96 633.62,-691.93 129.57,-134.76 295.44,-307.09 497.57,-517.01 202.14,-209.91 434.07,-440.55 695.82,-691.93 261.74,-251.37 548.11,-511.81 859.08,-781.33 310.99,-269.52 642.7,-528.67 995.14,-777.44 285.05,-202.15 577.9,-396.51 878.52,-583.1 300.62,-186.59 606.41,-349.85 917.38,-489.79 310.99,-139.94 627.15,-251.37 948.49,-334.31 321.35,-82.93 645.28,-124.38 971.82,-124.38 373.17,0 686.73,45.35 940.71,136.04 253.95,90.7 454.8,207.33 602.5,349.86 147.72,142.53 244.9,301.91 291.55,478.11 46.64,176.23 54.43,352.44 23.33,528.67l0 0.01zm-5123.39 2425.63c-165.85,150.31 -329.12,301.91 -489.78,454.82 -160.68,152.9 -309.69,299.3 -447.04,439.25 -137.35,139.93 -261.75,269.52 -373.18,388.72 -111.43,119.22 -200.84,217.68 -268.23,295.43 -119.2,150.31 -211.2,275.99 -275.98,377.06 -64.79,101.07 -68.67,164.56 -11.67,190.47 31.1,15.55 76.46,10.37 136.06,-15.54 59.6,-25.92 126.98,-60.9 202.13,-104.95 75.17,-44.05 149.01,-93.29 221.58,-147.71 72.56,-54.43 137.35,-102.37 194.36,-143.84 124.4,-98.48 255.27,-207.32 392.62,-326.52 137.35,-119.22 252.66,-220.29 345.97,-303.21 10.36,-10.37 25.91,-19.44 46.64,-27.21 20.73,-7.77 36.28,-1.3 46.65,19.44 10.37,25.91 10.37,45.36 0,58.31 -10.37,12.95 -23.33,27.21 -38.87,42.76 -114.02,98.47 -239.71,206.02 -377.06,322.65 -137.34,116.61 -252.67,213.79 -345.96,291.54 -57.02,46.65 -123.1,97.19 -198.26,151.6 -75.16,54.42 -151.6,104.95 -229.35,151.59 -77.74,46.65 -151.59,85.53 -221.58,116.62 -69.96,31.1 -130.87,46.65 -182.69,46.65 -67.38,0 -124.4,-14.26 -171.04,-42.77 -46.65,-28.5 -79.04,-71.26 -97.19,-128.27 -18.14,-57.02 -16.83,-125.68 3.89,-206.03 20.72,-80.33 67.37,-174.92 139.93,-283.76 -228.04,191.77 -440.55,349.85 -637.49,474.24 -196.96,124.4 -357.63,186.6 -482.03,186.6 -134.76,0 -217.69,-44.06 -248.79,-132.18 -31.09,-88.1 -24.61,-199.55 19.45,-334.3 44.05,-134.76 116.61,-281.19 217.68,-439.27 101.06,-158.08 218.97,-304.49 353.73,-439.25 155.49,-155.49 330.4,-303.21 524.76,-443.14 194.36,-139.94 386.14,-256.56 575.32,-349.86 189.18,-93.29 364.1,-158.08 524.78,-194.36 160.66,-36.28 282.46,-31.1 365.39,15.55 51.83,31.1 73.87,90.7 66.08,178.81 -7.77,88.12 -86.81,204.73 -237.11,349.86 155.48,-129.58 286.35,-231.95 392.61,-307.09 106.24,-75.17 193.06,-125.69 260.44,-151.61 93.3,-31.1 194.36,-41.46 303.21,-31.1l0.01 0zm-847.41 62.2c-72.56,-57.01 -248.79,6.49 -528.67,190.48 -279.88,184 -627.15,472.96 -1041.79,866.86 -119.2,114.02 -229.34,229.35 -330.4,345.97 -101.07,116.61 -184,222.87 -248.79,318.75 -64.79,95.88 -107.56,177.52 -128.28,244.9 -20.72,67.38 -7.77,111.43 38.87,132.17 36.28,15.54 102.37,-1.29 198.25,-50.53 95.88,-49.23 212.51,-121.8 349.86,-217.68 137.35,-95.9 286.36,-213.81 447.03,-353.73 160.68,-139.94 323.94,-295.42 489.8,-466.46 77.74,-77.75 167.15,-168.45 268.21,-272.11 101.08,-103.66 194.37,-204.73 279.89,-303.21 85.52,-98.47 151.6,-187.88 198.25,-268.22 46.65,-80.34 49.25,-136.05 7.79,-167.16l0 -0.01zm2316.79 342.08c-36.28,72.56 -79.03,142.54 -128.27,209.91 -49.23,67.38 -110.14,129.58 -182.7,186.6 -36.28,31.1 -85.52,62.2 -147.71,93.29 -62.2,31.1 -114.03,23.32 -155.5,-23.33 -20.73,-25.91 -25.91,-54.41 -15.54,-85.52 10.36,-31.1 29.8,-62.2 58.31,-93.29 28.5,-31.1 60.89,-59.6 97.18,-85.52 36.28,-25.91 69.97,-49.23 101.07,-69.97 165.86,-103.66 270.81,-202.14 314.87,-295.43 44.05,-93.28 37.57,-158.08 -19.45,-194.36 -36.26,-25.91 -104.94,-10.37 -206.01,46.65 -101.08,57.01 -213.81,134.76 -338.19,233.24 -124.4,98.47 -253.98,207.31 -388.72,326.53 -134.76,119.21 -251.37,228.04 -349.86,326.52 -342.07,326.53 -562.35,590.87 -660.83,793 -98.48,202.14 -103.66,329.12 -15.55,380.95 46.65,25.92 108.85,31.11 186.6,15.55 77.74,-15.55 158.08,-40.17 241.01,-73.87 82.91,-33.68 164.55,-73.85 244.89,-120.5 80.34,-46.65 143.83,-85.53 190.48,-116.61 72.55,-46.65 151.6,-103.66 237.12,-171.04 85.53,-67.38 171.04,-134.76 256.56,-202.15 85.52,-67.37 165.86,-134.75 241,-202.13 75.16,-67.38 141.24,-124.39 198.26,-171.04 41.46,-31.1 72.56,-36.28 93.29,-15.54 31.1,20.73 25.91,46.64 -15.55,77.74 -103.66,103.66 -231.93,217.69 -384.83,342.08 -152.91,124.39 -296.73,238.42 -431.48,342.08 -134.76,98.47 -281.19,189.18 -439.27,272.1 -158.08,82.92 -322.64,134.76 -493.67,155.49 -150.31,15.55 -268.23,-12.95 -353.73,-85.52 -85.52,-72.56 -125.68,-168.45 -120.5,-287.65 0,-176.23 60.89,-360.22 182.69,-551.99 121.8,-191.78 281.18,-378.36 478.11,-559.77 150.31,-139.94 312.28,-269.51 485.91,-388.72 173.62,-119.22 339.49,-217.69 497.57,-295.43 158.08,-77.74 301.91,-130.88 431.48,-159.37 129.57,-28.52 228.06,-24.63 295.43,11.65 41.47,25.91 67.38,57.01 77.74,93.29 10.37,36.28 12.97,76.46 7.79,120.52 -5.18,44.05 -15.55,85.52 -31.1,124.38 -15.55,38.88 -28.52,71.26 -38.88,97.19zm1741.48 -450.91c62.2,36.27 95.88,82.91 101.07,139.93 5.18,57.01 -10.37,116.61 -46.64,178.81 -36.28,62.2 -86.83,125.69 -151.6,190.48 -64.79,64.78 -133.47,123.1 -206.03,174.92 -62.18,41.47 -141.22,84.21 -237.11,128.28 -95.9,44.05 -191.78,80.33 -287.65,108.85 -95.88,28.5 -186.6,47.93 -272.11,58.3 -85.52,10.36 -146.42,2.59 -182.7,-23.32 -119.21,114.03 -238.42,237.11 -357.64,369.29 -119.2,132.17 -218.97,259.15 -299.3,380.95 -80.34,121.81 -132.17,228.05 -155.5,318.75 -23.32,90.7 1.3,151.6 73.87,182.7 72.56,25.91 178.81,16.84 318.75,-27.2 139.93,-44.06 290.25,-117.91 450.92,-221.58 186.59,-119.22 370.58,-253.96 551.99,-404.28 181.4,-150.3 326.53,-277.29 435.38,-380.95 15.54,-15.55 34.98,-28.51 58.3,-38.87 23.33,-10.36 40.18,-7.78 50.54,7.78 15.53,20.73 16.83,40.18 3.88,58.31 -12.96,18.14 -27.21,34.98 -42.77,50.52 -134.76,119.22 -274.69,239.71 -419.82,361.51 -145.13,121.81 -303.21,242.31 -474.24,361.52 -134.76,98.49 -288.96,185.29 -462.58,260.45 -173.63,75.15 -335.6,107.55 -485.91,97.18 -103.66,-10.36 -191.77,-47.94 -264.32,-112.73 -72.56,-64.78 -101.08,-167.15 -85.53,-307.09 0,-36.28 9.08,-86.82 27.21,-151.59 18.14,-64.8 49.23,-141.25 93.29,-229.36 44.05,-88.1 104.95,-185.27 182.69,-291.54 77.75,-106.24 178.82,-218.97 303.21,-338.19 145.12,-139.93 307.09,-273.4 485.91,-400.37 178.81,-126.99 352.44,-233.25 520.89,-318.76 168.44,-85.53 322.64,-146.42 462.58,-182.69 139.94,-36.28 243.6,-36.28 310.98,0zm-46.64 69.96c-25.92,-20.73 -84.22,-5.18 -174.94,46.65 -90.7,51.83 -195.64,120.5 -314.86,206.01 -119.22,85.53 -242.3,181.41 -369.29,287.65 -126.98,106.26 -237.13,206.03 -330.41,299.33 31.09,10.37 76.45,10.37 136.05,0 59.6,-10.37 128.27,-31.1 206.02,-62.2 77.75,-31.1 159.38,-71.26 244.9,-120.5 85.52,-49.24 172.33,-107.57 260.44,-174.94 129.58,-103.66 229.35,-202.14 299.33,-295.43 69.97,-93.29 84.21,-155.49 42.76,-186.59zm3389.66 -62.2c119.22,62.2 130.88,212.5 34.98,450.92 -95.87,238.41 -309.67,523.48 -641.39,855.2 -171.04,171.04 -335.6,323.94 -493.68,458.69 -158.08,134.76 -307.09,246.2 -447.04,334.31 -139.93,88.12 -265.64,150.31 -377.06,186.6 -111.43,36.28 -203.43,46.65 -275.99,31.1 -119.21,-31.1 -196.95,-93.29 -233.24,-186.6 -36.27,-93.29 -37.57,-207.32 -3.88,-342.07 33.69,-134.76 99.78,-282.47 198.26,-443.15 98.47,-160.66 225.45,-321.34 380.94,-482.02 160.68,-160.67 331.71,-304.5 513.12,-431.48 181.41,-126.99 358.92,-229.35 532.55,-307.09 173.63,-77.75 331.71,-128.27 474.24,-151.6 142.53,-23.32 255.28,-14.25 338.19,27.21zm-46.64 93.29c-41.45,-31.1 -110.13,-28.52 -206.01,7.77 -95.9,36.28 -212.51,102.37 -349.85,198.27 -137.35,95.87 -288.95,216.38 -454.81,361.51 -165.86,145.12 -336.89,310.98 -513.11,497.56 -114.03,119.21 -218.98,234.53 -314.86,345.97 -95.9,111.43 -174.94,213.79 -237.13,307.09 -62.2,93.29 -99.78,174.92 -112.73,244.9 -12.96,69.97 6.49,120.51 58.3,151.6 46.65,25.91 116.62,16.83 209.93,-27.21 93.28,-44.05 204.71,-115.31 334.3,-213.8 129.57,-98.48 274.7,-220.28 435.37,-365.4 160.68,-145.12 329.12,-308.37 505.34,-489.78 77.75,-77.75 161.97,-168.45 252.67,-272.11 90.7,-103.66 171.05,-206.02 241.01,-307.09 69.98,-101.07 121.8,-191.78 155.5,-272.11 33.68,-80.33 32.38,-136.05 -3.9,-167.15zm9383.81 -2480.07c-36.28,181.41 -98.48,323.94 -186.59,427.61 -88.11,103.65 -168.46,173.62 -241.01,209.9 -31.1,15.56 -51.83,22.03 -62.2,19.45 -10.37,-2.6 -18.15,-9.07 -23.33,-19.45 -5.18,-10.37 -6.47,-18.14 -3.88,-23.32 2.6,-5.18 19.44,-20.73 50.53,-46.64 57.01,-46.65 112.73,-115.32 167.16,-206.03 54.42,-90.7 92,-187.88 112.73,-291.54 36.27,-186.59 29.8,-366.69 -19.45,-540.33 -49.23,-173.62 -142.53,-326.52 -279.88,-458.7 -137.34,-132.17 -323.94,-237.12 -559.77,-314.86 -235.83,-77.75 -522.18,-116.62 -859.08,-116.62 -601.23,0 -1212.81,145.12 -1834.78,435.38 -621.96,290.25 -1233.55,686.73 -1834.78,1189.49 -399.1,331.71 -796.9,689.34 -1193.39,1072.88 -396.5,383.54 -804.66,793 -1224.47,1228.37 72.56,0 174.92,-1.29 307.09,-3.88 132.17,-2.59 247.48,-1.3 345.96,3.88 10.37,0 20.73,2.6 31.1,7.79 10.37,5.16 12.97,18.13 7.79,38.86 -15.55,31.1 -44.07,46.65 -85.53,46.65 -41.47,0 -93.29,1.29 -155.49,3.88 -62.2,2.59 -126.99,5.18 -194.36,7.78 -67.38,2.58 -132.18,5.18 -194.36,7.77 -62.2,2.6 -116.62,3.88 -163.27,3.88 -134.75,145.13 -275.99,300.63 -423.71,466.47 -147.71,165.86 -295.43,330.42 -443.14,493.69 -147.71,163.26 -288.96,317.46 -423.72,462.57 -134.75,145.13 -251.36,269.53 -349.85,373.19 -367.99,388.72 -742.46,765.78 -1123.42,1131.18 -380.96,365.4 -732.1,675.09 -1053.44,929.05 -497.57,399.08 -974.4,737.28 -1430.51,1014.57 -456.1,277.3 -897.95,502.76 -1325.55,676.38 -427.6,173.63 -842.24,299.33 -1243.91,377.07 -401.69,77.74 -794.29,111.43 -1177.84,101.07 -425,-10.37 -791.7,-81.63 -1100.07,-217.69 -308.39,-134.75 -549.4,-313.58 -723.03,-536.44 -173.63,-222.87 -275.99,-474.24 -307.09,-754.13 -31.1,-279.89 18.14,-564.94 147.71,-855.2 15.55,-25.91 33.7,-57.02 54.42,-93.3 20.73,-36.26 42.77,-68.66 66.1,-97.18 23.32,-28.51 46.63,-50.53 69.96,-66.08 23.32,-15.55 42.77,-15.55 58.3,0 5.18,10.36 -2.58,38.87 -23.32,85.53 -20.73,46.64 -38.86,85.52 -54.42,116.61 -139.94,285.06 -198.26,563.65 -174.92,835.76 23.32,272.11 115.32,514.41 275.99,726.9 160.68,212.5 383.54,386.12 668.6,520.89 285.07,134.76 619.37,207.31 1002.92,217.67 425.01,10.37 837.05,-32.38 1236.13,-128.27 399.09,-95.88 795.59,-237.12 1189.5,-425.01 393.91,-186.59 786.52,-410.74 1177.83,-672.49 391.33,-263.04 789.12,-554.58 1193.39,-875.93 119.22,-93.3 263.04,-213.8 431.49,-361.52 168.44,-149 345.96,-310.98 532.55,-487.19 186.59,-176.23 377.05,-361.52 571.42,-557.18 194.36,-194.36 382.26,-384.84 563.66,-571.43 243.61,-253.95 501.45,-529.96 773.56,-825.39 272.11,-295.42 576.61,-631.03 913.51,-1004.21 -67.38,0 -139.94,2.6 -217.69,7.79 -77.74,5.18 -163.26,12.95 -256.56,23.32 -51.83,5.17 -72.56,-7.78 -62.2,-38.87 5.18,-15.54 15.54,-25.91 31.1,-31.1 15.55,-5.18 28.52,-10.37 38.87,-15.55 20.73,-5.17 54.42,-10.36 101.07,-15.54 46.65,-5.18 97.18,-9.07 151.59,-11.67 54.43,-2.58 108.85,-6.48 163.26,-11.66 54.43,-5.18 102.38,-7.77 143.83,-7.77 228.06,-238.42 460.01,-478.12 695.83,-719.15 235.83,-241.01 469.07,-474.24 699.71,-699.7 230.63,-225.46 457.4,-437.97 680.26,-637.51 222.88,-199.55 437.97,-382.24 645.28,-548.11 269.51,-212.5 561.05,-408.15 874.62,-586.97 313.58,-178.81 638.82,-334.31 975.7,-466.46 336.89,-132.17 676.38,-234.54 1018.44,-307.1 342.07,-72.55 676.38,-108.84 1002.91,-108.84 373.17,0 686.74,45.36 940.71,136.05 253.98,90.7 453.51,207.32 598.63,349.85 145.13,142.54 242.31,301.91 291.55,478.12 49.24,176.22 58.31,352.44 27.21,528.67l0 0.02z"/>
  <path class="fil0" d="M7860.05 11671.5l-93.29 1220.59c-134.75,222.87 -304.49,421.12 -509.22,594.76 -204.73,173.62 -445.73,310.98 -723.03,412.03 -277.3,101.07 -594.75,151.61 -952.37,151.61 -539.04,-5.18 -1018.44,-124.4 -1438.27,-357.64 -419.83,-233.23 -747.65,-561.05 -983.48,-983.46 -235.82,-422.42 -353.72,-921.29 -353.72,-1496.6 0,-564.94 116.61,-1058.61 349.85,-1481.04 233.24,-422.41 561.05,-751.53 983.47,-987.35 422.41,-235.83 918.68,-353.73 1488.82,-353.73 383.54,0 729.51,50.53 1037.89,151.6 308.38,101.08 576.61,226.76 804.65,377.06l155.5 1096.21 -69.96 0c-114.03,-456.1 -347.28,-802.08 -699.71,-1037.91 -352.44,-235.82 -761.9,-353.71 -1228.37,-353.71 -456.1,0 -851.3,107.55 -1185.6,322.64 -334.31,215.1 -593.45,515.71 -777.45,901.85 -184,386.12 -275.98,838.34 -275.98,1356.64 0,518.29 91.98,971.81 275.98,1360.54 184,388.72 440.56,691.93 769.66,909.61 329.12,217.69 711.36,331.72 1146.74,342.09 367.99,0 708.78,-68.68 1022.35,-206.03 313.57,-137.34 576.61,-362.8 789.12,-676.38 212.5,-313.58 347.26,-734.69 404.27,-1263.36l62.18 0 -0.01 -0.02z"/>
  <path id="_1" class="fil0" d="M11039.81 8390.67l2301.25 5504.34 -660.84 0 -1795.91 -4765.74 155.5 -738.58 0 -0.01zm-1671.5 4983.44c-36.28,103.66 -41.47,191.76 -15.55,264.32 25.92,72.56 68.67,128.28 128.28,167.15 59.6,38.88 120.5,58.31 182.7,58.31l69.96 0 0 77.75 -1562.67 0 0 -77.75c0,0 11.67,0 34.99,0 23.32,0 34.99,0 34.99,0 119.21,0 242.3,-37.57 369.29,-112.73 126.98,-75.15 231.94,-200.84 314.86,-377.05l443.15 0zm1671.5 -4983.44l69.96 544.22 -1951.38 4983.44 -466.47 0 1990.26 -4726.89c0,0 14.25,-32.4 42.77,-97.18 28.5,-64.8 62.2,-143.83 101.06,-237.13 38.87,-93.29 72.56,-183.99 101.07,-272.11 28.51,-88.11 42.76,-152.9 42.76,-194.36l69.97 0zm1096.2 3428.54l0 233.24 -2433.41 0 0 -233.24 2433.41 0zm349.85 1554.9l637.49 0c77.75,176.22 181.41,301.91 310.98,377.05 129.58,75.16 253.98,112.73 373.19,112.73 0,0 10.35,0 31.09,0 20.73,0 31.1,0 31.1,0l0 77.75 -1749.26 0 0 -77.75 69.97 0c98.48,0 186.6,-42.76 264.33,-128.27 77.74,-85.52 88.12,-206.03 31.11,-361.51z"/>
  <path id="_2" class="fil0" d="M15354.65 8499.51l0 5442.15 -505.35 0 0 -5442.15 505.35 0zm2099.11 5201.13l0 241.01 -2122.44 0 0 -241.01 2122.44 0zm474.23 -1018.44l-450.92 1259.47 -1290.56 0 279.88 -241.01c274.7,0 498.86,-42.76 672.5,-128.27 173.63,-85.52 314.86,-206.03 423.71,-361.51 108.85,-155.5 204.73,-331.72 287.65,-528.67l77.75 0zm-3055.36 691.93l0 567.53 -621.96 0 0 -77.75c0,0 16.84,0 50.52,0 33.7,0 50.53,0 50.53,0 134.76,0 250.09,-47.93 345.98,-143.83 95.87,-95.88 146.41,-211.2 151.59,-345.96l23.33 0zm0 -4307.05l-23.33 0c-5.18,-134.76 -55.72,-250.08 -151.59,-345.97 -95.88,-95.88 -211.22,-143.83 -345.98,-143.83 0,0 -16.83,0 -50.53,0 -33.68,0 -50.52,0 -50.52,0l0 -77.75 621.96 0 0 567.54zm458.69 0l0 -567.54 621.97 0 0 77.75c-5.18,0 -23.33,0 -54.43,0 -31.1,0 -46.65,0 -46.65,0 -134.75,0 -250.08,47.94 -345.96,143.83 -95.88,95.88 -146.42,211.21 -151.6,345.97l-23.33 0z"/>
  <path id="_3" class="fil0" d="M23914.35 8390.67l62.2 520.89 -1951.4 4345.94c0,0 -19.43,44.05 -58.31,132.16 -38.86,88.12 -79.03,193.06 -120.5,314.87 -41.47,121.8 -69.96,237.12 -85.52,345.97l-77.75 0 -108.85 -489.8 2340.12 -5170.02zm-4781.31 4983.44l0 567.53 -862.97 0 0 -77.75c5.18,0 27.21,0 66.09,0 38.87,0 58.31,0 58.31,0 139.94,0 264.32,-42.76 373.17,-128.27 108.85,-85.52 173.63,-206.03 194.36,-361.51l171.04 0zm225.46 124.4c0,5.18 0,10.37 0,15.55 0,5.18 0,12.95 0,23.32 0,82.92 29.8,159.37 89.4,229.34 59.61,69.96 130.88,104.95 213.8,104.95l116.62 0 0 69.97 -474.25 0 0 -443.14 54.43 0zm186.56 -5107.84l77.75 0 155.48 458.7 -458.69 5092.28 -419.82 0 645.28 -5550.99 0 0.01zm77.76 0l2239.05 4843.5 -178.82 816.32 -2207.96 -4789.08 147.72 -870.75 0 0.01zm4361.48 0l668.6 5550.99 -606.41 0 -427.6 -4711.32 295.43 -839.65 69.97 0 0 -0.01zm435.37 4983.44l163.26 0c25.91,155.48 93.29,275.99 202.14,361.51 108.85,85.52 230.64,128.27 365.39,128.27 0,0 20.73,0 62.2,0 41.47,0 62.2,0 62.2,0l0 77.75 -855.2 0 0 -567.53 0.01 0zm-412.07 124.4l54.43 0 0 443.14 -474.25 0 0 -69.97 116.63 0c88.11,0 160.66,-34.99 217.67,-104.95 57.02,-69.97 85.52,-146.42 85.52,-229.34 0,-10.37 0,-18.14 0,-23.32 0,-5.18 0,-10.37 0,-15.55z"/>
 </g>
</svg>
