<?xml version="1.0" encoding="UTF-8"?>
<!DOCTYPE svg PUBLIC "-//W3C//DTD SVG 1.1//EN" "http://www.w3.org/Graphics/SVG/1.1/DTD/svg11.dtd">
<!-- Creator: CorelDRAW -->
<svg xmlns="http://www.w3.org/2000/svg" xml:space="preserve" width="318.367mm" height="127.033mm" version="1.1" style="shape-rendering:geometricPrecision; text-rendering:geometricPrecision; image-rendering:optimizeQuality; fill-rule:evenodd; clip-rule:evenodd"
viewBox="0 0 32367.42 12915.05"
 xmlns:xlink="http://www.w3.org/1999/xlink"
 xmlns:xodm="http://www.corel.com/coreldraw/odm/2003">
 <defs>
  <style type="text/css">
   <![CDATA[
    .fil0 {fill:#E3D6B5;fill-rule:nonzero}
   ]]>
  </style>
 </defs>
 <g id="Capa_x0020_1">
  <metadata id="CorelCorpID_0Corel-Layer"/>
  <path class="fil0" d="M11949.97 1702.55c-5.16,10.32 -10.32,20.63 -15.48,30.96 -5.15,10.32 -28.38,7.74 -69.64,-7.74 -67.07,-25.79 -128.99,-41.28 -185.74,-46.44 -56.74,-5.15 -110.92,-5.15 -162.51,0 -128.97,15.48 -278.6,68.36 -448.85,158.65 -170.25,90.29 -352.1,203.79 -545.59,340.5 -193.47,136.72 -389.52,291.49 -588.14,464.33 -198.64,172.82 -392.11,348.24 -580.42,526.24 -188.31,177.99 -365.02,353.39 -530.1,526.24 -165.1,172.82 -306.98,326.31 -425.63,460.45 -283.76,319.88 -517.2,611.36 -700.37,874.49 -183.15,263.11 -334.05,490.13 -452.71,681.01 -41.28,67.08 -81.26,136.73 -119.95,208.96 -38.7,72.23 -77.4,136.72 -116.08,193.47 -38.7,56.74 -76.11,103.18 -112.21,139.29 -36.12,36.12 -69.66,49.01 -100.61,38.69 -56.75,-15.47 -85.13,-64.49 -85.13,-147.04 0,-82.54 36.11,-198.63 108.35,-348.23 56.74,-118.68 140.58,-263.13 251.5,-433.39 110.92,-170.25 233.46,-350.82 367.59,-541.72 103.19,-211.52 152.2,-401.12 147.04,-568.79 -5.15,-167.68 -49.01,-318.58 -131.56,-452.72 -67.07,61.92 -130.27,121.25 -189.6,177.99 -59.33,56.75 -117.37,113.51 -174.12,170.25 -546.89,546.89 -1048.61,990.57 -1505.21,1331.08 -456.59,340.5 -873.2,604.92 -1249.81,793.24 -376.63,188.31 -713.26,315.99 -1009.91,383.07 -296.65,67.07 -555.92,100.59 -777.75,100.59 -149.61,0 -299.24,-15.46 -448.85,-46.43 -149.61,-30.96 -282.47,-88.99 -398.56,-174.12 -116.07,-85.14 -206.36,-199.92 -270.86,-344.38 -64.48,-144.46 -83.82,-330.19 -58.03,-557.2 15.47,-175.41 67.06,-355.99 154.78,-541.72 87.7,-185.73 201.21,-368.88 340.5,-549.45 139.29,-180.56 301.81,-353.4 487.54,-518.49 185.73,-165.11 386.94,-314.71 603.64,-448.86 154.77,-92.86 321.15,-176.7 499.14,-251.51 177.99,-74.81 358.57,-139.29 541.71,-193.47 183.15,-54.17 363.72,-100.6 541.72,-139.29 177.99,-38.69 346.95,-65.78 506.89,-81.26 -41.28,-30.95 -89,-90.27 -143.17,-177.99 -54.18,-87.7 -73.53,-193.46 -58.04,-317.28 25.79,-252.81 130.27,-473.36 313.42,-661.67 183.14,-188.31 411.44,-345.67 684.89,-472.07 273.43,-126.39 576.53,-221.85 909.3,-286.34 332.77,-64.49 661.67,-96.74 986.7,-96.74 376.62,0 724.86,15.48 1044.74,46.44 319.86,30.95 615.24,72.22 886.1,123.81 270.84,51.6 523.65,107.06 758.4,166.39 234.75,59.33 460.45,117.37 677.14,174.12 36.11,10.33 85.13,24.51 147.04,42.57 61.91,18.07 127.68,37.41 197.34,58.04 69.64,20.64 140.59,42.57 212.81,65.78 72.23,23.22 136.72,45.14 193.47,65.79 61.91,15.47 92.87,36.11 92.87,61.91zm-719.71 -30.97c-180.57,15.47 -348.25,47.72 -503.02,96.74 -154.78,49 -330.19,112.21 -526.24,189.6 -526.24,211.53 -1013.77,478.52 -1462.63,800.96 -448.85,322.45 -851.28,646.2 -1207.27,971.22 72.23,108.34 122.54,230.88 150.91,367.59 28.39,136.72 19.36,285.05 -27.08,444.98 103.18,-134.13 210.24,-264.41 321.16,-390.81 110.93,-126.4 217.98,-241.18 321.17,-344.37 552.03,-562.35 1069.24,-1029.26 1551.61,-1400.73 482.39,-371.46 942.84,-616.53 1381.38,-735.19l0.01 0.01zm185.72 -100.59c-41.27,-10.32 -86.41,-20.64 -135.42,-30.96 -49.02,-10.32 -101.9,-20.63 -158.65,-30.96 -216.68,-41.28 -433.38,-82.54 -650.06,-123.81 -216.68,-41.28 -455.3,-77.39 -715.84,-108.35 -260.53,-30.96 -554.61,-56.76 -882.22,-77.39 -327.61,-20.64 -708.11,-30.96 -1141.48,-30.96 -325.03,0 -648.77,29.67 -971.21,89 -322.46,59.33 -613.96,144.46 -874.49,255.38 -260.54,110.92 -477.24,245.07 -650.06,402.42 -172.83,157.36 -269.57,336.64 -290.21,537.85 -10.31,134.13 14.19,236.03 73.53,305.68 59.33,69.65 109.62,114.79 150.89,135.43 41.28,-5.16 78.69,-9.04 112.21,-11.61 33.54,-2.58 68.37,-3.87 104.48,-3.87 448.85,-10.31 840.95,42.57 1176.3,158.64 335.35,116.08 601.05,274.73 797.09,475.92 402.43,-325.02 829.35,-630.7 1280.77,-917.05 451.43,-286.32 924.79,-519.78 1420.09,-700.35 257.95,-98.03 490.12,-174.13 696.49,-228.29 206.36,-54.18 425.63,-86.42 657.79,-96.75l-0.01 0.02zm-4132.51 2012.09c-196.04,-190.9 -461.74,-335.36 -797.09,-433.38 -335.35,-98.03 -699.07,-139.3 -1091.17,-123.82 -159.93,5.16 -337.92,29.66 -533.98,73.52 -196.04,43.86 -395.97,100.61 -599.74,170.25 -203.79,69.65 -403.71,149.61 -599.74,239.9 -196.04,90.29 -374.04,184.44 -533.98,282.46 -216.69,139.3 -420.48,286.35 -611.36,441.11 -190.9,154.79 -358.57,312.14 -503.04,472.07 -144.44,159.94 -261.81,321.17 -352.09,483.68 -90.28,162.51 -143.17,318.57 -158.65,468.2 -25.79,201.21 -11.6,366.3 42.58,495.27 54.17,129 130.27,230.89 228.28,305.68 98.03,74.82 211.53,127.69 340.51,158.65 128.97,30.96 260.53,46.44 394.67,46.44 283.75,0 576.54,-55.47 878.36,-166.39 301.81,-110.93 621.68,-273.43 959.62,-487.55 337.91,-214.1 697.77,-479.8 1079.56,-797.09 381.78,-317.29 794.51,-682.3 1238.2,-1095.03 98.02,-87.71 197.34,-176.71 297.95,-267 100.61,-90.28 207.66,-179.28 321.16,-266.98l-0.04 -0.01zm5215.95 -301.82c0,10.32 -14.18,16.76 -42.56,19.35 -28.39,2.58 -52.89,6.45 -73.53,11.61 -149.61,15.48 -317.28,95.45 -503.02,239.9 -98.03,77.38 -202.5,168.96 -313.42,274.72 -110.92,105.76 -221.85,215.4 -332.77,328.89 -110.92,113.5 -219.27,228.3 -325.04,344.39 -105.75,116.07 -202.5,225.71 -290.2,328.9 82.54,-77.4 201.21,-178.01 355.99,-301.82 154.77,-123.83 317.28,-241.21 487.53,-352.1 170.26,-110.92 331.48,-199.92 483.69,-267 152.19,-67.07 264.41,-85.13 336.63,-54.16 67.07,36.11 101.89,101.89 104.46,197.34 2.59,95.43 -20.63,206.36 -69.64,332.77 -49.01,126.4 -117.37,257.96 -205.07,394.68 -87.71,136.71 -188.32,261.83 -301.81,375.32 -340.52,345.68 -661.67,603.63 -963.49,773.88 -301.82,170.25 -573.96,252.81 -816.45,247.64 -51.59,-5.15 -91.57,-12.89 -119.95,-23.22 -28.39,-10.31 -60.61,-28.37 -96.74,-54.17 -41.28,-30.96 -63.2,-69.64 -65.79,-116.08 -2.57,-46.42 9.04,-72.22 34.84,-77.39 20.63,-5.14 34.82,0 42.56,15.48 7.73,15.48 14.18,30.96 19.35,46.44 10.31,25.79 27.08,47.71 50.3,65.77 23.21,18.07 55.45,27.09 96.73,27.09 72.23,10.32 147.04,0 224.43,-30.96 77.39,-30.96 171.54,-87.71 282.46,-170.25 110.93,-82.55 242.48,-197.34 394.69,-344.39 152.19,-147.03 341.79,-336.63 568.79,-568.8 77.4,-77.39 163.82,-166.38 259.25,-266.99 95.45,-100.6 181.86,-197.34 259.26,-290.2 77.39,-92.87 136.71,-175.42 177.99,-247.65 41.27,-72.22 46.43,-118.67 15.47,-139.29 -51.6,-36.11 -158.64,-14.19 -321.16,65.78 -162.52,79.96 -345.67,193.47 -549.46,340.5 -203.78,147.04 -412.74,312.14 -626.84,495.28 -214.11,183.16 -398.56,357.28 -553.32,522.38 -149.62,159.94 -330.19,352.1 -541.72,576.54 -211.53,224.42 -437.24,459.17 -677.14,704.23 -239.9,245.07 -484.96,486.25 -735.2,723.56 -250.21,237.33 -483.66,446.27 -700.35,626.85 -479.81,397.26 -950.58,732.6 -1412.33,1006.04 -461.75,273.43 -914.46,492.71 -1358.17,657.81 -443.69,165.09 -879.63,281.17 -1307.86,348.25 -428.21,67.07 -848.67,95.43 -1261.4,85.13 -423.06,-10.32 -788.07,-81.26 -1095.04,-216.69 -306.97,-134.13 -546.87,-312.14 -719.71,-533.98 -172.82,-221.85 -274.72,-472.06 -305.68,-750.66 -30.95,-278.61 18.06,-562.35 147.03,-851.27 15.48,-25.79 33.54,-56.76 54.18,-92.87 20.63,-36.11 42.57,-68.35 65.79,-96.74 23.21,-28.38 46.42,-50.3 69.64,-65.77 23.22,-15.48 42.57,-15.48 58.04,0 5.15,10.31 -2.58,38.68 -23.21,85.13 -20.63,46.42 -38.7,85.13 -54.17,116.07 -139.3,283.76 -197.36,561.06 -174.14,831.92 23.22,270.86 114.8,512.06 274.72,723.56 159.94,211.53 381.78,384.36 665.54,518.51 283.75,134.13 616.53,206.36 998.3,216.67 856.43,24.51 1702.55,-143.17 2538.34,-500.44 835.78,-357.28 1687.05,-897.71 2553.81,-1619.99 454,-381.78 951.87,-859.01 1493.59,-1431.69 541.7,-572.66 1140.18,-1214.98 1795.39,-1926.96 268.29,-288.92 506.9,-519.78 715.84,-692.62 208.96,-172.84 411.46,-318.58 607.5,-437.25 128.97,-82.53 242.49,-138 340.5,-166.38 98.04,-28.39 175.42,-42.56 232.17,-42.56 25.79,0 55.46,3.86 89,11.6 33.53,7.74 47.72,24.51 42.56,50.3l-0.02 0.01zm9131.79 -1795.39c-30.97,180.57 -91.58,322.45 -181.87,425.64 -90.29,103.18 -171.54,172.82 -243.78,208.94 -46.42,25.79 -74.8,25.79 -85.13,0 -5.15,-10.32 -5.15,-18.06 0,-23.21 5.16,-5.16 20.64,-20.64 46.44,-46.43 56.74,-46.43 113.5,-114.79 170.25,-205.08 56.74,-90.29 95.45,-187.02 116.08,-290.2 30.95,-185.74 23.21,-365.02 -23.22,-537.86 -46.43,-172.82 -139.3,-325.02 -278.6,-456.58 -139.29,-131.57 -326.31,-236.04 -561.06,-313.42 -234.75,-77.39 -519.78,-116.09 -855.14,-116.09 -299.23,0 -599.73,45.14 -901.56,135.43 -301.82,90.29 -602.34,211.53 -901.57,363.72 -299.24,152.2 -593.31,326.32 -882.23,522.37 -288.91,196.06 -567.51,402.43 -835.79,619.1 -464.31,366.32 -949.3,793.24 -1454.89,1280.78 -505.61,487.54 -1008.63,989.28 -1509.06,1505.2 -154.77,159.92 -306.96,322.45 -456.59,487.53 -149.61,165.11 -278.6,316 -386.93,452.73 -108.35,136.71 -185.74,252.8 -232.17,348.23 -46.43,95.46 -46.43,156.08 0,181.87 56.75,30.96 136.71,19.35 239.9,-34.82 103.18,-54.18 242.48,-140.6 417.89,-259.26 113.5,-82.53 245.07,-187.02 394.68,-313.42 149.61,-126.4 304.39,-256.67 464.32,-390.81 15.48,-10.32 32.25,-21.92 50.3,-34.82 18.06,-12.89 37.4,-9.03 58.04,11.61 15.48,15.47 18.06,30.95 7.75,46.43 -10.32,15.47 -23.22,28.37 -38.7,38.69 -51.59,51.6 -114.78,109.64 -189.6,174.12 -74.81,64.5 -153.49,131.57 -236.03,201.22 -82.55,69.64 -166.39,136.71 -251.51,201.21 -85.13,64.49 -163.81,122.53 -236.03,174.12 -154.78,108.35 -299.24,197.34 -433.37,267 -134.15,69.64 -252.81,91.56 -355.99,65.77 -113.51,-30.95 -178,-107.05 -193.47,-228.29 -15.48,-121.24 36.11,-277.3 154.77,-468.2 87.71,-134.14 217.98,-304.39 390.81,-510.76 172.83,-206.36 383.07,-435.95 630.71,-688.75 128.99,-134.14 294.08,-305.68 495.29,-514.64 201.2,-208.94 432.09,-438.52 692.62,-688.75 260.54,-250.21 545.6,-509.46 855.14,-777.75 309.56,-268.27 639.75,-526.24 990.57,-773.87 283.74,-201.22 575.25,-394.68 874.48,-580.41 299.24,-185.74 603.63,-348.25 913.17,-487.55 309.56,-139.29 624.27,-250.21 944.14,-332.77 319.86,-82.55 642.31,-123.81 967.35,-123.81 371.45,0 683.58,45.14 936.39,135.42 252.8,90.28 452.71,206.37 599.74,348.25 147.04,141.87 243.77,300.52 290.21,475.92 46.42,175.41 54.17,350.82 23.22,526.24l0 0.01zm-5099.86 2414.49c-165.1,149.62 -327.61,300.52 -487.54,452.72 -159.94,152.2 -308.26,297.94 -444.98,437.24 -136.72,139.29 -260.55,268.29 -371.47,386.93 -110.92,118.68 -199.91,216.69 -266.99,294.08 -118.66,149.62 -210.24,274.73 -274.72,375.32 -64.49,100.61 -68.36,163.82 -11.61,189.61 30.96,15.48 76.1,10.32 135.43,-15.47 59.33,-25.8 126.4,-60.62 201.21,-104.47 74.81,-43.86 148.32,-92.86 220.56,-147.04 72.22,-54.17 136.72,-101.9 193.46,-143.18 123.83,-98.02 254.1,-206.36 390.81,-325.02 136.73,-118.67 251.51,-219.28 344.39,-301.81 10.31,-10.33 25.79,-19.36 46.42,-27.09 20.64,-7.74 36.12,-1.29 46.44,19.36 10.32,25.79 10.32,45.14 0,58.04 -10.32,12.89 -23.22,27.08 -38.69,42.55 -113.5,98.03 -238.61,205.09 -375.33,321.17 -136.71,116.08 -251.5,212.81 -344.37,290.2 -56.76,46.44 -122.54,96.75 -197.35,150.91 -74.82,54.18 -150.9,104.47 -228.3,150.9 -77.38,46.44 -150.89,85.13 -220.56,116.08 -69.64,30.95 -130.27,46.43 -181.85,46.43 -67.07,0 -123.83,-14.18 -170.25,-42.57 -46.44,-28.37 -78.68,-70.93 -96.74,-127.68 -18.07,-56.76 -16.76,-125.11 3.86,-205.08 20.63,-79.96 67.07,-174.13 139.29,-282.46 -226.99,190.89 -438.52,348.25 -634.57,472.06 -196.05,123.83 -355.99,185.74 -479.82,185.74 -134.14,0 -216.68,-43.85 -247.64,-131.56 -30.96,-87.71 -24.5,-198.64 19.35,-332.78 43.85,-134.13 116.08,-279.89 216.69,-437.24 100.6,-157.36 217.96,-303.1 352.1,-437.23 154.77,-154.79 328.89,-301.82 522.37,-441.11 193.46,-139.3 384.36,-255.39 572.67,-348.26 188.31,-92.85 362.43,-157.35 522.38,-193.46 159.93,-36.12 281.17,-30.96 363.72,15.48 51.59,30.95 73.52,90.28 65.77,177.98 -7.74,87.72 -86.41,203.79 -236.02,348.26 154.77,-129 285.03,-230.89 390.81,-305.68 105.75,-74.82 192.17,-125.11 259.24,-150.91 92.87,-30.96 193.47,-41.27 301.82,-30.96l0.01 0zm-843.53 61.91c-72.22,-56.74 -247.64,6.46 -526.24,189.61 -278.59,183.15 -624.26,470.78 -1037,862.87 -118.66,113.51 -228.29,228.3 -328.88,344.39 -100.61,116.08 -183.16,221.84 -247.65,317.28 -64.49,95.46 -107.06,176.71 -127.69,243.78 -20.63,67.07 -7.74,110.92 38.69,131.57 36.11,15.46 101.9,-1.3 197.34,-50.3 95.45,-49.01 211.53,-121.25 348.25,-216.69 136.72,-95.45 285.05,-212.82 444.98,-352.1 159.94,-139.3 322.45,-294.07 487.55,-464.32 77.38,-77.39 166.39,-167.68 266.98,-270.86 100.61,-103.18 193.47,-203.79 278.6,-301.81 85.13,-98.03 150.91,-187.02 197.34,-267 46.44,-79.96 49.02,-135.42 7.75,-166.39l0 -0.01zm2306.17 340.51c-36.11,72.23 -78.67,141.88 -127.68,208.95 -49.01,67.07 -109.64,128.99 -181.86,185.74 -36.12,30.96 -85.13,61.91 -147.04,92.86 -61.91,30.95 -113.5,23.22 -154.78,-23.22 -20.63,-25.79 -25.79,-54.16 -15.47,-85.13 10.31,-30.96 29.67,-61.91 58.04,-92.86 28.37,-30.95 60.61,-59.33 96.74,-85.13 36.11,-25.79 69.65,-49.01 100.6,-69.65 165.1,-103.18 269.57,-201.21 313.42,-294.07 43.85,-92.86 37.41,-157.35 -19.35,-193.46 -36.1,-25.79 -104.46,-10.33 -205.07,46.43 -100.61,56.75 -212.82,134.14 -336.64,232.16 -123.82,98.03 -252.81,206.37 -386.93,325.04 -134.14,118.66 -250.22,226.99 -348.25,325.02 -340.51,325.03 -559.77,588.15 -657.8,789.36 -98.02,201.21 -103.18,327.61 -15.48,379.2 46.44,25.8 108.35,30.96 185.74,15.47 77.39,-15.47 157.36,-39.98 239.9,-73.52 82.54,-33.53 163.81,-73.52 243.77,-119.95 79.98,-46.44 143.17,-85.13 189.6,-116.08 72.23,-46.44 150.91,-103.18 236.04,-170.25 85.13,-67.07 170.25,-134.14 255.38,-201.22 85.13,-67.07 165.1,-134.14 239.9,-201.21 74.81,-67.06 140.59,-123.81 197.35,-170.25 41.27,-30.95 72.22,-36.11 92.86,-15.46 30.95,20.63 25.79,46.42 -15.48,77.38 -103.18,103.18 -230.87,216.68 -383.06,340.51 -152.21,123.81 -295.37,237.32 -429.51,340.5 -134.14,98.03 -279.89,188.31 -437.24,270.86 -157.36,82.54 -321.16,134.14 -491.41,154.77 -149.62,15.48 -267,-12.89 -352.1,-85.13 -85.13,-72.22 -125.11,-167.68 -119.96,-286.34 0,-175.41 60.62,-358.56 181.86,-549.45 121.24,-190.9 279.89,-376.63 475.92,-557.2 149.61,-139.29 310.84,-268.28 483.68,-386.94 172.82,-118.67 337.93,-216.68 495.28,-294.07 157.36,-77.38 300.53,-130.28 429.5,-158.64 128.97,-28.38 227.01,-24.51 294.07,11.6 41.28,25.79 67.07,56.75 77.38,92.86 10.33,36.12 12.91,76.11 7.75,119.97 -5.15,43.85 -15.47,85.13 -30.95,123.81 -15.48,38.7 -28.39,70.93 -38.7,96.74zm1733.48 -448.84c61.92,36.11 95.46,82.53 100.61,139.29 5.16,56.75 -10.32,116.08 -46.43,177.99 -36.12,61.91 -86.42,125.11 -150.9,189.6 -64.5,64.49 -132.86,122.54 -205.08,174.13 -61.92,41.28 -140.59,83.83 -236.03,127.69 -95.45,43.85 -190.9,79.96 -286.34,108.35 -95.45,28.37 -185.74,47.71 -270.86,58.04 -85.13,10.31 -145.75,2.57 -181.86,-23.22 -118.66,113.5 -237.32,236.02 -355.99,367.59 -118.66,131.57 -217.97,257.96 -297.94,379.21 -79.98,121.24 -131.57,226.99 -154.78,317.28 -23.22,90.29 1.29,150.91 73.52,181.87 72.23,25.79 177.99,16.76 317.29,-27.09 139.29,-43.85 288.92,-117.36 448.85,-220.56 185.73,-118.67 368.88,-252.8 549.45,-402.42 180.58,-149.61 325.04,-276.02 433.38,-379.2 15.47,-15.48 34.82,-28.38 58.04,-38.69 23.22,-10.31 39.99,-7.74 50.3,7.75 15.47,20.63 16.76,39.98 3.87,58.04 -12.9,18.06 -27.09,34.82 -42.57,50.28 -134.14,118.67 -273.44,238.61 -417.9,359.86 -144.46,121.24 -301.81,241.19 -472.06,359.85 -134.14,98.04 -287.63,184.44 -460.45,259.26 -172.84,74.81 -334.07,107.05 -483.69,96.73 -103.18,-10.31 -190.88,-47.71 -263.1,-112.21 -72.23,-64.49 -100.61,-166.39 -85.14,-305.68 0,-36.11 9.04,-86.42 27.09,-150.9 18.06,-64.5 49,-140.59 92.86,-228.3 43.85,-87.7 104.47,-184.42 181.85,-290.2 77.39,-105.75 178,-217.97 301.82,-336.64 144.46,-139.29 305.68,-272.15 483.68,-398.55 177.98,-126.39 350.82,-232.17 518.5,-317.29 167.66,-85.13 321.15,-145.74 460.45,-181.85 139.29,-36.12 242.48,-36.12 309.55,0zm-46.42 69.64c-25.8,-20.64 -83.84,-5.16 -174.14,46.43 -90.28,51.59 -194.75,119.95 -313.42,205.07 -118.67,85.13 -241.18,180.58 -367.59,286.34 -126.4,105.77 -236.04,205.08 -328.9,297.95 30.96,10.32 76.1,10.32 135.43,0 59.33,-10.32 127.68,-30.95 205.07,-61.91 77.4,-30.96 158.65,-70.93 243.78,-119.95 85.13,-49.01 171.54,-107.07 259.25,-174.14 128.99,-103.18 228.3,-201.2 297.95,-294.06 69.65,-92.87 83.83,-154.79 42.57,-185.74zm3374.1 -61.91c118.67,61.91 130.28,211.52 34.82,448.84 -95.43,237.32 -308.25,521.08 -638.45,851.28 -170.25,170.25 -334.05,322.45 -491.41,456.58 -157.35,134.14 -305.68,245.07 -444.98,332.78 -139.3,87.71 -264.42,149.61 -375.33,185.74 -110.92,36.11 -202.5,46.43 -274.73,30.95 -118.66,-30.95 -196.04,-92.86 -232.16,-185.74 -36.11,-92.86 -37.41,-206.36 -3.87,-340.5 33.53,-134.14 99.32,-281.17 197.35,-441.11 98.02,-159.93 224.42,-319.86 379.19,-479.8 159.94,-159.94 330.19,-303.11 510.78,-429.51 180.57,-126.4 357.27,-228.29 530.1,-305.68 172.83,-77.39 330.19,-127.68 472.07,-150.9 141.87,-23.21 254.1,-14.18 336.63,27.09zm-46.42 92.85c-41.27,-30.95 -109.63,-28.38 -205.07,7.74 -95.45,36.12 -211.53,101.9 -348.24,197.36 -136.72,95.43 -287.63,215.39 -452.73,359.85 -165.09,144.45 -335.34,309.56 -510.76,495.27 -113.5,118.67 -217.97,233.46 -313.42,344.39 -95.45,110.92 -174.13,212.81 -236.03,305.68 -61.92,92.86 -99.32,174.12 -112.22,243.78 -12.89,69.64 6.46,119.95 58.04,150.89 46.44,25.79 116.08,16.76 208.96,-27.08 92.86,-43.85 203.78,-114.78 332.77,-212.82 128.97,-98.02 273.43,-219.27 433.37,-363.72 159.94,-144.46 327.61,-306.96 503.02,-487.53 77.39,-77.39 161.22,-167.68 251.51,-270.86 90.29,-103.18 170.26,-205.07 239.9,-305.68 69.65,-100.61 121.24,-190.9 154.78,-270.86 33.53,-79.96 32.24,-135.43 -3.87,-166.39zm9340.72 -2468.67c-36.11,180.57 -98.02,322.44 -185.74,425.64 -87.7,103.18 -167.67,172.82 -239.9,208.94 -30.95,15.48 -51.59,21.93 -61.91,19.36 -10.32,-2.59 -18.06,-9.03 -23.22,-19.36 -5.15,-10.32 -6.45,-18.06 -3.86,-23.21 2.58,-5.16 19.35,-20.64 50.3,-46.43 56.74,-46.43 112.21,-114.79 166.38,-205.08 54.18,-90.29 91.58,-187.02 112.21,-290.2 36.12,-185.74 29.67,-365.02 -19.35,-537.86 -49.01,-172.82 -141.87,-325.02 -278.6,-456.58 -136.71,-131.57 -322.45,-236.04 -557.19,-313.42 -234.75,-77.39 -519.78,-116.09 -855.14,-116.09 -598.47,0 -1207.25,144.46 -1826.35,433.38 -619.11,288.92 -1227.89,683.58 -1826.36,1184.05 -397.26,330.17 -793.24,686.16 -1187.91,1067.94 -394.68,381.78 -800.97,789.36 -1218.86,1222.73 72.23,0 174.13,-1.28 305.68,-3.86 131.57,-2.57 246.35,-1.29 344.38,3.86 10.32,0 20.63,2.59 30.95,7.75 10.33,5.15 12.91,18.05 7.75,38.69 -15.48,30.96 -43.86,46.43 -85.13,46.43 -41.28,0 -92.87,1.29 -154.78,3.87 -61.91,2.57 -126.4,5.16 -193.47,7.74 -67.07,2.57 -131.56,5.15 -193.47,7.74 -61.91,2.58 -116.07,3.86 -162.51,3.86 -134.14,144.46 -274.72,299.24 -421.76,464.33 -147.04,165.09 -294.08,328.9 -441.11,491.42 -147.04,162.51 -287.63,316 -421.77,460.45 -134.14,144.46 -250.22,268.29 -348.25,371.47 -366.3,386.93 -739.05,762.27 -1118.26,1125.98 -379.21,363.73 -728.74,672 -1048.6,924.79 -495.29,397.25 -969.93,733.9 -1423.94,1009.91 -454.01,276.03 -893.84,500.45 -1319.48,673.28 -425.63,172.83 -838.36,297.95 -1238.2,375.33 -399.84,77.39 -790.64,110.92 -1172.43,100.61 -423.05,-10.32 -788.06,-81.26 -1095.03,-216.69 -306.97,-134.13 -546.87,-312.14 -719.7,-533.98 -172.84,-221.85 -274.73,-472.06 -305.68,-750.66 -30.96,-278.61 18.06,-562.35 147.03,-851.27 15.48,-25.79 33.54,-56.76 54.17,-92.87 20.64,-36.11 42.57,-68.35 65.79,-96.74 23.22,-28.38 46.42,-50.3 69.64,-65.77 23.22,-15.48 42.57,-15.48 58.04,0 5.16,10.31 -2.57,38.68 -23.22,85.13 -20.63,46.42 -38.68,85.13 -54.17,116.07 -139.3,283.76 -197.34,561.06 -174.13,831.92 23.22,270.86 114.8,512.06 274.73,723.56 159.94,211.53 381.78,384.36 665.53,518.51 283.76,134.13 616.53,206.36 998.31,216.67 423.06,10.32 833.21,-32.24 1230.47,-127.68 397.26,-95.45 791.94,-236.04 1184.04,-423.06 392.11,-185.74 782.92,-408.86 1172.42,-669.41 389.53,-261.83 785.5,-552.03 1187.91,-871.9 118.67,-92.87 261.83,-212.83 429.51,-359.86 167.67,-148.32 344.38,-309.55 530.11,-484.96 185.73,-175.42 375.32,-359.85 568.8,-554.61 193.46,-193.47 380.49,-383.08 561.07,-568.81 242.48,-252.8 499.15,-527.53 770,-821.6 270.86,-294.07 573.97,-628.13 909.32,-999.6 -67.07,0 -139.3,2.58 -216.69,7.75 -77.38,5.16 -162.51,12.89 -255.38,23.22 -51.59,5.14 -72.23,-7.75 -61.91,-38.7 5.15,-15.47 15.46,-25.79 30.95,-30.96 15.48,-5.15 28.39,-10.32 38.69,-15.47 20.63,-5.15 54.17,-10.32 100.61,-15.47 46.43,-5.16 96.73,-9.03 150.89,-11.62 54.18,-2.57 108.35,-6.44 162.52,-11.6 54.17,-5.16 101.9,-7.74 143.16,-7.74 227.01,-237.32 457.89,-475.92 692.63,-715.84 234.75,-239.91 466.92,-472.07 696.5,-696.49 229.57,-224.43 455.3,-435.96 677.14,-634.59 221.85,-198.63 435.95,-380.49 642.32,-545.59 268.27,-211.53 558.47,-406.28 870.61,-584.28 312.14,-177.99 635.88,-332.77 971.23,-464.32 335.34,-131.56 673.27,-233.46 1013.76,-305.69 340.5,-72.21 673.27,-108.34 998.3,-108.34 371.46,0 683.59,45.15 936.4,135.42 252.81,90.29 451.42,206.38 595.88,348.25 144.46,141.88 241.19,300.53 290.21,475.92 49.01,175.42 58.04,350.83 27.08,526.24l0 0.03z"/>
  <path class="fil0" d="M7823.97 10546.98l-92.86 1214.98c-134.14,221.85 -303.1,419.18 -506.89,592.03 -203.79,172.82 -443.69,309.55 -719.71,410.15 -276.02,100.61 -592.01,150.91 -947.99,150.91 -536.57,-5.16 -1013.77,-123.83 -1431.68,-355.99 -417.9,-232.17 -744.22,-558.48 -978.96,-978.96 -234.74,-420.47 -352.1,-917.05 -352.1,-1489.72 0,-562.34 116.08,-1053.75 348.24,-1474.24 232.18,-420.46 558.48,-748.08 978.96,-982.83 420.47,-234.74 914.46,-352.1 1481.98,-352.1 381.78,0 726.16,50.3 1033.13,150.91 306.96,100.61 573.96,225.71 800.95,375.32l154.79 1091.18 -69.65 0c-113.5,-454.01 -345.67,-798.4 -696.49,-1033.14 -350.82,-234.74 -758.41,-352.09 -1222.73,-352.09 -454,0 -847.38,107.05 -1180.16,321.15 -332.77,214.12 -590.72,513.35 -773.88,897.71 -183.14,384.35 -274.71,834.49 -274.71,1350.41 0,515.92 91.57,967.35 274.71,1354.3 183.16,386.93 438.54,688.75 766.13,905.43 327.61,216.69 708.1,330.19 1141.48,340.52 366.3,0 705.52,-68.37 1017.65,-205.09 312.13,-136.71 573.96,-361.13 785.49,-673.27 211.53,-312.14 345.67,-731.31 402.42,-1257.55l61.91 0 -0.01 -0.02z"/>
  <path id="_1" class="fil0" d="M10989.13 7281.21l2290.67 5479.06 -657.8 0 -1787.66 -4743.86 154.79 -735.2 0 -0.01zm-1663.83 4960.56c-36.12,103.18 -41.28,190.89 -15.48,263.11 25.8,72.23 68.36,127.69 127.69,166.39 59.33,38.69 119.95,58.04 181.86,58.04l69.65 0 0 77.39 -1555.51 0 0 -77.39c0,0 11.62,0 34.82,0 23.22,0 34.84,0 34.84,0 118.65,0 241.18,-37.4 367.59,-112.22 126.4,-74.8 230.88,-199.91 313.42,-375.32l441.11 0zm1663.83 -4960.56l69.64 541.72 -1942.43 4960.56 -464.33 0 1981.14 -4705.18c0,0 14.18,-32.25 42.57,-96.73 28.37,-64.5 61.91,-143.17 100.59,-236.04 38.7,-92.86 72.23,-183.15 100.61,-270.86 28.38,-87.71 42.56,-152.2 42.56,-193.47l69.66 0zm1091.16 3412.8l0 232.16 -2422.23 0 0 -232.16 2422.23 0zm348.24 1547.75l634.58 0c77.39,175.42 180.57,300.53 309.55,375.32 128.99,74.82 252.81,112.22 371.47,112.22 0,0 10.31,0 30.96,0 20.63,0 30.95,0 30.95,0l0 77.39 -1741.23 0 0 -77.39 69.65 0c98.03,0 185.74,-42.56 263.11,-127.68 77.39,-85.13 87.72,-205.09 30.97,-359.86z"/>
  <path id="_2" class="fil0" d="M15284.16 7389.55l0 5417.17 -503.03 0 0 -5417.17 503.03 0zm2089.47 5177.25l0 239.9 -2112.69 0 0 -239.9 2112.69 0zm472.05 -1013.77l-448.85 1253.69 -1284.63 0 278.6 -239.9c273.43,0 496.56,-42.56 669.41,-127.68 172.83,-85.13 313.42,-205.09 421.76,-359.86 108.35,-154.78 203.79,-330.19 286.34,-526.24l77.39 0zm-3041.33 688.75l0 564.93 -619.1 0 0 -77.39c0,0 16.76,0 50.29,0 33.54,0 50.3,0 50.3,0 134.14,0 248.93,-47.72 344.39,-143.17 95.43,-95.45 145.74,-210.24 150.89,-344.38l23.22 0zm0 -4287.28l-23.22 0c-5.15,-134.13 -55.46,-248.93 -150.89,-344.38 -95.46,-95.43 -210.25,-143.17 -344.39,-143.17 0,0 -16.76,0 -50.3,0 -33.53,0 -50.29,0 -50.29,0l0 -77.39 619.1 0 0 564.93zm456.59 0l0 -564.93 619.11 0 0 77.39c-5.16,0 -23.22,0 -54.18,0 -30.95,0 -46.43,0 -46.43,0 -134.14,0 -248.93,47.73 -344.38,143.17 -95.45,95.45 -145.75,210.25 -150.9,344.38l-23.22 0z"/>
  <path id="_3" class="fil0" d="M23804.56 7281.21l61.92 518.5 -1942.44 4325.99c0,0 -19.34,43.85 -58.04,131.55 -38.69,87.71 -78.67,192.18 -119.95,313.43 -41.28,121.24 -69.64,236.03 -85.13,344.38l-77.39 0 -108.35 -487.55 2329.38 -5146.29zm-4759.35 4960.56l0 564.93 -859.02 0 0 -77.39c5.16,0 27.09,0 65.79,0 38.69,0 58.04,0 58.04,0 139.29,0 263.11,-42.56 371.46,-127.68 108.35,-85.13 172.83,-205.09 193.47,-359.86l170.25 0zm224.42 123.83c0,5.16 0,10.32 0,15.48 0,5.15 0,12.89 0,23.22 0,82.53 29.66,158.63 89,228.28 59.33,69.65 130.27,104.47 212.82,104.47l116.07 0 0 69.65 -472.06 0 0 -441.11 54.17 0zm185.72 -5084.39l77.39 0 154.77 456.6 -456.59 5068.9 -417.89 0 642.32 -5525.5 0 0.01zm77.4 0l2228.78 4821.27 -178.01 812.57 -2197.81 -4767.1 147.04 -866.75 0 0.01zm4341.46 0l665.53 5525.5 -603.62 0 -425.65 -4689.69 294.08 -835.81 69.65 0 0 -0.01zm433.37 4960.56l162.52 0c25.79,154.77 92.86,274.73 201.2,359.86 108.35,85.13 229.58,127.68 363.72,127.68 0,0 20.64,0 61.91,0 41.28,0 61.92,0 61.92,0l0 77.39 -851.28 0 0 -564.93 0.01 0zm-410.17 123.83l54.17 0 0 441.11 -472.06 0 0 -69.65 116.09 0c87.7,0 159.92,-34.82 216.67,-104.47 56.76,-69.65 85.13,-145.75 85.13,-228.28 0,-10.33 0,-18.07 0,-23.22 0,-5.16 0,-10.32 0,-15.48z"/>
 </g>
</svg>
