<?xml version="1.0" encoding="UTF-8"?>
<!DOCTYPE svg PUBLIC "-//W3C//DTD SVG 1.1//EN" "http://www.w3.org/Graphics/SVG/1.1/DTD/svg11.dtd">
<!-- Creator: CorelDRAW -->
<svg xmlns="http://www.w3.org/2000/svg" xml:space="preserve" width="282.031mm" height="133.595mm" version="1.1" style="shape-rendering:geometricPrecision; text-rendering:geometricPrecision; image-rendering:optimizeQuality; fill-rule:evenodd; clip-rule:evenodd"
viewBox="0 0 28734.99 13611.49"
 xmlns:xlink="http://www.w3.org/1999/xlink"
 xmlns:xodm="http://www.corel.com/coreldraw/odm/2003">
 <defs>
  <style type="text/css">
   <![CDATA[
    .fil0 {fill:#E3D6B5;fill-rule:nonzero}
   ]]>
  </style>
 </defs>
 <g id="Capa_x0020_1">
  <metadata id="CorelCorpID_0Corel-Layer"/>
  <path class="fil0" d="M10608.88 1511.48c-4.57,9.16 -9.16,18.32 -13.74,27.48 -4.58,9.17 -25.2,6.87 -61.82,-6.87 -59.54,-22.89 -114.51,-36.64 -164.89,-41.22 -50.38,-4.58 -98.47,-4.58 -144.28,0 -114.5,13.74 -247.33,60.69 -398.48,140.85 -151.15,80.15 -312.59,180.92 -484.36,302.29 -171.76,121.39 -345.8,258.78 -522.14,412.22 -176.34,153.44 -348.1,309.16 -515.28,467.19 -167.17,158.01 -324.05,313.74 -470.61,467.18 -146.56,153.43 -272.52,289.69 -377.86,408.78 -251.91,283.98 -459.16,542.76 -621.77,776.35 -162.6,233.59 -296.57,435.12 -401.91,604.59 -36.65,59.55 -72.15,121.38 -106.49,185.5 -34.36,64.12 -68.7,121.38 -103.06,171.75 -34.36,50.38 -67.56,91.61 -99.61,123.67 -32.06,32.06 -61.83,43.52 -89.32,34.35 -50.37,-13.73 -75.57,-57.24 -75.57,-130.53 0,-73.29 32.06,-176.34 96.19,-309.16 50.37,-105.35 124.8,-233.59 223.28,-384.74 98.47,-151.15 207.25,-311.46 326.33,-480.93 91.61,-187.79 135.12,-356.1 130.54,-504.96 -4.57,-148.87 -43.51,-282.83 -116.78,-401.91 -59.54,54.96 -115.65,107.63 -168.33,158.01 -52.68,50.37 -104.21,100.77 -154.58,151.14 -485.51,485.52 -930.93,879.41 -1336.28,1181.7 -405.34,302.29 -775.2,537.03 -1109.56,704.2 -334.35,167.17 -633.21,280.53 -896.58,340.08 -263.35,59.54 -493.51,89.3 -690.46,89.3 -132.83,0 -265.66,-13.73 -398.48,-41.22 -132.83,-27.48 -250.78,-79 -353.83,-154.58 -103.06,-75.57 -183.21,-177.48 -240.46,-305.72 -57.25,-128.25 -74.43,-293.14 -51.53,-494.67 13.75,-155.72 59.54,-316.03 137.41,-480.92 77.86,-164.89 178.63,-327.49 302.3,-487.8 123.66,-160.3 267.94,-313.74 432.83,-460.3 164.88,-146.57 343.52,-279.39 535.89,-398.49 137.39,-82.45 285.11,-156.86 443.13,-223.28 158.01,-66.41 318.32,-123.67 480.92,-171.76 162.59,-48.1 322.9,-89.31 480.92,-123.67 158.01,-34.35 308.01,-58.39 450,-72.14 -36.64,-27.48 -79,-80.14 -127.09,-158.01 -48.09,-77.86 -65.28,-171.76 -51.53,-281.68 22.9,-224.42 115.65,-420.23 278.25,-587.41 162.59,-167.17 365.26,-306.87 608.02,-419.09 242.75,-112.22 511.83,-196.96 807.25,-254.21 295.43,-57.25 587.41,-85.88 875.97,-85.88 334.35,0 643.51,13.74 927.5,41.23 283.96,27.48 546.18,64.12 786.65,109.91 240.45,45.81 464.89,95.04 673.28,147.71 208.41,52.68 408.78,104.2 601.15,154.58 32.06,9.16 75.58,21.76 130.55,37.79 54.96,16.03 113.36,33.2 175.19,51.52 61.82,18.32 124.8,37.79 188.93,58.39 64.13,20.62 121.38,40.08 171.76,58.41 54.96,13.73 82.45,32.06 82.45,54.96zm-638.94 -27.49c-160.31,13.73 -309.17,42.36 -446.57,85.87 -137.41,43.52 -293.15,99.62 -467.19,168.33 -467.18,187.8 -900,424.82 -1298.5,711.08 -398.48,286.26 -755.73,573.67 -1071.77,862.21 64.13,96.19 108.78,204.97 133.98,326.34 25.19,121.38 17.18,253.06 -24.06,395.04 91.61,-119.08 186.64,-234.73 285.12,-346.95 98.48,-112.22 193.52,-214.11 285.12,-305.72 490.08,-499.24 949.25,-913.75 1377.5,-1243.54 428.25,-329.76 837.02,-547.33 1226.35,-652.67l0.01 0.01zm164.87 -89.31c-36.64,-9.15 -76.71,-18.31 -120.23,-27.48 -43.52,-9.16 -90.46,-18.31 -140.85,-27.48 -192.37,-36.64 -384.74,-73.29 -577.11,-109.91 -192.36,-36.65 -404.19,-68.71 -635.49,-96.19 -231.3,-27.48 -492.37,-50.38 -783.22,-68.7 -290.84,-18.32 -628.64,-27.48 -1013.37,-27.48 -288.56,0 -575.97,26.33 -862.22,79 -286.27,52.68 -545.05,128.24 -776.35,226.72 -231.3,98.47 -423.67,217.57 -577.1,357.26 -153.44,139.7 -239.31,298.86 -257.64,477.49 -9.15,119.07 12.59,209.55 65.27,271.37 52.68,61.83 97.32,101.92 133.97,120.24 36.65,-4.58 69.85,-8.02 99.61,-10.3 29.78,-2.3 60.69,-3.44 92.76,-3.44 398.48,-9.16 746.58,37.79 1044.29,140.84 297.71,103.06 533.6,243.9 707.64,422.51 357.26,-288.54 736.28,-559.91 1137.04,-814.13 400.77,-254.2 821.01,-461.45 1260.72,-621.76 229,-87.02 435.11,-154.58 618.33,-202.67 183.2,-48.09 377.86,-76.72 583.97,-85.89l-0.01 0.01zm-3668.74 1786.29c-174.05,-169.48 -409.93,-297.72 -707.64,-384.74 -297.72,-87.02 -620.63,-123.67 -968.72,-109.92 -141.98,4.58 -299.99,26.34 -474.04,65.27 -174.05,38.93 -351.54,89.31 -532.44,151.14 -180.92,61.84 -358.41,132.83 -532.45,212.98 -174.04,80.16 -332.07,163.75 -474.04,250.77 -192.37,123.66 -373.3,254.21 -542.76,391.61 -169.48,137.4 -318.33,277.11 -446.59,419.09 -128.23,141.99 -232.43,285.12 -312.58,429.4 -80.15,144.28 -127.1,282.83 -140.85,415.65 -22.89,178.63 -10.3,325.19 37.79,439.7 48.1,114.51 115.65,204.96 202.67,271.37 87.02,66.42 187.8,113.37 302.3,140.85 114.5,27.48 231.3,41.22 350.39,41.22 251.91,0 511.83,-49.24 779.78,-147.71 267.94,-98.48 551.92,-242.74 851.92,-432.83 299.99,-190.08 619.47,-425.95 958.41,-707.65 338.93,-281.67 705.36,-605.72 1099.25,-972.13 87.02,-77.86 175.19,-156.87 264.51,-237.03 89.32,-80.15 184.36,-159.16 285.12,-237.02l-0.03 -0.01zm4630.58 -267.95c0,9.17 -12.59,14.89 -37.78,17.18 -25.2,2.29 -46.95,5.73 -65.28,10.31 -132.82,13.74 -281.67,84.73 -446.57,212.98 -87.02,68.69 -179.78,150 -278.25,243.89 -98.46,93.89 -196.95,191.22 -295.42,291.97 -98.47,100.78 -194.65,202.68 -288.56,305.74 -93.89,103.06 -179.77,200.39 -257.63,291.99 73.28,-68.71 178.63,-158.03 316.04,-267.95 137.39,-109.92 281.67,-214.13 432.82,-312.6 151.15,-98.46 294.28,-177.48 429.4,-237.03 135.12,-59.54 234.73,-75.57 298.86,-48.08 59.54,32.06 90.45,90.45 92.74,175.19 2.3,84.73 -18.31,183.21 -61.82,295.42 -43.52,112.22 -104.2,229.01 -182.06,350.39 -77.87,121.38 -167.18,232.45 -267.94,333.21 -302.31,306.88 -587.41,535.89 -855.36,687.04 -267.94,151.14 -509.54,224.42 -724.83,219.85 -45.8,-4.58 -81.28,-11.45 -106.48,-20.61 -25.2,-9.16 -53.82,-25.19 -85.88,-48.1 -36.64,-27.48 -56.11,-61.82 -58.4,-103.05 -2.28,-41.21 8.02,-64.13 30.92,-68.71 18.32,-4.56 30.91,0 37.78,13.75 6.87,13.74 12.6,27.48 17.19,41.22 9.15,22.89 24.05,42.36 44.66,58.39 20.6,16.03 49.23,24.05 85.87,24.05 64.13,9.17 130.54,0 199.24,-27.48 68.71,-27.48 152.3,-77.87 250.77,-151.15 98.47,-73.29 215.26,-175.19 350.39,-305.73 135.12,-130.54 303.45,-298.86 504.97,-504.97 68.7,-68.7 145.42,-147.71 230.15,-237.03 84.74,-89.31 161.46,-175.19 230.16,-257.64 68.71,-82.45 121.38,-155.72 158.01,-219.85 36.65,-64.12 41.22,-105.35 13.74,-123.66 -45.81,-32.06 -140.84,-12.6 -285.12,58.39 -144.28,70.99 -306.87,171.76 -487.8,302.3 -180.91,130.54 -366.41,277.1 -556.49,439.7 -190.08,162.6 -353.82,317.18 -491.22,463.74 -132.83,142 -293.14,312.6 -480.93,511.84 -187.79,199.24 -388.16,407.64 -601.15,625.19 -212.98,217.57 -430.54,431.69 -652.68,642.37 -222.14,210.69 -429.39,396.18 -621.76,556.49 -425.96,352.69 -843.9,650.39 -1253.84,893.14 -409.93,242.75 -811.84,437.42 -1205.74,583.98 -393.9,146.56 -780.92,249.62 -1161.08,309.17 -380.17,59.54 -753.44,84.72 -1119.85,75.57 -375.58,-9.16 -699.63,-72.14 -972.14,-192.37 -272.52,-119.08 -485.5,-277.11 -638.94,-474.04 -153.44,-196.96 -243.9,-419.1 -271.38,-666.43 -27.48,-247.34 16.04,-499.24 130.54,-755.74 13.74,-22.89 29.77,-50.38 48.09,-82.45 18.32,-32.05 37.79,-60.68 58.4,-85.88 20.62,-25.19 41.22,-44.66 61.83,-58.39 20.61,-13.74 37.79,-13.74 51.52,0 4.58,9.15 -2.28,34.35 -20.6,75.57 -18.32,41.22 -34.36,75.58 -48.09,103.06 -123.67,251.91 -175.2,498.1 -154.59,738.56 20.61,240.46 101.92,454.58 243.89,642.36 142,187.79 338.93,341.23 590.85,460.32 251.91,119.07 547.34,183.2 886.27,192.36 760.31,21.75 1511.48,-127.1 2253.46,-444.27 741.99,-317.19 1497.73,-796.97 2267.21,-1438.19 403.06,-338.93 845.05,-762.61 1325.97,-1271.02 480.92,-508.39 1012.23,-1078.63 1593.9,-1710.71 238.18,-256.49 450.02,-461.45 635.51,-614.89 185.5,-153.44 365.27,-282.83 539.32,-388.18 114.5,-73.28 215.26,-122.52 302.29,-147.71 87.03,-25.2 155.73,-37.78 206.12,-37.78 22.9,0 49.23,3.43 79.01,10.3 29.76,6.87 42.35,21.76 37.78,44.66l-0.02 0.01zm8106.97 -1593.9c-27.49,160.31 -81.3,286.26 -161.46,377.87 -80.15,91.61 -152.29,153.43 -216.42,185.49 -41.21,22.89 -66.41,22.89 -75.57,0 -4.58,-9.16 -4.58,-16.03 0,-20.61 4.57,-4.58 18.31,-18.32 41.22,-41.21 50.37,-41.23 100.77,-101.92 151.15,-182.07 50.37,-80.15 84.73,-166.03 103.05,-257.64 27.48,-164.88 20.61,-324.05 -20.61,-477.49 -41.21,-153.43 -123.67,-288.55 -247.33,-405.34 -123.67,-116.8 -289.69,-209.55 -498.1,-278.25 -208.4,-68.7 -461.45,-103.06 -759.17,-103.06 -265.65,0 -532.44,40.07 -800.39,120.23 -267.94,80.16 -534.74,187.8 -800.4,322.91 -265.65,135.12 -526.73,289.7 -783.22,463.75 -256.49,174.05 -503.82,357.25 -741.99,549.61 -412.21,325.2 -842.76,704.22 -1291.62,1137.05 -448.86,432.83 -895.43,878.26 -1339.71,1336.27 -137.39,141.99 -272.51,286.26 -405.34,432.83 -132.83,146.57 -247.33,280.53 -343.52,401.92 -96.18,121.37 -164.88,224.42 -206.11,309.15 -41.22,84.74 -41.22,138.56 0,161.46 50.38,27.48 121.38,17.18 212.97,-30.91 91.61,-48.09 215.27,-124.81 371,-230.16 100.78,-73.28 217.57,-166.03 350.4,-278.25 132.82,-112.22 270.23,-227.87 412.21,-346.95 13.74,-9.16 28.63,-19.46 44.67,-30.91 16.03,-11.44 33.2,-8.01 51.52,10.3 13.74,13.74 16.03,27.48 6.88,41.23 -9.17,13.73 -20.61,25.18 -34.36,34.35 -45.8,45.81 -101.91,97.33 -168.33,154.58 -66.41,57.25 -136.26,116.79 -209.54,178.63 -73.29,61.83 -147.71,121.38 -223.28,178.63 -75.58,57.26 -145.43,108.78 -209.56,154.58 -137.39,96.19 -265.65,175.19 -384.73,237.03 -119.09,61.83 -224.42,81.29 -316.03,58.4 -100.77,-27.48 -158.03,-95.04 -171.76,-202.67 -13.74,-107.64 32.06,-246.19 137.4,-415.65 77.86,-119.08 193.51,-270.23 346.94,-453.44 153.45,-183.2 340.08,-387.02 559.93,-611.46 114.51,-119.08 261.08,-271.37 439.71,-456.88 178.63,-185.49 383.59,-389.32 614.89,-611.47 231.3,-222.13 484.36,-452.28 759.17,-690.46 274.81,-238.17 567.94,-467.19 879.4,-687.03 251.9,-178.64 510.69,-350.4 776.34,-515.27 265.66,-164.89 535.89,-309.17 810.71,-432.84 274.81,-123.66 554.2,-222.13 838.17,-295.42 283.98,-73.29 570.24,-109.92 858.79,-109.92 329.77,0 606.87,40.08 831.32,120.23 224.42,80.15 401.91,183.21 532.43,309.16 130.55,125.95 216.43,266.8 257.65,422.52 41.21,155.72 48.09,311.46 20.61,467.18l0 0.01zm-4527.53 2143.53c-146.56,132.83 -290.83,266.8 -432.82,401.92 -141.99,135.12 -273.68,264.51 -395.04,388.16 -121.38,123.67 -231.31,238.18 -329.78,343.52 -98.46,105.35 -177.48,192.37 -237.03,261.07 -105.34,132.83 -186.63,243.9 -243.88,333.21 -57.26,89.32 -60.69,145.43 -10.31,168.33 27.48,13.74 67.56,9.16 120.23,-13.73 52.68,-22.9 112.22,-53.83 178.63,-92.75 66.42,-38.93 131.69,-82.45 195.8,-130.54 64.13,-48.09 121.39,-90.46 171.76,-127.11 109.93,-87.02 225.59,-183.2 346.95,-288.54 121.38,-105.35 223.28,-194.67 305.74,-267.95 9.15,-9.16 22.89,-17.18 41.21,-24.05 18.32,-6.87 32.06,-1.15 41.22,17.18 9.16,22.9 9.16,40.08 0,51.53 -9.16,11.44 -20.61,24.05 -34.35,37.78 -100.77,87.02 -211.83,182.07 -333.22,285.12 -121.37,103.06 -223.28,188.93 -305.72,257.64 -50.39,41.22 -108.78,85.88 -175.19,133.97 -66.42,48.09 -133.98,92.75 -202.68,133.97 -68.7,41.22 -133.97,75.57 -195.8,103.05 -61.83,27.49 -115.65,41.23 -161.45,41.23 -59.54,0 -109.93,-12.6 -151.15,-37.8 -41.22,-25.18 -69.85,-62.98 -85.88,-113.35 -16.04,-50.39 -14.89,-111.07 3.43,-182.07 18.31,-70.99 59.54,-154.58 123.66,-250.76 -201.52,169.47 -389.31,309.16 -563.36,419.09 -174.05,109.92 -316.03,164.89 -425.96,164.89 -119.08,0 -192.37,-38.93 -219.85,-116.8 -27.48,-77.86 -21.75,-176.34 17.18,-295.42 38.93,-119.08 103.06,-248.48 192.37,-388.18 89.3,-139.71 193.51,-269.09 312.6,-388.16 137.39,-137.41 291.97,-267.95 463.73,-391.62 171.76,-123.66 341.23,-226.72 508.41,-309.16 167.17,-82.45 321.76,-139.7 463.74,-171.76 141.99,-32.06 249.62,-27.48 322.91,13.74 45.8,27.48 65.27,80.15 58.39,158.01 -6.87,77.87 -76.71,180.92 -209.54,309.16 137.4,-114.51 253.05,-204.96 346.95,-271.37 93.89,-66.42 170.61,-111.07 230.15,-133.98 82.45,-27.48 171.76,-36.63 267.94,-27.48l0.01 0zm-748.85 54.97c-64.13,-50.38 -219.86,5.73 -467.19,168.32 -247.33,162.61 -554.2,417.96 -920.63,766.04 -105.34,100.78 -202.67,202.68 -291.97,305.74 -89.32,103.05 -162.61,196.95 -219.85,281.67 -57.26,84.74 -95.05,156.88 -113.37,216.43 -18.32,59.54 -6.87,98.46 34.35,116.79 32.06,13.73 90.46,-1.15 175.19,-44.66 84.74,-43.52 187.79,-107.63 309.17,-192.37 121.38,-84.74 253.05,-188.94 395.04,-312.6 141.99,-123.66 286.26,-261.06 432.83,-412.21 68.69,-68.7 147.71,-148.86 237.02,-240.46 89.32,-91.61 171.76,-180.92 247.34,-267.94 75.57,-87.03 133.97,-166.03 175.18,-237.04 41.23,-70.98 43.53,-120.22 6.89,-147.7l0 -0.01zm2047.35 302.3c-32.06,64.13 -69.84,125.95 -113.35,185.49 -43.52,59.54 -97.34,114.51 -161.46,164.89 -32.06,27.48 -75.58,54.96 -130.54,82.44 -54.96,27.48 -100.77,20.61 -137.41,-20.61 -18.31,-22.89 -22.89,-48.08 -13.73,-75.57 9.16,-27.48 26.34,-54.96 51.53,-82.45 25.18,-27.48 53.81,-52.68 85.87,-75.57 32.06,-22.89 61.83,-43.52 89.31,-61.83 146.57,-91.61 239.32,-178.63 278.25,-261.07 38.93,-82.44 33.2,-139.7 -17.18,-171.76 -32.05,-22.89 -92.75,-9.16 -182.06,41.23 -89.32,50.37 -188.94,119.08 -298.86,206.11 -109.92,87.02 -224.43,183.2 -343.51,288.55 -119.08,105.34 -222.14,201.53 -309.17,288.55 -302.3,288.55 -496.95,522.14 -583.97,700.77 -87.02,178.63 -91.61,290.84 -13.74,336.64 41.22,22.91 96.18,27.49 164.89,13.74 68.7,-13.74 139.7,-35.5 212.98,-65.27 73.28,-29.77 145.41,-65.26 216.41,-106.49 71,-41.22 127.1,-75.57 168.33,-103.05 64.12,-41.22 133.97,-91.61 209.55,-151.15 75.57,-59.54 151.15,-119.08 226.72,-178.64 75.57,-59.54 146.56,-119.08 212.97,-178.63 66.42,-59.54 124.81,-109.91 175.2,-151.15 36.64,-27.48 64.13,-32.06 82.44,-13.73 27.49,18.32 22.9,41.21 -13.74,68.7 -91.6,91.6 -204.95,192.37 -340.06,302.3 -135.13,109.92 -262.22,210.69 -381.31,302.3 -119.08,87.02 -248.48,167.17 -388.18,240.46 -139.7,73.28 -285.12,119.08 -436.27,137.4 -132.83,13.74 -237.03,-11.45 -312.59,-75.58 -75.58,-64.12 -111.07,-148.86 -106.49,-254.2 0,-155.72 53.82,-318.32 161.45,-487.8 107.63,-169.47 248.48,-334.35 422.51,-494.66 132.83,-123.67 275.96,-238.17 429.4,-343.52 153.44,-105.35 300.01,-192.37 439.71,-261.07 139.7,-68.7 266.79,-115.65 381.3,-140.84 114.5,-25.2 201.53,-21.76 261.07,10.3 36.65,22.9 59.54,50.38 68.69,82.45 9.17,32.05 11.46,67.56 6.88,106.49 -4.57,38.93 -13.74,75.57 -27.48,109.92 -13.74,34.36 -25.19,62.98 -34.36,85.88zm1538.95 -398.48c54.96,32.06 84.74,73.28 89.32,123.67 4.57,50.37 -9.17,103.05 -41.23,158 -32.05,54.97 -76.72,111.08 -133.96,168.33 -57.26,57.25 -117.95,108.78 -182.07,154.58 -54.97,36.65 -124.81,74.43 -209.54,113.37 -84.74,38.93 -169.48,70.98 -254.21,96.18 -84.73,25.19 -164.89,42.36 -240.46,51.53 -75.57,9.15 -129.4,2.28 -161.46,-20.62 -105.34,100.78 -210.69,209.54 -316.03,326.34 -105.34,116.8 -193.51,229.02 -264.51,336.65 -70.99,107.63 -116.79,201.52 -137.4,281.67 -20.62,80.15 1.14,133.98 65.27,161.46 64.13,22.9 158.01,14.89 281.67,-24.05 123.67,-38.93 256.5,-104.2 398.48,-195.8 164.89,-105.35 327.49,-224.43 487.8,-357.26 160.31,-132.82 288.55,-245.04 384.74,-336.64 13.73,-13.74 30.91,-25.19 51.52,-34.36 20.61,-9.15 35.5,-6.87 44.66,6.88 13.74,18.32 14.89,35.5 3.43,51.53 -11.44,16.03 -24.05,30.91 -37.79,44.65 -119.08,105.35 -242.74,211.83 -371,319.46 -128.24,107.64 -267.94,214.13 -419.09,319.47 -119.08,87.03 -255.35,163.74 -408.78,230.16 -153.44,66.41 -296.57,95.04 -429.4,85.88 -91.61,-9.16 -169.47,-42.36 -233.58,-99.62 -64.13,-57.24 -89.32,-147.71 -75.58,-271.37 0,-32.06 8.02,-76.72 24.05,-133.97 16.04,-57.26 43.52,-124.81 82.45,-202.68 38.93,-77.86 92.75,-163.73 161.45,-257.63 68.7,-93.89 158.01,-193.51 267.94,-298.86 128.24,-123.66 271.37,-241.61 429.4,-353.82 158.01,-112.22 311.46,-206.12 460.32,-281.68 148.85,-75.58 285.11,-129.38 408.78,-161.45 123.66,-32.06 215.26,-32.06 274.81,0zm-41.21 61.82c-22.91,-18.31 -74.44,-4.57 -154.59,41.23 -80.15,45.79 -172.89,106.48 -278.24,182.05 -105.35,75.58 -214.12,160.32 -326.34,254.21 -112.22,93.9 -209.55,182.07 -291.99,264.51 27.49,9.17 67.56,9.17 120.24,0 52.68,-9.16 113.36,-27.48 182.06,-54.96 68.7,-27.48 140.85,-62.98 216.42,-106.49 75.58,-43.51 152.3,-95.04 230.15,-154.58 114.52,-91.61 202.68,-178.63 264.52,-261.07 61.83,-82.45 74.42,-137.41 37.79,-164.89zm2995.44 -54.96c105.35,54.96 115.65,187.79 30.92,398.48 -84.73,210.69 -273.67,462.6 -566.8,755.74 -151.15,151.15 -296.56,286.26 -436.27,405.34 -139.7,119.08 -271.37,217.57 -395.04,295.43 -123.66,77.86 -234.73,132.83 -333.21,164.89 -98.47,32.05 -179.78,41.22 -243.9,27.48 -105.33,-27.48 -174.04,-82.45 -206.11,-164.89 -32.06,-82.45 -33.2,-183.21 -3.43,-302.3 29.77,-119.08 88.17,-249.61 175.19,-391.61 87.02,-141.98 199.24,-283.98 336.64,-425.95 141.99,-141.99 293.14,-269.09 453.44,-381.31 160.31,-112.22 317.18,-202.67 470.62,-271.37 153.44,-68.71 293.14,-113.36 419.09,-133.97 125.95,-20.61 225.58,-12.59 298.85,24.05zm-41.21 82.44c-36.63,-27.48 -97.32,-25.19 -182.06,6.88 -84.73,32.05 -187.79,90.46 -309.15,175.19 -121.39,84.73 -255.35,191.23 -401.92,319.47 -146.56,128.23 -297.71,274.82 -453.44,439.69 -100.77,105.35 -193.51,207.26 -278.24,305.74 -84.74,98.47 -154.59,188.93 -209.55,271.37 -54.97,82.45 -88.17,154.58 -99.62,216.42 -11.44,61.83 5.74,106.49 51.53,133.97 41.22,22.9 103.05,14.89 185.49,-24.05 82.45,-38.93 180.92,-101.91 295.43,-188.94 114.5,-87.02 242.75,-194.65 384.73,-322.91 141.99,-128.24 290.84,-272.51 446.57,-432.82 68.71,-68.7 143.13,-148.86 223.28,-240.46 80.16,-91.61 151.16,-182.06 212.99,-271.38 61.83,-89.31 107.63,-169.47 137.4,-240.46 29.77,-70.98 28.62,-120.23 -3.44,-147.71zm8292.46 -2191.63c-32.05,160.31 -87.02,286.26 -164.88,377.87 -77.86,91.61 -148.87,153.43 -212.99,185.49 -27.48,13.74 -45.79,19.46 -54.96,17.18 -9.16,-2.29 -16.03,-8.02 -20.61,-17.18 -4.58,-9.16 -5.72,-16.03 -3.43,-20.61 2.29,-4.58 17.18,-18.32 44.66,-41.21 50.38,-41.23 99.62,-101.92 147.71,-182.07 48.09,-80.15 81.3,-166.03 99.62,-257.64 32.05,-164.88 26.33,-324.05 -17.19,-477.49 -43.51,-153.43 -125.95,-288.55 -247.33,-405.34 -121.37,-116.8 -286.26,-209.55 -494.66,-278.25 -208.41,-68.7 -461.45,-103.06 -759.17,-103.06 -531.3,0 -1071.77,128.24 -1621.39,384.74 -549.63,256.5 -1090.09,606.86 -1621.39,1051.16 -352.68,293.13 -704.22,609.17 -1054.6,948.1 -350.39,338.93 -711.07,700.78 -1082.06,1085.51 64.12,0 154.57,-1.14 271.37,-3.43 116.8,-2.28 218.71,-1.15 305.73,3.43 9.16,0 18.31,2.29 27.48,6.88 9.16,4.57 11.46,16.02 6.88,34.35 -13.74,27.48 -38.94,41.22 -75.58,41.22 -36.64,0 -82.45,1.14 -137.4,3.43 -54.97,2.29 -112.22,4.58 -171.76,6.87 -59.54,2.29 -116.8,4.58 -171.76,6.87 -54.96,2.3 -103.06,3.43 -144.28,3.43 -119.08,128.25 -243.89,265.66 -374.43,412.23 -130.53,146.56 -261.07,291.98 -391.61,436.27 -130.53,144.28 -255.35,280.54 -374.43,408.78 -119.08,128.24 -222.13,238.18 -309.16,329.78 -325.19,343.51 -656.11,676.72 -992.76,999.62 -336.65,322.92 -646.97,596.57 -930.93,821.01 -439.71,352.67 -861.08,651.54 -1264.14,896.58 -403.06,245.05 -793.52,444.28 -1171.39,597.71 -377.86,153.44 -744.28,264.51 -1099.25,333.22 -354.96,68.7 -701.91,98.46 -1040.86,89.31 -375.57,-9.16 -699.62,-72.14 -972.13,-192.37 -272.52,-119.08 -485.5,-277.11 -638.94,-474.04 -153.45,-196.96 -243.9,-419.1 -271.38,-666.43 -27.48,-247.34 16.04,-499.24 130.54,-755.74 13.74,-22.89 29.77,-50.38 48.09,-82.45 18.32,-32.05 37.79,-60.68 58.4,-85.88 20.61,-25.19 41.22,-44.66 61.83,-58.39 20.61,-13.74 37.79,-13.74 51.52,0 4.58,9.15 -2.28,34.35 -20.61,75.57 -18.32,41.22 -34.35,75.58 -48.09,103.06 -123.67,251.91 -175.19,498.1 -154.58,738.56 20.61,240.46 101.92,454.58 243.89,642.36 141.99,187.79 338.93,341.23 590.85,460.32 251.91,119.07 547.34,183.2 886.27,192.36 375.57,9.16 739.7,-28.62 1092.37,-113.36 352.69,-84.74 703.06,-209.55 1051.17,-375.58 348.09,-164.89 695.05,-362.98 1040.85,-594.28 345.81,-232.44 697.35,-490.08 1054.6,-774.05 105.35,-82.46 232.44,-188.94 381.31,-319.47 148.85,-131.68 305.72,-274.82 470.61,-430.54 164.89,-155.72 333.21,-319.47 504.97,-492.37 171.76,-171.76 337.79,-340.08 498.1,-504.98 215.27,-224.42 443.14,-468.32 683.59,-729.39 240.46,-261.07 509.55,-557.64 807.26,-887.43 -59.54,0 -123.66,2.3 -192.37,6.88 -68.69,4.58 -144.28,11.45 -226.72,20.62 -45.8,4.56 -64.13,-6.88 -54.96,-34.37 4.57,-13.73 13.73,-22.89 27.48,-27.48 13.74,-4.57 25.2,-9.16 34.35,-13.74 18.32,-4.57 48.09,-9.15 89.31,-13.73 41.23,-4.58 85.88,-8.02 133.97,-10.31 48.09,-2.28 96.19,-5.72 144.28,-10.3 48.09,-4.58 90.46,-6.87 127.1,-6.87 201.53,-210.69 406.49,-422.51 614.89,-635.5 208.4,-212.98 414.51,-419.1 618.34,-618.34 203.81,-199.24 404.19,-387.02 601.15,-563.37 196.96,-176.33 387.02,-337.78 570.24,-484.36 238.17,-187.79 495.8,-360.69 772.91,-518.71 277.11,-158.01 564.52,-295.42 862.23,-412.21 297.7,-116.79 597.71,-207.27 899.99,-271.38 302.3,-64.12 597.71,-96.18 886.27,-96.18 329.77,0 606.86,40.08 831.31,120.23 224.43,80.15 400.77,183.21 529.01,309.16 128.24,125.95 214.13,266.8 257.64,422.52 43.52,155.72 51.53,311.46 24.05,467.18l0 0.02z"/>
  <path class="fil0" d="M8567.99 11227.19l-93.5 1223.31c-135.05,223.36 -305.17,422.06 -510.36,596.08 -205.19,174.01 -446.73,311.67 -724.64,412.95 -277.91,101.29 -596.07,151.95 -954.5,151.95 -540.24,-5.2 -1020.71,-124.68 -1441.48,-358.43 -420.77,-233.75 -749.32,-562.3 -985.67,-985.65 -236.34,-423.37 -354.51,-923.34 -354.51,-1499.93 0,-566.2 116.87,-1060.97 350.63,-1484.35 233.76,-423.36 562.3,-753.2 985.66,-989.56 423.36,-236.35 920.73,-354.52 1492.14,-354.52 384.4,0 731.13,50.65 1040.2,151.94 309.07,101.31 577.9,227.27 806.45,377.91l155.84 1098.66 -70.12 0c-114.29,-457.12 -348.05,-803.87 -701.27,-1040.22 -353.23,-236.34 -763.6,-354.5 -1231.11,-354.5 -457.12,0 -853.2,107.79 -1188.24,323.36 -335.05,215.58 -594.77,516.86 -779.18,903.86 -184.41,386.98 -276.6,840.21 -276.6,1359.67 0,519.44 92.19,973.98 276.6,1363.57 184.41,389.59 441.54,693.48 771.38,911.63 329.86,218.18 712.95,332.46 1149.29,342.86 368.81,0 710.36,-68.83 1024.63,-206.49 314.27,-137.65 577.9,-363.61 790.88,-677.89 212.97,-314.28 348.03,-736.33 405.17,-1266.18l62.32 0 -0.01 -0.02z"/>
  <path id="_1" class="fil0" d="M11754.84 7939.04l2306.38 5516.61 -662.31 0 -1799.92 -4776.37 155.84 -740.23 0 -0.01zm-1675.23 4994.56c-36.36,103.89 -41.56,192.19 -15.59,264.91 25.98,72.73 68.82,128.57 128.57,167.52 59.74,38.97 120.77,58.44 183.11,58.44l70.12 0 0 77.92 -1566.16 0 0 -77.92c0,0 11.7,0 35.07,0 23.37,0 35.07,0 35.07,0 119.47,0 242.85,-37.66 370.11,-112.98 127.27,-75.31 232.45,-201.29 315.56,-377.89l444.14 0zm1675.23 -4994.56l70.12 545.44 -1955.73 4994.56 -467.51 0 1994.7 -4737.43c0,0 14.28,-32.47 42.86,-97.39 28.56,-64.94 62.33,-144.15 101.28,-237.66 38.96,-93.5 72.73,-184.4 101.29,-272.72 28.57,-88.3 42.85,-153.24 42.85,-194.8l70.13 0zm1098.65 3436.18l0 233.76 -2438.83 0 0 -233.76 2438.83 0zm350.63 1558.37l638.92 0c77.92,176.61 181.82,302.58 311.67,377.89 129.87,75.32 254.54,112.98 374.02,112.98 0,0 10.37,0 31.16,0 20.77,0 31.17,0 31.17,0l0 77.92 -1753.16 0 0 -77.92 70.13 0c98.7,0 187.01,-42.85 264.92,-128.56 77.91,-85.71 88.31,-206.49 31.18,-362.32z"/>
  <path id="_2" class="fil0" d="M16079.31 8048.12l0 5454.29 -506.47 0 0 -5454.29 506.47 0zm2103.79 5212.73l0 241.55 -2127.17 0 0 -241.55 2127.17 0zm475.29 -1020.71l-451.93 1262.27 -1293.44 0 280.5 -241.55c275.32,0 499.97,-42.85 674,-128.56 174.02,-85.71 315.56,-206.49 424.65,-362.32 109.09,-155.84 205.19,-332.46 288.3,-529.85l77.92 0zm-3062.17 693.48l0 568.8 -623.35 0 0 -77.92c0,0 16.88,0 50.64,0 33.78,0 50.65,0 50.65,0 135.06,0 250.65,-48.04 346.75,-144.15 96.09,-96.1 146.74,-211.67 151.93,-346.73l23.38 0zm0 -4316.66l-23.38 0c-5.2,-135.06 -55.84,-250.64 -151.93,-346.74 -96.1,-96.1 -211.69,-144.15 -346.75,-144.15 0,0 -16.87,0 -50.65,0 -33.75,0 -50.64,0 -50.64,0l0 -77.92 623.35 0 0 568.81zm459.71 0l0 -568.81 623.36 0 0 77.92c-5.2,0 -23.38,0 -54.55,0 -31.17,0 -46.76,0 -46.76,0 -135.05,0 -250.64,48.05 -346.73,144.15 -96.1,96.1 -146.75,211.68 -151.94,346.74l-23.38 0z"/>
  <path id="_3" class="fil0" d="M24658.1 7939.04l62.33 522.05 -1955.75 4355.63c0,0 -19.47,44.15 -58.44,132.45 -38.95,88.31 -79.21,193.49 -120.77,315.57 -41.56,122.07 -70.12,237.65 -85.71,346.74l-77.92 0 -109.09 -490.9 2345.34 -5181.55zm-4791.97 4994.56l0 568.8 -864.9 0 0 -77.92c5.2,0 27.27,0 66.24,0 38.96,0 58.44,0 58.44,0 140.26,0 264.91,-42.85 374,-128.56 109.09,-85.71 174.02,-206.49 194.8,-362.32l171.42 0zm225.96 124.68c0,5.2 0,10.39 0,15.59 0,5.2 0,12.98 0,23.37 0,83.11 29.86,159.73 89.6,229.85 59.75,70.12 131.17,105.19 214.28,105.19l116.88 0 0 70.13 -475.31 0 0 -444.13 54.55 0zm186.98 -5119.24l77.92 0 155.82 459.72 -459.71 5103.64 -420.76 0 646.72 -5563.37 0 0.01zm77.93 0l2244.05 4854.3 -179.22 818.14 -2212.88 -4799.76 148.05 -872.69 0 0.01zm4371.21 0l670.09 5563.37 -607.76 0 -428.55 -4721.83 296.09 -841.53 70.13 0 0 -0.01zm436.34 4994.56l163.63 0c25.97,155.82 93.5,276.61 202.59,362.32 109.09,85.71 231.16,128.56 366.21,128.56 0,0 20.77,0 62.33,0 41.56,0 62.33,0 62.33,0l0 77.92 -857.11 0 0 -568.8 0.01 0zm-412.98 124.68l54.55 0 0 444.13 -475.31 0 0 -70.13 116.89 0c88.3,0 161.02,-35.07 218.16,-105.19 57.15,-70.13 85.71,-146.75 85.71,-229.85 0,-10.39 0,-18.18 0,-23.37 0,-5.2 0,-10.39 0,-15.59z"/>
 </g>
</svg>
