<?xml version="1.0" encoding="UTF-8"?>
<!DOCTYPE svg PUBLIC "-//W3C//DTD SVG 1.1//EN" "http://www.w3.org/Graphics/SVG/1.1/DTD/svg11.dtd">
<!-- Creator: CorelDRAW -->
<svg xmlns="http://www.w3.org/2000/svg" xml:space="preserve" width="211.644mm" height="119.099mm" version="1.1" style="shape-rendering:geometricPrecision; text-rendering:geometricPrecision; image-rendering:optimizeQuality; fill-rule:evenodd; clip-rule:evenodd"
viewBox="0 0 33060.44 18604.18"
 xmlns:xlink="http://www.w3.org/1999/xlink"
 xmlns:xodm="http://www.corel.com/coreldraw/odm/2003">
 <defs>
  <style type="text/css">
   <![CDATA[
    .fil0 {fill:#E3D6B5;fill-rule:nonzero}
   ]]>
  </style>
 </defs>
 <g id="Capa_x0020_1">
  <metadata id="CorelCorpID_0Corel-Layer"/>
  <path class="fil0" d="M15157.33 2436.84c-7.39,14.76 -14.76,29.54 -22.15,44.3 -7.39,14.76 -40.61,11.08 -99.69,-11.08 -95.99,-36.93 -184.61,-59.08 -265.83,-66.47 -81.23,-7.37 -158.75,-7.37 -232.61,0 -184.61,22.17 -398.75,97.85 -642.42,227.08 -243.68,129.22 -503.99,291.67 -780.9,487.35 -276.91,195.68 -557.51,417.22 -841.8,664.59 -284.3,247.37 -561.21,498.44 -830.73,753.2 -269.54,254.76 -522.44,505.82 -758.75,753.2 -236.3,247.37 -439.37,467.05 -609.2,659.04 -406.14,457.83 -740.29,875.05 -1002.42,1251.63 -262.15,376.6 -478.14,701.51 -647.97,974.74 -59.08,95.99 -116.31,195.68 -171.69,299.06 -55.39,103.38 -110.77,195.68 -166.16,276.91 -55.38,81.23 -108.91,147.68 -160.6,199.37 -51.69,51.7 -99.69,70.15 -143.99,55.39 -81.23,-22.15 -121.84,-92.3 -121.84,-210.46 0,-118.14 51.69,-284.28 155.07,-498.43 81.23,-169.84 201.23,-376.6 359.98,-620.29 158.77,-243.68 334.14,-502.13 526.14,-775.35 147.68,-302.75 217.83,-574.13 210.44,-814.11 -7.39,-240 -70.15,-455.99 -188.29,-647.98 -96.01,88.62 -186.45,173.53 -271.38,254.76 -84.91,81.23 -167.99,162.46 -249.21,243.68 -782.74,782.73 -1500.86,1417.79 -2154.37,1905.14 -653.51,487.37 -1249.79,865.81 -1788.85,1135.34 -539.04,269.54 -1020.88,452.28 -1445.47,548.29 -424.6,95.99 -795.66,143.99 -1113.18,143.99 -214.15,0 -428.29,-22.15 -642.44,-66.47 -214.15,-44.3 -404.28,-127.37 -570.42,-249.21 -166.16,-121.84 -295.37,-286.14 -387.68,-492.9 -92.3,-206.76 -120,-472.59 -83.07,-797.5 22.15,-251.07 95.99,-509.52 221.52,-775.35 125.53,-265.83 287.99,-527.98 487.37,-786.43 199.37,-258.45 431.98,-505.82 697.81,-742.11 265.83,-236.31 553.82,-450.44 863.97,-642.44 221.52,-132.92 459.66,-252.92 714.42,-359.98 254.76,-107.08 513.22,-199.38 775.35,-276.91 262.15,-77.54 520.59,-144.01 775.35,-199.38 254.76,-55.38 496.6,-94.15 725.51,-116.3 -59.08,-44.32 -127.39,-129.23 -204.91,-254.76 -77.54,-125.54 -105.22,-276.91 -83.07,-454.14 36.91,-361.82 186.45,-677.51 448.6,-947.03 262.13,-269.54 588.89,-494.76 980.25,-675.66 391.38,-180.92 825.2,-317.52 1301.49,-409.83 476.28,-92.3 947.03,-138.46 1412.25,-138.46 539.06,0 1037.49,22.15 1495.32,66.47 457.83,44.3 880.58,103.38 1268.25,177.22 387.68,73.84 749.5,153.22 1085.49,238.14 335.99,84.91 659.06,168 969.19,249.23 51.69,14.76 121.84,35.07 210.46,60.91 88.6,25.85 182.75,53.55 282.44,83.09 99.69,29.52 201.23,60.92 304.61,94.15 103.38,33.23 195.68,64.61 276.91,94.15 88.62,22.15 132.92,51.69 132.92,88.62zm-1030.13 -44.32c-258.45,22.17 -498.43,68.31 -719.96,138.46 -221.53,70.15 -472.59,160.61 -753.2,271.36 -753.19,302.76 -1451.02,684.89 -2093.44,1146.43 -642.44,461.52 -1218.42,924.88 -1727.93,1390.08 103.38,155.08 175.37,330.46 215.99,526.14 40.61,195.68 27.68,407.98 -38.77,636.89 147.68,-192 300.9,-378.45 459.67,-559.37 158.75,-180.9 311.98,-345.2 459.67,-492.9 790.12,-804.88 1530.39,-1473.17 2220.82,-2004.84 690.42,-531.67 1349.48,-882.42 1977.14,-1052.26zm265.83 -144.01c-59.08,-14.76 -123.69,-29.54 -193.84,-44.3 -70.15,-14.78 -145.84,-29.54 -227.06,-44.3 -310.14,-59.08 -620.29,-118.16 -930.42,-177.23 -310.14,-59.06 -651.67,-110.77 -1024.57,-155.07 -372.92,-44.3 -793.82,-81.23 -1262.72,-110.77 -468.89,-29.54 -1013.49,-44.3 -1633.76,-44.3 -465.22,0 -928.58,42.46 -1390.09,127.37 -461.52,84.93 -878.73,206.77 -1251.65,365.53 -372.9,158.77 -683.04,350.75 -930.42,575.97 -247.37,225.22 -385.82,481.84 -415.36,769.82 -14.78,192 20.31,337.83 105.22,437.52 84.91,99.68 156.91,164.3 215.99,193.82 59.08,-7.37 112.61,-12.92 160.61,-16.6 48,-3.7 97.85,-5.55 149.54,-5.55 642.42,-14.76 1203.63,60.92 1683.61,227.08 479.98,166.14 860.27,393.21 1140.88,681.19 575.97,-465.2 1187.02,-902.73 1833.15,-1312.55 646.12,-409.83 1323.63,-743.97 2032.53,-1002.42 369.21,-140.31 701.5,-249.23 996.87,-326.76 295.37,-77.54 609.21,-123.69 941.5,-138.46zm-5914.82 2879.9c-280.61,-273.22 -660.9,-479.98 -1140.88,-620.29 -479.98,-140.31 -1000.56,-199.37 -1561.77,-177.22 -228.92,7.39 -483.68,42.46 -764.28,105.22 -280.6,62.76 -566.74,143.99 -858.43,243.68 -291.69,99.69 -577.81,214.15 -858.43,343.38 -280.6,129.22 -535.36,263.98 -764.28,404.28 -310.14,199.38 -601.81,409.83 -875.03,631.36 -273.22,221.52 -513.21,446.75 -719.98,675.66 -206.76,228.91 -374.74,459.67 -503.97,692.28 -129.23,232.59 -204.91,455.97 -227.06,670.12 -36.93,287.99 -16.62,524.28 60.92,708.89 77.53,184.61 186.45,330.46 326.76,437.52 140.31,107.08 302.75,182.76 487.35,227.06 184.62,44.32 372.92,66.47 564.91,66.47 406.13,0 825.18,-79.38 1257.18,-238.14 431.98,-158.77 889.81,-391.38 1373.47,-697.83 483.67,-306.45 998.73,-686.74 1545.16,-1140.87 546.43,-454.14 1137.18,-976.58 1772.23,-1567.31 140.31,-125.54 282.46,-252.92 426.45,-382.15 143.99,-129.22 297.22,-256.6 459.67,-382.13zm4995.48 753.2c-7.39,73.84 -31.4,129.22 -72,166.14 -40.61,36.91 -72.01,51.69 -94.16,44.3 -14.76,-7.39 -33.23,-20.31 -55.38,-38.77 -22.15,-18.46 -48,-35.07 -77.54,-49.85 -51.69,-29.52 -94.15,-49.83 -127.37,-60.92 -33.23,-11.08 -86.77,-20.31 -160.61,-27.68 -110.77,-7.39 -251.06,29.54 -420.9,110.77 -169.84,81.23 -350.75,188.29 -542.74,321.21 -192,132.92 -391.36,284.3 -598.14,454.13 -206.76,169.84 -402.44,343.38 -587.05,520.59 -177.22,169.84 -323.07,311.99 -437.52,426.45 -114.45,114.45 -217.83,225.22 -310.14,332.29 -92.3,107.08 -188.29,223.38 -287.99,348.92 -99.69,125.53 -223.38,280.6 -371.06,465.2 -36.93,0 -64.62,-16.62 -83.09,-49.85 -18.45,-33.23 -31.38,-73.84 -38.76,-121.84 -7.39,-47.99 -9.23,-95.99 -5.55,-143.99 3.69,-47.99 12.92,-86.76 27.7,-116.3 147.68,-280.61 348.91,-581.52 603.67,-902.73 254.76,-321.23 529.83,-636.91 825.18,-947.04 177.23,-192 356.29,-367.37 537.21,-526.12 180.92,-158.77 337.83,-278.77 470.75,-360 88.62,-59.06 204.91,-105.22 348.91,-138.45 143.99,-33.23 286.14,-49.85 426.45,-49.85 -228.92,147.68 -487.37,348.91 -775.35,603.67 -287.99,254.76 -550.13,522.44 -786.43,803.03l33.23 44.32c155.08,-132.92 335.99,-287.99 542.74,-465.22 206.77,-177.22 417.22,-341.52 631.36,-492.9 214.15,-151.38 422.76,-275.07 625.82,-371.06 203.07,-96.01 371.07,-132.92 503.99,-110.77 95.99,14.76 164.3,53.53 204.91,116.3 40.61,62.78 57.22,134.78 49.85,216zm10976.77 -2458.99c-51.69,258.45 -140.31,461.52 -265.83,609.21 -125.54,147.68 -240,247.37 -343.38,299.06 -44.3,22.15 -73.84,31.38 -88.62,27.7 -14.76,-3.7 -25.84,-12.93 -33.23,-27.7 -7.37,-22.15 -9.23,-35.08 -5.53,-38.77 3.69,-3.69 27.68,-23.99 72,-60.92 81.23,-66.45 160.6,-164.3 238.14,-293.53 77.54,-129.22 131.07,-271.36 160.61,-426.43 51.69,-265.83 49.85,-520.59 -5.55,-764.28 -55.38,-243.68 -177.22,-457.83 -365.53,-642.44 -188.29,-184.61 -446.74,-330.44 -775.34,-437.52 -328.6,-107.06 -740.29,-156.91 -1235.03,-149.52 -398.75,7.39 -814.12,77.53 -1246.1,210.44 -431.98,132.92 -863.96,310.15 -1295.95,531.67 -431.98,221.53 -862.11,474.45 -1290.4,758.75 -428.29,284.28 -834.42,577.81 -1218.41,880.58 -169.84,140.29 -354.45,293.51 -553.82,459.67 -199.38,166.14 -396.91,335.97 -592.59,509.5 -195.68,173.53 -382.13,339.69 -559.37,498.44 -177.22,158.77 -328.6,297.22 -454.13,415.37 81.23,0 212.3,-3.7 393.21,-11.08 180.92,-7.39 334.14,-3.7 459.67,11.08 14.78,0 31.38,3.69 49.85,11.08 18.46,7.39 20.31,29.54 5.55,66.45 -22.17,36.93 -62.76,55.39 -121.84,55.39 -44.32,0 -107.08,0 -188.31,0 -81.23,0 -167.99,1.84 -260.29,5.53 -92.3,3.7 -182.76,7.39 -271.38,11.08 -88.6,3.7 -166.14,9.23 -232.59,16.62 -103.39,103.38 -199.38,199.37 -288,287.99 -88.6,88.62 -191.98,195.68 -310.14,321.23 -575.97,598.12 -1002.42,1076.26 -1279.33,1434.4 -276.91,358.14 -341.52,581.52 -193.84,670.12 44.3,29.54 107.08,35.08 188.29,16.62 81.23,-18.46 171.69,-51.69 271.38,-99.69 99.69,-47.99 201.23,-107.06 304.61,-177.22 103.38,-70.15 199.37,-138.46 287.99,-204.91 66.45,-51.69 147.68,-116.31 243.68,-193.84 95.99,-77.54 199.37,-164.3 310.14,-260.3 110.77,-95.99 221.53,-191.98 332.3,-287.99 110.75,-95.99 210.44,-184.61 299.06,-265.83 22.15,-14.76 48,-29.54 77.53,-44.3 29.54,-14.76 55.39,-11.08 77.54,11.08 22.15,36.93 20.31,68.31 -5.55,94.15 -25.84,25.85 -49.83,53.53 -72,83.07 -66.45,66.47 -149.52,142.15 -249.21,227.08 -99.69,84.91 -204.91,173.53 -315.68,265.83 -110.77,92.3 -223.38,186.45 -337.83,282.44 -114.45,96.01 -223.38,180.92 -326.76,254.76 -243.68,184.61 -472.59,324.91 -686.74,420.9 -214.15,96.01 -402.44,114.45 -564.89,55.39 -177.22,-66.47 -267.68,-193.84 -271.38,-382.15 -3.69,-188.29 57.23,-389.52 182.76,-603.67 236.3,-391.36 790.12,-1026.41 1661.47,-1905.14 -96.01,0 -199.38,3.69 -310.15,11.08 -110.77,7.39 -232.59,18.46 -365.51,33.23 -73.86,7.39 -103.39,-11.08 -88.62,-55.38 7.39,-22.15 22.15,-36.93 44.3,-44.3 22.15,-7.39 40.61,-14.78 55.39,-22.17 29.54,-7.37 77.53,-14.76 143.99,-22.15 66.45,-7.37 138.45,-12.92 215.99,-16.6 77.53,-3.7 156.91,-9.23 238.14,-16.62 81.23,-7.39 155.07,-11.08 221.53,-11.08 406.13,-406.14 827.04,-799.35 1262.71,-1179.64 435.68,-380.3 886.12,-740.29 1351.32,-1079.96 398.75,-287.99 819.67,-564.89 1262.72,-830.73 443.05,-265.83 893.49,-498.44 1351.32,-697.81 457.83,-199.38 913.8,-358.14 1367.94,-476.29 454.13,-118.16 891.65,-180.92 1312.55,-188.29 539.06,-7.39 985.8,49.83 1340.25,171.67 354.45,121.84 635.05,280.61 841.8,476.29 206.77,195.68 343.38,419.06 409.83,670.12 66.47,251.07 77.54,502.15 33.24,753.2zm-4718.59 2104.54c169.83,88.62 186.45,302.75 49.85,642.44 -136.62,339.67 -441.23,745.82 -913.82,1218.41 -243.68,243.68 -478.14,461.52 -703.36,653.51 -225.22,191.98 -437.51,350.75 -636.89,476.28 -199.37,125.54 -378.45,214.15 -537.2,265.83 -158.77,51.69 -289.84,66.47 -393.22,44.32 -169.83,-44.32 -280.6,-132.92 -332.29,-265.83 -51.69,-132.92 -53.55,-295.37 -5.55,-487.37 48,-192 142.15,-402.44 282.46,-631.36 140.29,-228.91 321.21,-457.83 542.74,-686.74 228.91,-228.91 472.59,-433.82 731.04,-614.74 258.46,-180.92 511.36,-326.76 758.73,-437.52 247.39,-110.77 472.61,-182.76 675.68,-215.99 203.05,-33.23 363.67,-20.31 481.82,38.77zm-66.47 132.92c-59.08,-44.3 -156.91,-40.61 -293.53,11.08 -136.6,51.69 -302.75,145.84 -498.43,282.46 -195.68,136.6 -411.69,308.29 -647.98,515.05 -236.3,206.76 -479.98,443.05 -731.04,708.89 -162.46,169.84 -311.99,334.14 -448.6,492.9 -136.6,158.77 -249.21,304.61 -337.83,437.52 -88.62,132.92 -142.15,249.23 -160.61,348.91 -18.46,99.69 9.23,171.69 83.07,215.99 66.47,36.93 166.16,24.01 299.08,-38.76 132.92,-62.78 291.67,-164.3 476.28,-304.61 184.61,-140.31 391.36,-313.84 620.29,-520.59 228.91,-206.76 468.91,-439.37 719.96,-697.81 110.77,-110.77 230.77,-240 359.98,-387.68 129.23,-147.69 243.68,-293.53 343.38,-437.52 99.69,-143.99 173.53,-273.22 221.53,-387.68 47.99,-114.45 46.14,-193.84 -5.55,-238.14zm13369.28 -3533.41c-51.69,258.46 -140.29,461.52 -265.83,609.21 -125.53,147.68 -239.98,247.37 -343.36,299.06 -44.32,22.15 -73.86,31.38 -88.62,27.7 -14.76,-3.69 -25.84,-12.92 -33.23,-27.7 -7.39,-14.76 -9.23,-25.84 -5.55,-33.23 3.7,-7.39 27.7,-29.54 72,-66.47 81.23,-66.45 160.61,-164.3 238.15,-293.51 77.53,-129.23 131.06,-267.68 160.6,-415.37 51.69,-265.83 42.46,-522.44 -27.68,-769.81 -70.15,-247.37 -203.07,-465.22 -398.75,-653.51 -195.7,-188.29 -461.53,-337.83 -797.5,-448.6 -335.99,-110.77 -743.97,-166.14 -1223.95,-166.14 -856.58,0 -1727.93,206.76 -2614.05,620.27 -886.11,413.53 -1757.45,978.42 -2614.03,1694.7 -568.6,472.59 -1135.34,982.11 -1700.23,1528.56 -564.91,546.43 -1146.43,1129.79 -1744.55,1750.08 103.38,0 249.21,-1.84 437.52,-5.55 188.29,-3.69 352.59,-1.84 492.9,5.55 14.76,0 29.54,3.69 44.3,11.08 14.78,7.39 18.46,25.84 11.08,55.38 -22.15,44.32 -62.76,66.47 -121.84,66.47 -59.06,0 -132.92,1.84 -221.52,5.53 -88.62,3.7 -180.92,7.39 -276.91,11.08 -96.01,3.7 -188.31,7.39 -276.91,11.08 -88.62,3.7 -166.16,5.55 -232.61,5.55 -192,206.76 -393.22,428.29 -603.67,664.59 -210.46,236.3 -420.9,470.75 -631.36,703.36 -210.44,232.59 -411.67,452.28 -603.67,659.04 -192,206.76 -358.14,383.99 -498.44,531.67 -524.28,553.82 -1057.79,1091.03 -1600.54,1611.63 -542.74,520.59 -1043.03,961.8 -1500.86,1323.63 -708.89,568.6 -1388.25,1050.42 -2038.06,1445.49 -649.83,395.05 -1279.33,716.28 -1888.54,963.65 -609.2,247.37 -1199.94,426.43 -1772.23,537.2 -572.28,110.77 -1131.65,158.77 -1678.08,143.99 -605.51,-14.76 -1127.95,-116.3 -1567.31,-310.14 -439.37,-192 -782.74,-446.75 -1030.11,-764.28 -247.37,-317.52 -393.22,-675.66 -437.52,-1074.41 -44.3,-398.75 25.85,-804.88 210.46,-1218.41 22.15,-36.93 47.99,-81.23 77.53,-132.92 29.54,-51.69 60.92,-97.83 94.15,-138.45 33.24,-40.61 66.47,-72 99.69,-94.16 33.23,-22.15 60.92,-22.15 83.07,0 7.39,14.78 -3.69,55.39 -33.23,121.84 -29.54,66.47 -55.38,121.84 -77.54,166.16 -199.37,406.13 -282.44,803.03 -249.21,1190.71 33.23,387.68 164.3,732.9 393.22,1035.64 228.91,302.76 546.43,550.13 952.57,742.13 406.13,192 882.42,295.37 1428.85,310.14 605.52,14.78 1192.57,-46.14 1761.17,-182.76 568.58,-136.6 1133.48,-337.83 1694.68,-605.51 561.21,-265.83 1120.57,-585.2 1678.08,-958.12 557.52,-374.74 1124.26,-790.12 1700.25,-1247.95 169.83,-132.92 374.74,-304.59 614.74,-515.05 239.98,-212.3 492.9,-443.05 758.73,-694.13 265.83,-251.06 537.2,-515.05 814.12,-793.82 276.91,-276.91 544.59,-548.27 803.03,-814.11 347.06,-361.84 714.43,-755.05 1102.11,-1175.95 387.68,-420.9 821.5,-899.04 1301.48,-1430.71 -95.99,0 -199.37,3.69 -310.14,11.08 -110.77,7.39 -232.61,18.46 -365.53,33.23 -73.84,7.39 -103.38,-11.08 -88.62,-55.38 7.39,-22.15 22.15,-36.93 44.32,-44.3 22.15,-7.39 40.61,-14.78 55.38,-22.17 29.54,-7.37 77.54,-14.76 143.99,-22.15 66.47,-7.37 138.46,-12.92 215.99,-16.6 77.54,-3.7 155.07,-9.23 232.61,-16.62 77.54,-7.39 145.84,-11.08 204.91,-11.08 324.91,-339.67 655.35,-681.21 991.34,-1024.57 335.99,-343.38 668.27,-675.66 996.87,-996.89 328.61,-321.21 651.67,-623.97 969.19,-908.27 317.52,-284.28 623.97,-544.59 919.35,-780.88 383.99,-302.75 799.35,-581.52 1246.1,-836.28 446.75,-254.76 910.11,-476.28 1390.09,-664.59 479.98,-188.29 963.65,-334.13 1451.02,-437.51 487.35,-103.39 963.65,-155.08 1428.85,-155.08 531.67,0 978.42,64.62 1340.25,193.84 361.84,129.23 646.14,295.37 852.9,498.44 206.76,203.07 345.22,430.13 415.36,681.21 70.15,251.06 83.09,502.13 38.77,753.19z"/>
  <path class="fil0" d="M2395.45 10473.93l1605.55 0c341.61,0 650.97,49.35 928.03,148.02 277.08,98.69 510.52,241.03 700.31,427.01 189.78,185.98 335.89,409.94 438.38,671.82 102.47,261.9 153.72,559.85 153.72,893.87 0,364.39 -85.41,713.59 -256.21,1047.61 -170.8,334 -402.33,605.42 -694.59,814.17 -292.27,208.74 -620.58,313.13 -984.97,313.13 129.04,53.13 269.49,161.3 421.32,324.54 151.82,163.21 284.67,320.73 398.53,472.53 0,0 51.25,74.04 153.74,222.07 102.47,148.02 231.53,328.32 387.15,540.89 155.61,212.55 313.13,421.31 472.56,626.27 159.43,204.96 296.05,368.17 409.92,489.63 151.83,167.02 303.64,315.04 455.47,444.08 151.83,129.04 316.95,231.53 495.35,307.45 178.39,75.92 377.65,113.88 597.79,113.88l0 113.88 -626.27 0c-349.2,0 -650.97,-53.14 -905.27,-159.43 -254.29,-106.27 -468.75,-237.23 -643.34,-392.85 -174.61,-155.61 -322.63,-305.54 -444.08,-449.77 -22.79,-30.38 -85.41,-117.67 -187.9,-261.91 -102.49,-144.24 -223.94,-316.95 -364.39,-518.1 -140.43,-201.18 -278.97,-400.44 -415.62,-597.82 -136.64,-197.37 -254.31,-366.28 -352.98,-506.71 -98.69,-140.45 -155.61,-222.05 -170.81,-244.84 -144.23,-189.78 -303.65,-364.36 -478.25,-523.78 -174.61,-159.43 -364.39,-239.12 -569.35,-239.12l0 -113.88c0,0 58.84,1.89 176.48,5.7 117.67,3.78 260.01,1.89 427.03,-5.7 197.37,-7.59 413.72,-37.96 649.06,-91.1 235.31,-53.13 455.47,-163.21 660.43,-330.22 204.96,-167 360.57,-421.31 466.87,-762.92 22.78,-83.51 41.75,-187.87 56.94,-313.13 15.17,-125.26 18.98,-248.62 11.37,-370.07 -7.59,-516.2 -138.54,-928.03 -392.85,-1235.48 -254.29,-307.45 -594.03,-472.56 -1019.12,-495.32 -212.55,-15.2 -430.81,-20.89 -654.76,-17.09 -223.94,3.78 -411.81,5.69 -563.65,5.69 -151.83,0 -227.75,0 -227.75,0 0,-7.59 -9.47,-39.85 -28.46,-96.8 -18.98,-56.91 -37.96,-113.86 -56.92,-170.8 -18.98,-56.92 -28.48,-85.38 -28.48,-85.38zm148.02 0l0 7970.84 -740.13 0 0 -7970.84 740.13 0zm-705.97 7139.6l0 831.25 -910.97 0 0 -113.88c0,0 24.67,0 74.01,0 49.35,0 74.01,0 74.01,0 197.37,0 366.29,-70.22 506.72,-210.65 140.45,-140.45 214.47,-309.35 222.07,-506.72l34.16 0zm0 -6308.37l-34.16 0c-7.59,-197.37 -81.62,-366.28 -222.07,-506.72 -140.43,-140.43 -309.35,-210.65 -506.72,-210.65 0,0 -24.67,0 -74.01,0 -49.35,0 -74.01,0 -74.01,0l0 -113.86 910.97 0 0 831.23zm671.8 6308.37l34.16 0c0,197.37 72.14,366.28 216.36,506.72 144.23,140.43 315.02,210.65 512.41,210.65 0,0 22.76,0 68.33,0 45.55,0 68.33,0 68.33,0l0 113.88 -899.59 0 0 -831.25zm7276.25 -6000.92l0 6832.16 -728.77 0 0 -6832.16 728.77 0zm3063.07 6479.16l-22.76 353 -3063.08 0 0 -353 3085.84 0zm-535.17 -3233.9l0 341.61 -2550.67 0 0 -341.61 2550.67 0zm523.8 -3245.27l0 353.01 -3074.47 0 0 -353.01 3074.47 0zm649.08 5203.82l-626.28 1628.34 -1730.82 0 387.15 -353c379.59,0 685.13,-55.03 916.66,-165.11 231.53,-110.08 419.42,-261.9 563.66,-455.47 144.21,-193.59 269.47,-411.83 375.77,-654.76l113.86 0zm-1172.87 -1639.72l0 649.06 -125.26 0 0 -148.04c0,-129.04 -37.97,-241.03 -113.86,-335.91 -75.92,-94.9 -193.59,-142.34 -353.01,-142.34l0 -22.78 592.14 0zm0 -945.11l0 649.06 -592.14 0 0 -22.79c159.43,0 277.1,-47.44 353.01,-142.32 75.89,-94.9 113.86,-206.87 113.86,-335.93l0 -148.02 125.26 0zm523.8 -2300.15l0 785.68 -125.26 0 0 -170.81c0,-159.39 -51.24,-296.05 -153.72,-409.91 -102.47,-113.88 -241.03,-170.8 -415.61,-170.8l0 -34.16 694.59 0zm0 -501.04l0 296.08 -1298.12 -113.89c235.33,0 485.85,-20.87 751.55,-62.62 265.69,-41.75 447.88,-81.62 546.57,-119.56zm-3757.69 6285.59l148.02 728.76 -990.66 0 0 -113.88c0,0 26.57,0 79.71,0 53.14,0 79.71,0 79.71,0 189.78,0 345.39,-60.72 466.86,-182.2 121.47,-121.45 185.98,-265.69 193.57,-432.68l22.78 0zm0 -5386.04l-22.78 0c-7.59,-174.58 -72.11,-318.82 -193.57,-432.68 -121.47,-113.89 -277.08,-170.8 -466.86,-170.8 0,0 -26.57,0 -79.71,0 -53.14,0 -79.71,0 -79.71,0l0 -113.89 990.66 0 -148.02 717.37zm7412.91 -876.78c212.55,0 398.55,7.58 557.96,22.78 159.41,15.18 297.97,32.26 415.61,51.25 117.67,18.96 220.16,41.75 307.45,68.31 87.32,26.57 165.11,51.24 233.44,74.01l11.4 1127.31 -136.65 0c0,-311.24 -106.28,-556.07 -318.84,-734.46 -212.57,-178.41 -542.78,-267.58 -990.67,-267.58 -379.55,0 -704.09,104.36 -973.57,313.13 -269.51,208.76 -400.45,464.97 -392.86,768.62 0,98.69 13.29,199.27 39.85,301.75 26.59,102.49 72.14,203.07 136.65,301.76 64.53,98.68 153.72,197.37 267.6,296.05l2300.16 1776.35c174.59,144.24 303.64,328.33 387.15,552.29 83.51,223.94 129.06,445.97 136.65,666.13 7.59,334 -79.7,641.45 -261.91,922.33 -182.19,280.88 -426.99,502.91 -734.44,666.15 -307.45,163.21 -647.17,244.81 -1019.13,244.81 -220.14,0 -457.38,-18.99 -711.68,-56.94 -254.31,-37.94 -491.54,-96.79 -711.68,-176.48 -220.13,-79.71 -402.34,-180.31 -546.57,-301.76 -22.76,-106.27 -34.16,-241.03 -34.16,-404.24 0,-163.22 13.28,-335.93 39.85,-518.11 26.59,-182.19 62.62,-345.39 108.19,-489.63l136.65 0c-30.38,341.61 18.96,633.88 148.02,876.78 129.04,242.93 318.82,427.03 569.35,552.29 250.51,125.25 542.76,184.09 876.78,176.5 470.65,-15.2 840.74,-134.76 1110.23,-358.7 269.49,-223.94 404.25,-521.89 404.25,-893.87 0,-182.19 -32.29,-347.3 -96.8,-495.32 -64.53,-148.05 -168.92,-286.58 -313.13,-415.64l-2277.39 -1753.59c-212.57,-182.19 -356.79,-383.37 -432.71,-603.51 -75.92,-220.13 -113.86,-428.9 -113.86,-626.27 0,-311.24 83.51,-592.12 250.5,-842.62 167.02,-250.53 392.86,-449.8 677.54,-597.82 284.66,-148.02 601.6,-222.05 950.81,-222.05zm1503.08 102.49l11.37 204.96 -808.45 0 0 -204.96 797.08 0zm4759.74 91.07l0 6798.02 -740.13 0 0 -6798.02 740.13 0zm2755.65 -45.55l0 341.61 -6251.43 0 0 -341.61 6251.43 0zm0 318.84l0 785.69 -125.26 0 0 -182.19c0,-159.43 -51.24,-294.17 -153.71,-404.24 -102.49,-110.08 -241.03,-168.91 -415.62,-176.5l0 -22.78 694.59 0zm0 -501.02l0 296.05 -1275.33 -113.86c151.8,0 313.13,-9.5 483.95,-28.46 170.8,-18.98 328.32,-43.66 472.53,-74.01 144.24,-30.38 250.53,-56.95 318.85,-79.71zm-3473.02 6296.96l0 728.76 -831.25 0 0 -113.86c7.61,0 32.26,0 74.01,0 41.75,0 62.64,0 62.64,0 182.19,0 337.8,-60.73 466.87,-182.2 129.04,-121.45 197.37,-265.69 204.96,-432.7l22.76 0zm683.19 0l34.16 0c7.59,167 75.92,311.24 204.96,432.7 129.06,121.47 284.69,182.2 466.87,182.2 0,0 20.89,0 62.64,0 41.75,0 62.62,0 62.62,0l0 113.86 -831.26 0 0 -728.76zm-2767.02 -5795.94l0 22.78c-174.59,7.59 -313.13,66.42 -415.62,176.5 -102.47,110.06 -153.71,244.81 -153.71,404.24l0 182.19 -125.26 0 0 -785.69 694.59 0zm-694.59 -501.04c68.33,22.76 172.7,49.33 313.13,79.7 140.45,30.35 297.97,55.05 472.56,74.01 174.59,18.98 337.83,28.48 489.63,28.48l-1275.33 113.86 0 -296.05z"/>
 </g>
</svg>
