<?xml version="1.0" encoding="UTF-8"?>
<!DOCTYPE svg PUBLIC "-//W3C//DTD SVG 1.1//EN" "http://www.w3.org/Graphics/SVG/1.1/DTD/svg11.dtd">
<!-- Creator: CorelDRAW -->
<svg xmlns="http://www.w3.org/2000/svg" xml:space="preserve" width="43.9817mm" height="43.9817mm" version="1.1" style="shape-rendering:geometricPrecision; text-rendering:geometricPrecision; image-rendering:optimizeQuality; fill-rule:evenodd; clip-rule:evenodd"
viewBox="0 0 1208.02 1208.02"
 xmlns:xlink="http://www.w3.org/1999/xlink"
 xmlns:xodm="http://www.corel.com/coreldraw/odm/2003">
 <defs>
  <style type="text/css">
   <![CDATA[
    .fil3 {fill:none}
    .fil0 {fill:black}
    .fil2 {fill:#BDAC97}
    .fil1 {fill:white}
   ]]>
  </style>
 </defs>
 <g id="Capa_x0020_1">
  <metadata id="CorelCorpID_0Corel-Layer"/>
  <g id="_1981916815600">
   <g id="_2912981879456">
    <path class="fil0" d="M805.09 352.61c-6.48,-4.99 -13.52,-8.9 -21.08,-11.72l0 -18.06 0 -0.99c0,-23.86 -8.42,-44.2 -25.26,-61.05 -15.5,-15.5 -33.96,-23.88 -55.41,-25.17 -1.88,-0.11 -3.78,-0.18 -5.71,-0.18l-14.35 0 -12.12 0c-3.08,-20.51 0.96,-47.04 12.12,-79.6 0.88,-2.62 1.8,-5.22 2.8,-7.81 0.07,-0.22 0.15,-0.39 0.2,-0.5 8.29,-26.46 13.95,-49.18 16.95,-68.16l0 -0.5c0.07,-0.2 0.11,-0.37 0.11,-0.48l0 -0.02c2.99,-20.47 2.88,-36.91 -0.31,-49.33 -0.59,-2.49 -1.92,-4.42 -4.02,-5.82 -2.14,-1.47 -4.42,-2.05 -6.89,-1.71 -2.56,0.26 -4.66,1.36 -6.32,3.3 -1.68,1.88 -2.52,4.07 -2.52,6.61l0 45.24c-2.8,17.97 -8.14,39.43 -16.03,64.44 -0.07,0.15 -0.11,0.28 -0.11,0.42 -14.02,38.22 -19.5,69.52 -16.42,93.92l-93.42 0c3.13,-24.54 -2.4,-56 -16.57,-94.34 -7.89,-25.04 -13.27,-46.54 -16.14,-64.55l0 -45.14c0,-2.52 -0.83,-4.74 -2.49,-6.61 -1.68,-1.93 -3.8,-3.04 -6.32,-3.3 -2.47,-0.33 -4.74,0.24 -6.82,1.71 -2.14,1.4 -3.5,3.33 -4.13,5.82 -3.21,12.42 -3.3,28.82 -0.28,49.22l0 0.02c0,0.11 0.04,0.24 0.11,0.37l0 0.28 0 0.11 0.11 0.22c2.93,18.98 8.61,41.74 17.03,68.27 0,0.11 0.04,0.29 0.11,0.5 0.92,2.52 1.82,5.05 2.71,7.54 11.29,32.67 15.37,59.29 12.22,79.89l-12.22 0 -14.32 0c-1.95,0 -3.85,0.05 -5.71,0.18 -21.45,1.29 -39.89,9.67 -55.33,25.17l-0.11 0c-16.77,16.84 -25.15,37.2 -25.15,61.05l0 0.99 0 18.06c-7.56,2.82 -14.61,6.73 -21.15,11.72 -16.38,12.55 -24.47,27.73 -24.27,45.51 -0.18,17.84 7.9,33.08 24.27,45.7l0 -0.11c14.98,11.7 33.13,17.65 54.45,17.84l57.32 142.97 0 499.4c0,2.73 1.01,5.1 3.02,7.11 1.92,1.93 4.26,2.91 7,2.91 2.75,0 5.12,-0.98 7.11,-2.91 1.95,-2.01 2.91,-4.39 2.91,-7.11l0 -476.78c7.22,4.96 15.94,7.52 26.16,7.7 2.41,0.07 4.75,0.02 7.04,-0.18 -0.61,5.62 0.42,10.43 3.1,14.43 4.07,9.21 14.91,14.35 32.48,15.42l1.22 0c17.58,-1.07 28.39,-6.21 32.48,-15.42 2.6,-4 3.61,-8.81 3.02,-14.43 2.27,0.18 4.64,0.26 7.11,0.18 10.17,-0.18 18.85,-2.76 26.05,-7.7l0 476.78c0,2.73 1.01,5.1 3.02,7.11 1.93,1.93 4.27,2.91 7,2.91 2.75,0 5.12,-0.98 7.15,-2.91 1.92,-2.01 2.88,-4.39 2.88,-7.11l0 -499.4 57.47 -142.97c21.25,-0.18 39.38,-6.14 54.34,-17.84l0 0.11c16.38,-12.62 24.45,-27.86 24.23,-45.7 0.2,-17.78 -7.87,-32.97 -24.23,-45.51l0 0 0 0 0 0 -0.11 -0.01zm-341.73 88.91l-5.12 0c-16.91,0 -31.33,-4.55 -43.21,-13.63 -10.76,-8.27 -16.23,-18.19 -16.46,-29.74 0.22,-11.5 5.69,-21.34 16.46,-29.57l0 -0.11c6.28,-4.81 13.23,-8.25 20.86,-10.34 0.52,-0.11 1.05,-0.29 1.6,-0.5l0.11 0c0.59,-0.26 1.2,-0.42 1.8,-0.5 0.26,-0.07 0.55,-0.15 0.88,-0.22 5.73,-1.4 11.72,-2.1 17.95,-2.1 16.97,0 31.36,4.55 43.21,13.63l0 0.11c10.76,8.22 16.23,18.08 16.42,29.56 -0.18,11.57 -5.66,21.48 -16.42,29.74 -10.58,8.03 -23.16,12.59 -37.81,13.65l-0.29 0 0 0 0.02 0.02zm210.21 157.78c-2.08,2.8 -5.33,6.06 -9.73,9.8 -4.55,3.67 -10.23,5.58 -17.03,5.71 -6.82,0.15 -12.55,-1.42 -17.17,-4.7 -1.86,-1.42 -3.96,-2.1 -6.28,-2.03 -2.41,0.07 -4.5,0.9 -6.23,2.52 -1.8,1.55 -2.91,3.46 -3.3,5.78 -0.48,2.34 -0.11,4.55 1.11,6.61 4,7.3 5.51,12.79 4.52,16.46 -2.41,2.82 -7.57,4.5 -15.46,5.01 -7.89,-0.52 -13.03,-2.19 -15.42,-5.01 -1.07,-3.67 0.44,-9.16 4.52,-16.46 1.14,-2.06 1.51,-4.27 1.11,-6.61 -0.48,-2.32 -1.58,-4.26 -3.3,-5.78 -1.82,-1.62 -3.91,-2.45 -6.23,-2.52 -2.41,-0.07 -4.57,0.61 -6.43,2.03 -4.59,3.28 -10.26,4.83 -17.03,4.7 -6.82,-0.15 -12.55,-2.05 -17.17,-5.71 -4.4,-3.74 -7.61,-7.02 -9.6,-9.8 -0.74,-13.36 1.44,-22.52 6.5,-27.47 7.48,-5.55 16.47,-8.31 26.97,-8.31 10.28,0 19.13,2.67 26.55,8.03 1.22,0.99 2.47,1.99 3.8,2.99 2.16,1.68 4.59,2.32 7.31,1.92 2.75,-0.33 4.99,-1.6 6.71,-3.8 0.22,-0.28 0.48,-0.55 0.81,-0.81 7.41,-5.55 16.38,-8.31 26.86,-8.31 10.5,0 19.48,2.76 26.97,8.31 5.25,4.88 7.46,14.04 6.6,27.47l0 0 0 0 0.02 0 0.02 -0.02zm14.04 -34.48c-2.27,-3.74 -5.16,-6.76 -8.64,-9.03 -10.76,-8.22 -23.75,-12.33 -38.99,-12.33 -13.84,0 -25.83,3.39 -36.01,10.21 -10.17,-6.8 -22.18,-10.21 -36.08,-10.21 -15.18,0 -28.19,4.11 -39.03,12.33l-0.07 0.11c-3.41,2.32 -6.23,5.4 -8.42,9.21l-42.33 -105.27c13.36,-2.73 25.23,-8.07 35.62,-16.03 16.38,-12.62 24.45,-27.86 24.23,-45.7 0.22,-17.78 -7.85,-32.97 -24.16,-45.51l-0.07 0c-15.18,-11.88 -33.67,-17.84 -55.44,-17.84 -4.88,0 -9.64,0.37 -14.24,1.11l0 -13.05 0 -0.99c0,-18.39 6.45,-34.01 19.37,-46.91 12.9,-12.95 28.52,-19.44 46.91,-19.44l33.98 0c0.55,0.07 1.09,0.07 1.6,0l116.27 0c0.55,0.07 1.09,0.07 1.6,0l33.9 0c18.35,0 34.03,6.48 47.02,19.44 12.88,12.88 19.33,28.52 19.33,46.91l0 0.99 0 13.05c-4.66,-0.74 -9.43,-1.11 -14.32,-1.11 -21.72,0 -40.21,5.95 -55.44,17.84 -16.38,12.55 -24.47,27.73 -24.27,45.51 -0.18,17.84 7.9,33.08 24.27,45.7 10.35,7.96 22.2,13.27 35.58,15.92l-42.18 105.08 0 0zm105.23 -136.96c-11.88,9.1 -26.29,13.63 -43.17,13.63l-5.01 0 -0.31 0c-14.65,-1.07 -27.27,-5.62 -37.88,-13.63 -10.76,-8.27 -16.25,-18.19 -16.46,-29.74 0.2,-11.5 5.69,-21.34 16.46,-29.57l0 -0.11c11.88,-9.1 26.29,-13.65 43.21,-13.65 6.21,0 12.2,0.7 17.95,2.1 0.33,0.07 0.63,0.15 0.88,0.22 0.66,0.15 1.36,0.31 2.1,0.5l0.11 0.11c0.55,0.15 1.07,0.28 1.6,0.39 7.41,2.08 14.26,5.53 20.54,10.34l0 0.11c10.78,8.22 16.27,18.08 16.46,29.57 -0.18,11.57 -5.67,21.48 -16.46,29.74l0 0 0 0 -0.02 -0z"/>
   </g>
   <path class="fil1" d="M639.98 563.54c-10.5,0 -19.46,2.76 -26.86,8.31 -0.33,0.26 -0.61,0.54 -0.81,0.81 -1.73,2.19 -3.96,3.46 -6.73,3.8 -2.73,0.41 -5.16,-0.24 -7.31,-1.92 -1.33,-0.99 -2.6,-1.99 -3.8,-2.99 -7.41,-5.36 -16.27,-8.03 -26.55,-8.03 -10.5,0 -19.5,2.76 -26.97,8.31 -5.07,4.96 -7.24,14.12 -6.5,27.47 1.99,2.8 5.2,6.06 9.6,9.8 4.63,3.67 10.34,5.58 17.17,5.73 6.76,0.15 12.42,-1.42 17.03,-4.7 1.88,-1.42 4.02,-2.1 6.43,-2.03 2.32,0.07 4.39,0.9 6.23,2.52 1.73,1.55 2.84,3.46 3.3,5.78 0.41,2.34 0.04,4.55 -1.11,6.61 -4.07,7.3 -5.58,12.79 -4.52,16.46 2.4,2.82 7.54,4.5 15.42,5.01 7.89,-0.52 13.05,-2.19 15.46,-5.01 0.99,-3.67 -0.52,-9.16 -4.52,-16.46 -1.22,-2.06 -1.58,-4.26 -1.11,-6.61 0.41,-2.32 1.51,-4.26 3.3,-5.78 1.73,-1.62 3.8,-2.45 6.23,-2.52 2.32,-0.07 4.42,0.61 6.28,2.03 4.63,3.26 10.34,4.83 17.16,4.7 6.8,-0.15 12.48,-2.05 17.03,-5.73 4.4,-3.74 7.65,-7.02 9.73,-9.8 0.85,-13.43 -1.35,-22.59 -6.61,-27.47 -7.48,-5.55 -16.47,-8.31 -26.97,-8.31l0 0 -0.02 0 0.03 0.02z"/>
   <path class="fil2" d="M703.34 235.63c-1.88,-0.11 -3.78,-0.18 -5.71,-0.18l-14.35 0 0 -79.6c0.88,-2.6 1.8,-5.22 2.8,-7.81 0.07,-0.2 0.15,-0.37 0.2,-0.5 8.29,-26.46 13.95,-49.18 16.95,-68.16l0 -0.5c0.07,-0.2 0.11,-0.37 0.11,-0.48l0 157.23 0 0 0 0 0 0 0 -0zm-178.75 -80.06l0 79.88 -14.32 0c-1.93,0 -3.85,0.05 -5.71,0.18l0 -157.34c0,0.11 0.04,0.24 0.11,0.37l0 0.29 0 0.11 0.11 0.2c2.93,18.98 8.61,41.74 17.03,68.27 0,0.13 0.04,0.29 0.11,0.5 0.92,2.52 1.82,5.05 2.71,7.54l0 0 -0.03 0z"/>
   <path class="fil2" d="M673.57 599.32c-2.08,2.8 -5.33,6.06 -9.73,9.8 -4.55,3.67 -10.23,5.58 -17.03,5.71 -6.82,0.15 -12.55,-1.42 -17.17,-4.7 -1.88,-1.42 -3.96,-2.1 -6.28,-2.03 -2.41,0.07 -4.5,0.9 -6.23,2.52 -1.8,1.55 -2.89,3.46 -3.3,5.78 -0.48,2.34 -0.11,4.55 1.11,6.61 4,7.3 5.51,12.79 4.52,16.46 -2.41,2.82 -7.57,4.5 -15.46,5.01 -7.89,-0.52 -13.03,-2.19 -15.42,-5.01 -1.07,-3.67 0.44,-9.16 4.52,-16.46 1.14,-2.06 1.51,-4.26 1.11,-6.61 -0.48,-2.32 -1.58,-4.26 -3.3,-5.78 -1.82,-1.6 -3.89,-2.45 -6.21,-2.52 -2.41,-0.07 -4.57,0.61 -6.43,2.03 -4.59,3.28 -10.26,4.83 -17.03,4.7 -6.82,-0.15 -12.55,-2.05 -17.16,-5.71 -4.4,-3.74 -7.61,-7.02 -9.6,-9.8 -0.74,-13.36 1.44,-22.52 6.5,-27.47 7.48,-5.55 16.47,-8.31 26.97,-8.31 10.28,0 19.13,2.67 26.55,8.03 1.22,0.99 2.47,1.99 3.8,2.99 2.16,1.68 4.59,2.32 7.31,1.92 2.75,-0.33 4.99,-1.6 6.71,-3.8 0.2,-0.29 0.48,-0.55 0.81,-0.81 7.41,-5.55 16.38,-8.31 26.86,-8.31 10.5,0 19.48,2.76 26.97,8.31 5.25,4.88 7.46,14.04 6.61,27.47l0 0 0 0 -0.01 -0.02z"/>
  </g>
  <rect class="fil3" x="-0" y="-0" width="1208.02" height="1208.02"/>
 </g>
</svg>
