<?xml version="1.0" encoding="UTF-8"?>
<!DOCTYPE svg PUBLIC "-//W3C//DTD SVG 1.1//EN" "http://www.w3.org/Graphics/SVG/1.1/DTD/svg11.dtd">
<!-- Creator: CorelDRAW -->
<svg xmlns="http://www.w3.org/2000/svg" xml:space="preserve" width="110.111mm" height="41.7878mm" version="1.1" style="shape-rendering:geometricPrecision; text-rendering:geometricPrecision; image-rendering:optimizeQuality; fill-rule:evenodd; clip-rule:evenodd"
viewBox="0 0 10045.81 3812.45"
 xmlns:xlink="http://www.w3.org/1999/xlink"
 xmlns:xodm="http://www.corel.com/coreldraw/odm/2003">
 <defs>
  <style type="text/css">
   <![CDATA[
    .fil0 {fill:black}
    .fil3 {fill:#3C7022}
    .fil2 {fill:#BDAC97}
    .fil1 {fill:white}
   ]]>
  </style>
 </defs>
 <g id="Capa_x0020_1">
  <metadata id="CorelCorpID_0Corel-Layer"/>
  <g id="_1981916815600">
   <g id="_2912981879456">
    <path class="fil0" d="M1416.89 1100.12c-21.57,-16.6 -44.9,-29.59 -70,-38.95l0 -59.97 0 -3.31c0,-79.25 -27.96,-146.84 -83.93,-202.79 -51.46,-51.46 -112.81,-79.32 -184.03,-83.58 -6.21,-0.39 -12.55,-0.59 -19,-0.59l-47.69 0 -40.25 0c-10.24,-68.14 3.18,-156.28 40.25,-264.4 2.91,-8.67 6.02,-17.33 9.32,-25.97 0.24,-0.71 0.47,-1.26 0.7,-1.66 27.56,-87.9 46.32,-163.36 56.31,-226.41l0 -1.65c0.23,-0.68 0.36,-1.21 0.36,-1.59l0 -0.06c9.92,-67.99 9.55,-122.61 -1.07,-163.85 -1.96,-8.26 -6.4,-14.72 -13.33,-19.36 -7.09,-4.88 -14.72,-6.77 -22.91,-5.67 -8.49,0.87 -15.49,4.53 -21.01,10.98 -5.59,6.21 -8.38,13.53 -8.38,21.95l0 150.27c-9.29,59.65 -27.03,130.98 -53.23,214.02 -0.25,0.47 -0.37,0.94 -0.37,1.41 -46.57,126.93 -64.76,230.94 -54.53,311.98l-310.33 0c10.38,-81.52 -7.95,-185.99 -55,-313.4 -26.21,-83.19 -44.07,-154.63 -53.6,-214.37l0 -149.92c0,-8.41 -2.76,-15.74 -8.26,-21.95 -5.59,-6.45 -12.6,-10.11 -21.02,-10.98 -8.18,-1.09 -15.74,0.78 -22.66,5.67 -7.08,4.64 -11.64,11.1 -13.69,19.36 -10.62,41.24 -10.93,95.73 -0.93,163.49l0 0.06c0,0.36 0.12,0.78 0.35,1.24l0 0.94 0 0.36 0.36 0.71c9.76,63.03 28.6,138.63 56.55,226.76 0,0.39 0.11,0.95 0.35,1.66 3.07,8.41 6.07,16.76 8.98,25.02 37.54,108.52 51.07,196.97 40.6,265.36l-40.61 -0.01 -47.56 0c-6.46,0 -12.8,0.2 -19,0.59 -71.23,4.26 -132.49,32.11 -183.81,83.58l-0.35 0c-55.72,55.95 -83.57,123.56 -83.57,202.8l0 3.3 0 59.97c-25.11,9.36 -48.52,22.34 -70.24,38.96 -54.38,41.7 -81.25,92.11 -80.62,151.2 -0.63,59.27 26.25,109.86 80.62,151.81l0 -0.36c49.73,38.87 110.02,58.63 180.84,59.26l190.4 474.89 0 1658.86c0,9.05 3.34,16.92 10.04,23.62 6.37,6.44 14.12,9.67 23.26,9.67 9.13,0 17,-3.23 23.6,-9.67 6.46,-6.69 9.68,-14.57 9.68,-23.62l0 -1583.67c24,16.45 52.96,24.99 86.88,25.61 8.03,0.25 15.82,0.05 23.37,-0.58 -2.04,18.64 1.38,34.62 10.26,47.93 13.54,30.61 49.5,47.69 107.9,51.24l4.01 0c58.39,-3.55 94.34,-20.63 107.88,-51.24 8.66,-13.3 12.02,-29.29 10.04,-47.93 7.55,0.63 15.42,0.83 23.61,0.58 33.77,-0.62 62.6,-9.17 86.53,-25.61l0 1583.67c0,9.05 3.34,16.92 10.04,23.62 6.45,6.44 14.2,9.67 23.26,9.67 9.13,0 17.04,-3.23 23.72,-9.67 6.38,-6.69 9.57,-14.57 9.57,-23.62l0 -1658.86 190.87 -474.89c70.6,-0.63 130.77,-20.38 180.5,-59.26l0 0.36c54.38,-41.95 81.22,-92.55 80.5,-151.81 0.69,-59.09 -26.15,-109.5 -80.51,-151.2l0 0 -0.01 -0.01zm-1135.11 295.34l-17 0c-56.18,0 -104.03,-15.11 -143.54,-45.32 -35.73,-27.46 -53.95,-60.4 -54.66,-98.81 0.71,-38.16 18.93,-70.9 54.66,-98.21l0 -0.35c20.86,-15.98 43.96,-27.42 69.29,-34.35 1.73,-0.39 3.5,-0.95 5.32,-1.66l0.35 0.01c1.97,-0.88 3.97,-1.42 6.02,-1.65 0.87,-0.25 1.85,-0.47 2.95,-0.71 19.04,-4.64 38.92,-6.96 59.61,-6.96 56.35,0 104.2,15.11 143.55,45.32l0 0.36c35.72,27.31 53.9,60.05 54.53,98.2 -0.63,38.42 -18.81,71.34 -54.53,98.81 -35.11,26.68 -76.96,41.79 -125.6,45.33l-0.95 0 0 -0.01zm698.23 524.12c-6.92,9.29 -17.7,20.15 -32.33,32.58 -15.13,12.2 -33.98,18.54 -56.55,19 -22.67,0.47 -41.68,-4.72 -57.03,-15.58 -6.2,-4.73 -13.17,-6.96 -20.88,-6.72 -8.03,0.24 -14.91,3.02 -20.66,8.38 -5.98,5.12 -9.64,11.53 -10.98,19.24 -1.57,7.79 -0.36,15.11 3.66,21.96 13.29,24.24 18.3,42.46 14.99,54.65 -8.03,9.37 -25.14,14.92 -51.35,16.65 -26.2,-1.73 -43.27,-7.28 -51.23,-16.65 -3.54,-12.2 1.46,-30.41 14.99,-54.65 3.79,-6.85 5,-14.18 3.67,-21.96 -1.57,-7.71 -5.24,-14.12 -10.98,-19.24 -6.06,-5.36 -12.95,-8.15 -20.66,-8.38 -8.03,-0.24 -15.15,2.01 -21.37,6.72 -15.26,10.87 -34.11,16.06 -56.54,15.58 -22.66,-0.47 -41.68,-6.81 -57.02,-19 -14.63,-12.44 -25.26,-23.3 -31.87,-32.58 -2.45,-44.38 4.76,-74.8 21.6,-91.24 24.87,-18.42 54.73,-27.63 89.59,-27.63 34.15,0 63.54,8.9 88.18,26.69 4.01,3.31 8.23,6.61 12.63,9.92 7.17,5.59 15.26,7.72 24.32,6.38 9.12,-1.1 16.56,-5.31 22.3,-12.64 0.72,-0.94 1.61,-1.84 2.72,-2.71 24.63,-18.42 54.38,-27.63 89.24,-27.63 34.87,0 64.72,9.21 89.6,27.63 17.46,16.2 24.78,46.63 21.94,91.25l0 0 0 -0.01zm46.63 -114.51c-7.55,-12.43 -17.12,-22.43 -28.7,-29.98 -35.72,-27.31 -78.88,-40.96 -129.49,-40.96 -45.95,0 -85.81,11.29 -119.57,33.88 -33.77,-22.58 -73.7,-33.88 -119.82,-33.88 -50.44,0 -93.64,13.66 -129.62,40.96l-0.23 0.36c-11.33,7.72 -20.66,17.91 -27.98,30.57l-140.59 -349.64c44.39,-9.05 83.82,-26.8 118.28,-53.23 54.38,-41.95 81.22,-92.55 80.5,-151.81 0.71,-59.09 -26.05,-109.5 -80.27,-151.2l-0.24 0c-50.44,-39.5 -111.83,-59.26 -184.15,-59.26 -16.2,0 -31.99,1.21 -47.33,3.66l0 -43.33 0 -3.3c0,-61.07 21.45,-113.01 64.33,-155.82 42.82,-43.05 94.76,-64.58 155.83,-64.58l112.84 0c1.82,0.24 3.59,0.24 5.32,0l386.23 0c1.82,0.24 3.59,0.24 5.31,0l112.62 0c60.99,0 113.05,21.52 156.18,64.58 42.81,42.81 64.21,94.75 64.21,155.82l0 3.3 0 43.33c-15.5,-2.45 -31.36,-3.66 -47.58,-3.66 -72.16,0 -133.54,19.75 -184.15,59.26 -54.38,41.7 -81.26,92.11 -80.62,151.2 -0.64,59.27 26.25,109.86 80.62,151.81 34.39,26.45 73.78,44.07 118.17,52.89l-140.12 349.04zm349.53 -454.94c-39.5,30.22 -87.31,45.32 -143.43,45.32l-16.63 0 -1.07 0c-48.64,-3.53 -90.59,-18.65 -125.83,-45.32 -35.74,-27.46 -53.96,-60.4 -54.66,-98.81 0.7,-38.16 18.92,-70.9 54.66,-98.21l0 -0.35c39.5,-30.23 87.35,-45.33 143.53,-45.33 20.63,0 40.51,2.32 59.62,6.96 1.1,0.25 2.09,0.47 2.96,0.72 2.2,0.47 4.53,1.01 6.96,1.64l0.36 0.36c1.81,0.47 3.58,0.91 5.31,1.3 24.63,6.92 47.38,18.37 68.23,34.35l0 0.35c35.8,27.31 54.03,60.05 54.66,98.21 -0.64,38.41 -18.87,71.34 -54.67,98.81l0 0z"/>
   </g>
   <path class="fil1" d="M868.44 1800.71c-34.86,0 -64.61,9.21 -89.24,27.63 -1.09,0.87 -2,1.77 -2.71,2.72 -5.75,7.31 -13.18,11.52 -22.32,12.63 -9.05,1.33 -17.15,-0.78 -24.31,-6.38 -4.4,-3.3 -8.62,-6.61 -12.64,-9.91 -24.62,-17.79 -54.02,-26.69 -88.18,-26.69 -34.86,0 -64.73,9.21 -89.59,27.63 -16.84,16.45 -24.05,46.87 -21.6,91.24 6.61,9.29 17.23,20.15 31.87,32.58 15.35,12.21 34.36,18.53 57.02,19.01 22.43,0.47 41.27,-4.73 56.54,-15.58 6.22,-4.73 13.35,-6.97 21.37,-6.73 7.72,0.24 14.6,3.03 20.66,8.38 5.75,5.12 9.41,11.53 10.98,19.23 1.33,7.79 0.13,15.12 -3.66,21.97 -13.54,24.24 -18.54,42.46 -15,54.65 7.95,9.37 25.03,14.92 51.24,16.64 26.2,-1.72 43.34,-7.27 51.35,-16.64 3.31,-12.19 -1.69,-30.41 -14.99,-54.65 -4.01,-6.84 -5.24,-14.17 -3.66,-21.97 1.33,-7.7 5,-14.11 10.98,-19.23 5.75,-5.36 12.62,-8.15 20.66,-8.38 7.71,-0.24 14.68,2.01 20.89,6.73 15.35,10.86 34.35,16.05 57,15.58 22.59,-0.48 41.44,-6.82 56.55,-19.01 14.63,-12.43 25.42,-23.29 32.34,-32.58 2.84,-44.61 -4.48,-75.03 -21.95,-91.24 -24.86,-18.4 -54.72,-27.63 -89.59,-27.63l0.01 0z"/>
   <path class="fil2" d="M1078.92 711.52c-6.21,-0.39 -12.54,-0.59 -19,-0.59l-47.68 0 0 -264.42c2.91,-8.65 6.02,-17.32 9.32,-25.97 0.23,-0.7 0.47,-1.25 0.7,-1.66 27.56,-87.89 46.32,-163.37 56.32,-226.4l0 -1.66c0.22,-0.68 0.34,-1.21 0.35,-1.6l0 522.29 -0.01 0 0 0zm-593.75 -265.95l0 265.35 -47.57 0c-6.45,0 -12.79,0.2 -19,0.59l0 -522.64c0.01,0.37 0.13,0.78 0.36,1.24l0 0.95 0 0.36 0.36 0.7c9.76,63.03 28.6,138.62 56.54,226.76 0,0.4 0.13,0.95 0.36,1.66 3.07,8.41 6.05,16.76 8.97,25.02l0 0.01z"/>
   <path class="fil2" d="M980 1919.58c-6.92,9.28 -17.7,20.14 -32.34,32.58 -15.11,12.2 -33.96,18.53 -56.54,19 -22.66,0.47 -41.68,-4.72 -57.02,-15.58 -6.21,-4.73 -13.17,-6.96 -20.88,-6.72 -8.05,0.23 -14.92,3.03 -20.66,8.38 -5.98,5.12 -9.63,11.53 -10.98,19.24 -1.57,7.79 -0.36,15.12 3.66,21.96 13.3,24.24 18.29,42.46 14.99,54.65 -8.02,9.37 -25.14,14.92 -51.34,16.65 -26.2,-1.73 -43.28,-7.28 -51.23,-16.65 -3.55,-12.2 1.45,-30.41 14.98,-54.65 3.79,-6.84 5,-14.17 3.67,-21.96 -1.58,-7.71 -5.24,-14.12 -10.98,-19.24 -6.05,-5.35 -12.94,-8.15 -20.65,-8.38 -8.03,-0.24 -15.15,2.01 -21.37,6.72 -15.26,10.87 -34.12,16.06 -56.55,15.58 -22.66,-0.47 -41.68,-6.81 -57.01,-19 -14.64,-12.44 -25.26,-23.3 -31.88,-32.58 -2.44,-44.39 4.76,-74.8 21.6,-91.24 24.87,-18.42 54.73,-27.63 89.59,-27.63 34.16,0 63.54,8.89 88.19,26.68 4.01,3.3 8.22,6.61 12.64,9.92 7.15,5.59 15.26,7.71 24.3,6.37 9.13,-1.09 16.57,-5.3 22.31,-12.62 0.7,-0.95 1.61,-1.85 2.72,-2.72 24.63,-18.42 54.38,-27.63 89.24,-27.63 34.86,0 64.71,9.21 89.59,27.63 17.47,16.21 24.8,46.62 21.96,91.24l-0.01 0z"/>
  </g>
 </g>
 <g id="Capa_x0020_1_1">
  <metadata id="CorelCorpID_1Corel-Layer"/>
  <g id="_2913255112032">
   <path class="fil3" d="M4376.37 844.32l0 1509.74c53.64,122.44 134.52,199.44 242.6,230.95l-62.61 141.28c-2.08,0 -4.11,-0.22 -6.16,-0.6 -44.63,-5.75 -86.2,-20.88 -124.68,-45.45 -81.49,-51.61 -150.29,-145.2 -206.39,-280.71 -2.03,-4.08 -3.49,-8.59 -4.31,-13.52l0 -1541.68 161.54 -0.01 0.01 -0.01zm559.56 0l3.08 0c44.63,6.16 86.39,21.31 125.28,45.48 17.21,11.06 33.79,23.92 49.75,38.69 60.21,54.87 112.42,135.54 156.64,241.99 2.46,6.16 4.08,12.29 4.9,18.42l0 1300.29c43.4,45.45 95.2,76.98 155.41,94.6l-63.87 141.26c-1.64,0 -3.09,-0.22 -4.31,-0.58 -13.13,-1.64 -25.8,-4.11 -38.09,-7.39 -24.57,-7.39 -47.7,-17 -69.4,-28.87 -10.65,-5.72 -20.68,-11.85 -30.1,-18.44 -15.98,18.85 -36.67,33.41 -62.04,43.65 -12.7,5.34 -27.01,9.42 -42.99,12.29 -2.87,0.41 -5.75,0.6 -8.59,0.6 -7.8,0.79 -15.98,1.23 -24.57,1.23l-134.53 0.01 -21.48 0 -11.08 0c-1.61,-0.44 -3.26,-0.82 -4.9,-1.23 -15.55,-2.87 -29.67,-6.95 -42.39,-12.31 -54.46,-21.68 -87,-63.87 -97.64,-126.49 -0.41,-0.82 -0.63,-1.64 -0.63,-2.49 -3.26,-11.88 -4.93,-24.57 -4.93,-38.09l0 -1072.45c0,-18.42 3.5,-35.63 10.47,-51.58l0 -4.9c16.37,-70.03 64.06,-110.58 143.1,-121.63 9,-1.64 18.03,-2.46 27.03,-2.46l163.97 0 0 -75.55c-53.64,-123.67 -134.72,-201.46 -243.23,-233.42l62.04 -140.64 3.07 0 0 0.02 0.02 0zm-1625.22 95.81c15.57,-15.14 33.98,-22.73 55.28,-22.73 21.7,0 40.14,7.58 55.28,22.73 15.16,15.16 22.74,33.57 22.74,55.31 0,21.29 -7.58,39.5 -22.74,54.64 -15.14,15.57 -33.57,23.35 -55.28,23.35 -21.29,0 -39.7,-7.77 -55.28,-23.35 -15.16,-15.16 -22.74,-33.36 -22.74,-54.64 0.02,-21.73 7.6,-40.15 22.74,-55.31l0 0zm373.47 -95.81l81.06 0 1.86 0 78.62 0 0 1505.42c53.64,123.67 134.92,201.46 243.83,233.42l-62.64 141.87c-2.05,-0.41 -4.11,-0.78 -6.13,-1.2 -44.63,-5.75 -86.42,-20.9 -125.34,-45.48 -81.47,-51.58 -150.07,-144.95 -205.76,-280.09 -2.85,-6.16 -4.68,-12.49 -5.5,-19.05l-0.01 -1534.89 0.01 0zm-234.06 1881.94l-162.14 0 0 -1496.88 162.14 0.01 0 1496.87zm1486.43 -1265.26c-2.05,4.87 -3.9,10.24 -5.52,15.93l0 1067.52c0,3.67 0.82,7.39 2.46,11.08l0 2.44c0,3.28 1.83,5.97 5.52,7.99l13.49 0.01 134.53 0c16.37,0 25.39,-8.18 27.01,-24.57l0 -1085.94 -161.55 0c-5.34,1.64 -9,2.46 -11.06,2.46 -3.3,-0.03 -4.9,1.01 -4.9,3.08l0 0zm1508.52 -616.68l0 1564.42 0 3.67 0 1.26c0,11.06 -1.86,21.87 -5.52,32.55 -28.26,67.57 -64.71,125.91 -109.3,175.06 -36.86,41.79 -79.46,76.78 -127.76,105.06l-0.64 -0.01c-47.51,-28.26 -89.85,-63.25 -127.14,-105.06 -44.22,-49.15 -80.65,-107.49 -109.33,-175.06 -4.9,-12.67 -6.54,-25.18 -4.9,-37.46l0 -1564.42 161.54 0 0 1553.96c23.35,55.28 50.16,100.95 80.46,136.99 30.71,-36.04 57.74,-81.71 81.06,-136.99l0 -1553.96 161.54 0 -0.01 -0.01zm257.36 95.81c15.14,-15.14 33.57,-22.73 55.25,-22.73 21.29,0 39.5,7.58 54.64,22.73 15.59,15.16 23.36,33.57 23.36,55.31 0,21.29 -7.77,39.5 -23.36,54.64 -15.16,15.57 -33.36,23.35 -54.64,23.35 -21.68,0 -40.12,-7.77 -55.25,-23.35 -15.16,-15.16 -22.74,-33.36 -22.74,-54.64 -0.03,-21.73 7.58,-40.15 22.74,-55.31l0 0zm134.5 1786.13l-160.91 0 0 -1496.88 160.91 0.01 0 1496.87zm1195.83 -1881.94l161.57 0 0 1644.25c43.4,45.45 95.01,76.81 154.8,94l-63.87 141.89c-1.64,-0.44 -3.11,-0.82 -4.34,-1.26 -13.11,-1.61 -25.76,-3.86 -38.06,-6.73 -24.55,-7.77 -47.7,-17.43 -69.4,-28.87 -10.62,-5.72 -20.66,-12.07 -30.08,-19.05 -15.96,19.26 -36.67,33.98 -62.01,44.22 -12.72,4.93 -27.06,9 -43.02,12.29 -2.87,0 -5.72,0.24 -8.59,0.63 -5.72,0.41 -11.66,0.6 -17.79,0.6l-173.21 0c-2.1,0 -3.71,-0.22 -4.93,-0.6 -15.98,-2.87 -30.34,-6.95 -42.99,-12.29 -50.79,-20.49 -82.5,-58.34 -95.2,-113.62 -0.82,-4.11 -1.61,-8.45 -2.46,-12.92 -0.44,-0.82 -0.63,-1.64 -0.63,-2.46 -2.05,-8.21 -3.45,-16.59 -4.27,-25.2 -0.44,-4.49 -0.63,-8.76 -0.63,-12.86l0.63 -1042.92c-0.44,-4.93 -0.44,-9.85 0,-14.75l-0.63 -15.35c0,-3.69 0.22,-7.41 0.63,-11.06l0 -617.93 160.89 0.01 0 1698.94c0,1.6 0.22,3.26 0.63,4.87 0.41,2.05 1.23,4.12 2.46,6.16l0 2.49c0,3.67 1.64,6.32 4.93,7.99l13.48 0 134.52 0c16.37,0 25.39,-7.99 27.03,-23.97l0 -1612.94c0.41,0 0.56,0.24 0.56,0.63l0.01 -84.18 -0.03 0 0.01 -0.01zm1405.97 616.68c-1.64,4.87 -3.28,10.24 -4.94,15.93l0 1067.52c0,3.67 0.82,7.39 2.51,11.08l0 2.44c0,3.28 1.6,5.97 4.9,7.99l13.54 0.01 134.5 0c16.39,0 25.56,-8.18 27.63,-24.57l0 -1085.94 -162.13 0c-5.36,1.64 -8.81,2.46 -10.47,2.46 -3.72,-0.03 -5.52,1.01 -5.52,3.08l0 0zm-65.73 -476.04l62.04 -140.64 3.08 0 3.07 0c44.63,6.16 86.42,21.31 125.28,45.48 17.21,11.06 33.98,23.92 50.38,38.69 59.79,54.87 111.79,135.54 156.01,241.99 2.83,6.16 4.68,12.29 5.52,18.42l0 1300.29c42.99,45.45 94.57,76.98 154.8,94.6l-63.9 141.26c-1.61,0 -3.04,-0.22 -4.32,-0.58 -12.64,-1.64 -25.15,-4.11 -37.44,-7.39 -24.96,-7.39 -48.33,-17 -70.03,-28.87 -10.24,-5.72 -20.28,-11.85 -30.08,-18.44 -15.98,18.85 -36.67,33.41 -62.01,43.65 -12.72,5.34 -26.82,9.42 -42.39,12.29 -3.3,0.41 -6.38,0.6 -9.24,0.6 -7.77,0.79 -15.96,1.23 -24.55,1.23l-134.49 0.01 -20.93 0 -11.03 0c-2.05,-0.44 -3.69,-0.82 -4.87,-1.23 -15.98,-2.87 -30.34,-6.95 -43.02,-12.31 -54.46,-21.68 -87,-63.87 -97.67,-126.49 -0.44,-0.82 -0.6,-1.64 -0.6,-2.49 -3.28,-11.88 -4.93,-24.57 -4.93,-38.09l-0.01 -1072.45c0,-18.42 3.67,-35.63 11.06,-51.58l0 -4.9c15.98,-70.03 63.46,-110.58 142.52,-121.63 8.98,-1.64 18.01,-2.46 27.01,-2.46l164.6 0 0 -75.55c-54.05,-123.65 -135.33,-201.44 -243.88,-233.39l0 0 0.02 -0.01zm-1992.47 -140.62c2.85,0 5.91,0.63 9.2,1.83 42.58,6.54 76.16,22.12 100.7,46.71 7,7.36 13.37,15.57 19.07,24.57l-124.68 124.08c-2.9,-2.05 -5.72,-3.9 -8.59,-5.52 -21.29,-14.34 -47.29,-24.57 -78,-30.73 -3.28,0.46 -6.13,0.46 -8.57,0 -53.27,1.64 -85.63,20.3 -97.06,55.91l0 1447.08c11.47,36.04 43.79,54.84 97.06,56.54 2.46,-0.41 5.31,-0.41 8.57,0 30.71,-6.16 56.73,-16.39 78,-30.73 0.82,-0.79 1.61,-1.42 2.46,-1.81 2.05,-1.26 4.08,-2.65 6.16,-4.34l124.68 124.7c-2.46,3.69 -4.9,7.39 -7.39,11.03 -3.69,4.53 -7.55,8.83 -11.69,12.92 -24.55,24.98 -58.12,40.55 -100.7,46.68 -3.28,1.26 -6.35,2.29 -9.2,3.09l-173.85 -0.01c-55.69,-3.3 -98.05,-19.87 -127.12,-49.78 -25.45,-25.8 -40.77,-61.22 -46.08,-106.26 -1.23,-9.8 -2.03,-19.82 -2.46,-30.05l0 -1511c2.05,-59.79 18.23,-105.2 48.55,-136.34 29.07,-29.5 71.43,-45.67 127.12,-48.55 4.53,-0.41 9.03,-0.6 13.54,-0.6l136.97 0.01 19.04 0c1.19,-0.05 2.61,0.16 4.28,0.57l0 0 0 -0.01zm1330.96 0l5.52 0 156.62 0c3.65,0 7.96,0.82 12.86,2.49 82.75,12.64 131.27,59.17 145.58,139.41 1.64,13.13 2.49,25.78 2.49,38.06l0 1702.01 -161.57 0 0 -1698.94 0 -11.03 0 -2.46c-1.64,-3.69 -4.27,-6.35 -7.96,-7.99l-11.06 0 -134.52 0c-17.6,0 -27.44,8.81 -29.48,26.41l0 1694.02 -161.57 0 0 -1696.46c3.76,-119.99 64.74,-181.81 183.07,-185.51l0 0 0.01 0.01zm-5654.43 1569.32c0,11.06 -1.83,21.87 -5.52,32.55 -28.66,67.57 -65.1,125.91 -109.33,175.06 -37.27,41.79 -79.85,76.78 -127.76,105.06 -48.3,-28.26 -90.89,-63.25 -127.75,-105.06 -44.63,-49.15 -81.08,-107.49 -109.33,-175.06 -5.34,-12.67 -6.98,-25.18 -4.93,-37.46l0 -1565.03 161.54 -0.01 0 1554.57c23.35,55.28 50.16,100.95 80.46,136.99 30.73,-36.04 57.76,-81.71 81.08,-136.99l0 -1554.57 161.54 0 0 1565.03 0 3.67 0 1.26 -0.01 -0.01z"/>
  </g>
  <path class="fil0" d="M8690.02 760.81c2.05,-17.6 18.8,-31.93 50.38,-42.99 31.93,-11.47 61.82,-11.47 89.67,0 27.4,11.47 41.74,19.46 42.97,23.94l0 3.09 0 11.06 0 17.19 161.53 -0.02 0 -20.28c0,-12.29 -0.79,-24.96 -2.46,-38.06 -14.34,-80.67 -62.86,-127.16 -145.58,-139.45 -4.9,-2.03 -9.2,-3.07 -12.9,-3.07l-156.58 0 -5.52 0c-118.36,4.11 -179.36,66.14 -183.04,186.11l0 14.75 161.54 0 0 -12.28 0 0.01z"/>
  <path class="fil0" d="M10028.69 3495.35c-18.68,35.42 -36.77,61.87 -54.28,79.42 -13.72,13.69 -28,22.84 -42.84,27.42 -14.87,4.56 -38.87,6.85 -71.98,6.85l-98.26 0c-16,0 -26.84,-1.54 -32.59,-4.56 -5.67,-3.45 -9.71,-7.8 -12,-13.16 -2.29,-6.09 -3.43,-21.91 -3.43,-47.41l0 -191.96 127.42 0c24.38,0 42.46,3.02 54.27,9.12 11.78,5.69 20.37,13.52 25.71,23.44 3.45,7.99 7.19,26.09 11.44,54.28l15.95 0.01 0 -201.71 -15.96 0c-1.54,32.75 -9.73,55.79 -24.62,69.14 -11.41,9.9 -33.67,14.84 -66.82,14.84l-127.4 0 0 -230.26 158.84 0c29.33,0 49.7,2.29 61.14,6.85 14.05,6.09 24.93,14.65 32.55,25.71 6.85,11.78 13.54,32.93 20.01,63.42l16 0 -6.3 -127.43 -447.36 0 0 16.04 20.01 0c24.02,0 41.16,5.72 51.39,17.12 7.63,8.76 11.44,31.65 11.44,68.58l0 377.08c0,28.18 -1.5,47.05 -4.53,56.58 -3.5,8.74 -9.92,15.43 -19.46,20.01 -11.78,6.81 -24.74,10.25 -38.84,10.25l-20.01 0 0 15.43 447.36 -0.01 50.29 -145.1 -17.11 0 -0.02 -0.02z"/>
  <g id="_2913255112416">
   <path class="fil0" d="M8409.63 3594.74c23.61,18.32 56.2,35.8 97.69,52.6 29.33,28.56 63.99,55.81 104.02,81.69 39.59,25.52 82.08,45.53 127.33,60.01 44.97,14.46 87.07,22.25 126.27,23.41l0 -13.13c-42.99,-3.81 -81.44,-17.57 -115.36,-41.16 -33.9,-23.58 -65.37,-60.56 -94.29,-110.82 63.61,-19.46 115.05,-55.83 154.28,-109.13 39.25,-54.07 58.85,-116.54 58.85,-187.39 0,-88.01 -27.44,-160.54 -82.29,-217.7 -55.98,-57.86 -121.9,-86.83 -197.66,-86.83 -80.39,0 -148.72,28.75 -205.11,86.27 -56,57.5 -84.01,129.69 -84.01,216.52 0,54.84 9.73,102.67 29.16,143.41 18.99,40.02 46.08,74.08 81.11,102.25l0 0 0.01 -0.01zm48.03 -459.92c31.58,-36.93 73.26,-55.4 125.11,-55.4 33.87,0 64.33,8.76 91.39,26.28 26.65,17.14 48.36,44.01 65.12,80.57 20.56,47.21 30.83,105.68 30.83,175.4 0,90.26 -19.24,158.64 -57.7,205.11 -32.37,38.84 -75.61,58.3 -129.67,58.3 -51.83,0 -93.32,-19.46 -124.58,-58.3 -40.33,-51.44 -60.56,-124 -60.56,-217.68 0,-95.97 20.01,-167.37 60.06,-214.27z"/>
  </g>
  <path class="fil0" d="M8246.22 3625.04l-20.56 0c-13.72,0 -26.89,-3.43 -39.44,-10.28 -9.15,-5.34 -15.06,-11.41 -17.69,-18.27 -3.79,-9.53 -5.72,-28.94 -5.72,-58.3l0 -375.36c0,-35.02 3.65,-57.14 10.87,-66.26 10.67,-14.1 28,-21.15 51.99,-21.15l20.55 0.01 0 -16 -248.51 -0.01 0 16 20 0.01c14.1,0 27.42,3.43 39.98,10.28 8.74,5.34 14.49,11.61 17.16,18.85 3.77,9.15 5.69,28.56 5.69,58.27l0 375.36c0,34.66 -3.43,56.58 -10.31,65.73 -11.06,14.08 -28.59,21.12 -52.55,21.12l-19.98 0 0 15.45 248.5 0 0 -15.45 0.03 0 -0.01 0z"/>
  <path class="fil0" d="M7500.09 3133.68c10.62,-15.59 23.44,-26.09 38.26,-31.43 11.44,-3.81 30.68,-5.69 57.71,-5.69l69.71 -0.01 0 443.33c0,32.75 -3.04,53.71 -9.15,62.86 -10.28,14.84 -27.62,22.32 -51.99,22.32l-21.14 0 0 15.4 246.87 0 0 -15.4 -20.62 0c-22.45,0 -39.01,-6.09 -49.68,-18.32 -7.96,-8.74 -11.97,-31.02 -11.97,-66.84l0 -443.33 82.27 -0.01c23.61,0 42.97,3.79 58.24,11.41 14.1,7.6 25.9,19.82 35.44,36.57 4.97,10.69 9.15,27.84 12.55,51.42l16 0.01 -6.3 -136.53 -474.21 0 -6.83 136.53 16.04 0c1.83,-26.62 8.11,-47.41 18.8,-62.28l-0.01 -0.01z"/>
  <path class="fil0" d="M6880.74 3091.99c9.56,11.41 14.34,35.02 14.34,70.85l0 226.23c0,70.46 4.53,118.28 13.69,143.41 13.67,36.96 36.93,66.45 69.71,88.57 33.15,22.09 81.52,33.15 145.13,33.15 57.86,0 103.97,-11.47 138.25,-34.3 33.56,-23.22 56.2,-50.67 67.98,-82.27 11.08,-32.75 16.59,-78.09 16.59,-135.97l0 -235.38c0,-32.37 3.28,-52.93 9.71,-61.74 12.21,-19.41 29.71,-29.14 52.58,-29.14l21.68 0 0 -16 -205.69 0 0 16 21.72 0c22.06,0 38.83,6.51 50.23,19.46 7.65,8.74 11.44,31.43 11.44,67.98l0 234.83c0,61.7 -5.34,105.7 -16,131.99 -11.03,25.52 -31.59,46.66 -61.72,63.39 -30.05,16.41 -64.14,24.6 -102.23,24.6 -29.69,0 -54.64,-5.15 -74.86,-15.43 -20.55,-11.06 -36.37,-24.57 -47.41,-40.58 -10.65,-16.39 -18.1,-39.03 -22.25,-67.98 -4.22,-29.33 -6.32,-55.23 -6.32,-77.7l0 -253.1c0,-32.73 3.62,-54.28 10.87,-64.58 10.28,-15.24 27.44,-22.86 51.42,-22.86l22.29 0.02 0 -16 -250.87 -0.01 0 16 21.76 0.01c22.09,-0.03 38.09,5.55 47.97,16.59l0.01 -0.03z"/>
  <g id="_2913255117648">
   <path class="fil0" d="M6487.1 3653.59c79.25,0 146.81,-28.94 202.84,-86.85 55.21,-58.27 82.82,-131.58 82.82,-219.96 0,-85.71 -27.42,-157.13 -82.29,-214.25 -55.59,-57.5 -120.88,-86.25 -195.93,-86.25 -76.13,0 -141.48,25.3 -195.93,75.99 -62.86,58.27 -94.26,133.47 -94.26,225.68 0,90.26 27.01,163.97 81.08,221.09 54.46,56.36 121.69,84.56 201.68,84.56l0 0 0 -0.01zm-126.27 -518.18c31.26,-38.47 72.92,-57.71 125.11,-57.71 55.62,0 99.04,19.43 130.28,58.24 38.83,48.77 58.24,122.86 58.24,222.27 0,91.8 -17.53,159 -52.55,201.65 -35.8,42.3 -81.08,63.43 -136,63.43 -51.03,0 -91.97,-19.43 -122.82,-58.3 -40.36,-51.03 -60.59,-123.98 -60.59,-218.81 0.03,-92.54 19.48,-162.81 58.33,-210.8l0 0.01z"/>
  </g>
  <g id="_2913255121488">
   <path class="fil0" d="M6047.6 3622.11c31.99,-12.19 56.92,-31.43 74.86,-57.71 18.25,-26.31 27.42,-54.09 27.42,-83.42 0,-38.06 -13.95,-70.27 -41.71,-96.55 -19.8,-18.66 -49.9,-32.4 -90.3,-41.11 34.71,-10.69 60.97,-27.47 78.86,-50.29 17.14,-23.63 25.73,-49.92 25.73,-78.89 0,-33.87 -11.28,-63.96 -33.72,-90.26 -22.47,-26.28 -55.23,-44.56 -98.27,-54.84 -28.19,-6.83 -65.51,-10.28 -111.98,-10.28l-251.39 -0.01 0 16 21.72 0.01c22.09,0 38.84,6.47 50.26,19.43 8.01,9.12 12,31.79 12,67.98l0 375.36c0,32 -3.24,53.33 -9.71,64.02 -10.67,15.24 -28.19,22.81 -52.55,22.81l-21.72 -0.01 0 15.45 274.22 0c65.53,0 114.24,-5.88 146.27,-17.69l0 0 0 0.01zm-254.25 -525.05c22.47,-6.51 48.18,-9.73 77.12,-9.73 52.93,0 93.32,12 121.13,35.99 27.81,24.38 41.71,53.52 41.71,87.41 0,21.7 -5.72,42.1 -17.14,61.14 -10.69,18.27 -26.48,31.99 -47.46,41.15 -21.31,9.15 -52.72,13.69 -94.26,13.69 -16.39,0 -31.24,-0.38 -44.56,-1.17 -13.72,-1.5 -25.87,-3.21 -36.55,-5.11l0.01 -223.37 0 -0.01zm0 501.03l0 -238.23c7.6,-1.52 17.69,-2.49 30.27,-2.87 12.96,-0.72 28.18,-1.13 45.7,-1.13 41.15,0 75.43,6.1 102.86,18.27 27.42,12.21 47.41,28.6 59.99,49.15 12.19,20.59 18.3,42.08 18.3,64.58 0,34.66 -13.52,63.63 -40.58,86.85 -27.06,23.23 -66.65,34.83 -118.83,34.83 -31.98,-0.01 -64.58,-3.82 -97.7,-11.45l0 0.01z"/>
  </g>
  <path class="fil0" d="M5381.58 3482.75l-14.29 -2.83c-14.84,36.18 -29.69,62.64 -44.56,79.42 -14.84,16.37 -31.43,27.98 -49.7,34.83 -17.53,6.5 -48.56,9.71 -93.12,9.71l-42.84 0c-36.93,0 -59.24,-1.35 -66.84,-4.01 -6.85,-3.04 -12,-7.6 -15.43,-13.72 -4.59,-8.76 -6.85,-24.93 -6.85,-48.56l0 -365.08c0,-34.66 2.27,-56.56 6.85,-65.71 4.56,-8.74 13.13,-16.39 25.71,-22.86 12.19,-5.72 33.72,-8.55 64.55,-8.55l0 -16.04 -262.81 0.01 0 16.04 21.73 0c21.7,0 38.26,6.5 49.68,19.43 7.63,8.74 11.44,31.43 11.44,67.98l0 374.78c0,32.75 -2.87,53.88 -8.57,63.42 -10.67,16 -28.18,23.99 -52.55,23.99l-21.73 -0.01 0 15.43 449.64 0 49.7 -157.68 -0.01 0.01z"/>
  <path class="fil0" d="M4842.81 3495.35l-17.13 0c-18.66,35.42 -36.93,61.87 -54.84,79.42 -13.33,13.69 -27.62,22.84 -42.84,27.42 -14.84,4.56 -38.65,6.85 -71.4,6.85l-98.85 0c-16,0 -26.87,-1.54 -32.56,-4.56 -5.34,-3.45 -9.15,-7.8 -11.44,-13.16 -2.27,-6.09 -3.43,-21.91 -3.43,-47.41l0 -191.96 127.4 0c24.38,0 42.3,3.02 53.71,9.12 12.19,5.69 20.76,13.52 25.73,23.44 3.79,7.99 7.8,26.09 11.97,54.28l16.01 0.01 0 -201.71 -16 0c-1.52,32.75 -9.9,55.79 -25.15,69.14 -11.03,9.9 -33.12,14.84 -66.26,14.84l-127.4 0 0 -230.26 158.83 0c28.94,0 49.12,2.29 60.59,6.85 14.43,6.09 25.3,14.65 32.55,25.71 7.22,11.78 13.9,32.93 20.01,63.42l16.56 0 -6.3 -127.43 -447.91 0 0 16.04 20.56 0c23.99,0 41.35,5.72 52.02,17.12 7.22,8.76 10.84,31.65 10.84,68.58l0 377.08c0,28.18 -1.72,47.05 -5.15,56.58 -3.04,8.74 -9.34,15.43 -18.85,20.01 -12.17,6.81 -25.15,10.25 -38.87,10.25l-20.56 0 0 15.43 447.92 -0.01 50.29 -145.1 -0.03 -0.02z"/>
  <path class="fil0" d="M3850.98 3133.68c10.67,-15.59 23.41,-26.09 38.28,-31.43 11.41,-3.81 30.68,-5.69 57.71,-5.69l69.69 -0.01 0 443.33c0,32.75 -3.04,53.71 -9.15,62.86 -10.28,14.84 -27.62,22.32 -51.97,22.32l-21.15 0 0 15.4 246.8 0 0 -15.4 -20.55 0c-22.47,0 -39.06,-6.09 -49.7,-18.32 -8.01,-8.74 -12.02,-31.02 -12.02,-66.84l0 -443.33 82.27 -0.01c23.63,0 43.06,3.79 58.3,11.41 14.1,7.6 25.9,19.82 35.44,36.57 4.93,10.69 9.12,27.84 12.55,51.42l16 0.01 -6.3 -136.53 -474.18 0 -6.88 136.53 16 0c1.93,-26.62 8.18,-47.41 18.85,-62.28l0 -0.01z"/>
  <path class="fil0" d="M2788.32 3625.04l-21.13 0c-13.73,0 -26.87,-3.43 -39.44,-10.28 -8.76,-5.34 -14.49,-11.41 -17.14,-18.27 -4.2,-9.53 -6.28,-28.94 -6.28,-58.3l0 -177.08 270.23 0 0 177.08c0,34.66 -3.62,56.58 -10.87,65.73 -10.67,14.08 -28,21.12 -51.97,21.12l-20.57 0 0 15.45 249.09 0 0 -15.45 -21.15 0c-13.72,0 -26.84,-3.43 -39.42,-10.28 -8.76,-5.34 -14.46,-11.41 -17.14,-18.27 -3.81,-9.53 -5.69,-28.94 -5.69,-58.3l0 -374.78c0,-28.94 1.69,-47.97 5.11,-57.11 3.07,-9.53 9.15,-16.59 18.3,-21.15 12.19,-6.5 25.13,-9.71 38.84,-9.71l21.15 0 0 -16 -249.09 0 0 16 20.57 0c13.72,0 26.84,3.43 39.39,10.28 8.79,5.34 14.68,11.61 17.72,18.85 3.81,9.15 5.72,28.73 5.72,58.85l0 166.29 -270.23 0.01 0 -166.29c0,-28.94 1.91,-47.97 5.72,-57.11 3.04,-9.53 8.93,-16.59 17.69,-21.15 12.57,-6.5 25.71,-9.71 39.44,-9.71l21.13 0 0 -16 -249.67 0 0 16 21.14 0c13.72,0 26.84,3.43 39.42,10.28 8.76,5.34 14.65,11.61 17.72,18.85 3.43,9.15 5.15,28.73 5.15,58.85l0 374.78c0,34.66 -3.26,56.58 -9.73,65.73 -11.41,14.08 -28.94,21.12 -52.55,21.12l-21.15 0 0 15.45 249.67 0 0 -15.48 0.02 -0.01z"/>
  <g id="_2913255122400">
   <path class="fil0" d="M3470.49 3653.59c79.23,0 146.84,-28.94 202.81,-86.85 55.62,-58.27 83.42,-131.58 83.42,-219.96 0,-85.71 -27.62,-157.13 -82.85,-214.25 -55.62,-57.5 -121.09,-86.25 -196.54,-86.25 -75.81,0 -140.92,25.3 -195.38,75.99 -62.86,58.27 -94.26,133.47 -94.26,225.68 0,90.26 27.03,163.97 81.11,221.09 54.48,56.36 121.71,84.56 201.68,84.56l0 0 0 -0.01zm-126.26 -518.18c31.21,-38.47 72.92,-57.71 125.09,-57.71 55.25,0 98.46,19.43 129.69,58.24 39.63,48.77 59.43,122.86 59.43,222.27 0,91.8 -17.72,159 -53.13,201.65 -35.83,42.3 -80.96,63.43 -135.39,63.43 -51.05,0 -92.18,-19.43 -123.41,-58.3 -40.74,-51.03 -61.12,-123.98 -61.12,-218.81 -0.01,-92.54 19.59,-162.81 58.84,-210.8l0 0.01z"/>
  </g>
  <path class="fil0" d="M9068.36 3103.58c10.28,-15.24 27.42,-22.86 51.42,-22.86l22.28 0.01 0 -15.98 -250.85 0 0 15.98 21.7 0c22.12,0 38.09,5.52 47.99,16.6 9.56,11.44 14.31,35.02 14.31,70.85l0 226.23c0,70.46 4.56,118.26 13.72,143.41 13.67,36.93 36.93,66.45 69.69,88.54 33.15,22.12 81.52,33.15 145.14,33.15 57.86,0 103.99,-11.44 138.25,-34.25 33.53,-23.25 56.2,-50.7 67.98,-82.29 11.06,-32.75 16.59,-78.09 16.59,-135.97l0 -235.38c0,-32.42 3.26,-52.93 9.71,-61.74 12.21,-19.41 29.69,-29.14 52.58,-29.14l21.69 0 0 -15.98 -205.69 0 0 15.98 21.72 0c22.06,0 38.83,6.51 50.23,19.48 7.63,8.71 11.47,31.4 11.47,67.95l0 234.83c0,61.7 -5.36,105.7 -16,131.99 -11.06,25.52 -31.65,46.66 -61.72,63.42 -30.08,16.39 -64.18,24.57 -102.25,24.57 -29.69,0 -54.64,-5.15 -74.83,-15.43 -20.59,-11.06 -36.37,-24.57 -47.43,-40.58 -10.65,-16.39 -18.1,-39.06 -22.32,-67.98 -4.22,-29.33 -6.3,-55.23 -6.3,-77.7l0 -253.1c0.05,-32.74 3.71,-54.3 10.93,-64.58l0 -0.02z"/>
 </g>
</svg>
