<?xml version="1.0" encoding="UTF-8"?>
<!DOCTYPE svg PUBLIC "-//W3C//DTD SVG 1.1//EN" "http://www.w3.org/Graphics/SVG/1.1/DTD/svg11.dtd">
<!-- Creator: CorelDRAW -->
<svg xmlns="http://www.w3.org/2000/svg" xml:space="preserve" width="82.285mm" height="118.708mm" version="1.1" style="shape-rendering:geometricPrecision; text-rendering:geometricPrecision; image-rendering:optimizeQuality; fill-rule:evenodd; clip-rule:evenodd"
viewBox="0 0 27626.98 39855.85"
 xmlns:xlink="http://www.w3.org/1999/xlink"
 xmlns:xodm="http://www.corel.com/coreldraw/odm/2003">
 <defs>
  <style type="text/css">
   <![CDATA[
    .fil1 {fill:black}
    .fil2 {fill:#BDAC97}
    .fil0 {fill:white}
    .fil3 {fill:white;fill-rule:nonzero}
   ]]>
  </style>
 </defs>
 <g id="Capa_x0020_1">
  <metadata id="CorelCorpID_0Corel-Layer"/>
  <g id="_1981916815600">
   <path class="fil0" d="M17600.12 6855.43c-134.4,-103.48 -279.78,-184.39 -436.24,-242.71l0 -373.69 0 -20.65c0,-493.82 -174.25,-915.05 -522.99,-1263.72 -320.71,-320.71 -702.99,-494.25 -1146.78,-520.81 -38.71,-2.45 -78.23,-3.69 -118.42,-3.69l-297.17 0 -250.84 0c-63.76,-424.65 19.84,-973.9 250.84,-1647.65 18.16,-54.02 37.54,-107.98 58.12,-161.86 1.48,-4.43 2.95,-7.86 4.36,-10.34 171.77,-547.77 288.64,-1018.02 350.89,-1410.84l0 -10.31c1.44,-4.26 2.22,-7.55 2.28,-9.9l0 -0.37c61.81,-423.68 59.53,-764.06 -6.65,-1021.04 -12.22,-51.44 -39.92,-91.69 -83.06,-120.63 -44.18,-30.42 -91.69,-42.17 -142.76,-35.29 -52.91,5.37 -96.53,28.17 -130.94,68.43 -34.85,38.71 -52.18,84.34 -52.18,136.78l0 936.43c-57.88,371.71 -168.44,816.24 -331.72,1333.66 -1.54,2.95 -2.35,5.84 -2.35,8.8 -290.22,790.99 -403.53,1439.11 -339.81,1944.15l-1933.84 0c64.7,-507.99 -49.52,-1159 -342.76,-1952.94 -163.34,-518.39 -274.64,-963.6 -334,-1335.87l0 -934.22c0,-52.41 -17.16,-98.07 -51.44,-136.78 -34.85,-40.19 -78.53,-62.99 -131.01,-68.43 -51,-6.85 -98.07,4.87 -141.22,35.29 -44.12,28.94 -72.56,69.2 -85.35,120.63 -66.18,256.98 -68.09,596.56 -5.77,1018.79l0 0.4c0,2.28 0.74,4.9 2.15,7.76l0 5.84 0 2.22 2.22 4.43c60.84,392.79 178.21,863.88 352.37,1413.06 0,2.45 0.67,5.94 2.15,10.37 19.17,52.41 37.81,104.42 55.97,155.89 233.95,676.26 318.26,1227.43 252.99,1653.59l-253.05 -0.03 -296.36 0c-40.26,0 -79.77,1.24 -118.42,3.69 -443.86,26.56 -825.64,200.11 -1145.44,520.81l-2.15 0c-347.2,348.67 -520.78,769.97 -520.78,1263.79l0 20.58 0 373.69c-156.46,58.32 -302.34,139.23 -437.71,242.75 -338.84,259.9 -506.31,573.99 -502.38,942.24 -3.93,369.29 163.54,684.62 502.38,946l0 -2.22c309.93,242.28 685.6,365.36 1126.94,369.26l1186.53 2959.31 0 10337.23c0,56.41 20.82,105.46 62.52,147.19 39.69,40.16 88.03,60.27 144.94,60.27 56.91,0 105.89,-20.11 147.06,-60.27 40.26,-41.67 60.33,-90.79 60.33,-147.19l0 -9868.66c149.58,102.5 330.04,155.72 541.39,159.58 50.03,1.54 98.58,0.3 145.68,-3.63 -12.76,116.14 8.56,215.75 63.96,298.65 84.34,190.74 308.45,297.17 672.37,319.26l25.01 0c363.88,-22.09 587.86,-128.52 672.3,-319.26 53.95,-82.9 74.87,-182.51 62.52,-298.65 47.04,3.93 96.09,5.17 147.16,3.63 210.41,-3.86 390.07,-57.14 539.18,-159.58l0 9868.66c0,56.41 20.82,105.46 62.55,147.19 40.19,40.16 88.47,60.27 144.91,60.27 56.91,0 106.2,-20.11 147.83,-60.27 39.72,-41.67 59.63,-90.79 59.63,-147.19l0 -10337.23 1189.42 -2959.31c439.93,-3.89 814.86,-126.98 1124.75,-369.26l0 2.22c338.84,-261.38 506.11,-576.71 501.67,-946 4.33,-368.25 -162.94,-682.34 -501.71,-942.24l0 0 -0.07 -0.03zm-7073.46 1840.43l-105.89 0c-350.12,0 -648.29,-94.14 -894.46,-282.46 -222.63,-171.13 -336.18,-376.34 -340.62,-615.69 4.43,-237.81 117.98,-441.81 340.62,-612.03l0 -2.15c129.97,-99.62 273.9,-170.9 431.77,-214.04 10.81,-2.45 21.86,-5.94 33.17,-10.37l2.15 0.07c12.29,-5.47 24.74,-8.86 37.54,-10.27 5.37,-1.54 11.52,-2.95 18.33,-4.47 118.65,-28.91 242.54,-43.38 371.5,-43.38 351.12,0 649.3,94.18 894.5,282.46l0 2.22c222.6,170.16 335.88,374.19 339.81,611.97 -3.93,239.39 -117.21,444.56 -339.81,615.69 -218.77,166.26 -479.62,260.44 -782.69,282.5l-5.91 0 0 -0.03zm4351.05 3266.05c-43.14,57.88 -110.29,125.6 -201.48,203.03 -94.28,76.01 -211.72,115.53 -352.37,118.42 -141.28,2.95 -259.7,-29.38 -355.39,-97.1 -38.68,-29.45 -82.09,-43.38 -130.14,-41.9 -50.03,1.48 -92.9,18.8 -128.73,52.18 -37.23,31.9 -60.1,71.88 -68.39,119.93 -9.77,48.55 -2.22,94.14 22.8,136.82 82.83,151.09 114.05,264.6 93.4,340.55 -50.03,58.39 -156.69,92.97 -319.97,103.78 -163.27,-10.81 -269.64,-45.39 -319.23,-103.78 -22.06,-76.01 9.1,-189.46 93.4,-340.55 23.6,-42.67 31.16,-88.34 22.86,-136.82 -9.77,-48.05 -32.63,-88.03 -68.39,-119.93 -37.74,-33.37 -80.68,-50.77 -128.73,-52.18 -50.03,-1.48 -94.41,12.49 -133.12,41.9 -95.12,67.72 -212.6,100.05 -352.33,97.1 -141.22,-2.95 -259.7,-42.4 -355.32,-118.42 -91.19,-77.49 -157.43,-145.21 -198.59,-203.03 -15.24,-276.52 29.68,-466.12 134.63,-568.59 154.98,-114.79 341.05,-172.2 558.28,-172.2 212.8,0 395.98,55.5 549.48,166.3 25.01,20.65 51.3,41.23 78.7,61.81 44.69,34.85 95.12,48.08 151.56,39.72 56.84,-6.85 103.18,-33.07 138.97,-78.73 4.47,-5.84 10.04,-11.48 16.92,-16.89 153.5,-114.79 338.84,-172.14 556.07,-172.14 217.3,0 403.33,57.35 558.35,172.14 108.82,100.99 154.41,290.59 136.75,568.66l0 0 0 -0.07zm290.56 -713.56c-47.07,-77.42 -106.63,-139.74 -178.85,-186.81 -222.57,-170.16 -491.53,-255.27 -806.9,-255.27 -286.36,0 -534.75,70.37 -745.12,211.08 -210.38,-140.71 -459.24,-211.08 -746.64,-211.08 -314.33,0 -583.53,85.11 -807.71,255.27l-1.41 2.22c-70.61,48.11 -128.73,111.6 -174.35,190.5l-876.1 -2178.8c276.59,-56.41 522.29,-166.97 737.07,-331.75 338.87,-261.38 506.11,-576.71 501.67,-946 4.43,-368.25 -162.3,-682.34 -500.2,-942.24l-1.48 0c-314.33,-246.17 -696.84,-369.26 -1147.48,-369.26 -100.99,0 -199.33,7.59 -294.95,22.8l0 -269.97 0 -20.58c0,-380.57 133.66,-704.23 400.85,-970.98 266.82,-268.3 590.48,-402.39 971.05,-402.39l703.16 0c11.31,1.48 22.33,1.48 33.14,0l2406.81 0c11.31,1.48 22.33,1.48 33.07,0l701.81 0c380.03,0 704.43,134.1 973.23,402.39 266.75,266.75 400.14,590.41 400.14,970.98l0 20.58 0 269.97c-96.59,-15.21 -195.41,-22.8 -296.5,-22.8 -449.63,0 -832.15,123.09 -1147.48,369.26 -338.87,259.9 -506.41,573.99 -502.41,942.24 -4,369.29 163.54,684.62 502.41,946 214.27,164.82 459.74,274.61 736.33,329.6l-873.14 2175.04zm2178.09 -2834.92c-246.17,188.32 -544.08,282.46 -893.79,282.46l-103.65 0 -6.65 0c-303.08,-22.03 -564.49,-116.2 -784.1,-282.46 -222.7,-171.13 -336.22,-376.34 -340.62,-615.69 4.4,-237.81 117.91,-441.81 340.62,-612.03l0 -2.15c246.1,-188.35 544.31,-282.5 894.4,-282.5 128.56,0 252.45,14.44 371.54,43.38 6.88,1.54 13.03,2.95 18.43,4.5 13.7,2.89 28.2,6.31 43.38,10.21l2.22 2.22c11.25,2.95 22.29,5.71 33.07,8.16 153.5,43.14 295.26,114.42 425.22,214.04l0 2.15c223.07,170.16 336.65,374.22 340.58,612.03 -3.96,239.35 -117.58,444.56 -340.65,615.69l0 0z"/>
   <path class="fil0" d="M14182.51 11221.12c-217.23,0 -402.63,57.38 -556.07,172.17 -6.82,5.37 -12.46,11.01 -16.89,16.92 -35.82,45.56 -82.16,71.82 -139.07,78.7 -56.41,8.29 -106.87,-4.9 -151.52,-39.75 -27.4,-20.58 -53.72,-41.16 -78.73,-61.74 -153.44,-110.86 -336.62,-166.3 -549.48,-166.3 -217.23,0 -403.37,57.38 -558.28,172.17 -104.95,102.5 -149.88,292.03 -134.63,568.55 41.23,57.88 107.41,125.6 198.59,203.03 95.62,76.08 214.11,115.46 355.32,118.49 139.74,2.89 257.22,-29.45 352.33,-97.1 38.75,-29.45 83.16,-43.45 133.12,-41.97 48.11,1.48 90.99,18.87 128.73,52.24 35.82,31.9 58.62,71.88 68.39,119.86 8.29,48.55 0.81,94.21 -22.8,136.88 -84.37,151.09 -115.53,264.6 -93.47,340.55 49.52,58.39 156.02,92.97 319.3,103.71 163.27,-10.74 270.04,-45.33 319.97,-103.71 20.61,-75.95 -10.54,-189.46 -93.4,-340.55 -25.01,-42.64 -32.63,-88.27 -22.8,-136.88 8.29,-47.98 31.16,-87.97 68.39,-119.86 35.79,-33.37 78.63,-50.77 128.69,-52.24 48.05,-1.48 91.49,12.52 130.2,41.97 95.62,67.65 214.04,99.99 355.22,97.1 140.75,-3.02 258.22,-42.47 352.37,-118.49 91.19,-77.42 158.41,-145.14 201.55,-203.03 17.66,-278 -27.93,-467.53 -136.78,-568.55 -154.95,-114.69 -341.02,-172.17 -558.31,-172.17l0.07 0z"/>
   <path class="fil1" d="M15494.11 4433.85c-38.71,-2.45 -78.2,-3.69 -118.42,-3.69l-297.14 0 0 -1647.78c18.16,-53.89 37.54,-107.88 58.12,-161.8 1.41,-4.36 2.89,-7.79 4.36,-10.34 171.77,-547.7 288.64,-1018.05 350.96,-1410.78l0 -10.37c1.38,-4.26 2.12,-7.55 2.15,-9.94l0 3254.7 -0.03 0 0 0zm-3699.94 -1657.22l0 1653.56 -296.43 0c-40.19,0 -79.71,1.24 -118.42,3.69l0 -3256.85c0.07,2.32 0.81,4.87 2.22,7.72l0 5.91 0 2.22 2.22 4.36c60.84,392.82 178.21,863.84 352.3,1413.09 0,2.48 0.81,5.91 2.22,10.34 19.1,52.41 37.7,104.45 55.9,155.89l0 0.07z"/>
   <path class="fil2" d="M14877.71 11961.91c-43.14,57.82 -110.29,125.54 -201.55,203.03 -94.14,76.01 -211.59,115.46 -352.3,118.42 -141.25,2.95 -259.7,-29.38 -355.36,-97.1 -38.71,-29.45 -82.09,-43.38 -130.14,-41.9 -50.13,1.41 -92.93,18.87 -128.76,52.18 -37.23,31.9 -60.03,71.88 -68.39,119.93 -9.77,48.55 -2.22,94.18 22.8,136.82 82.9,151.09 113.99,264.6 93.4,340.55 -49.96,58.39 -156.69,92.97 -319.9,103.78 -163.27,-10.81 -269.71,-45.39 -319.23,-103.78 -22.13,-76.01 9.03,-189.46 93.34,-340.55 23.6,-42.64 31.16,-88.27 22.86,-136.82 -9.84,-48.05 -32.63,-88.03 -68.46,-119.93 -37.67,-33.31 -80.61,-50.77 -128.66,-52.18 -50.03,-1.48 -94.41,12.49 -133.12,41.9 -95.12,67.72 -212.63,100.05 -352.4,97.1 -141.22,-2.95 -259.7,-42.4 -355.25,-118.42 -91.26,-77.49 -157.43,-145.21 -198.66,-203.03 -15.18,-276.59 29.68,-466.12 134.63,-568.59 154.98,-114.79 341.05,-172.14 558.31,-172.14 212.83,0 395.98,55.36 549.52,166.23 25.01,20.58 51.24,41.16 78.73,61.81 44.59,34.85 95.12,48.05 151.46,39.69 56.91,-6.82 103.24,-33.04 139.03,-78.63 4.36,-5.91 10.04,-11.55 16.92,-16.96 153.5,-114.79 338.84,-172.14 556.07,-172.14 217.26,0 403.27,57.35 558.31,172.14 108.85,101.03 154.51,290.52 136.85,568.59l-0.07 0z"/>
  </g>
 </g>
 <g id="Capa_x0020_1_1">
  <metadata id="CorelCorpID_1Corel-Layer"/>
  <path class="fil0" d="M6763.03 25763.89l0 5555.95c197.39,450.57 495.06,733.94 892.79,849.91l-230.42 519.94c-7.66,0 -15.11,-0.81 -22.66,-2.22 -164.25,-21.15 -317.21,-76.85 -458.83,-167.27 -299.89,-189.93 -553.08,-534.34 -759.53,-1033.03 -7.45,-15.01 -12.83,-31.63 -15.85,-49.76l0 -5673.46 594.47 -0.03 0.03 -0.03zm2059.21 0l11.35 0c164.25,22.66 317.92,78.43 461.05,167.37 63.32,40.69 124.36,88.03 183.08,142.39 221.56,201.92 413.71,498.79 576.44,890.54 9.07,22.66 15.01,45.23 18.03,67.79l0 4785.17c159.72,167.27 350.35,283.3 571.91,348.14l-235.06 519.84c-6.04,0 -11.38,-0.81 -15.85,-2.15 -48.31,-6.04 -94.95,-15.11 -140.17,-27.2 -90.42,-27.2 -175.53,-62.55 -255.4,-106.23 -39.18,-21.05 -76.11,-43.61 -110.76,-67.85 -58.82,69.37 -134.94,122.95 -228.31,160.62 -46.74,19.64 -99.41,34.65 -158.2,45.23 -10.58,1.51 -21.15,2.22 -31.63,2.22 -28.71,2.92 -58.82,4.53 -90.42,4.53l-495.09 0.03 -79.03 0 -40.79 0c-5.94,-1.61 -11.99,-3.02 -18.03,-4.53 -57.21,-10.58 -109.19,-25.58 -155.99,-45.29 -200.41,-79.77 -320.17,-235.06 -359.32,-465.48 -1.51,-3.02 -2.32,-6.04 -2.32,-9.17 -11.99,-43.71 -18.13,-90.42 -18.13,-140.17l0 -3946.71c0,-67.79 12.89,-131.11 38.54,-189.83l0 -18.03c60.23,-257.72 235.73,-406.96 526.62,-447.62 33.14,-6.04 66.34,-9.07 99.48,-9.07l603.44 0 0 -278.03c-197.39,-455.11 -495.76,-741.4 -895.1,-859.01l228.31 -517.55 11.28 0 0 0.07 0.07 0zm-5980.91 352.6c57.31,-55.7 125.07,-83.63 203.43,-83.63 79.87,0 147.73,27.9 203.43,83.63 55.8,55.8 83.67,123.56 83.67,203.53 0,78.36 -27.9,145.35 -83.67,201.08 -55.7,57.31 -123.56,85.92 -203.43,85.92 -78.36,0 -146.12,-28.61 -203.43,-85.92 -55.8,-55.8 -83.67,-122.75 -83.67,-201.08 0.07,-79.98 27.97,-147.76 83.67,-203.53l0 0zm1374.42 -352.6l298.31 0 6.85 0 289.31 0 0 5540.07c197.39,455.11 496.5,741.4 897.32,859.01l-230.52 522.09c-7.55,-1.51 -15.11,-2.85 -22.56,-4.43 -164.25,-21.15 -318.02,-76.92 -461.25,-167.37 -299.82,-189.83 -552.27,-533.44 -757.21,-1030.74 -10.48,-22.66 -17.22,-45.96 -20.25,-70.1l-0.03 -5648.48 0.03 0 0 -0.03zm-861.36 6925.67l-596.69 0 0 -5508.61 596.69 0.03 0 5508.58zm5470.17 -4656.28c-7.55,17.93 -14.34,37.67 -20.31,58.62l0 3928.55c0,13.5 3.02,27.2 9.07,40.76l0 8.96c0,12.09 6.75,21.96 20.31,29.41l49.66 0.03 495.09 0c60.23,0 93.44,-30.12 99.41,-90.42l0 -3996.3 -594.51 0c-19.64,6.04 -33.14,9.07 -40.69,9.07 -12.15,-0.1 -18.03,3.73 -18.03,11.35l0 0 0 -0.03zm5551.45 -2269.38l0 5757.16 0 13.5 0 4.63c0,40.69 -6.85,80.48 -20.31,119.79 -104.01,248.65 -238.15,463.37 -402.23,644.23 -135.64,153.77 -292.44,282.57 -470.18,386.61l-2.35 -0.03c-174.82,-104.01 -330.64,-232.77 -467.9,-386.61 -162.74,-180.87 -296.8,-395.58 -402.33,-644.23 -18.03,-46.64 -24.07,-92.67 -18.03,-137.86l0 -5757.16 594.47 0 0 5718.69c85.92,203.43 184.59,371.5 296.1,504.12 113.01,-132.62 212.49,-300.7 298.31,-504.12l0 -5718.69 594.47 0 -0.03 -0.03zm947.11 352.6c55.7,-55.7 123.56,-83.63 203.33,-83.63 78.36,0 145.35,27.9 201.08,83.63 57.38,55.8 85.98,123.56 85.98,203.53 0,78.36 -28.61,145.35 -85.98,201.08 -55.8,57.31 -122.75,85.92 -201.08,85.92 -79.77,0 -147.63,-28.61 -203.33,-85.92 -55.8,-55.8 -83.67,-122.75 -83.67,-201.08 -0.1,-79.98 27.9,-147.76 83.67,-203.53l0 0zm494.96 6573.06l-592.16 0 0 -5508.61 592.16 0.03 0 5508.58zm4400.71 -6925.67l594.58 0 0 6050.98c159.72,167.27 349.65,282.67 569.66,345.92l-235.06 522.15c-6.04,-1.61 -11.45,-3.02 -15.98,-4.63 -48.25,-5.94 -94.78,-14.2 -140.07,-24.78 -90.35,-28.61 -175.53,-64.13 -255.4,-106.23 -39.08,-21.05 -76.05,-44.42 -110.7,-70.1 -58.72,70.88 -134.94,125.07 -228.21,162.74 -46.8,18.13 -99.58,33.14 -158.3,45.23 -10.58,0 -21.05,0.87 -31.63,2.32 -21.05,1.51 -42.91,2.22 -65.47,2.22l-637.42 0c-7.72,0 -13.66,-0.81 -18.13,-2.22 -58.82,-10.58 -111.67,-25.58 -158.2,-45.23 -186.91,-75.41 -303.62,-214.71 -350.35,-418.14 -3.02,-15.11 -5.94,-31.09 -9.07,-47.54 -1.61,-3.02 -2.32,-6.04 -2.32,-9.07 -7.55,-30.22 -12.69,-61.04 -15.71,-92.73 -1.61,-16.52 -2.32,-32.23 -2.32,-47.34l2.32 -3838.03c-1.61,-18.13 -1.61,-36.26 0,-54.29l-2.32 -56.47c0,-13.6 0.81,-27.26 2.32,-40.69l0 -2274.02 592.09 0.03 0 6252.26c0,5.88 0.81,11.99 2.32,17.93 1.51,7.55 4.53,15.18 9.07,22.66l0 9.17c0,13.5 6.04,23.27 18.13,29.41l49.62 0 495.06 0c60.23,0 93.44,-29.41 99.48,-88.2l0 -5935.71c1.51,0 2.05,0.87 2.05,2.32l0.03 -309.79 -0.1 0 0.03 -0.03 0 -0.07zm5174.07 2269.38c-6.04,17.93 -12.09,37.67 -18.2,58.62l0 3928.55c0,13.5 3.02,27.2 9.23,40.76l0 8.96c0,12.09 5.88,21.96 18.03,29.41l49.82 0.03 494.96 0c60.33,0 94.08,-30.12 101.66,-90.42l0 -3996.3 -596.66 0c-19.71,6.04 -32.43,9.07 -38.54,9.07 -13.7,-0.1 -20.31,3.73 -20.31,11.35l0 0 0 -0.03zm-241.87 -1751.86l228.31 -517.55 11.35 0 11.28 0c164.25,22.66 318.02,78.43 461.05,167.37 63.32,40.69 125.07,88.03 185.4,142.39 220.05,201.92 411.39,498.79 574.13,890.54 10.41,22.66 17.22,45.23 20.31,67.79l0 4785.17c158.2,167.27 348.04,283.3 569.66,348.14l-235.16 519.84c-5.94,0 -11.18,-0.81 -15.91,-2.15 -46.53,-6.04 -92.57,-15.11 -137.79,-27.2 -91.86,-27.2 -177.85,-62.55 -257.72,-106.23 -37.67,-21.05 -74.64,-43.61 -110.7,-67.85 -58.82,69.37 -134.94,122.95 -228.21,160.62 -46.8,19.64 -98.71,34.65 -155.99,45.23 -12.15,1.51 -23.47,2.22 -34.01,2.22 -28.61,2.92 -58.72,4.53 -90.35,4.53l-494.93 0.03 -77.02 0 -40.59 0c-7.55,-1.61 -13.6,-3.02 -17.93,-4.53 -58.82,-10.58 -111.67,-25.58 -158.3,-45.29 -200.41,-79.77 -320.17,-235.06 -359.42,-465.48 -1.61,-3.02 -2.22,-6.04 -2.22,-9.17 -12.09,-43.71 -18.13,-90.42 -18.13,-140.17l-0.03 -3946.71c0,-67.79 13.5,-131.11 40.69,-189.83l0 -18.03c58.82,-257.72 233.55,-406.96 524.47,-447.62 33.04,-6.04 66.28,-9.07 99.41,-9.07l605.76 0 0 -278.03c-198.9,-455.04 -498.01,-741.33 -897.49,-858.91l0 0 0.07 -0.03zm-7332.42 -517.45c10.48,0 21.76,2.32 33.84,6.75 156.69,24.07 280.28,81.39 370.6,171.9 25.75,27.09 49.22,57.31 70.17,90.42l-458.83 456.62c-10.68,-7.55 -21.05,-14.34 -31.63,-20.31 -78.36,-52.78 -174.02,-90.42 -287.03,-113.08 -12.09,1.68 -22.56,1.68 -31.53,0 -196.04,6.04 -315.13,74.7 -357.2,205.75l0 5325.32c42.2,132.62 161.16,201.82 357.2,208.06 9.07,-1.51 19.54,-1.51 31.53,0 113.01,-22.66 208.77,-60.33 287.03,-113.08 3.02,-2.92 5.94,-5.24 9.07,-6.65 7.55,-4.63 15.01,-9.77 22.66,-15.98l458.83 458.9c-9.07,13.6 -18.03,27.2 -27.2,40.59 -13.6,16.69 -27.8,32.5 -43.01,47.54 -90.35,91.93 -213.9,149.24 -370.6,171.8 -12.09,4.63 -23.37,8.43 -33.84,11.38l-639.77 -0.03c-204.94,-12.15 -360.83,-73.13 -467.8,-183.18 -93.67,-94.95 -150.05,-225.29 -169.59,-391.05 -4.53,-36.06 -7.45,-72.92 -9.07,-110.6l0 -5560.58c7.55,-220.05 67.08,-387.15 178.65,-501.74 106.97,-108.55 262.86,-168.08 467.8,-178.65 16.69,-1.51 33.24,-2.22 49.82,-2.22l504.06 0.03 70.07 0c4.36,-0.2 9.6,0.6 15.75,2.12l0 0 0 -0.03zm4898.02 0l20.31 0 576.38 0c13.43,0 29.31,3.02 47.34,9.17 304.52,46.53 483.07,217.73 535.75,513.02 6.04,48.31 9.17,94.88 9.17,140.07l0 6263.5 -594.58 0 0 -6252.26 0 -40.59 0 -9.07c-6.04,-13.6 -15.71,-23.37 -29.31,-29.41l-40.69 0 -495.06 0c-64.77,0 -100.99,32.43 -108.48,97.2l0 6234.09 -594.58 0 0 -6243.09c13.83,-441.58 238.25,-669.08 673.71,-682.71l0 0 0.03 0.03 0 0.03zm-20808.69 5775.19c0,40.69 -6.75,80.48 -20.31,119.79 -105.46,248.65 -239.59,463.37 -402.33,644.23 -137.15,153.77 -293.85,282.57 -470.18,386.61 -177.74,-104.01 -334.47,-232.77 -470.11,-386.61 -164.25,-180.87 -298.38,-395.58 -402.33,-644.23 -19.64,-46.64 -25.68,-92.67 -18.13,-137.86l0 -5759.41 594.47 -0.03 0 5720.9c85.92,203.43 184.59,371.5 296.1,504.12 113.08,-132.62 212.56,-300.7 298.38,-504.12l0 -5720.9 594.47 0 0 5759.41 0 13.5 0 4.63 -0.03 -0.03z"/>
  <path class="fil0" d="M22637.57 25456.51c7.55,-64.77 69.2,-117.51 185.4,-158.2 117.51,-42.2 227.5,-42.2 330.01,0 100.82,42.2 153.6,71.61 158.14,88.1l0 11.38 0 40.69 0 63.25 594.44 -0.07 0 -74.64c0,-45.23 -2.92,-91.86 -9.07,-140.07 -52.78,-296.87 -231.33,-467.96 -535.75,-513.19 -18.03,-7.45 -33.84,-11.28 -47.47,-11.28l-576.24 0 -20.31 0c-435.57,15.11 -660.05,243.42 -673.61,684.89l0 54.29 594.47 0 0 -45.19 0 0.03z"/>
  <path class="fil0" d="M27563.96 35519.87c-68.76,130.34 -135.31,227.67 -199.77,292.27 -50.5,50.36 -103.04,84.04 -157.67,100.93 -54.73,16.79 -143.03,25.21 -264.9,25.21l-361.6 0c-58.89,0 -98.78,-5.67 -119.93,-16.79 -20.88,-12.69 -35.72,-28.71 -44.15,-48.41 -8.43,-22.39 -12.62,-80.61 -12.62,-174.45l0 -706.41 468.9 0c89.71,0 156.26,11.11 199.7,33.57 43.35,20.95 74.97,49.76 94.61,86.25 12.69,29.41 26.46,96.02 42.1,199.77l58.69 0.03 0 -742.3 -58.72 0c-5.67,120.53 -35.79,205.31 -90.62,254.43 -42,36.43 -123.92,54.63 -245.9,54.63l-468.84 0 0 -847.36 584.54 0c107.94,0 182.92,8.43 225.02,25.21 51.71,22.39 91.76,53.92 119.79,94.61 25.21,43.35 49.82,121.17 73.63,233.38l58.89 0 -23.2 -468.94 -1646.34 0 0 59.02 73.63 0c88.4,0 151.46,21.05 189.13,62.99 28.07,32.23 42.1,116.47 42.1,252.38l0 1387.68c0,103.71 -5.51,173.14 -16.69,208.23 -12.89,32.16 -36.5,56.77 -71.61,73.63 -43.35,25.05 -91.05,37.74 -142.93,37.74l-73.63 0 0 56.77 1646.34 -0.03 185.06 -533.97 -62.95 0 -0.07 -0.07z"/>
  <path class="fil0" d="M21605.69 35885.6c86.89,67.42 206.82,131.75 359.52,193.56 107.94,105.09 235.49,205.38 382.79,300.63 145.68,93.91 302.07,167.54 468.6,220.85 165.49,53.22 320.44,81.89 464.67,86.15l0 -48.31c-158.2,-14.03 -299.72,-64.66 -424.52,-151.46 -124.76,-86.79 -240.56,-222.87 -347,-407.83 234.08,-71.61 423.38,-205.48 567.75,-401.62 144.44,-199 216.59,-428.88 216.59,-689.63 0,-323.9 -100.99,-590.81 -302.84,-801.16 -206.01,-212.93 -448.59,-319.53 -727.4,-319.53 -295.83,0 -547.3,105.79 -754.83,317.48 -206.08,211.59 -309.16,477.27 -309.16,796.83 0,201.82 35.79,377.82 107.3,527.76 69.9,147.29 169.59,272.63 298.48,376.31l0 0 0.03 -0.03zm176.77 -1692.5c116.2,-135.91 269.61,-203.87 460.41,-203.87 124.63,0 236.74,32.23 336.32,96.7 98.07,63.09 177.98,161.96 239.66,296.5 75.68,173.75 113.45,388.9 113.45,645.47 0,332.16 -70.81,583.8 -212.33,754.83 -119.12,142.93 -278.23,214.54 -477.2,214.54 -190.74,0 -343.44,-71.61 -458.46,-214.54 -148.43,-189.29 -222.87,-456.35 -222.87,-801.09 0,-353.17 73.63,-615.93 221.02,-788.54z"/>
  <path class="fil0" d="M21004.36 35997.14l-75.68 0c-50.5,0 -98.94,-12.62 -145.14,-37.84 -33.68,-19.64 -55.43,-42 -65.1,-67.25 -13.93,-35.09 -21.05,-106.5 -21.05,-214.54l0 -1381.37c0,-128.89 13.43,-210.28 39.99,-243.85 39.25,-51.87 103.04,-77.83 191.34,-77.83l75.64 0.03 0 -58.89 -914.54 -0.03 0 58.89 73.6 0.03c51.87,0 100.93,12.62 147.12,37.84 32.16,19.64 53.32,42.74 63.15,69.37 13.87,33.68 20.95,105.09 20.95,214.44l0 1381.37c0,127.55 -12.62,208.23 -37.94,241.91 -40.69,51.81 -105.22,77.73 -193.39,77.73l-73.53 0 0 56.84 914.51 0 0 -56.84 0.1 0 -0.03 0z"/>
  <path class="fil0" d="M18258.55 34188.9c39.08,-57.38 86.25,-96.02 140.81,-115.67 42.1,-14.03 112.91,-20.95 212.39,-20.95l256.54 -0.03 0 1631.5c0,120.53 -11.18,197.65 -33.68,231.33 -37.84,54.63 -101.63,82.12 -191.34,82.12l-77.79 0 0 56.67 908.5 0 0 -56.67 -75.88 0c-82.63,0 -143.57,-22.39 -182.81,-67.42 -29.31,-32.16 -44.05,-114.15 -44.05,-245.97l0 -1631.5 302.74 -0.03c86.89,0 158.14,13.93 214.34,42 51.87,27.97 95.32,72.92 130.4,134.57 18.3,39.35 33.68,102.44 46.2,189.23l58.89 0.03 -23.2 -502.45 -1745.11 0 -25.15 502.45 59.02 0c6.75,-97.97 29.85,-174.45 69.2,-229.18l-0.03 -0.03z"/>
  <path class="fil0" d="M15979.3 34035.46c35.19,42 52.78,128.89 52.78,260.74l0 832.55c0,259.3 16.69,435.3 50.36,527.76 50.29,136.01 135.91,244.56 256.54,325.94 121.98,81.28 299.99,121.98 534.07,121.98 212.93,0 382.62,-42.2 508.76,-126.24 123.49,-85.45 206.82,-186.47 250.17,-302.74 40.76,-120.53 61.04,-287.37 61.04,-500.36l0 -866.23c0,-119.12 12.09,-194.8 35.72,-227.2 44.92,-71.41 109.35,-107.24 193.49,-107.24l79.77 0 0 -58.89 -756.94 0 0 58.89 79.94 0c81.18,0 142.89,23.97 184.86,71.61 28.17,32.16 42.1,115.67 42.1,250.17l0 864.18c0,227.07 -19.64,389 -58.89,485.73 -40.59,93.91 -116.27,171.7 -227.13,233.28 -110.6,60.4 -236.03,90.52 -376.21,90.52 -109.25,0 -201.08,-18.94 -275.48,-56.77 -75.61,-40.69 -133.86,-90.42 -174.45,-149.34 -39.18,-60.33 -66.61,-143.63 -81.89,-250.17 -15.55,-107.94 -23.27,-203.26 -23.27,-285.96l0 -931.43c0,-120.47 13.33,-199.77 39.99,-237.64 37.84,-56.07 100.99,-84.14 189.23,-84.14l82.02 0.07 0 -58.89 -923.24 -0.03 0 58.89 80.08 0.03c81.28,-0.1 140.17,20.41 176.54,61.04l0.03 -0.1z"/>
  <g id="_2913255117648">
   <path class="fil0" d="M14530.65 36102.16c291.63,0 540.28,-106.5 746.47,-319.6 203.16,-214.44 304.79,-484.22 304.79,-809.45 0,-315.43 -100.93,-578.26 -302.84,-788.47 -204.57,-211.59 -444.87,-317.42 -721.05,-317.42 -280.18,0 -520.64,93.1 -721.05,279.64 -231.33,214.44 -346.89,491.17 -346.89,830.51 0,332.16 99.41,603.44 298.38,813.62 200.41,207.42 447.82,311.2 742.2,311.2l0 0 0 -0.03zm-464.67 -1906.95c115.03,-141.58 268.36,-212.39 460.41,-212.39 204.67,0 364.49,71.51 479.45,214.34 142.89,179.49 214.34,452.15 214.34,817.98 0,337.83 -64.5,585.14 -193.39,742.1 -131.75,155.65 -298.38,233.45 -500.5,233.45 -187.78,0 -338.47,-71.51 -451.98,-214.54 -148.53,-187.78 -222.97,-456.25 -222.97,-805.22 0.1,-340.55 71.68,-599.14 214.64,-775.74l0 0.03z"/>
  </g>
  <g id="_2913255121488">
   <path class="fil0" d="M12913.25 35986.36c117.71,-44.86 209.47,-115.67 275.48,-212.39 67.15,-96.83 100.93,-199.06 100.93,-307.01 0,-140.07 -51.34,-258.59 -153.5,-355.32 -72.86,-68.66 -183.62,-119.22 -332.32,-151.29 127.75,-39.35 224.38,-101.09 290.22,-185.06 63.09,-86.96 94.68,-183.72 94.68,-290.32 0,-124.63 -41.5,-235.39 -124.09,-332.16 -82.69,-96.73 -203.26,-163.98 -361.63,-201.82 -103.75,-25.15 -241.1,-37.84 -412.1,-37.84l-925.12 -0.03 0 58.89 79.94 0.03c81.28,0 142.93,23.8 184.96,71.51 29.48,33.57 44.15,117.01 44.15,250.17l0 1381.37c0,117.78 -11.92,196.24 -35.72,235.59 -39.25,56.07 -103.75,83.94 -193.39,83.94l-79.94 -0.03 0 56.84 1009.16 0c241.17,0 420.42,-21.66 538.3,-65.1l0 0 0 0.03zm-935.66 -1932.23c82.69,-23.97 177.31,-35.79 283.81,-35.79 194.8,0 343.44,44.15 445.77,132.45 102.34,89.71 153.5,196.95 153.5,321.68 0,79.87 -21.05,154.95 -63.09,225.02 -39.35,67.25 -97.43,117.71 -174.66,151.42 -78.43,33.68 -194.03,50.36 -346.89,50.36 -60.33,0 -114.96,-1.41 -163.98,-4.3 -50.5,-5.51 -95.22,-11.82 -134.5,-18.8l0.03 -822.01 0 -0.03zm0 1843.79l0 -876.7c27.97,-5.61 65.1,-9.17 111.4,-10.58 47.71,-2.65 103.71,-4.16 168.18,-4.16 151.42,0 277.6,22.46 378.52,67.25 100.93,44.92 174.45,105.26 220.75,180.87 44.86,75.78 67.35,154.85 67.35,237.64 0,127.55 -49.76,234.15 -149.34,319.6 -99.58,85.48 -245.26,128.19 -437.31,128.19 -117.68,-0.03 -237.68,-14.07 -359.55,-42.14l0 0.03z"/>
  </g>
  <path class="fil0" d="M10462.26 35473.47l-52.58 -10.41c-54.63,133.16 -109.25,230.52 -163.98,292.27 -54.63,60.23 -115.67,102.97 -182.92,128.19 -64.5,23.91 -178.72,35.72 -342.7,35.72l-157.67 0c-135.91,0 -218,-4.97 -245.97,-14.74 -25.21,-11.18 -44.15,-27.97 -56.77,-50.5 -16.89,-32.23 -25.21,-91.76 -25.21,-178.72l0 -1343.53c0,-127.55 8.36,-208.16 25.21,-241.81 16.79,-32.16 48.31,-60.33 94.61,-84.14 44.86,-21.05 124.09,-31.46 237.54,-31.46l0 -59.02 -967.15 0.03 0 59.02 79.98 0c79.87,0 140.81,23.91 182.81,71.51 28.07,32.16 42.1,115.67 42.1,250.17l0 1379.22c0,120.53 -10.58,198.29 -31.53,233.38 -39.25,58.89 -103.71,88.3 -193.39,88.3l-79.98 -0.03 0 56.77 1654.7 0 182.92 -580.27 -0.03 0.03z"/>
  <path class="fil0" d="M8479.57 35519.87l-63.05 0c-68.66,130.34 -135.91,227.67 -201.82,292.27 -49.05,50.36 -101.63,84.04 -157.67,100.93 -54.63,16.79 -142.22,25.21 -262.76,25.21l-363.78 0c-58.89,0 -98.88,-5.67 -119.83,-16.79 -19.64,-12.69 -33.68,-28.71 -42.1,-48.41 -8.36,-22.39 -12.62,-80.61 -12.62,-174.45l0 -706.41 468.84 0c89.71,0 155.65,11.11 197.65,33.57 44.86,20.95 76.38,49.76 94.68,86.25 13.93,29.41 28.71,96.02 44.05,199.77l58.92 0.03 0 -742.3 -58.89 0c-5.61,120.53 -36.43,205.31 -92.57,254.43 -40.59,36.43 -121.88,54.63 -243.85,54.63l-468.84 0 0 -847.36 584.5 0c106.5,0 180.77,8.43 222.97,25.21 53.12,22.39 93.1,53.92 119.79,94.61 26.56,43.35 51.17,121.17 73.63,233.38l60.94 0 -23.2 -468.94 -1648.35 0 0 59.02 75.68 0c88.3,0 152.16,21.05 191.44,62.99 26.56,32.23 39.89,116.47 39.89,252.38l0 1387.68c0,103.71 -6.31,173.14 -18.94,208.23 -11.18,32.16 -34.38,56.77 -69.37,73.63 -44.79,25.05 -92.57,37.74 -143.03,37.74l-75.68 0 0 56.77 1648.39 -0.03 185.06 -533.97 -0.1 -0.07z"/>
  <path class="fil0" d="M4829.56 34188.9c39.25,-57.38 86.15,-96.02 140.88,-115.67 42,-14.03 112.91,-20.95 212.39,-20.95l256.48 -0.03 0 1631.5c0,120.53 -11.18,197.65 -33.68,231.33 -37.84,54.63 -101.63,82.12 -191.24,82.12l-77.83 0 0 56.67 908.23 0 0 -56.67 -75.61 0c-82.69,0 -143.73,-22.39 -182.92,-67.42 -29.48,-32.16 -44.25,-114.15 -44.25,-245.97l0 -1631.5 302.78 -0.03c86.96,0 158.47,13.93 214.54,42 51.87,27.97 95.32,72.92 130.4,134.57 18.13,39.35 33.57,102.44 46.2,189.23l58.89 0.03 -23.2 -502.45 -1745.01 0 -25.32 502.45 58.89 0c7.08,-97.97 30.12,-174.45 69.37,-229.18l0 -0.03z"/>
  <path class="fil0" d="M918.87 35997.14l-77.76 0c-50.53,0 -98.88,-12.62 -145.14,-37.84 -32.23,-19.64 -53.32,-42 -63.09,-67.25 -15.44,-35.09 -23.1,-106.5 -23.1,-214.54l0 -651.69 994.48 0 0 651.69c0,127.55 -13.33,208.23 -39.99,241.91 -39.25,51.81 -103.04,77.73 -191.24,77.73l-75.71 0 0 56.84 916.66 0 0 -56.84 -77.83 0c-50.5,0 -98.78,-12.62 -145.08,-37.84 -32.23,-19.64 -53.22,-42 -63.09,-67.25 -14.03,-35.09 -20.95,-106.5 -20.95,-214.54l0 -1379.22c0,-106.5 6.21,-176.54 18.8,-210.18 11.28,-35.09 33.68,-61.04 67.35,-77.83 44.86,-23.91 92.46,-35.72 142.93,-35.72l77.83 0 0 -58.89 -916.66 0 0 58.89 75.71 0c50.5,0 98.78,12.62 144.98,37.84 32.33,19.64 54.02,42.74 65.2,69.37 14.03,33.68 21.05,105.73 21.05,216.59l0 611.97 -994.48 0.03 0 -611.97c0,-106.5 7.02,-176.54 21.05,-210.18 11.18,-35.09 32.87,-61.04 65.1,-77.83 46.27,-23.91 94.61,-35.72 145.14,-35.72l77.76 0 0 -58.89 -918.81 0 0 58.89 77.79 0c50.5,0 98.78,12.62 145.08,37.84 32.23,19.64 53.92,42.74 65.2,69.37 12.62,33.68 18.94,105.73 18.94,216.59l0 1379.22c0,127.55 -11.99,208.23 -35.79,241.91 -42,51.81 -106.5,77.73 -193.39,77.73l-77.83 0 0 56.84 918.81 0 0 -56.98 0.07 -0.03z"/>
  <g id="_2913255122400">
   <path class="fil0" d="M3429.33 36102.16c291.56,0 540.39,-106.5 746.37,-319.6 204.67,-214.44 307.01,-484.22 307.01,-809.45 0,-315.43 -101.63,-578.26 -304.89,-788.47 -204.67,-211.59 -445.64,-317.42 -723.27,-317.42 -278.97,0 -518.6,93.1 -719,279.64 -231.33,214.44 -346.89,491.17 -346.89,830.51 0,332.16 99.48,603.44 298.48,813.62 200.51,207.42 447.89,311.2 742.2,311.2l0 0 0 -0.03zm-464.64 -1906.95c114.86,-141.58 268.36,-212.39 460.34,-212.39 203.33,0 362.34,71.51 477.27,214.34 145.85,179.49 218.71,452.15 218.71,817.98 0,337.83 -65.2,585.14 -195.51,742.1 -131.85,155.65 -297.94,233.45 -498.25,233.45 -187.88,0 -339.24,-71.51 -454.17,-214.54 -149.94,-187.78 -224.92,-456.25 -224.92,-805.22 -0.03,-340.55 72.08,-599.14 216.52,-775.74l0 0.03z"/>
  </g>
  <path class="fil0" d="M24029.89 34078.1c37.84,-56.07 100.93,-84.14 189.23,-84.14l81.99 0.03 0 -58.82 -923.14 0 0 58.82 79.84 0c81.39,0 140.17,20.31 176.6,61.11 35.19,42.1 52.68,128.89 52.68,260.74l0 832.55c0,259.3 16.79,435.2 50.5,527.76 50.29,135.91 135.91,244.56 256.48,325.84 121.98,81.39 299.99,121.98 534.14,121.98 212.93,0 382.69,-42.1 508.76,-126.04 123.39,-85.55 206.82,-186.57 250.17,-302.84 40.69,-120.53 61.04,-287.37 61.04,-500.36l0 -866.23c0,-119.29 11.99,-194.8 35.72,-227.2 44.92,-71.41 109.25,-107.24 193.49,-107.24l79.81 0 0 -58.82 -756.94 0 0 58.82 79.94 0c81.18,0 142.89,23.97 184.86,71.68 28.07,32.06 42.2,115.56 42.2,250.06l0 864.18c0,227.07 -19.71,389 -58.89,485.73 -40.69,93.91 -116.47,171.7 -227.13,233.38 -110.7,60.33 -236.2,90.42 -376.31,90.42 -109.25,0 -201.08,-18.94 -275.38,-56.77 -75.78,-40.69 -133.86,-90.42 -174.56,-149.34 -39.18,-60.33 -66.61,-143.73 -82.12,-250.17 -15.55,-107.94 -23.2,-203.26 -23.2,-285.96l0 -931.43c0.17,-120.5 13.66,-199.84 40.22,-237.68l0 -0.07z"/>
  <path class="fil3" d="M1438.17 37786.4c30.35,0 63.02,1.88 98.07,5.67 35.09,3.79 69.2,9 102.34,15.65 33.17,6.61 63.49,13.26 90.99,19.88 27.46,6.65 48.78,13.77 63.96,21.32l0 315.54 -25.58 0c0,-90.95 -31.29,-162.5 -93.81,-214.61 -62.55,-52.11 -138.36,-78.16 -227.44,-78.16 -104.22,0 -188.56,32.67 -252.99,98.07 -64.43,65.37 -96.66,141.65 -96.66,228.81 0,36.03 8.06,78.2 24.17,126.51 16.12,48.31 45.96,93.34 89.54,135.04l559.99 517.35c56.88,53.08 94.78,109.92 113.72,170.56 18.97,60.64 28.44,119.39 28.44,176.27 0,157.3 -47.84,285.22 -143.57,383.76 -95.69,98.54 -225.05,147.8 -388.02,147.8 -45.49,0 -99.01,-4.73 -160.62,-14.2 -61.58,-9.47 -121.27,-26.05 -179.09,-49.76 -57.78,-23.67 -105.63,-54.46 -143.53,-92.36 -5.71,-30.32 -8.53,-68.22 -8.53,-113.72 0,-45.49 3.79,-93.34 11.35,-143.57 7.59,-50.19 18.03,-96.16 31.29,-137.86l25.58 0c-9.5,96.66 2.82,180.97 36.93,252.99 34.11,72.02 83.87,126.51 149.24,163.48 65.4,36.93 139.77,53.52 223.17,49.72 104.22,-5.67 193.76,-42.17 268.63,-109.42 74.84,-67.28 112.27,-157.77 112.27,-271.49 0,-54.96 -9.47,-104.72 -28.44,-149.24 -18.94,-44.55 -46.4,-82.93 -82.43,-115.13l-545.79 -506.01c-56.84,-53.05 -96.66,-111.33 -119.39,-174.82 -22.73,-63.49 -34.11,-122.72 -34.11,-177.68 0,-79.57 18.94,-156.32 56.84,-230.26 37.91,-73.9 94.28,-134.06 169.15,-180.5 74.87,-46.43 166.3,-69.63 274.31,-69.63zm355.36 28.4l0 59.7 -216.05 0 0 -59.7 216.05 0zm5814.71 -28.4l841.45 2012.6 -241.64 0 -656.65 -1742.56 56.84 -270.04zm-611.16 1822.14c-13.26,37.91 -15.18,70.14 -5.67,96.66 9.47,26.52 25.11,46.9 46.9,61.11 21.79,14.24 44.05,21.32 66.78,21.32l25.58 0 0 28.44 -571.38 0 0 -28.44c0,0 4.26,0 12.79,0 8.53,0 12.79,0 12.79,0 43.61,0 88.6,-13.73 135.04,-41.2 46.43,-27.5 84.81,-73.46 115.13,-137.89l162.03 0zm611.16 -1822.14l25.58 198.96 -713.5 1822.17 -170.56 0 727.73 -1728.36c0,0 5.2,-11.82 15.61,-35.52 10.44,-23.67 22.76,-52.58 36.97,-86.69 14.2,-34.11 26.52,-67.28 36.97,-99.52 10.41,-32.2 15.61,-55.9 15.61,-71.04l25.58 0zm400.85 1253.61l0 85.28 -889.76 0 0 -85.28 889.76 0zm127.92 568.52l233.08 0c28.44,64.43 66.34,110.39 113.72,137.89 47.37,27.46 92.87,41.2 136.45,41.2 0,0 3.79,0 11.38,0 7.55,0 11.35,0 11.35,0l0 28.44 -639.6 0 0 -28.44 25.58 0c36.03,0 68.22,-15.61 96.66,-46.9 28.44,-31.26 32.2,-75.31 11.38,-132.18zm5561.72 -1782.35l0 1989.87 -184.8 0 0 -1989.87 184.8 0zm767.52 1901.74l0 88.13 -776.05 0 0 -88.13 776.05 0zm173.41 -372.38l-164.89 460.51 -471.89 0 102.34 -88.13c100.46,0 182.41,-15.61 245.9,-46.9 63.49,-31.26 115.13,-75.31 154.91,-132.18 39.82,-56.84 74.87,-121.27 105.19,-193.29l28.44 0zm-1117.2 252.99l0 207.53 -227.4 0 0 -28.44c0,0 6.14,0 18.47,0 12.32,0 18.5,0 18.5,0 49.25,0 91.42,-17.53 126.48,-52.58 35.09,-35.05 53.55,-77.22 55.43,-126.51l8.53 0zm0 -1574.82l-8.53 0c-1.88,-49.29 -20.35,-91.46 -55.43,-126.51 -35.05,-35.05 -77.22,-52.58 -126.48,-52.58 0,0 -6.18,0 -18.5,0 -12.32,0 -18.47,0 -18.47,0l0 -28.44 227.4 0 0 207.53zm167.74 0l0 -207.53 227.4 0 0 28.44c-1.88,0 -8.53,0 -19.91,0 -11.35,0 -17.06,0 -17.06,0 -49.25,0 -91.42,17.53 -126.48,52.58 -35.05,35.05 -53.55,77.22 -55.43,126.51l-8.53 0zm6212.67 -199l0 1981.35 -184.76 0 0 -1981.35 184.76 0zm730.59 -11.38l0 85.28 -1645.94 0 0 -85.28 1645.94 0zm0 76.75l0 230.26 -28.44 -2.82 0 -48.35c0,-47.37 -16.59,-87.16 -49.76,-119.39 -33.17,-32.2 -72.49,-49.25 -117.95,-51.17l0 -8.53 196.14 0zm0 -127.92l0 82.46 -346.83 -31.29c41.7,0 85.75,-2.82 132.18,-8.53 46.43,-5.67 89.54,-12.29 129.36,-19.88 39.79,-7.59 68.22,-15.18 85.28,-22.76zm-906.82 1836.37l0 207.53 -227.44 0 0 -28.44c0,0 6.18,0 18.5,0 12.32,0 18.47,0 18.47,0 49.29,0 91.46,-17.53 126.51,-52.58 35.05,-35.05 53.52,-77.22 55.43,-126.51l8.53 0zm167.71 0l8.53 0c1.91,49.29 20.38,91.46 55.43,126.51 35.05,35.05 77.22,52.58 126.51,52.58 0,0 6.14,0 18.47,0 12.32,0 18.47,0 18.47,0l0 28.44 -227.4 0 0 -207.53zm-710.68 -1708.45l0 8.53c-47.37,1.91 -87.16,18.97 -119.39,51.17 -32.2,32.23 -48.31,72.02 -48.31,119.39l0 48.35 -28.44 2.82 0 -230.26 196.14 0zm-196.14 -127.92c18.97,7.59 47.88,15.18 86.72,22.76 38.85,7.59 81.96,14.2 129.33,19.88 47.37,5.71 90.95,8.53 130.77,8.53l-346.83 31.29 0 -82.46zm7034.25 14.24l841.45 2012.6 -241.64 0 -656.65 -1742.56 56.84 -270.04zm-611.16 1822.14c-13.26,37.91 -15.18,70.14 -5.67,96.66 9.47,26.52 25.11,46.9 46.9,61.11 21.79,14.24 44.05,21.32 66.78,21.32l25.58 0 0 28.44 -571.38 0 0 -28.44c0,0 4.26,0 12.79,0 8.53,0 12.79,0 12.79,0 43.61,0 88.6,-13.73 135.04,-41.2 46.43,-27.5 84.81,-73.46 115.13,-137.89l162.03 0zm611.16 -1822.14l25.58 198.96 -713.5 1822.17 -170.56 0 727.73 -1728.36c0,0 5.2,-11.82 15.61,-35.52 10.44,-23.67 22.76,-52.58 36.97,-86.69 14.2,-34.11 26.52,-67.28 36.97,-99.52 10.41,-32.2 15.61,-55.9 15.61,-71.04l25.58 0zm400.85 1253.61l0 85.28 -889.76 0 0 -85.28 889.76 0zm127.92 568.52l233.08 0c28.44,64.43 66.34,110.39 113.72,137.89 47.37,27.46 92.87,41.2 136.45,41.2 0,0 3.79,0 11.38,0 7.55,0 11.35,0 11.35,0l0 28.44 -639.6 0 0 -28.44 25.58 0c36.03,0 68.22,-15.61 96.66,-46.9 28.44,-31.26 32.2,-75.31 11.38,-132.18z"/>
 </g>
</svg>
