<?xml version="1.0" encoding="UTF-8"?>
<!DOCTYPE svg PUBLIC "-//W3C//DTD SVG 1.1//EN" "http://www.w3.org/Graphics/SVG/1.1/DTD/svg11.dtd">
<!-- Creator: CorelDRAW -->
<svg xmlns="http://www.w3.org/2000/svg" xml:space="preserve" width="220.312mm" height="37.2925mm" version="1.1" style="shape-rendering:geometricPrecision; text-rendering:geometricPrecision; image-rendering:optimizeQuality; fill-rule:evenodd; clip-rule:evenodd"
viewBox="0 0 23685.26 4009.24"
 xmlns:xlink="http://www.w3.org/1999/xlink"
 xmlns:xodm="http://www.corel.com/coreldraw/odm/2003">
 <defs>
  <style type="text/css">
   <![CDATA[
    .fil10 {fill:#A8691A;fill-rule:nonzero}
    .fil8 {fill:#A8691B;fill-rule:nonzero}
    .fil9 {fill:#B0761C;fill-rule:nonzero}
    .fil4 {fill:#C59318;fill-rule:nonzero}
    .fil1 {fill:#D1A71E;fill-rule:nonzero}
    .fil2 {fill:#D1A81E;fill-rule:nonzero}
    .fil19 {fill:#E8B826;fill-rule:nonzero}
    .fil35 {fill:#EBBF2D;fill-rule:nonzero}
    .fil25 {fill:#EBC02D;fill-rule:nonzero}
    .fil39 {fill:#ECBA26;fill-rule:nonzero}
    .fil32 {fill:#ECBB27;fill-rule:nonzero}
    .fil33 {fill:#ECBB28;fill-rule:nonzero}
    .fil12 {fill:#ECBC28;fill-rule:nonzero}
    .fil13 {fill:#ECBC29;fill-rule:nonzero}
    .fil62 {fill:#ECBD29;fill-rule:nonzero}
    .fil54 {fill:#ECBE2B;fill-rule:nonzero}
    .fil37 {fill:#ECBF2C;fill-rule:nonzero}
    .fil34 {fill:#ECC02D;fill-rule:nonzero}
    .fil22 {fill:#ECC12E;fill-rule:nonzero}
    .fil20 {fill:#ECC22F;fill-rule:nonzero}
    .fil66 {fill:#ECC330;fill-rule:nonzero}
    .fil17 {fill:#ECC331;fill-rule:nonzero}
    .fil50 {fill:#ECC431;fill-rule:nonzero}
    .fil41 {fill:#ECC633;fill-rule:nonzero}
    .fil27 {fill:#ECC634;fill-rule:nonzero}
    .fil14 {fill:#ECC734;fill-rule:nonzero}
    .fil36 {fill:#ECC735;fill-rule:nonzero}
    .fil43 {fill:#ECC836;fill-rule:nonzero}
    .fil68 {fill:#ECC837;fill-rule:nonzero}
    .fil42 {fill:#EDC02E;fill-rule:nonzero}
    .fil58 {fill:#EDC22F;fill-rule:nonzero}
    .fil40 {fill:#EDC431;fill-rule:nonzero}
    .fil63 {fill:#EDC432;fill-rule:nonzero}
    .fil31 {fill:#EDC532;fill-rule:nonzero}
    .fil38 {fill:#EDC533;fill-rule:nonzero}
    .fil55 {fill:#EDC634;fill-rule:nonzero}
    .fil18 {fill:#EDC734;fill-rule:nonzero}
    .fil49 {fill:#EDC735;fill-rule:nonzero}
    .fil15 {fill:#EDC835;fill-rule:nonzero}
    .fil16 {fill:#EDC836;fill-rule:nonzero}
    .fil44 {fill:#EDCA3A;fill-rule:nonzero}
    .fil59 {fill:#EEC937;fill-rule:nonzero}
    .fil48 {fill:#EEC938;fill-rule:nonzero}
    .fil60 {fill:#EECA38;fill-rule:nonzero}
    .fil67 {fill:#EECA39;fill-rule:nonzero}
    .fil21 {fill:#EFCD3D;fill-rule:nonzero}
    .fil45 {fill:#EFCE3D;fill-rule:nonzero}
    .fil26 {fill:#EFCE3E;fill-rule:nonzero}
    .fil61 {fill:#EFCE3F;fill-rule:nonzero}
    .fil52 {fill:#EFCF3E;fill-rule:nonzero}
    .fil56 {fill:#EFCF3F;fill-rule:nonzero}
    .fil23 {fill:#EFCF40;fill-rule:nonzero}
    .fil64 {fill:#EFD03F;fill-rule:nonzero}
    .fil46 {fill:#EFD040;fill-rule:nonzero}
    .fil47 {fill:#EFD041;fill-rule:nonzero}
    .fil24 {fill:#F0D143;fill-rule:nonzero}
    .fil30 {fill:#F0D144;fill-rule:nonzero}
    .fil53 {fill:#F0D243;fill-rule:nonzero}
    .fil28 {fill:#F0D244;fill-rule:nonzero}
    .fil51 {fill:#F0D247;fill-rule:nonzero}
    .fil29 {fill:#F1D44A;fill-rule:nonzero}
    .fil57 {fill:#F1D54C;fill-rule:nonzero}
    .fil0 {fill:#F3DC50;fill-rule:nonzero}
    .fil6 {fill:#F3DC51;fill-rule:nonzero}
    .fil70 {fill:#F4DA57;fill-rule:nonzero}
    .fil5 {fill:#F4DC51;fill-rule:nonzero}
    .fil7 {fill:#F4DD51;fill-rule:nonzero}
    .fil3 {fill:#FDED83;fill-rule:nonzero}
    .fil69 {fill:#FDEF95;fill-rule:nonzero}
    .fil65 {fill:#FDF09A;fill-rule:nonzero}
    .fil71 {fill:#FEF198;fill-rule:nonzero}
    .fil11 {fill:#FEF2A2;fill-rule:nonzero}
   ]]>
  </style>
 </defs>
 <g id="Capa_x0020_1">
  <metadata id="CorelCorpID_0Corel-Layer"/>
  <polygon class="fil0" points="11811.78,0 11873.47,15.42 12027.67,292.98 12258.97,724.74 12474.85,1125.67 12536.54,1233.61 12906.61,1310.71 13862.66,1480.33 13955.18,1511.18 13939.76,1572.85 13615.94,1896.68 13508,2020.03 13322.96,2205.09 13215.02,2328.44 12983.72,2559.74 12983.72,2667.68 13014.56,2837.31 13045.41,3114.86 13076.25,3284.49 13107.08,3562.05 13137.93,3793.35 13153.35,4009.23 13060.83,3993.81 12844.96,3901.29 12551.97,3747.09 12413.18,3685.41 11842.64,3407.84 11534.24,3546.62 11195,3716.25 10840.34,3885.87 10578.19,4009.23 10516.52,3993.81 10531.93,3808.76 10686.13,2683.1 10686.13,2559.74 10485.67,2359.28 10377.74,2235.92 10100.17,1958.35 9992.23,1835 9745.51,1588.28 9730.1,1511.18 9807.19,1480.34 11087.06,1249.04 11148.73,1249.03 11179.57,1156.51 11611.34,354.66 11796.38,15.42 "/>
  <polygon class="fil0" points="6861.94,0 6939.04,15.42 7401.63,878.94 7586.69,1218.18 7632.95,1249.03 8989.91,1495.75 9005.33,1557.43 8820.29,1757.88 8635.25,1942.93 8527.31,2066.29 8249.74,2343.86 8141.81,2467.21 8049.28,2559.73 8064.7,2760.19 8110.96,3145.69 8141.81,3377 8218.91,3885.85 8218.91,3993.79 8157.22,4009.22 8018.44,3947.53 7663.78,3777.91 7417.06,3654.55 7139.5,3531.19 6908.19,3407.83 6831.1,3438.68 6383.91,3654.55 5998.41,3839.59 5643.75,4009.22 5582.07,3993.79 5597.49,3777.92 5751.69,2636.83 5751.69,2559.73 5412.45,2220.49 5304.51,2097.14 5026.94,1819.57 4919.01,1696.21 4795.65,1572.85 4780.22,1526.59 4811.07,1495.75 5381.61,1387.81 6152.62,1249.03 6198.89,1233.6 6630.65,431.76 "/>
  <polygon class="fil0" points="16746.22,0 16807.9,0 17008.35,370.09 17470.96,1233.6 17856.46,1310.71 18797.08,1480.32 18889.6,1511.16 18874.19,1572.85 18673.73,1773.31 18565.79,1896.67 18334.49,2127.97 18226.55,2251.32 17918.14,2559.73 17933.57,2744.78 17964.41,2914.4 17995.25,3191.97 18026.09,3423.26 18056.93,3592.88 18087.78,3824.19 18087.78,4009.23 17995.26,3993.81 17733.11,3870.45 17486.39,3747.09 17208.84,3623.73 16915.84,3469.53 16792.49,3407.84 16699.97,3438.69 15975.22,3793.34 15620.57,3962.97 15512.63,4009.23 15450.94,3993.81 15450.94,3885.87 15497.2,3623.73 15635.98,2606 15605.15,2544.32 15389.26,2313.02 15173.39,2097.14 15065.45,1973.78 14772.47,1680.8 14664.52,1557.44 14664.52,1511.18 14741.62,1480.33 16036.91,1249.03 16083.17,1233.61 16283.63,848.11 16468.68,508.87 16730.81,15.43 "/>
  <polygon class="fil0" points="1927.51,0 1989.2,0 2189.66,370.09 2374.7,709.32 2636.84,1202.77 2652.25,1249.03 2852.71,1279.87 3978.39,1480.32 4070.9,1511.16 4055.48,1572.85 3947.54,1680.79 3839.6,1804.15 3577.46,2066.29 3469.52,2189.65 3191.96,2467.21 3099.43,2575.15 3145.71,2960.65 3176.54,3130.28 3238.23,3639.15 3269.07,3855.02 3269.07,4009.22 3176.55,3993.8 2883.57,3855.02 2636.85,3731.67 2359.28,3608.3 2066.3,3454.1 1973.78,3407.83 1881.26,3438.68 1542.02,3608.3 740.18,3993.8 647.66,4009.22 647.66,3855.02 817.28,2621.42 801.86,2559.73 555.14,2297.6 339.26,2081.71 231.32,1958.35 15.44,1742.48 0.02,1711.63 0.02,1480.33 107.96,1449.49 1218.21,1249.03 1264.47,1233.61 1449.51,878.95 1634.55,539.71 1896.7,46.27 "/>
  <polygon class="fil0" points="21680.65,0 21757.75,15.42 22220.34,878.94 22405.38,1218.18 22405.38,1249.03 22621.27,1279.87 23639,1464.91 23669.84,1480.33 23669.84,1572.85 22898.84,1819.57 21819.42,2174.23 21726.9,2189.65 21819.42,2328.43 22035.3,2621.42 22837.15,3731.67 22975.93,3932.12 22945.09,3639.13 22806.3,2636.83 22806.3,2544.32 22945.09,2405.53 23053.02,2282.17 23330.59,2004.6 23438.53,1881.25 23654.41,1665.37 23669.83,1727.05 23361.42,2035.46 23253.48,2158.81 23006.76,2405.53 22898.82,2528.9 22867.98,2559.74 22867.98,2713.94 22914.24,2991.51 22945.09,3269.07 22975.93,3500.36 23006.77,3669.99 23037.62,3901.29 23037.62,3993.81 22960.51,4009.23 22713.79,3885.87 22436.23,3762.51 22143.25,3608.31 22004.47,3546.62 21726.9,3407.84 21634.38,3438.69 21202.62,3654.56 20493.3,3993.8 20400.78,4009.22 20400.78,3870.44 20570.41,2652.25 20570.41,2575.15 20385.36,2374.7 20231.15,2220.49 20123.22,2097.14 19876.5,1850.42 19768.56,1727.05 19598.93,1557.43 19598.93,1511.16 19768.56,1464.9 20971.32,1249.03 21017.59,1233.6 21480.19,370.09 "/>
  <polygon class="fil1" points="4841.91,1542.01 4919.01,1557.43 5319.94,1680.79 5705.44,1804.15 6260.56,1989.2 6877.36,2189.65 6908.21,2205.07 6908.21,3346.15 6507.29,3546.61 6152.62,3716.24 5674.6,3947.54 5628.33,3947.54 5643.76,3731.67 5782.54,2744.78 5797.96,2544.32 5366.2,2112.55 5258.26,1989.2 5026.96,1757.9 4919.02,1634.53 "/>
  <polygon class="fil2" points="19660.62,1542.01 19753.14,1557.43 20215.74,1711.63 20709.18,1865.83 21726.9,2205.07 21726.9,2929.82 21711.49,3361.58 21279.72,3562.04 20878.79,3762.5 20524.13,3932.12 20447.04,3962.96 20462.46,3716.24 20616.66,2605.99 20616.66,2528.9 20585.82,2528.89 20477.87,2405.53 20200.32,2127.97 20092.37,2004.6 19814.82,1727.05 19706.87,1603.69 "/>
  <polygon class="fil1" points="9776.34,1542.01 9915.12,1572.85 10547.34,1773.31 11009.94,1927.51 11642.16,2127.97 11827.21,2189.65 11842.63,2205.07 11842.63,3346.15 11595.91,3469.52 10840.32,3839.6 10562.76,3962.96 10609.03,3546.61 10716.97,2775.61 10732.38,2544.32 10423.99,2235.91 10316.04,2112.55 10038.48,1834.99 9930.53,1711.62 9776.34,1557.43 "/>
  <polygon class="fil2" points="14710.77,1542.01 14864.97,1572.85 16376.13,2066.29 16761.63,2189.65 16777.06,2205.07 16777.06,3346.15 16067.74,3700.82 15713.08,3870.44 15543.45,3947.54 15512.62,3947.54 15528.03,3700.82 15682.23,2575.15 15589.72,2467.21 15342.99,2205.07 15111.7,1973.77 15003.76,1850.42 14710.77,1557.43 "/>
  <polygon class="fil2" points="-0,1572.85 77.09,1588.27 478.02,1711.63 894.37,1850.42 1619.1,2081.71 1942.93,2189.65 1958.34,2205.07 1958.34,3346.15 1696.21,3484.94 1341.55,3654.56 863.53,3885.87 724.74,3947.54 693.91,3947.54 693.91,3808.76 848.11,2729.35 863.53,2559.72 678.48,2374.68 570.54,2251.32 339.24,2020.02 231.3,1896.67 15.43,1680.78 "/>
  <polygon class="fil3" points="8943.65,1526.59 8974.5,1542.01 8619.84,1896.67 8511.9,2020.03 8265.17,2266.75 8157.23,2390.11 8003.03,2544.32 8018.45,2729.36 8172.66,3855.02 8172.66,3947.54 8110.97,3885.85 7972.19,3685.4 7756.31,3392.41 7154.94,2559.72 6939.05,2266.74 6908.22,2189.65 7463.33,2004.6 8511.9,1665.36 8804.88,1572.84 "/>
  <polygon class="fil3" points="13847.24,1542.01 13893.5,1557.43 13677.63,1773.31 13569.69,1896.67 13353.8,2112.55 13245.87,2235.91 12937.47,2544.32 13014.56,3145.69 13122.5,3947.54 13045.41,3870.44 12829.53,3577.46 12675.32,3361.58 12274.4,2806.45 12058.53,2513.47 11904.32,2297.6 11842.64,2205.07 11981.42,2143.39 12922.04,1834.99 13693.04,1588.27 "/>
  <polygon class="fil3" points="4009.22,1526.59 4024.65,1557.43 3577.46,2004.62 3469.52,2127.98 3068.6,2528.9 3068.6,2652.25 3207.38,3654.56 3238.22,3947.54 3161.12,3870.45 2976.08,3608.31 2775.62,3330.75 2559.74,3037.76 2405.53,2821.88 2205.09,2544.32 1989.2,2251.34 1973.78,2189.65 2528.91,2004.6 3377.01,1727.05 3808.77,1588.27 "/>
  <polygon class="fil3" points="18827.93,1526.59 18843.35,1557.43 18719.99,1665.37 18550.36,1850.42 18303.64,2097.14 18195.71,2220.49 17918.14,2498.06 17902.72,2528.9 17871.88,2528.89 18041.51,3777.92 18056.92,3947.54 17979.83,3870.44 17794.79,3608.3 17578.91,3315.32 16977.52,2482.63 16792.48,2235.91 16792.48,2189.65 17347.61,2004.6 18288.24,1696.2 18627.47,1588.26 "/>
  <polygon class="fil3" points="23669.84,1480.32 23685.26,1480.32 23685.26,1711.62 23654.41,1680.78 23361.43,1973.77 23253.49,2097.13 22975.93,2374.69 22867.99,2498.06 22821.73,2544.32 22837.15,2744.78 22991.35,3870.44 22991.35,3947.53 22929.67,3885.85 22744.63,3623.71 22528.74,3330.73 22374.54,3114.85 21973.62,2559.72 21757.73,2266.74 21726.9,2189.64 22282.02,2004.59 23423.11,1634.51 23608.15,1572.83 23669.84,1572.85 "/>
  <polygon class="fil4" points="1958.35,46.26 2020.03,123.37 2235.92,524.28 2467.21,956.05 2636.84,1264.46 3006.92,1341.55 3885.87,1495.75 3993.8,1526.59 3932.12,1572.85 3623.72,1665.37 2868.13,1912.09 2097.13,2158.81 1958.34,2189.66 "/>
  <polygon class="fil4" points="16777.06,46.26 16823.32,92.52 17085.46,585.97 17301.35,986.89 17455.54,1264.46 17825.63,1341.55 18766.25,1511.18 18812.51,1542.02 18704.57,1588.28 18442.44,1665.37 16823.33,2189.66 16777.06,2189.65 "/>
  <polygon class="fil4" points="11842.63,46.26 11888.89,107.95 12089.35,478.02 12320.65,909.8 12505.69,1249.03 12644.48,1295.3 13754.72,1495.75 13862.66,1526.59 13847.23,1557.44 13307.53,1727.06 12413.16,2020.04 11888.89,2189.67 11842.63,2189.65 "/>
  <polygon class="fil4" points="6908.21,61.69 6969.89,138.78 7247.45,663.07 7463.33,1063.99 7571.27,1249.03 7571.27,1279.87 7787.15,1310.72 8820.3,1495.76 8928.24,1526.6 8912.81,1557.45 8511.89,1680.8 7617.52,1973.78 6939.04,2189.67 6908.21,2189.65 "/>
  <polygon class="fil4" points="21726.9,61.69 21788.59,138.78 21973.63,493.44 22158.68,832.68 22343.72,1187.34 22389.98,1264.44 22775.48,1341.54 23639.01,1495.74 23669.85,1511.16 23669.85,1572.84 22898.85,1819.56 21819.43,2174.22 21726.91,2189.65 "/>
  <path class="fil5" d="M16746.22 0l61.68 0 200.46 370.09 462.61 863.51 385.5 77.1 940.62 169.62 92.52 30.84 -15.42 61.69 -200.46 200.46 -107.94 123.35 -231.3 231.3 -107.94 123.35 -308.41 308.41 15.43 185.04 30.84 169.63 30.83 277.56 30.84 231.29 30.84 169.63 30.84 231.3 0 185.04 -92.52 -15.42 -262.15 -123.37 -246.72 -123.35 -277.55 -123.37 -292.99 -154.2 -123.35 -61.69 -92.52 30.84 -724.74 354.66 -354.66 169.63 -107.94 46.26 -61.69 -15.42 0 -107.95 46.26 -262.14 138.78 -1017.72 -30.83 -61.69 -215.89 -231.29 -215.88 -215.89 -107.94 -123.35 -292.98 -292.98 -107.95 -123.37 0 -46.26 77.1 -30.84 1295.29 -231.3 46.26 -15.42 200.46 -385.5 185.04 -339.24 262.14 -493.44 15.41 -15.43zm30.84 46.26l0 2143.39 61.68 107.95 154.21 200.46 185.04 262.14 215.88 292.98 154.2 215.89 200.46 277.55 215.89 292.99 77.09 107.94 15.42 -61.69 -169.62 -1218.18 -15.43 -138.78 30.84 0 107.94 -123.35 277.56 -277.56 107.94 -123.37 277.56 -277.55 107.94 -123.37 61.69 -46.26 -15.43 -30.84 -555.12 -107.94 -771 -138.78 -61.69 -30.84 -215.88 -416.35 -185.04 -339.23 -231.3 -431.77 -30.83 -15.41zm-30.84 30.83l-154.2 262.15 -92.52 169.63 -215.88 416.34 -185.05 323.82 -169.62 46.26 -956.05 169.63 -262.15 46.26 15.43 61.68 370.07 370.09 107.94 123.37 277.56 277.55 107.94 123.37 92.52 107.94 -123.37 894.37 -46.26 354.66 0 123.35 92.52 -30.83 1156.51 -555.13 15.42 -15.43 0 -1141.08 -15.42 -2127.97 -15.41 -0.01z"/>
  <path class="fil6" d="M6861.94 0l77.09 15.42 462.6 863.53 185.05 339.24 46.26 30.84 1356.97 246.72 15.42 61.68 -185.04 200.46 -185.04 185.04 -107.94 123.37 -277.56 277.56 -107.94 123.35 -92.52 92.52 15.42 200.46 46.26 385.5 30.84 231.3 77.1 508.86 0 107.94 -61.69 15.43 -138.78 -61.69 -354.66 -169.63 -246.72 -123.35 -277.56 -123.37 -231.3 -123.35 -77.09 30.84 -447.19 215.88 -385.5 185.04 -354.66 169.63 -61.68 -15.43 15.42 -215.88 154.2 -1141.09 0 -77.09 -339.24 -339.24 -107.94 -123.35 -277.56 -277.56 -107.94 -123.37 -123.35 -123.35 -15.43 -46.26 30.84 -30.84 570.54 -107.94 771 -138.78 46.27 -15.43 431.76 -801.84 231.29 -431.76zm46.26 61.69l-15.42 709.32 0 -632.22 -61.69 -15.42 -185.04 354.66 -185.04 339.24 -215.89 400.92 -15.42 46.26 -431.76 77.09 -786.43 138.78 -185.04 30.84 46.27 77.1 138.77 138.78 107.95 123.35 231.29 231.3 107.94 123.35 339.24 339.24 -30.84 308.41 -138.78 1017.72 0 77.09 77.1 -15.42 755.58 -370.09 354.67 -169.63 92.51 -46.26 15.43 -1094.82 200.46 262.14 801.84 1110.25 169.63 231.3 61.69 92.52 15.44 0.01 -15.42 -200.46 -154.21 -1125.66 0 -77.1 246.72 -246.72 107.95 -123.35 246.72 -246.72 107.94 -123.37 262.14 -262.14 -46.26 -15.43 -277.56 -61.68 -1033.14 -185.04 -46.26 0 -30.84 -77.1 -262.14 -493.44 -185.04 -339.24 -169.63 -308.4 -15.41 0z"/>
  <path class="fil7" d="M11811.78 0l61.69 15.42 154.2 277.56 231.3 431.76 215.88 400.93 61.69 107.94 370.07 77.09 956.05 169.63 92.52 30.84 -15.42 61.68 -323.82 323.82 -107.94 123.35 -185.04 185.05 -107.94 123.35 -231.3 231.3 0 107.94 30.84 169.63 30.84 277.55 30.84 169.63 30.83 277.56 30.84 231.3 15.43 215.88 -92.52 -15.42 -215.88 -92.52 -292.99 -154.2 -138.78 -61.69 -570.54 -277.56 -308.4 138.78 -339.24 169.63 -354.66 169.62 -262.15 123.37 -61.68 -15.42 15.42 -185.05 154.2 -1125.66 0 -123.35 -200.46 -200.46 -107.94 -123.37 -277.56 -277.56 -107.94 -123.35 -246.72 -246.72 -15.42 -77.1 77.09 -30.83 1279.87 -231.3 61.67 -0.01 30.84 -92.52 431.76 -801.85 185.04 -339.24 15.41 -15.42zm0 46.26l-169.63 323.82 -185.04 339.23 -246.72 462.61 -46.26 77.09 -185.04 46.26 -416.35 77.1 -786.42 138.78 15.42 61.68 231.3 231.3 107.94 123.35 277.56 277.56 107.94 123.37 215.88 215.88 -15.42 231.3 -138.78 1002.3 -15.42 185.05 308.4 -138.78 370.09 -185.05 354.66 -169.62 246.72 -123.37 15.42 -1110.25 215.89 292.99 801.85 1110.23 215.88 292.99 30.84 15.42 -107.94 -801.85 -77.1 -601.38 400.93 -400.92 107.94 -123.37 215.88 -215.88 107.94 -123.37 123.37 -123.35 -30.84 -30.84 -277.56 -61.69 -1017.72 -185.04 -61.69 -30.84 -462.6 -863.51 -185.04 -339.24 -15.4 0.01 0 2143.39 -15.42 15.43 0 -2158.81 -15.43 0z"/>
  <polygon class="fil5" points="21680.65,0 21757.75,15.42 22220.34,878.94 22405.38,1218.18 22405.38,1249.03 22621.27,1279.87 23639,1464.91 23669.84,1480.33 23669.84,1511.18 23207.23,1434.08 22436.23,1295.3 22374.55,1264.46 22096.99,740.17 21881.1,339.24 21742.33,92.52 21726.9,2189.66 21711.49,2189.65 21711.49,77.09 21665.22,123.37 21511.03,416.35 21325.98,755.59 21094.68,1187.35 21017.59,1279.87 19676.04,1526.59 19706.87,1588.27 19814.82,1696.21 19922.76,1819.57 20200.32,2097.14 20308.26,2220.49 20585.82,2498.06 20585.82,2528.9 20616.66,2528.89 20632.08,2605.99 20477.87,3716.23 20462.46,3947.53 20832.54,3762.49 21187.2,3592.86 21665.22,3361.57 21711.49,3361.58 21711.49,2929.82 21726.91,2220.49 21788.59,2282.18 22590.44,3392.43 22806.31,3685.41 22975.94,3932.13 22945.1,3639.15 22806.31,2636.84 22806.31,2544.32 22945.1,2405.53 23053.04,2282.18 23330.6,2004.62 23438.55,1881.25 23654.42,1665.37 23669.84,1727.06 23361.44,2035.46 23253.49,2158.82 23006.77,2405.54 22898.84,2528.91 22867.99,2559.74 22867.99,2713.95 22914.26,2991.52 22945.1,3269.07 22975.94,3500.37 23006.78,3670 23037.63,3901.29 23037.63,3993.81 22960.52,4009.24 22713.8,3885.88 22436.24,3762.52 22143.26,3608.31 22004.48,3546.63 21726.91,3407.85 21634.4,3438.7 21202.63,3654.57 20493.31,3993.81 20400.79,4009.23 20400.79,3870.45 20570.42,2652.25 20570.42,2575.16 20385.37,2374.7 20231.18,2220.5 20123.23,2097.14 19876.51,1850.42 19768.57,1727.06 19598.95,1557.44 19598.95,1511.18 19768.57,1464.91 20971.34,1249.03 21017.61,1233.61 21480.2,370.09 "/>
  <polygon class="fil7" points="1927.51,0 1989.2,0 2189.66,370.09 2374.7,709.32 2636.84,1202.77 2652.25,1249.03 2852.71,1279.87 3978.39,1480.32 4070.9,1511.16 4055.48,1572.85 3947.54,1680.79 3839.6,1804.15 3577.46,2066.29 3469.52,2189.65 3191.96,2467.21 3099.43,2575.15 3145.71,2960.65 3176.54,3130.28 3238.23,3639.15 3269.07,3855.02 3269.07,4009.22 3176.55,3993.8 2883.57,3855.02 2636.85,3731.67 2359.28,3608.3 2066.3,3454.1 1973.78,3407.83 1881.26,3438.68 1542.02,3608.3 740.18,3993.8 647.66,4009.22 647.66,3855.02 817.28,2621.42 801.86,2559.73 555.14,2297.6 339.26,2081.71 231.32,1958.35 15.44,1742.48 0.02,1649.96 339.26,1989.2 447.2,2112.55 678.5,2343.86 786.44,2467.21 878.95,2559.73 832.69,2929.82 709.34,3808.76 693.91,3947.54 1202.78,3700.82 1942.94,3346.15 1958.35,2220.49 2035.46,2297.6 2189.66,2498.06 2343.86,2713.93 2744.79,3269.06 2960.66,3562.04 3161.12,3839.6 3222.81,3932.12 3176.54,3546.61 3053.18,2652.25 3053.18,2528.89 3546.62,2035.45 3654.56,1912.09 3932.13,1634.53 3993.81,1557.43 4009.23,1542.01 3623.73,1464.91 2852.72,1326.13 2636.85,1279.87 2559.74,1156.51 2374.7,801.85 2189.66,462.61 1989.2,92.52 1958.35,77.1 1912.09,123.37 1480.33,925.21 1310.71,1233.62 1249.03,1279.88 678.48,1387.82 77.09,1495.76 -0,1495.75 15.42,1464.9 1218.19,1249.03 1264.46,1233.6 1449.5,878.94 1634.54,539.7 1896.69,46.26 "/>
  <polygon class="fil8" points="16761.63,2220.49 16777.06,2220.49 16777.06,3346.15 16067.74,3700.82 15713.08,3870.44 15543.45,3947.54 15512.62,3932.12 15713.07,3654.56 15928.95,3361.57 16129.41,3084.01 16345.29,2791.03 16499.49,2575.15 16699.95,2297.59 "/>
  <polygon class="fil9" points="14710.77,1542.01 14864.97,1572.85 16376.13,2066.29 16746.22,2189.65 16730.8,2220.49 15882.69,2498.06 15728.49,2544.32 15651.39,2528.9 15497.19,2374.7 15389.25,2251.34 15111.69,1973.77 15003.75,1850.42 14710.77,1557.43 "/>
  <polygon class="fil8" points="1942.93,2220.49 1958.35,2220.49 1958.35,3346.15 1696.21,3484.94 1341.55,3654.56 863.53,3885.87 724.74,3947.54 693.91,3932.13 863.53,3700.82 1063.99,3423.26 1279.87,3130.28 1881.25,2297.6 "/>
  <polygon class="fil9" points="9776.34,1542.01 9915.12,1572.85 10547.34,1773.31 11009.94,1927.51 11642.16,2127.97 11811.78,2189.65 11780.94,2220.49 11225.82,2405.53 10794.05,2544.32 10716.96,2528.9 10423.97,2235.92 10316.04,2112.55 10038.47,1834.99 9930.53,1711.63 9776.32,1557.43 "/>
  <polygon class="fil9" points="19660.62,1542.01 19753.14,1557.43 20215.74,1711.63 20709.18,1865.83 21171.77,2020.03 21696.06,2189.66 21665.22,2220.5 20770.85,2513.48 20616.66,2544.33 20200.31,2127.98 20092.37,2004.63 19814.81,1727.06 19706.87,1603.7 "/>
  <polygon class="fil9" points="4841.91,1542.01 4919.01,1557.43 5319.94,1680.79 5705.44,1804.15 6260.56,1989.2 6877.36,2189.65 6846.52,2220.49 5952.16,2513.48 5797.95,2544.32 5366.19,2112.55 5258.25,1989.2 5026.94,1757.9 4919.01,1634.53 "/>
  <polygon class="fil10" points="21696.07,2220.49 21711.49,2220.49 21711.49,3361.58 21279.72,3562.04 20878.8,3762.5 20524.15,3932.12 20447.04,3962.96 20477.88,3901.28 20662.93,3639.13 20878.8,3346.15 21079.26,3068.59 21295.15,2775.61 21449.35,2559.72 21649.81,2282.17 "/>
  <polygon class="fil11" points="1973.77,2205.07 2127.98,2251.34 2883.56,2498.06 3053.18,2559.74 3207.38,3654.56 3238.23,3947.54 3161.13,3870.45 2976.09,3608.31 2775.63,3330.75 2559.74,3037.76 2405.54,2821.88 2205.09,2544.32 1989.21,2251.34 "/>
  <polygon class="fil11" points="6908.21,2205.07 7062.4,2251.34 7725.47,2467.21 7972.19,2544.32 8003.03,2621.41 8172.66,3855.01 8172.66,3947.53 8110.97,3885.85 7972.19,3685.4 7756.31,3392.4 7154.94,2559.72 6939.05,2266.74 "/>
  <polygon class="fil11" points="21726.9,2205.07 21881.1,2251.34 22544.17,2467.21 22790.89,2544.32 22821.73,2636.83 22991.36,3870.44 22991.36,3947.53 22929.67,3885.85 22744.63,3623.71 22528.75,3330.73 22374.55,3114.85 21973.62,2559.72 21757.75,2266.74 "/>
  <polygon class="fil11" points="11842.63,2205.07 11904.32,2220.49 12675.32,2467.21 12906.61,2544.32 12937.46,2575.15 13122.5,3916.71 13107.08,3947.54 12952.87,3747.09 11950.58,2359.28 11842.64,2220.5 "/>
  <polygon class="fil8" points="6877.36,2220.49 6892.79,2220.49 6892.79,3346.15 6599.8,3500.36 6090.94,3747.08 5674.59,3947.54 5628.33,3932.12 5782.53,3731.67 5936.73,3515.78 6152.62,3222.8 6754,2390.11 "/>
  <polygon class="fil11" points="16792.48,2205.07 16946.68,2251.34 17841.05,2544.32 17871.89,2575.16 18056.93,3885.87 18041.51,3947.55 17825.63,3654.57 17023.78,2544.33 16807.91,2251.35 "/>
  <polygon class="fil9" points="-0,1572.85 77.09,1588.27 478.02,1711.63 894.37,1850.42 1619.1,2081.71 1927.51,2189.65 1912.09,2220.49 1063.99,2498.06 909.79,2544.32 832.69,2528.9 678.48,2374.7 570.54,2251.34 339.24,2020.03 231.3,1896.68 15.43,1680.8 "/>
  <polygon class="fil8" points="11811.78,2220.49 11827.21,2220.49 11827.21,3361.58 11441.71,3546.62 10840.32,3839.6 10562.76,3962.97 10562.76,3932.13 10593.6,3932.12 10624.44,3855.02 10855.75,3546.61 11056.21,3269.06 11272.08,2976.07 11426.28,2760.19 11626.74,2482.63 "/>
  <polygon class="fil12" points="6861.94,0 6939.04,15.42 7401.63,878.94 7586.69,1218.18 7632.95,1249.03 8912.81,1480.32 8974.5,1511.16 8928.24,1542.01 8650.67,1480.32 7617.52,1295.28 7571.26,1279.86 7417.06,1002.3 7154.91,508.86 6939.04,107.94 6923.62,92.51 6908.19,2189.65 6892.79,2189.65 6877.36,771 6877.36,385.5 6892.79,138.78 6831.1,123.37 6800.26,215.88 6568.95,647.64 6383.91,986.88 6229.71,1264.44 5982.99,1326.13 5181.14,1464.91 4857.33,1526.59 4888.17,1588.28 5026.94,1727.06 5134.89,1850.42 5366.19,2081.72 5474.12,2205.09 5767.12,2498.07 5767.12,2528.91 5813.38,2544.33 5782.53,2852.74 5643.75,3870.46 5628.33,3947.55 6060.1,3747.09 6461.01,3546.63 6815.68,3377.02 6908.19,3346.18 6908.19,2220.51 6969.88,2282.19 7170.34,2559.75 7216.6,2621.44 7201.19,2652.28 7154.91,2606.02 7154.91,2575.17 7124.08,2575.15 7077.82,2528.89 7031.56,2528.89 7046.99,2605.99 7046.99,2806.45 7062.4,3099.43 7046.99,3161.11 7062.4,3253.63 7000.73,3361.57 6954.46,3361.58 6939.04,3407.84 6861.94,3423.26 6353.08,3669.99 5643.76,4009.22 5582.07,3993.8 5597.5,3777.93 5751.7,2636.84 5751.7,2559.74 5412.46,2220.5 5304.52,2097.14 5026.96,1819.58 4919.02,1696.22 4795.65,1572.85 4780.24,1526.59 4811.08,1495.75 5381.62,1387.81 6152.63,1249.03 6198.89,1233.61 6630.65,431.76 "/>
  <polygon class="fil13" points="11811.78,0 11873.47,15.42 12027.67,292.98 12258.97,724.74 12474.85,1125.67 12536.54,1233.61 12906.61,1310.71 13847.24,1480.33 13878.09,1542.02 13492.59,1464.91 12567.37,1295.3 12490.28,1249.03 12027.68,385.51 11858.06,77.1 11858.06,2205.07 11827.21,2205.07 11811.78,77.1 11657.59,370.09 11472.54,709.33 11225.82,1171.92 11164.13,1264.44 10979.09,1310.71 10562.75,1387.81 9791.74,1526.59 9822.59,1588.27 10038.46,1804.15 10146.4,1927.51 10423.96,2205.07 10531.9,2328.43 10747.79,2544.32 10732.36,2775.61 10593.58,3777.92 10578.16,3947.54 11241.23,3623.72 11595.89,3454.1 11827.19,3346.15 11842.61,2220.49 11919.7,2297.6 12120.16,2575.15 12166.43,2636.84 12151,2667.68 12058.48,2559.74 12012.22,2528.9 11965.99,2528.89 11981.41,2667.67 11981.41,2806.45 12012.25,3099.43 11996.83,3161.12 12012.25,3269.06 11981.41,3269.06 11965.99,3361.58 11919.72,3407.84 11873.46,3423.26 11827.2,3407.84 11194.98,3716.25 10840.32,3885.87 10578.17,4009.23 10516.5,3993.81 10531.91,3808.76 10686.11,2683.1 10686.11,2559.74 10485.65,2359.28 10377.71,2235.92 10100.15,1958.35 9992.21,1835 9745.49,1588.28 9730.07,1511.18 9807.17,1480.34 11087.04,1249.04 11148.73,1249.03 11179.57,1156.51 11611.34,354.66 11796.38,15.42 "/>
  <path class="fil12" d="M16746.22 0l61.68 0 200.46 370.09 462.61 863.51 385.5 77.1 940.62 169.62 15.43 46.27 -200.46 -30.84 -1110.25 -200.46 -77.09 -46.26 -215.88 -416.35 -185.05 -339.24 -231.29 -431.76 0 2127.97 61.68 107.94 154.21 200.46 107.94 154.2 -15.43 30.84 -138.78 -154.2 -46.26 0 15.42 92.52 0 508.87 15.42 107.94 -92.51 138.78 -61.69 -15.43 0 30.84 -400.92 200.46 -801.85 385.5 -77.09 30.84 -61.69 -15.43 0 -107.94 46.26 -262.14 138.78 -1017.72 -30.84 -61.69 -215.88 -231.3 -215.88 -215.88 -107.94 -123.35 -292.99 -292.99 -107.94 -123.35 0 -46.26 77.1 -30.84 1295.28 -231.3 46.27 -15.42 200.46 -385.5 185.04 -339.24 262.14 -493.44 15.42 -15.42zm0 77.09l-154.2 262.15 -92.52 169.63 -215.88 416.34 -185.05 323.82 -169.62 46.26 -956.05 169.63 -262.15 46.26 15.43 61.68 370.07 370.09 107.94 123.37 277.56 277.55 107.94 123.37 92.52 107.94 -123.37 894.37 -46.26 354.66 0 123.35 92.52 -30.83 1156.51 -555.13 15.42 -15.43 0 -1141.08 -15.42 -2127.97 -15.41 -0.01z"/>
  <polygon class="fil14" points="21680.65,0 21757.75,15.42 22220.34,878.94 22405.38,1218.18 22405.38,1249.03 22621.27,1279.87 23639,1464.91 23669.84,1480.33 23669.84,1511.18 23207.23,1434.08 22436.23,1295.3 22374.55,1264.46 22096.99,740.17 21881.1,339.24 21742.33,92.52 21726.9,2189.66 21711.49,2189.65 21711.49,77.09 21665.22,123.37 21511.03,416.35 21325.98,755.59 21094.68,1187.35 21017.59,1279.87 19676.04,1526.59 19706.87,1588.27 19814.82,1696.21 19922.76,1819.57 20200.32,2097.14 20308.26,2220.49 20585.82,2498.06 20585.82,2528.9 20616.66,2528.89 20632.08,2605.99 20477.87,3716.23 20462.46,3947.53 20832.54,3762.49 21187.2,3592.86 21665.22,3361.57 21711.49,3361.58 21711.49,2929.82 21726.91,2220.49 21788.59,2282.18 21989.05,2559.74 22035.31,2621.42 22035.31,2652.27 22004.47,2652.25 21942.78,2575.15 21942.78,2544.32 21865.68,2544.32 21865.68,2852.71 21881.1,3130.28 21881.1,3269.06 21834.84,3361.58 21788.58,3377 21788.58,3423.26 21696.06,3407.84 21202.62,3654.56 20493.3,3993.8 20400.78,4009.22 20400.78,3870.44 20570.41,2652.25 20570.41,2575.15 20385.36,2374.7 20231.15,2220.49 20123.22,2097.14 19876.5,1850.42 19768.56,1727.05 19598.93,1557.43 19598.93,1511.16 19768.56,1464.9 20971.32,1249.03 21017.59,1233.6 21480.19,370.09 "/>
  <polygon class="fil14" points="-0,1649.95 339.24,1989.19 447.18,2112.55 678.48,2343.85 786.42,2467.21 878.94,2559.72 832.67,2929.81 709.32,3808.75 693.89,3947.53 1202.76,3700.81 1942.92,3346.15 1958.34,2220.49 2035.44,2297.59 2189.64,2498.04 2266.74,2605.98 2251.31,2636.83 2189.64,2575.14 2189.64,2544.29 2097.12,2513.46 2112.53,2636.82 2112.53,2821.86 2127.96,3037.75 2112.53,3114.84 2127.96,3253.62 2066.27,3376.98 2020.03,3377 2004.62,3407.84 1912.09,3423.26 1542.02,3608.31 740.17,3993.81 647.65,4009.23 647.65,3855.03 817.28,2621.42 801.85,2559.74 555.13,2297.6 339.25,2081.72 231.31,1958.35 15.44,1742.48 "/>
  <polygon class="fil15" points="6908.21,2220.49 6969.89,2282.18 7170.34,2559.74 7216.61,2621.42 7201.19,2652.27 7154.93,2606 7154.93,2575.16 7124.08,2575.15 7077.82,2528.89 7031.56,2528.89 7046.99,2605.99 7046.99,2806.45 7062.4,3099.43 7046.99,3161.11 7062.4,3253.63 7000.73,3361.57 6954.46,3361.58 6939.04,3407.84 6861.94,3423.26 6353.08,3669.99 5643.76,4009.22 5582.07,3993.8 5597.5,3777.93 5705.44,2991.5 5751.7,2929.82 5751.7,3084.02 5643.76,3870.44 5628.33,3947.54 6060.11,3747.08 6461.03,3546.62 6815.68,3377 6908.21,3346.15 "/>
  <polygon class="fil16" points="11842.63,2220.49 11919.72,2297.6 12120.18,2575.15 12166.44,2636.84 12151.03,2667.68 12058.5,2559.74 12012.24,2528.9 11965.99,2528.89 11981.41,2667.67 11981.41,2806.45 12012.25,3099.43 11996.83,3161.12 12012.25,3269.06 11981.41,3269.06 11965.99,3361.58 11919.72,3407.84 11873.46,3423.26 11827.2,3407.84 11194.98,3716.25 10840.32,3885.87 10578.17,4009.23 10516.5,3993.81 10531.91,3808.76 10562.76,3623.72 10593.6,3623.72 10593.6,3777.93 10578.18,3947.54 11241.25,3623.73 11595.91,3454.1 11827.21,3346.16 "/>
  <polygon class="fil17" points="14726.19,1588.27 14787.87,1619.11 15111.69,1942.93 15219.63,2066.29 15497.19,2343.86 15605.13,2467.21 15697.65,2575.15 15574.29,3469.52 15512.61,3947.54 16021.46,3700.82 16761.63,3346.15 16792.47,3392.43 16391.55,3592.88 15589.7,3978.39 15512.61,4009.22 15450.92,3993.8 15450.92,3885.87 15497.19,3623.72 15635.96,2605.99 15605.13,2544.32 15389.24,2313.01 15173.37,2097.14 15065.43,1973.77 14772.45,1680.79 14726.19,1619.1 "/>
  <polygon class="fil18" points="16761.63,1218.19 16777.06,1218.19 16792.48,2189.65 16854.17,2297.6 17008.37,2498.06 17116.3,2652.25 17100.89,2683.1 16962.1,2528.89 16915.84,2528.89 16931.26,2621.41 16931.26,3130.28 16946.68,3238.22 16854.17,3377 16777.06,3346.15 16761.65,2205.06 "/>
  <polygon class="fil13" points="1927.51,0 1989.2,0 2189.66,370.09 2374.7,709.32 2636.84,1202.77 2652.25,1249.03 2852.71,1279.87 3978.39,1480.32 4070.9,1511.16 4055.48,1572.85 3978.39,1619.11 3947.54,1634.53 3978.39,1572.85 4024.65,1557.43 3885.87,1511.16 2852.71,1326.12 2636.84,1279.86 2559.74,1156.5 2374.7,801.84 2189.66,462.6 1989.2,92.52 1958.35,77.09 1912.09,123.37 1480.32,925.2 1310.71,1233.61 1249.02,1279.87 678.47,1387.81 77.09,1495.75 -0,1495.75 15.42,1464.9 1218.19,1249.03 1264.46,1233.6 1449.5,878.94 1634.54,539.7 1896.69,46.26 "/>
  <polygon class="fil19" points="21680.65,0 21757.75,15.42 22220.34,878.94 22405.38,1218.18 22405.38,1249.03 22621.27,1279.87 23639,1464.91 23669.84,1480.33 23669.84,1511.18 23207.23,1434.08 22436.23,1295.3 22374.55,1264.46 22096.99,740.17 21881.1,339.24 21742.33,92.52 21726.9,2189.66 21711.49,2189.65 21711.49,77.09 21665.22,123.37 21511.03,416.35 21325.98,755.59 21110.1,1156.51 21079.26,1125.66 21264.31,771 21449.35,431.76 "/>
  <polygon class="fil20" points="11164.15,1187.35 11194.99,1187.35 11164.15,1264.44 10979.1,1310.71 10562.76,1387.81 9791.75,1526.59 9822.6,1588.27 10038.47,1804.15 10146.41,1927.51 10423.97,2205.07 10531.91,2328.43 10747.79,2544.32 10732.37,2775.61 10609.01,3654.56 10593.59,3623.72 10562.76,3623.72 10639.86,3022.34 10686.12,2683.1 10686.12,2559.74 10485.66,2359.28 10377.72,2235.92 10100.16,1958.35 9992.22,1835 9745.5,1588.28 9730.07,1511.18 9807.18,1480.34 11087.04,1249.04 11148.73,1249.03 "/>
  <polygon class="fil21" points="13847.24,1480.32 13955.18,1511.16 13939.76,1572.85 13615.94,1896.67 13508,2020.03 13322.96,2205.07 13215.02,2328.43 12983.72,2559.73 12983.72,2667.67 13014.56,2837.3 13045.41,3114.86 13076.25,3284.49 13107.08,3562.04 13137.93,3793.34 13153.35,4009.22 13060.83,3993.8 13014.57,3947.54 13122.51,3978.39 13060.82,3592.88 12922.04,2575.15 12952.88,2513.47 13322.97,2143.39 13430.91,2020.03 13646.78,1804.15 13754.72,1680.79 13878.09,1557.43 13878.09,1511.16 13831.83,1495.75 "/>
  <polygon class="fil22" points="6214.29,1202.77 6245.14,1233.61 6198.88,1279.87 5797.95,1356.98 5011.53,1495.75 4857.33,1526.59 4888.17,1588.28 5026.94,1727.06 5134.89,1850.42 5366.19,2081.72 5474.12,2205.09 5767.12,2498.07 5767.12,2528.91 5813.38,2544.33 5782.53,2852.74 5767.12,2960.67 5720.85,2960.65 5751.7,2559.73 5412.46,2220.49 5304.52,2097.14 5026.96,1819.57 4919.02,1696.21 4795.65,1572.85 4780.24,1526.59 4811.08,1495.75 5381.62,1387.81 6152.63,1249.03 6198.89,1233.6 "/>
  <polygon class="fil23" points="8959.07,1495.75 9005.34,1511.16 8989.91,1572.85 8820.3,1757.9 8635.25,1942.94 8527.31,2066.3 8249.74,2343.86 8141.81,2467.22 8049.29,2559.74 8064.71,2760.2 8110.97,3145.71 8141.82,3377 8218.91,3885.87 8218.91,3993.8 8157.23,4009.22 8141.81,3978.39 8188.07,3978.39 8141.81,3747.08 7987.61,2621.42 7987.61,2544.32 8234.33,2297.6 8342.26,2174.24 8588.98,1927.52 8696.92,1804.16 8959.07,1542.02 "/>
  <polygon class="fil23" points="18812.51,1495.75 18889.6,1511.16 18874.19,1572.85 18673.73,1773.31 18565.79,1896.67 18334.49,2127.97 18226.55,2251.32 17918.14,2559.73 17933.57,2744.78 17964.41,2914.4 17995.25,3191.97 18026.09,3423.26 18056.93,3592.88 18072.35,3762.51 18072.35,3916.71 18041.51,3885.87 17871.89,2667.68 17871.89,2528.9 17902.72,2528.89 17933.57,2467.21 18272.81,2127.97 18380.75,2004.6 18658.31,1727.05 18766.25,1603.69 18827.93,1542 "/>
  <polygon class="fil24" points="4009.22,1572.85 4040.06,1588.27 3793.34,1850.42 3577.47,2066.29 3469.53,2189.65 3191.97,2467.21 3099.44,2575.15 3145.71,2960.65 3176.55,3130.28 3238.24,3639.15 3269.07,3855.02 3269.07,4009.22 3207.38,4009.22 3207.38,3978.39 3253.64,3978.39 3207.38,3793.33 3068.6,2760.19 3053.17,2652.25 3053.17,2528.89 3546.61,2035.45 3654.56,1912.09 3901.28,1665.37 "/>
  <polygon class="fil25" points="21079.26,1141.09 21094.68,1187.35 21017.59,1279.87 19676.04,1526.59 19706.87,1588.27 19814.82,1696.21 19922.76,1819.57 20200.32,2097.14 20308.26,2220.49 20585.82,2498.06 20585.82,2528.9 20616.66,2528.89 20632.08,2605.99 20616.66,2729.35 20601.24,2729.36 20570.4,2575.15 20385.35,2374.7 20231.15,2220.49 20123.22,2097.14 19876.48,1850.42 19768.55,1727.05 19598.93,1557.43 19598.93,1511.16 19768.55,1464.9 20971.32,1249.03 21017.59,1233.6 "/>
  <polygon class="fil26" points="23654.41,1665.37 23669.84,1727.05 23361.43,2035.46 23253.49,2158.81 23006.77,2405.53 22898.84,2528.9 22867.99,2559.74 22867.99,2713.94 22914.25,2991.51 22945.1,3269.07 22975.94,3500.36 23006.77,3669.99 23022.2,3962.97 22991.36,3901.29 22960.51,3747.09 22806.31,2636.85 22806.31,2544.33 22945.1,2405.54 23053.03,2282.18 23330.6,2004.63 23438.54,1881.26 "/>
  <polygon class="fil27" points="16761.63,3346.15 16792.48,3392.43 16391.56,3592.88 15589.71,3978.39 15512.62,4009.22 15450.93,3993.8 15450.93,3885.87 15497.19,3885.87 15497.19,3962.96 15743.91,3839.6 16530.34,3454.1 "/>
  <polygon class="fil20" points="-0,1649.95 339.24,1989.19 447.18,2112.55 678.48,2343.85 786.42,2467.21 878.94,2559.72 832.67,2929.81 801.84,2868.12 801.84,2713.92 817.25,2575.14 709.32,2467.2 601.38,2343.85 339.23,2081.7 231.29,1958.34 15.42,1742.46 "/>
  <polygon class="fil28" points="8033.87,2528.89 8049.29,2559.73 8064.71,2760.19 8110.97,3145.69 8141.82,3377 8218.91,3885.85 8218.91,3993.79 8157.23,4009.22 8141.81,3978.38 8188.07,3978.39 8141.81,3747.08 7987.61,2621.42 7987.61,2544.32 "/>
  <polygon class="fil29" points="3084.02,2498.06 3114.86,2513.48 3084.02,2559.74 3114.86,2683.1 3145.71,2960.66 3176.54,3130.29 3238.23,3639.15 3269.07,3855.03 3269.07,4009.23 3207.38,4009.22 3207.38,3978.39 3253.64,3978.39 3207.38,3793.33 3068.6,2760.19 3053.17,2652.25 3053.17,2528.89 "/>
  <polygon class="fil30" points="12937.46,2636.84 12983.72,2667.68 13014.56,2837.31 13045.41,3114.86 13076.25,3284.49 13107.08,3562.05 13137.93,3793.35 13153.35,4009.23 13060.83,3993.81 13014.57,3947.54 13122.51,3978.39 13060.82,3592.88 12937.47,2698.53 "/>
  <polygon class="fil31" points="15651.39,2683.1 15666.82,2683.1 15651.39,2929.82 15528.03,3824.18 15528.03,3962.96 15497.19,3962.96 15497.19,3885.87 15466.35,3885.87 15512.62,3515.78 15620.56,2713.93 "/>
  <polygon class="fil31" points="20570.4,2652.25 20601.24,2652.25 20601.24,2852.71 20477.87,3716.23 20462.46,3870.44 20416.2,3839.59 20431.61,3654.55 "/>
  <polygon class="fil32" points="2852.71,1295.29 3037.77,1310.71 3978.39,1480.33 4070.91,1511.18 4055.49,1572.85 3978.39,1619.12 3947.54,1634.54 3978.39,1572.85 4024.65,1557.44 3885.87,1511.18 2852.72,1326.13 "/>
  <polygon class="fil33" points="22374.55,1233.6 23639,1464.9 23669.84,1480.32 23669.84,1511.16 23207.23,1434.07 22436.23,1295.29 22374.55,1264.44 "/>
  <polygon class="fil34" points="11164.15,1187.35 11194.99,1187.35 11164.15,1264.44 10979.1,1310.71 10562.76,1387.81 9791.75,1526.59 9776.32,1588.27 9745.5,1588.27 9730.07,1511.18 9807.18,1480.33 11087.04,1249.03 11148.73,1249.03 "/>
  <polygon class="fil35" points="1372.39,1063.99 1387.81,1094.83 1295.3,1249.03 1187.35,1295.3 77.12,1495.75 -0,1495.75 15.42,1464.9 1218.19,1249.03 1264.46,1233.6 1341.55,1079.4 "/>
  <polygon class="fil36" points="21063.85,3654.56 21094.69,3669.99 21033,3731.67 20678.34,3901.29 20447.04,4009.23 20400.78,4009.22 20400.78,3870.44 20447.04,3824.18 20462.47,3947.54 20832.54,3762.5 "/>
  <polygon class="fil29" points="17933.57,2806.45 17948.99,2806.45 17995.25,3191.96 18026.09,3423.26 18056.93,3592.88 18072.35,3762.5 18072.35,3916.71 18041.51,3885.87 17918.15,2991.5 "/>
  <polygon class="fil29" points="22883.41,2883.56 22898.84,2883.56 22945.1,3269.06 22975.94,3500.36 23006.77,3669.99 23022.2,3962.97 22991.36,3901.28 22960.51,3747.08 22867.99,3068.6 "/>
  <polygon class="fil37" points="15867.28,1279.87 15928.95,1310.71 14972.91,1480.33 14726.19,1526.59 14741.61,1588.28 14695.34,1588.27 14664.51,1557.43 14664.51,1511.16 14741.6,1480.32 "/>
  <polygon class="fil38" points="10670.71,2898.97 10701.54,2914.39 10686.12,3130.28 10609.03,3654.56 10593.6,3623.72 10562.76,3623.72 10639.86,3022.34 10655.28,2914.4 "/>
  <polygon class="fil39" points="6723.16,292.98 6738.58,323.82 6461.01,848.11 6260.56,1218.19 6229.72,1218.19 6260.56,1125.67 6538.12,601.39 6692.33,323.82 "/>
  <polygon class="fil40" points="786.42,2837.3 817.26,2868.14 817.26,3037.76 740.17,3577.47 709.33,3515.78 724.74,3299.9 "/>
  <polygon class="fil32" points="1788.73,292.98 1804.16,323.82 1588.27,724.74 1403.23,1063.99 1372.39,1063.99 1403.24,971.47 1665.37,478.02 1757.9,308.41 "/>
  <polygon class="fil41" points="11534.23,3484.94 11565.07,3500.36 11565.07,3531.21 11194.99,3716.25 11056.21,3777.93 11009.95,3762.51 11056.21,3716.25 "/>
  <polygon class="fil30" points="3161.12,3330.74 3191.96,3330.74 3253.64,3700.82 3269.06,3855.02 3269.06,4009.22 3207.38,4009.22 3207.38,3978.39 3253.64,3978.39 3207.38,3793.33 3161.11,3423.26 "/>
  <polygon class="fil42" points="20123.22,1403.23 20169.48,1418.64 20169.48,1434.07 19676.04,1526.59 19753.14,1680.79 19691.45,1649.95 19598.93,1557.43 19598.93,1511.16 19768.56,1464.9 "/>
  <polygon class="fil43" points="6214.29,3669.98 6245.14,3685.4 6260.56,3716.24 5828.79,3916.7 5782.53,3901.28 5828.79,3855.01 "/>
  <polygon class="fil44" points="15805.59,3808.76 15836.43,3824.18 15774.74,3885.87 15512.61,4009.22 15450.92,3993.8 15450.92,3885.87 15497.19,3885.87 15497.19,3962.96 15743.91,3839.6 "/>
  <polygon class="fil45" points="8959.07,1495.75 9005.34,1511.16 8989.91,1572.85 8820.3,1757.9 8743.19,1834.99 8666.1,1881.25 8619.84,1912.09 8650.67,1850.42 8959.08,1542.01 "/>
  <polygon class="fil46" points="18087.77,2343.86 18118.61,2359.27 17918.15,2559.73 17933.57,2744.78 17933.57,2898.99 17902.74,2883.56 17871.89,2667.68 17871.89,2528.9 17948.99,2482.64 "/>
  <polygon class="fil47" points="13847.24,1480.32 13955.18,1511.16 13939.76,1572.85 13800.98,1711.63 13739.29,1742.48 13662.2,1804.16 13693.04,1742.48 13878.09,1557.43 13878.09,1511.16 13831.83,1495.75 "/>
  <polygon class="fil48" points="20431.62,3824.18 20447.04,3824.18 20462.46,3947.54 20647.5,3855.02 20678.34,3870.44 20662.93,3916.71 20447.04,4009.22 20400.78,4009.22 20400.78,3870.44 "/>
  <polygon class="fil49" points="10562.76,3623.72 10593.6,3623.72 10593.6,3777.93 10578.18,3947.54 10609.03,3962.97 10578.18,4009.23 10516.5,3993.81 10531.92,3808.76 "/>
  <polygon class="fil50" points="8465.63,1403.23 8912.81,1480.32 8974.5,1511.16 8928.24,1542.01 8650.67,1480.32 8450.21,1434.06 "/>
  <polygon class="fil29" points="8033.87,2528.89 8049.29,2559.73 8080.13,2960.65 8033.87,2945.24 7987.61,2621.42 7987.61,2544.32 "/>
  <polygon class="fil13" points="5797.95,2544.32 5813.38,2605.99 5767.12,2960.65 5720.85,2960.65 5736.28,2760.2 5767.12,2575.15 5797.95,2575.15 "/>
  <polygon class="fil22" points="18334.49,1403.23 18797.08,1480.32 18812.51,1526.59 18612.05,1495.75 18349.91,1449.49 "/>
  <polygon class="fil37" points="13400.05,1403.23 13770.14,1464.91 13847.23,1480.33 13878.08,1542.02 13492.57,1464.91 13384.64,1434.08 "/>
  <polygon class="fil22" points="23191.82,1387.81 23561.89,1449.49 23669.84,1480.33 23669.84,1511.18 23207.23,1434.08 "/>
  <polygon class="fil51" points="17995.25,3454.1 18026.08,3454.1 18056.92,3592.88 18072.35,3762.5 18072.35,3916.71 18041.51,3885.87 17995.25,3546.62 "/>
  <polygon class="fil29" points="12937.46,2636.84 12983.72,2667.68 13014.56,2837.31 13029.98,3037.76 12983.72,3022.34 12937.46,2698.53 "/>
  <polygon class="fil52" points="22945.1,3531.21 22975.94,3531.21 23006.77,3669.99 23022.2,3962.97 22991.36,3901.28 22960.51,3747.08 "/>
  <polygon class="fil53" points="23654.41,1665.37 23669.84,1727.05 23546.47,1850.42 23469.38,1896.68 23361.44,2004.62 23361.44,1958.35 "/>
  <polygon class="fil40" points="10670.71,2898.97 10701.54,2914.39 10686.12,3130.28 10670.71,3238.22 10624.43,3207.37 10639.86,3022.33 10655.28,2914.39 "/>
  <polygon class="fil40" points="3793.34,1449.49 4040.06,1495.75 4070.91,1511.18 4055.49,1572.85 3978.39,1619.12 3947.54,1634.54 3978.39,1572.85 4024.65,1557.44 3885.87,1511.18 3793.35,1495.75 "/>
  <polygon class="fil40" points="5736.28,2929.82 5751.7,2929.82 5751.7,3084.02 5720.85,3315.32 5705.44,3315.32 5690.01,3222.8 5690.01,3099.43 5720.85,2960.65 "/>
  <polygon class="fil24" points="22837.16,2575.15 22852.57,2575.15 22883.42,2821.88 22883.42,2976.08 22852.57,2960.65 22821.73,2744.78 22821.73,2636.84 "/>
  <polygon class="fil54" points="9976.81,1449.49 10100.16,1449.49 10038.48,1480.33 9791.75,1526.59 9776.34,1588.28 9745.5,1588.27 9730.07,1511.18 9807.18,1480.33 "/>
  <polygon class="fil34" points="3438.69,1387.81 3793.34,1449.49 3793.34,1480.33 3623.72,1464.91 3454.1,1434.07 "/>
  <polygon class="fil55" points="15497.19,3623.72 15528.03,3623.72 15528.03,3962.96 15497.19,3962.96 15497.19,3885.87 15466.35,3885.87 "/>
  <polygon class="fil50" points="20570.4,2652.25 20601.24,2652.25 20601.24,2852.71 20585.82,2960.65 20539.55,2945.22 20554.98,2760.18 "/>
  <polygon class="fil54" points="11796.37,46.26 11811.79,77.1 11657.6,370.09 11626.75,354.67 11657.6,277.56 11765.53,61.69 "/>
  <polygon class="fil56" points="8049.29,2960.65 8080.13,2960.65 8110.96,3145.71 8110.96,3299.9 8080.13,3284.49 8049.28,3053.18 "/>
  <polygon class="fil37" points="10701.54,2605.99 10716.97,2605.99 10732.38,2775.62 10701.54,2914.4 10670.71,2898.99 10686.12,2683.1 "/>
  <polygon class="fil57" points="8157.23,3747.08 8188.07,3747.08 8218.91,3885.87 8218.91,3993.8 8157.23,4009.22 8141.81,3978.39 8188.07,3978.39 8157.23,3855.02 "/>
  <polygon class="fil20" points="14726.19,1588.27 14787.87,1619.11 14926.66,1757.9 14880.38,1788.74 14772.45,1680.8 14726.19,1619.11 "/>
  <polygon class="fil58" points="21079.26,1141.09 21094.68,1187.35 21017.59,1279.87 20863.38,1310.71 20755.44,1310.71 20801.7,1279.87 21017.59,1233.6 "/>
  <polygon class="fil20" points="5643.75,3562.04 5674.59,3562.04 5643.75,3870.44 5628.33,3870.44 5612.92,3669.99 "/>
  <polygon class="fil59" points="693.91,3515.78 724.74,3515.78 724.74,3685.41 693.91,3777.93 663.07,3777.93 "/>
  <polygon class="fil60" points="3299.9,2313.01 3330.75,2328.43 3191.97,2467.21 3099.44,2575.15 3068.6,2544.32 3145.71,2467.21 "/>
  <polygon class="fil20" points="1372.39,1063.99 1387.81,1094.83 1295.3,1249.03 1187.35,1295.3 1125.67,1264.46 1264.46,1233.61 1341.55,1079.41 "/>
  <polygon class="fil16" points="786.42,2837.3 817.26,2868.14 817.26,3037.76 801.85,3084.03 771,3084.02 755.59,3114.86 "/>
  <polygon class="fil16" points="18087.77,2343.86 18118.61,2359.27 17918.15,2559.73 17887.31,2621.42 17871.89,2605.99 17871.89,2528.9 17948.99,2482.64 "/>
  <polygon class="fil13" points="6568.95,585.96 6584.38,616.81 6461.01,848.1 6414.75,863.53 6445.6,786.42 6538.12,601.38 "/>
  <polygon class="fil22" points="8465.63,1403.23 8712.35,1449.49 8727.77,1480.33 8558.14,1464.91 8450.2,1434.07 "/>
  <polygon class="fil61" points="13107.07,3824.18 13137.92,3824.18 13153.33,3901.28 13153.33,4009.22 13060.82,3993.79 13014.55,3947.53 13122.5,3978.38 "/>
  <polygon class="fil53" points="3084.02,2498.06 3114.86,2513.48 3084.02,2559.74 3099.43,2621.42 3099.43,2775.63 3068.6,2760.2 3053.17,2652.27 3053.17,2528.91 "/>
  <polygon class="fil62" points="13137.92,1356.97 13400.05,1403.23 13384.64,1434.07 13153.33,1403.23 "/>
  <polygon class="fil32" points="7710.04,1279.87 7895.09,1295.29 7956.77,1326.13 7956.77,1341.55 7787.15,1326.13 7710.05,1310.71 "/>
  <polygon class="fil63" points="19598.93,1511.16 19614.36,1542.01 19676.04,1526.59 19753.14,1680.79 19691.45,1649.95 19598.93,1557.43 "/>
  <polygon class="fil49" points="15589.71,3114.86 15605.13,3114.86 15605.13,3253.64 15589.71,3299.9 15558.87,3299.89 15543.45,3330.74 15558.87,3161.11 "/>
  <polygon class="fil22" points="15605.13,2960.65 15635.97,2960.65 15620.56,3161.11 15574.29,3130.28 15589.71,2976.07 "/>
  <polygon class="fil64" points="12999.13,3037.76 13029.98,3037.76 13045.4,3114.85 13045.4,3269.06 13014.55,3253.63 "/>
  <polygon class="fil16" points="20554.98,2929.82 20570.4,2929.82 20570.4,3068.6 20554.98,3099.43 20524.15,3099.43 20508.72,3145.71 20524.15,2976.08 "/>
  <polygon class="fil56" points="3222.8,3793.34 3253.64,3793.34 3269.06,3855.03 3269.06,4009.23 3207.38,4009.22 3207.38,3978.39 3253.64,3978.39 3222.8,3885.87 "/>
  <polygon class="fil51" points="22991.36,3669.98 23006.77,3669.98 23022.2,3962.96 22975.94,3870.44 "/>
  <polygon class="fil52" points="17995.25,3454.1 18026.08,3454.1 18041.51,3531.2 18041.51,3685.4 18010.66,3669.98 "/>
  <polygon class="fil65" points="18827.93,1526.59 18843.35,1557.43 18750.83,1634.53 18673.74,1603.69 18704.57,1572.84 "/>
  <polygon class="fil66" points="20493.3,3330.74 20524.15,3330.74 20508.72,3515.78 20462.46,3500.36 20477.87,3361.58 "/>
  <polygon class="fil67" points="3993.8,1495.75 4070.9,1511.16 4055.48,1572.85 3978.39,1619.11 3947.54,1634.53 3978.39,1572.85 4024.65,1557.43 3993.8,1542.01 "/>
  <polygon class="fil68" points="5597.5,3777.93 5628.33,3777.93 5643.76,3962.97 5582.07,3947.54 "/>
  <polygon class="fil69" points="4009.22,1526.59 4024.65,1557.43 3947.54,1634.53 3916.71,1634.53 3916.71,1603.69 3855.02,1588.27 "/>
  <polygon class="fil63" points="13400.05,1403.23 13600.51,1434.07 13554.25,1464.91 13415.47,1449.49 13384.63,1418.64 "/>
  <polygon class="fil13" points="21187.2,956.05 21202.63,986.89 21110.11,1156.52 21079.26,1125.67 21156.37,971.47 "/>
  <polygon class="fil70" points="13045.4,3176.54 13060.82,3176.54 13076.24,3377 13029.98,3377 "/>
  <polygon class="fil71" points="8943.65,1526.59 8974.5,1542.01 8881.98,1634.53 8835.72,1619.1 8866.56,1557.43 "/>
 </g>
</svg>
