<?xml version="1.0" encoding="UTF-8"?>
<!DOCTYPE svg PUBLIC "-//W3C//DTD SVG 1.1//EN" "http://www.w3.org/Graphics/SVG/1.1/DTD/svg11.dtd">
<!-- Creator: CorelDRAW -->
<svg xmlns="http://www.w3.org/2000/svg" xml:space="preserve" width="33.5306mm" height="33.3538mm" version="1.1" style="shape-rendering:geometricPrecision; text-rendering:geometricPrecision; image-rendering:optimizeQuality; fill-rule:evenodd; clip-rule:evenodd"
viewBox="0 0 2722.56 2708.2"
 xmlns:xlink="http://www.w3.org/1999/xlink"
 xmlns:xodm="http://www.corel.com/coreldraw/odm/2003">
 <defs>
  <style type="text/css">
   <![CDATA[
    .fil0 {fill:#060506;fill-rule:nonzero}
    .fil1 {fill:#090809;fill-rule:nonzero}
    .fil7 {fill:#0A0A0A;fill-rule:nonzero}
    .fil6 {fill:#0B0A0B;fill-rule:nonzero}
    .fil5 {fill:#0B0B0B;fill-rule:nonzero}
    .fil4 {fill:#3C7022;fill-rule:nonzero}
    .fil3 {fill:#3C7022;fill-rule:nonzero}
    .fil2 {fill:#FEFEFE;fill-rule:nonzero}
   ]]>
  </style>
 </defs>
 <g id="Capa_x0020_1">
  <metadata id="CorelCorpID_0Corel-Layer"/>
  <polygon class="fil0" points="1633.54,1217.97 2034.76,1217.97 2077.74,1232.31 2077.74,1303.95 2063.41,1318.28 1877.14,1318.28 1877.14,1447.24 2006.11,1461.57 2149.4,1518.89 2278.36,1619.19 2393,1748.15 2464.64,1934.43 2493.31,2034.73 2579.29,2106.38 2593.62,2135.04 2593.62,2249.68 2536.3,2321.32 2393,2349.99 2393,2407.3 2493.29,2407.29 2564.94,2450.27 2607.92,2536.25 2607.92,2693.87 2593.59,2708.2 1074.7,2708.2 1074.7,2507.59 1117.69,2435.94 1175.01,2407.28 1289.65,2407.29 1289.65,2349.97 1146.35,2335.64 1074.7,2278.32 1046.04,2206.68 1060.37,2120.7 1132.02,2049.05 1175.01,2034.72 1189.34,1891.42 1275.32,1719.47 1389.95,1590.51 1518.91,1504.53 1705.19,1447.22 1776.83,1447.24 1776.83,1318.28 1604.88,1318.28 1576.22,1303.95 1590.55,1232.3 "/>
  <polygon class="fil1" points="358.25,0 444.23,14.33 788.13,171.95 816.79,200.61 802.46,286.59 773.8,343.91 960.07,343.9 1361.29,358.23 1518.9,386.89 1676.52,472.87 2020.42,702.14 2221.03,845.43 2450.3,1003.05 2478.96,1031.71 2478.96,1117.69 2392.98,1189.34 2249.69,1203.67 1891.46,1074.7 1862.79,1060.37 1848.46,1132.02 1805.48,1175.01 1662.18,1203.67 1404.25,1146.35 960.06,1132.02 788.11,1089.04 630.49,1003.06 501.52,917.08 458.54,988.73 372.56,974.39 28.66,816.78 -0,788.11 14.33,716.47 200.61,315.25 343.91,14.34 "/>
  <polygon class="fil2" points="730.81,415.55 1447.26,458.53 1619.21,544.51 1834.15,687.8 2106.4,874.08 2392.98,1074.7 2364.32,1103.36 2235.36,1103.34 1834.15,960.05 1733.85,859.75 1561.9,773.77 1346.96,716.45 1246.66,702.12 1132.02,702.13 1146.35,759.44 1418.6,802.43 1590.55,859.75 1733.85,960.05 1776.83,1031.69 1762.5,1089.01 1733.84,1103.34 1633.54,1103.34 1461.6,1060.36 1303.98,1046.03 1017.39,1046.03 816.78,1003.04 673.48,917.06 544.52,831.08 587.5,702.12 716.47,429.87 "/>
  <polygon class="fil3" points="1762.51,1518.89 1877.14,1518.89 2049.09,1561.87 2192.39,1647.85 2292.69,1748.15 2378.67,1920.1 2393,2034.73 1260.98,2034.73 1275.32,1891.44 1361.29,1733.82 1490.26,1619.19 1633.55,1547.54 "/>
  <polygon class="fil4" points="401.24,85.98 687.82,214.94 716.48,229.27 673.5,358.24 429.9,874.08 372.58,888.42 114.66,773.78 100.33,716.47 343.92,200.62 "/>
  <polygon class="fil3" points="1303.97,2106.38 2478.96,2120.71 2507.62,2149.38 2507.62,2235.35 2464.64,2264.02 1175.01,2264 1132.03,2221.02 1146.36,2135.04 1160.69,2120.71 "/>
  <polygon class="fil3" points="1189.34,2493.27 2493.29,2493.27 2521.95,2536.25 2536.28,2636.55 1146.35,2636.55 1160.68,2536.25 "/>
  <polygon class="fil2" points="2278.36,2335.65 2307.02,2364.31 2292.69,2407.3 1375.62,2407.29 1375.62,2349.97 "/>
  <polygon class="fil5" points="2421.64,1303.95 2493.29,1318.28 2607.92,1418.59 2708.22,1561.88 2722.56,1633.53 2665.24,1662.19 2550.61,1518.9 2478.96,1432.92 2407.31,1375.6 "/>
  <polygon class="fil6" points="1189.34,1303.95 1246.65,1318.28 1232.32,1389.93 1132.02,1475.91 1031.72,1619.21 1003.06,1662.19 945.74,1647.86 931.41,1590.54 1017.39,1461.58 1160.68,1318.28 "/>
  <polygon class="fil7" points="2378.66,1432.91 2435.97,1461.57 2550.61,1576.2 2579.27,1647.85 2550.61,1676.51 2478.96,1662.18 2378.66,1547.55 2350,1504.56 2364.33,1447.25 "/>
  <polygon class="fil5" points="1246.65,1432.91 1303.97,1461.57 1289.64,1533.22 1189.34,1633.52 1160.67,1676.51 1089.03,1662.17 1103.36,1576.2 "/>
 </g>
</svg>
